<?xml version="1.0"?>
<svg xmlns="http://www.w3.org/2000/svg" xmlns:xlink="http://www.w3.org/1999/xlink" width="776.806519" height="398.856873">
	<defs>
		<marker id="CustomMarker-01" markerUnits="strokeWidth" markerWidth="21" markerHeight="9" viewBox="-21 -4.5 21 9" orient="auto-start-reverse">
			<path d="M 0 -0 L -14 -3, -14 -0.5, -14 0.5, -14 3 Z" fill="#000000" stroke="#000000" stroke-linejoin="round" />
		</marker>
		<marker id="CustomMarker-02" markerUnits="strokeWidth" markerWidth="21" markerHeight="9" viewBox="-21 -4.5 21 9" orient="auto-start-reverse">
			<path d="M 0 -0 L -14 -3, -14 -0.5, -14 0.5, -14 3 Z" fill="#000000" stroke="#000000" stroke-linejoin="round" />
		</marker>
		<marker id="CustomMarker-03" markerUnits="strokeWidth" markerWidth="15.000001" markerHeight="9" viewBox="-15 -4.5 15 9" orient="auto-start-reverse">
			<path d="M 0 -0 L -10 -3, -8 -0.5, -8 0.5, -10 3 Z" fill="#000000" stroke="#000000" stroke-linejoin="round" />
		</marker>
		<marker id="CustomMarker-04" markerUnits="strokeWidth" markerWidth="15.000001" markerHeight="9" viewBox="-15 -4.5 15 9" orient="auto-start-reverse">
			<path d="M 0 -0 L -10 -3, -8 -0.5, -8 0.5, -10 3 Z" fill="#000000" stroke="#000000" stroke-linejoin="round" />
		</marker>
		<marker id="CustomMarker-05" markerUnits="strokeWidth" markerWidth="21" markerHeight="9" viewBox="-21 -4.5 21 9" orient="auto-start-reverse">
			<path d="M 0 -0 L -14 -3, -14 -0.5, -14 0.5, -14 3 Z" fill="#000000" stroke="#000000" stroke-linejoin="round" />
		</marker>
		<marker id="CustomMarker-06" markerUnits="strokeWidth" markerWidth="21" markerHeight="9" viewBox="-21 -4.5 21 9" orient="auto-start-reverse">
			<path d="M 0 -0 L -14 -3, -14 -0.5, -14 0.5, -14 3 Z" fill="#000000" stroke="#000000" stroke-linejoin="round" />
		</marker>
		<marker id="CustomMarker-07" markerUnits="strokeWidth" markerWidth="21" markerHeight="9" viewBox="-21 -4.5 21 9" orient="auto-start-reverse">
			<path d="M 0 -0 L -14 -3, -14 -0.5, -14 0.5, -14 3 Z" fill="#000000" stroke="#000000" stroke-linejoin="round" />
		</marker>
		<marker id="CustomMarker-08" markerUnits="strokeWidth" markerWidth="21" markerHeight="9" viewBox="-21 -4.5 21 9" orient="auto-start-reverse">
			<path d="M 0 -0 L -14 -3, -14 -0.5, -14 0.5, -14 3 Z" fill="#000000" stroke="#000000" stroke-linejoin="round" />
		</marker>
		<marker id="CustomMarker-09" markerUnits="strokeWidth" markerWidth="15.000001" markerHeight="6" viewBox="-15 -3 15 6" orient="auto-start-reverse">
			<path d="M 0 -0 L -10 -2, -10 -0.5, -10 0.5, -10 2 Z" fill="#0006BF" stroke="#0006BF" stroke-linejoin="round" />
		</marker>
		<marker id="CustomMarker-10" markerUnits="strokeWidth" markerWidth="15.000001" markerHeight="6" viewBox="-15 -3 15 6" orient="auto-start-reverse">
			<path d="M 0 -0 L -10 -2, -10 -0.5, -10 0.5, -10 2 Z" fill="#0006BF" stroke="#0006BF" stroke-linejoin="round" />
		</marker>
	</defs>
	<rect x="-0" y="-0" width="776.806519" height="398.856873" stroke="none" fill="#FFFFFF" />
	<g transform="matrix(1 0 -0 1 758.282 69.7395)">
		<svg width="35.935379" height="35.8877335">
			<defs />
			<path d="M 10.1979 5.84907 C 10.0894 6.23817, 9.90411 6.59714, 9.64231 6.92551, 9.38051 7.25434, 9.06878 7.53863, 8.70802 7.77794, 8.31757 8.04694, 7.90147 8.24981, 7.45884 8.38656, 7.01666 8.5233, 6.57808 8.59168, 6.14309 8.59123 L 3.94118 8.59123, 3.01453 12.1899 C 2.98484 12.296, 2.97 12.3797, 2.97 12.4418, 2.97 12.4998, 2.98259 12.5358, 3.00733 12.5497, 3.07661 12.5934, 3.21246 12.6185, 3.41488 12.6257, 3.61775 12.6329, 3.83502 12.6365, 4.06713 12.6361, 4.20568 12.6365, 4.27495 12.7036, 4.27495 12.8376 L 4.27495 12.888, 4.24526 13.0175 C 4.19083 13.1615, 4.09457 13.2335, 3.95602 13.2335, 3.33841 13.2047, 2.71809 13.1903, 2.09553 13.1903, 1.46802 13.1903, 0.840507 13.2047, 0.212546 13.2335, 0.0793963 13.2335, 0.00787344 13.1714, -0.00247263 13.0463 L -0.00247263 12.9888, 0.0272161 12.8664 C 0.066801 12.7085, 0.163064 12.6316, 0.316006 12.6361, 0.548568 12.6365, 0.768534 12.6329, 0.975906 12.6257, 1.18373 12.6185, 1.33667 12.5934, 1.43563 12.5497, 1.52965 12.4975, 1.60117 12.368, 1.65065 12.1611 L 3.73381 4.04976 C 3.7635 3.94449, 3.77789 3.86308, 3.77789 3.80505, 3.77789 3.74792, 3.76575 3.71418, 3.741 3.70429, 3.67173 3.66155, 3.53723 3.63546, 3.33706 3.62557, 3.13688 3.61612, 2.91827 3.61117, 2.68076 3.61072, 2.54266 3.61117, 2.47339 3.5464, 2.47339 3.4164 L 2.47339 3.35882, 2.51792 3.23646 C 2.54761 3.09297, 2.63937 3.021, 2.79232 3.02055 L 7.54386 3.02055 C 7.97929 3.021, 8.38324 3.08937, 8.75615 3.22612, 9.12951 3.36287, 9.44934 3.56799, 9.71608 3.84103, 9.95809 4.09564, 10.1286 4.39792, 10.2275 4.74789, 10.2572 4.91163, 10.2721 5.07716, 10.2721 5.2445, 10.2721 5.43703, 10.2473 5.63855, 10.1979 5.84907 Z M 8.61895 5.81309 C 8.70307 5.51125, 8.75975 5.21841, 8.78944 4.93502 L 8.78944 4.80547 C 8.78944 4.58505, 8.72781 4.38353, 8.60411 4.2009, 8.44127 3.98543, 8.22355 3.83339, 7.95185 3.74432, 7.68016 3.6557, 7.38597 3.61117, 7.06974 3.61072 L 5.67572 3.61072 C 5.42382 3.61117, 5.27312 3.63051, 5.22364 3.66875, 5.17416 3.70743, 5.12243 3.84373, 5.068 4.07854 L 4.03744 8.05143, 5.89074 8.05143 C 6.21192 8.05188, 6.53354 8.00645, 6.85472 7.91514, 7.1759 7.82427, 7.47729 7.66818, 7.75888 7.44686, 8.01123 7.2314, 8.19791 6.97949, 8.31892 6.6916, 8.43992 6.40371, 8.53978 6.11087, 8.61895 5.81309 Z" stroke="none" fill="#000000" />
			<rect />
		</svg>
	</g>
	<path d="M 0 -152.667 L 0 152.667" fill="none" stroke="#000000" stroke-width="1.60000002" stroke-linecap="round" stroke-linejoin="round" transform="matrix(0.625 0 0 0.625 115.53 199.131)" />
	<ellipse cx="692.40336894989014" cy="465.85774517059326" rx="4.1999998092651367" ry="4.1999998092651367" stroke="none" fill="#000000" transform="matrix(0.625 0 0 0.625 -317.222 -135.572)" />
	<ellipse cx="692.40339350700378" cy="465.85776972770691" rx="2.7999999523162842" ry="2.7999999523162842" stroke="none" fill="#FFFFFF" transform="matrix(0.625 0 0 0.625 -317.222 -135.572)" />
	<ellipse cx="692.40336894989014" cy="605.19078350067139" rx="4.1999998092651367" ry="4.1999998092651367" stroke="none" fill="#000000" transform="matrix(0.625 0 0 0.625 -317.222 -135.572)" />
	<ellipse cx="692.40339350700378" cy="605.19080805778503" rx="2.7999999523162842" ry="2.7999999523162842" stroke="none" fill="#FFFFFF" transform="matrix(0.625 0 0 0.625 -317.222 -135.572)" />
	<path d="M 0 -305.486 L 0 305.486" fill="none" stroke="#000000" stroke-width="1.60000002" stroke-linecap="round" stroke-linejoin="round" transform="matrix(0.625 0 0 0.625 753.929 199.428)" />
	<ellipse cx="1713.8418455123901" cy="350.95207500457764" rx="4.1999998092651367" ry="4.1999998092651367" stroke="none" fill="#000000" transform="matrix(0.625 0 0 0.625 -317.222 -135.572)" />
	<g transform="matrix(1 0 -0 1 99.0286 137.09)">
		<svg width="41.9907646" height="44.9458008">
			<defs />
			<path d="M 7.76608 6.28091 C 7.73639 6.41586, 7.66262 6.48288, 7.54386 6.48243, 7.53396 6.49233, 7.50922 6.49727, 7.46964 6.49683, 7.4449 6.49727, 7.42511 6.49233, 7.41026 6.48243 L 7.34369 6.48243 C 7.21504 6.48288, 7.15071 6.43475, 7.15071 6.33849 L 7.15071 6.2881 C 7.21009 5.93364, 7.23978 5.60481, 7.23978 5.30208 L 7.23978 5.02858 C 7.21009 4.65972, 7.12732 4.34169, 6.99147 4.07539, 6.85562 3.8091, 6.6568 3.60307, 6.395 3.45643, 6.1332 3.31024, 5.80167 3.23691, 5.40133 3.23646, 5.16921 3.23691, 4.93305 3.28729, 4.69329 3.38806, 4.45399 3.48882, 4.23042 3.62557, 4.0226 3.79785, 3.79544 3.98543, 3.61011 4.19775, 3.46661 4.43526, 3.32357 4.67277, 3.21965 4.91613, 3.15488 5.16533, 3.10585 5.34346, 3.07886 5.5135, 3.07346 5.67634, 3.07346 5.90215, 3.12294 6.11807, 3.2219 6.32409, 3.3654 6.67001, 3.62225 6.89088, 3.99291 6.98624 L 5.69776 7.46126 C 6.00904 7.55302, 6.27489 7.69832, 6.49486 7.89714, 6.71483 8.09642, 6.88036 8.33168, 6.99147 8.60248, 7.10303 8.87372, 7.16825 9.16971, 7.18805 9.49089 L 7.18805 9.62044 C 7.18805 9.89933, 7.14846 10.1845, 7.06929 10.4769, 6.96583 10.8804, 6.80029 11.2691, 6.57268 11.6433, 6.34552 12.0176, 6.06392 12.3536, 5.72745 12.6505, 5.40627 12.9244, 5.05451 13.1439, 4.67125 13.309, 4.288 13.4746, 3.90384 13.5573, 3.51834 13.5573, 2.95021 13.5573, 2.46574 13.4665, 2.06539 13.2838, 1.66505 13.1021, 1.36861 12.8718, 1.17563 12.5929 L 0.44196 13.4638 C 0.378085 13.5263, 0.31106 13.5573, 0.241786 13.5573 L 0.197253 13.5573 C 0.0740002 13.5573, 0.00697565 13.5097, -0.00292063 13.4134, -0.00292063 13.3846, 0.00472647 13.3585, 0.019121 13.3342 L 0.879194 9.96591 C 0.908883 9.83186, 0.9957 9.76258, 1.13875 9.75719 L 1.30158 9.75719 C 1.36096 9.75764, 1.41539 9.78148, 1.46487 9.82916, 1.48466 9.86784, 1.49456 9.90158, 1.49456 9.92992, 1.49456 9.94971, 1.48961 9.97355, 1.47972 10.0019, 1.39065 10.3478, 1.34612 10.6694, 1.34612 10.9663, 1.34612 11.4418, 1.46262 11.8448, 1.69473 12.1755, 2.06539 12.7085, 2.71315 12.9748, 3.6371 12.9744, 3.86921 12.9748, 4.10537 12.9208, 4.34513 12.8129, 4.58489 12.7049, 4.80845 12.5596, 5.01582 12.377, 5.24344 12.1665, 5.43461 11.9326, 5.59025 11.6757, 5.74589 11.4193, 5.86105 11.1539, 5.93482 10.88, 5.9843 10.6595, 6.00904 10.4535, 6.00904 10.261, 6.00904 10.0217, 5.97711 9.79137, 5.91278 9.57006, 5.76479 9.2012, 5.49039 8.96369, 5.09004 8.85753 L 3.40723 8.38251 C 3.10585 8.30154, 2.8463 8.16839, 2.62858 7.98351, 2.41131 7.79908, 2.24218 7.57956, 2.12117 7.32496, 2.00017 7.07081, 1.92955 6.79011, 1.90975 6.48243 L 1.90975 6.32409 C 1.90975 6.08478, 1.93944 5.83288, 1.99882 5.56838, 2.10273 5.18512, 2.26827 4.81806, 2.49543 4.46765, 2.72304 4.11768, 3.00464 3.80775, 3.34021 3.53875, 3.65689 3.2801, 4.00416 3.07273, 4.38201 2.91664, 4.76032 2.76099, 5.13458 2.68272, 5.50524 2.68227, 6.01444 2.68272, 6.43413 2.77764, 6.76521 2.96702, 7.09628 3.15684, 7.33604 3.38086, 7.48448 3.63951 L 8.19611 2.78304 C 8.2357 2.71646, 8.30002 2.68272, 8.38864 2.68227 L 8.45566 2.68227 C 8.57442 2.68272, 8.63335 2.7403, 8.63335 2.85501 L 8.63335 2.91259 Z" stroke="none" fill="#000000" />
			<path d="M 1.86424 2.51203 C 1.35514 2.49591, 0.859898 2.48785, 0.378257 2.48785, -0.103133 2.48785, -0.598376 2.49591, -1.10748 2.51203 L -1.10748 2.16541, -0.82106 2.16541 C -0.72987 2.16566, -0.643971 2.1644, -0.563866 2.16163, -0.483508 2.15911, -0.407433 2.15231, -0.335388 2.14148, -0.263344 2.1309, -0.201123 2.12007, -0.148727 2.10898, -0.104392 2.10117, -0.067866 2.07649, -0.0388969 2.03467, -0.0096761 1.99311, 0.00468242 1.94676, 0.00468242 1.89537 L 0.00468242 -2.64697 C -0.133361 -2.57946, -0.303648 -2.52832, -0.505676 -2.49356, -0.707703 -2.45855, -0.928875 -2.44116, -1.1697 -2.44142 L -1.1697 -2.78401 C -0.837685 -2.78375, -0.531118 -2.8233, -0.250245 -2.90265, 0.0306287 -2.98175, 0.273464 -3.13037, 0.478011 -3.34827 L 0.606734 -3.34827 C 0.697923 -3.34802, 0.743518 -3.30368, 0.743518 -3.21527 L 0.743518 1.89537 C 0.743518 1.94928, 0.757372 1.99638, 0.785082 2.03669, 0.812791 2.07699, 0.853096 2.10117, 0.905492 2.10898, 0.949827 2.12007, 1.00676 2.1309, 1.07578 2.14148, 1.1448 2.15231, 1.22289 2.15911, 1.31005 2.16163, 1.39721 2.1644, 1.48235 2.16566, 1.56548 2.16541 L 1.86424 2.16541, 1.86424 2.51203 Z" stroke="none" fill="#000000" transform="matrix(1.12 0 0 1 10.5715 12.8121)" />
			<rect />
		</svg>
	</g>
	<g transform="matrix(1 0 -0 1 98.6868 243.905)">
		<svg width="44.9446106" height="44.9458008">
			<defs />
			<path d="M 7.76608 6.28091 C 7.73639 6.41586, 7.66262 6.48288, 7.54386 6.48243, 7.53396 6.49233, 7.50922 6.49727, 7.46964 6.49683, 7.4449 6.49727, 7.42511 6.49233, 7.41026 6.48243 L 7.34369 6.48243 C 7.21504 6.48288, 7.15071 6.43475, 7.15071 6.33849 L 7.15071 6.2881 C 7.21009 5.93364, 7.23978 5.60481, 7.23978 5.30208 L 7.23978 5.02858 C 7.21009 4.65972, 7.12732 4.34169, 6.99147 4.07539, 6.85562 3.8091, 6.6568 3.60307, 6.395 3.45643, 6.1332 3.31024, 5.80167 3.23691, 5.40133 3.23646, 5.16921 3.23691, 4.93305 3.28729, 4.69329 3.38806, 4.45399 3.48882, 4.23042 3.62557, 4.0226 3.79785, 3.79544 3.98543, 3.61011 4.19775, 3.46661 4.43526, 3.32357 4.67277, 3.21965 4.91613, 3.15488 5.16533, 3.10585 5.34346, 3.07886 5.5135, 3.07346 5.67634, 3.07346 5.90215, 3.12294 6.11807, 3.2219 6.32409, 3.3654 6.67001, 3.62225 6.89088, 3.99291 6.98624 L 5.69776 7.46126 C 6.00904 7.55302, 6.27489 7.69832, 6.49486 7.89714, 6.71483 8.09642, 6.88036 8.33168, 6.99147 8.60248, 7.10303 8.87372, 7.16825 9.16971, 7.18805 9.49089 L 7.18805 9.62044 C 7.18805 9.89933, 7.14846 10.1845, 7.06929 10.4769, 6.96583 10.8804, 6.80029 11.2691, 6.57268 11.6433, 6.34552 12.0176, 6.06392 12.3536, 5.72745 12.6505, 5.40627 12.9244, 5.05451 13.1439, 4.67125 13.309, 4.288 13.4746, 3.90384 13.5573, 3.51834 13.5573, 2.95021 13.5573, 2.46574 13.4665, 2.06539 13.2838, 1.66505 13.1021, 1.36861 12.8718, 1.17563 12.5929 L 0.44196 13.4638 C 0.378085 13.5263, 0.31106 13.5573, 0.241786 13.5573 L 0.197253 13.5573 C 0.0740002 13.5573, 0.00697565 13.5097, -0.00292063 13.4134, -0.00292063 13.3846, 0.00472647 13.3585, 0.019121 13.3342 L 0.879194 9.96591 C 0.908883 9.83186, 0.9957 9.76258, 1.13875 9.75719 L 1.30158 9.75719 C 1.36096 9.75764, 1.41539 9.78148, 1.46487 9.82916, 1.48466 9.86784, 1.49456 9.90158, 1.49456 9.92992, 1.49456 9.94971, 1.48961 9.97355, 1.47972 10.0019, 1.39065 10.3478, 1.34612 10.6694, 1.34612 10.9663, 1.34612 11.4418, 1.46262 11.8448, 1.69473 12.1755, 2.06539 12.7085, 2.71315 12.9748, 3.6371 12.9744, 3.86921 12.9748, 4.10537 12.9208, 4.34513 12.8129, 4.58489 12.7049, 4.80845 12.5596, 5.01582 12.377, 5.24344 12.1665, 5.43461 11.9326, 5.59025 11.6757, 5.74589 11.4193, 5.86105 11.1539, 5.93482 10.88, 5.9843 10.6595, 6.00904 10.4535, 6.00904 10.261, 6.00904 10.0217, 5.97711 9.79137, 5.91278 9.57006, 5.76479 9.2012, 5.49039 8.96369, 5.09004 8.85753 L 3.40723 8.38251 C 3.10585 8.30154, 2.8463 8.16839, 2.62858 7.98351, 2.41131 7.79908, 2.24218 7.57956, 2.12117 7.32496, 2.00017 7.07081, 1.92955 6.79011, 1.90975 6.48243 L 1.90975 6.32409 C 1.90975 6.08478, 1.93944 5.83288, 1.99882 5.56838, 2.10273 5.18512, 2.26827 4.81806, 2.49543 4.46765, 2.72304 4.11768, 3.00464 3.80775, 3.34021 3.53875, 3.65689 3.2801, 4.00416 3.07273, 4.38201 2.91664, 4.76032 2.76099, 5.13458 2.68272, 5.50524 2.68227, 6.01444 2.68272, 6.43413 2.77764, 6.76521 2.96702, 7.09628 3.15684, 7.33604 3.38086, 7.48448 3.63951 L 8.19611 2.78304 C 8.2357 2.71646, 8.30002 2.68272, 8.38864 2.68227 L 8.45566 2.68227 C 8.57442 2.68272, 8.63335 2.7403, 8.63335 2.85501 L 8.63335 2.91259 Z" stroke="none" fill="#000000" />
			<path d="M 1.87894 2.51203 L -1.4996 2.51203, -1.4996 2.29035 C -1.4996 2.27448, -1.49129 2.2503, -1.47466 2.21781 L -0.1174 0.742655 C 0.0433152 0.565566, 0.205793 0.384195, 0.370539 0.198793, 0.535284 0.0133917, 0.682396 -0.17604, 0.812379 -0.369503, 0.942362 -0.562965, 1.04615 -0.762474, 1.12373 -0.968027, 1.20132 -1.17358, 1.23986 -1.38921, 1.23986 -1.61517, 1.23986 -1.80561, 1.21517 -1.98371, 1.1653 -2.14895, 1.11542 -2.3142, 1.04363 -2.4593, 0.949415 -2.58425, 0.855203 -2.70919, 0.737563 -2.80995, 0.596497 -2.88653, 0.455431 -2.96311, 0.292197 -3.0014, 0.106795 -3.00165, -0.169796 -3.0014, -0.414143 -2.91877, -0.625743 -2.75353, -0.837342 -2.58828, -0.977905 -2.40615, -1.04718 -2.20765, -1.06078 -2.20211, -1.03861 -2.19934, -0.980676 -2.19959 L -0.910143 -2.19959 C -0.827014 -2.18044, -0.755221 -2.15147, -0.694261 -2.11268, -0.6333 -2.07364, -0.582163 -2.01998, -0.540599 -1.95146, -0.499035 -1.88294, -0.478379 -1.80032, -0.478379 -1.70384, -0.478379 -1.54237, -0.530775 -1.41868, -0.636071 -1.33278, -0.741367 -1.24663, -0.859006 -1.20381, -0.988989 -1.20406, -1.11343 -1.20381, -1.22956 -1.24663, -1.33762 -1.33278, -1.44544 -1.41868, -1.4996 -1.54237, -1.4996 -1.70384, -1.4996 -1.92929, -1.45526 -2.14291, -1.36659 -2.34443, -1.27792 -2.54596, -1.15776 -2.72053, -1.00561 -2.86839, -0.853464 -3.01601, -0.673604 -3.13289, -0.466035 -3.21904, -0.258466 -3.30494, -0.0383018 -3.34802, 0.193954 -3.34827, 0.481629 -3.34802, 0.745372 -3.3057, 0.984681 -3.22106, 1.22399 -3.13642, 1.42803 -3.01475, 1.59681 -2.8563, 1.76558 -2.6976, 1.89783 -2.51422, 1.99331 -2.30614, 2.08878 -2.09782, 2.13639 -1.86758, 2.13639 -1.61517, 2.13639 -1.33556, 2.07291 -1.07811, 1.94544 -0.843083, 1.81823 -0.607804, 1.66054 -0.392174, 1.47237 -0.196193, 1.2842 4.07696e-005, 1.08418 0.184687, 0.872584 0.357997, 0.660985 0.531307, 0.469285 0.699831, 0.297738 0.863569 L -0.656979 1.76236, 0.592466 1.76236 C 0.766784 1.76262, 0.929514 1.76136, 1.08015 1.75858, 1.23104 1.75607, 1.35901 1.75052, 1.46406 1.74246, 1.56935 1.7344, 1.62326 1.72911, 1.62578 1.72609, 1.64795 1.70745, 1.66885 1.66991, 1.68825 1.61349, 1.70765 1.55706, 1.72553 1.49056, 1.74216 1.41398, 1.75878 1.3374, 1.77541 1.25956, 1.79203 1.18021, 1.80866 1.10111, 1.82377 1.01421, 1.83763 0.919995 L 2.1447 0.919995 Z" stroke="none" fill="#000000" transform="matrix(1.12 0 0 1 10.9038 12.8121)" />
			<rect />
		</svg>
	</g>
	<path d="M -69.6665 9.76574e-005 L 69.6665 9.76574e-005" fill="none" stroke="#000000" stroke-width="1.20000005" stroke-linecap="round" stroke-linejoin="round" marker-start="url(#CustomMarker-01)" marker-end="url(#CustomMarker-02)" transform="matrix(4.71862e-008 0.625 -0.625 4.71862e-008 105.267 199.131)" />
	<path d="M -69.6665 -15.1827 L -69.6665 15.1827" fill="none" stroke="#000000" stroke-width="0.800000012" stroke-linecap="round" stroke-linejoin="round" transform="matrix(4.71862e-008 0.625 -0.625 4.71862e-008 105.267 199.131)" />
	<path d="M 69.6665 -15.1827 L 69.6665 15.1827" fill="none" stroke="#000000" stroke-width="0.800000012" stroke-linecap="round" stroke-linejoin="round" transform="matrix(4.71862e-008 0.625 -0.625 4.71862e-008 105.267 199.131)" />
	<g transform="matrix(1 0 -0 1 92.2711 190.623)">
		<svg width="27.073843" height="38.9535408">
			<defs />
			<path d="M 4.82532 11.5925 C 4.7367 11.9002, 4.69217 12.1687, 4.69217 12.3986, 4.69217 12.4616, 4.69712 12.5214, 4.70701 12.5785, 4.73175 12.8093, 4.84781 12.9244, 5.05518 12.924, 5.15909 12.9244, 5.2567 12.8812, 5.34802 12.7949, 5.43979 12.7085, 5.5239 12.5803, 5.60037 12.4098, 5.67685 12.2398, 5.74972 12.0356, 5.81899 11.7981, 5.88827 11.5606, 5.95979 11.3028, 6.03356 11.0239, 6.06325 10.8998, 6.14737 10.8372, 6.28591 10.8368 L 6.4564 10.8368 C 6.58505 10.8372, 6.64893 10.8899, 6.64893 10.9951 L 6.64893 11.0455 C 6.59 11.2812, 6.52342 11.5331, 6.4492 11.8017, 6.37498 12.0707, 6.27602 12.3199, 6.15231 12.5502, 6.02906 12.7805, 5.87342 12.9798, 5.68539 13.1475, 5.49781 13.3153, 5.263 13.399, 4.98096 13.399, 4.6058 13.399, 4.30532 13.2951, 4.0804 13.0864, 3.85549 12.8777, 3.72594 12.6653, 3.6913 12.449, 3.52306 12.6415, 3.27251 12.848, 2.93874 13.0684, 2.60541 13.2888, 2.2532 13.399, 1.88254 13.399, 1.49209 13.399, 1.16461 13.3009, 0.900111 13.1044, 0.635611 12.9078, 0.429589 12.6604, 0.281146 12.3626, 0.103463 12.0081, 0.00944906 11.6267, -0.000447214 11.2182 L -0.000447214 11.1103 C -0.000447214 10.7315, 0.051733 10.3528, 0.155194 9.9731, 0.273949 9.55611, 0.439486 9.14362, 0.651805 8.73562, 0.864574 8.32808, 1.14617 7.94887, 1.49703 7.59801, 1.78402 7.31057, 2.1115 7.06856, 2.47946 6.87153, 2.84742 6.67496, 3.22168 6.57645, 3.60223 6.57599, 3.93331 6.57645, 4.20276 6.66416, 4.41013 6.83915, 4.61795 7.01458, 4.74885 7.16167, 4.80328 7.28133 L 5.60397 4.1865 C 5.64356 4.02861, 5.66785 3.90851, 5.67774 3.82664 L 5.67774 3.81944 C 5.67774 3.77176, 5.66065 3.73577, 5.62601 3.71148, 5.58193 3.6737, 5.47802 3.64716, 5.31473 3.63276, 5.15189 3.61837, 4.96387 3.61117, 4.7511 3.61072, 4.613 3.61117, 4.54373 3.5464, 4.54373 3.4164 L 4.54373 3.35882, 4.58826 3.23646 C 4.61795 3.12671, 4.70701 3.05473, 4.85501 3.02055 L 6.26342 2.90539, 6.80457 2.86221, 6.83426 2.86221 C 6.89363 2.86266, 6.94581 2.88425, 6.9899 2.92698, 7.00519 2.97061, 7.01239 3.01155, 7.01239 3.04933 L 7.01239 3.09972 Z M 4.52888 8.3969 C 4.50909 8.31099, 4.492 8.22102, 4.47715 8.12746, 4.46231 8.03389, 4.43982 7.94168, 4.41013 7.84991, 4.33141 7.625, 4.21895 7.43652, 4.0732 7.28538, 3.92746 7.13423, 3.74303 7.05866, 3.52081 7.05821, 3.31344 7.05866, 3.10832 7.13333, 2.90545 7.28178, 2.70303 7.43067, 2.5177 7.6223, 2.34946 7.85711, 2.1124 8.18863, 1.93472 8.5332, 1.81596 8.89037, 1.69721 9.24798, 1.58835 9.62089, 1.48939 10.0091, 1.39087 10.3932, 1.30945 10.7653, 1.24468 11.1247, 1.20554 11.3073, 1.18575 11.48, 1.18575 11.6429, 1.18575 11.8161, 1.20554 11.9838, 1.24468 12.1467, 1.28966 12.3725, 1.36973 12.5587, 1.48579 12.7049, 1.60184 12.8516, 1.76378 12.9244, 1.97115 12.924, 2.19877 12.9244, 2.42728 12.8453, 2.65714 12.6869, 2.88701 12.5286, 3.10067 12.3343, 3.29815 12.1035, 3.37732 12.0081, 3.45289 11.9159, 3.52441 11.8268, 3.59639 11.7382, 3.65936 11.6433, 3.71334 11.5421 L 4.52888 8.3969 Z" stroke="none" fill="#000000" />
			<rect />
		</svg>
	</g>
	<path d="M -582.072 0 L 582.072 0" fill="none" stroke="#000000" stroke-width="0.800000012" stroke-linecap="round" stroke-linejoin="round" stroke-dasharray="2.804, 1.996" transform="matrix(0.625 0 0 0.625 390.134 199.131)" />
	<path d="M -510.72 57.4528 L 510.719 -57.4529" fill="none" stroke="#000000" stroke-width="1.60000002" stroke-linecap="round" stroke-linejoin="round" marker-end="url(#CustomMarker-03)" transform="matrix(0.625 0 0 0.625 434.73 119.682)" />
	<path d="M -510.72 127.119 L 510.719 -127.12" fill="none" stroke="#000000" stroke-width="1.60000002" stroke-linecap="round" stroke-linejoin="round" marker-end="url(#CustomMarker-04)" transform="matrix(0.625 0 0 0.625 434.73 163.223)" />
	<path d="M 0 -33.8988 L 0 33.899" fill="none" stroke="#000000" stroke-width="1.60000002" stroke-linecap="round" stroke-linejoin="round" transform="matrix(0.625 0 0 0.625 37.8652 155.59)" />
	<path d="M 0 -33.8988 L 0 33.899" fill="none" stroke="#000000" stroke-width="1.60000002" stroke-linecap="round" stroke-linejoin="round" transform="matrix(0.625 0 0 0.625 37.8652 242.673)" />
	<ellipse cx="568.13902568817139" cy="535.52440166473389" rx="4.1999998092651367" ry="4.1999998092651367" stroke="none" fill="#000000" transform="matrix(0.625 0 0 0.625 -317.222 -135.572)" />
	<g transform="matrix(1 0 -0 1 38.6887 197.991)">
		<svg width="30.027689" height="38.9535408">
			<defs />
			<path d="M 7.76698 6.28091 C 7.73729 6.41586, 7.66352 6.48288, 7.54476 6.48243, 7.53486 6.49233, 7.51012 6.49727, 7.47054 6.49683, 7.44625 6.49727, 7.42646 6.49233, 7.41116 6.48243 L 7.34459 6.48243 C 7.21639 6.48288, 7.15206 6.43475, 7.15206 6.33849 L 7.15206 6.2881 C 7.21144 5.93364, 7.24068 5.60481, 7.24068 5.30208 L 7.24068 5.02858 C 7.21099 4.65972, 7.12822 4.34169, 6.99237 4.07539, 6.85652 3.8091, 6.6577 3.60307, 6.3959 3.45643, 6.1341 3.31024, 5.80302 3.23691, 5.40268 3.23646, 5.17056 3.23691, 4.93485 3.28729, 4.69509 3.38806, 4.45533 3.48882, 4.23177 3.62557, 4.02395 3.79785, 3.79724 3.98543, 3.61191 4.19775, 3.46841 4.43526, 3.32536 4.67277, 3.22145 4.91613, 3.15713 5.16533, 3.10765 5.34346, 3.08066 5.5135, 3.07526 5.67634, 3.07526 5.90215, 3.12474 6.11807, 3.2237 6.32409, 3.3672 6.67001, 3.62405 6.89088, 3.99471 6.98624 L 5.69911 7.46126 C 6.01039 7.55302, 6.27624 7.69832, 6.49621 7.89714, 6.71618 8.09642, 6.88171 8.33168, 6.99282 8.60248, 7.10393 8.87372, 7.16915 9.16971, 7.18895 9.49089 L 7.18895 9.62044 C 7.18895 9.89933, 7.14936 10.1845, 7.07019 10.4769, 6.96673 10.8804, 6.80119 11.2691, 6.57358 11.6433, 6.34642 12.0176, 6.06482 12.3536, 5.7288 12.6505, 5.40762 12.9244, 5.05586 13.1439, 4.6726 13.309, 4.2898 13.4746, 3.90564 13.5573, 3.52014 13.5573, 2.95201 13.5573, 2.46799 13.4665, 2.06764 13.2838, 1.66729 13.1021, 1.37086 12.8718, 1.17788 12.5929 L 0.444209 13.4638 C 0.380334 13.5263, 0.313309 13.5573, 0.244035 13.5573 L 0.199952 13.5573 C 0.0766991 13.5573, 0.00967455 13.5097, -0.000221729 13.4134, -0.000221729 13.3846, 0.00742537 13.3585, 0.0218199 13.3342 L 0.881443 9.96591 C 0.911132 9.83186, 0.997949 9.76258, 1.14099 9.75719 L 1.30428 9.75719 C 1.36366 9.75764, 1.41764 9.78148, 1.46712 9.82916, 1.48691 9.86784, 1.49681 9.90158, 1.49681 9.92992, 1.49681 9.94971, 1.49186 9.97355, 1.48196 10.0019, 1.3929 10.3478, 1.34837 10.6694, 1.34837 10.9663, 1.34837 11.4418, 1.46487 11.8448, 1.69698 12.1755, 2.06764 12.7085, 2.71495 12.9748, 3.6389 12.9744, 3.87101 12.9748, 4.10717 12.9208, 4.34648 12.8129, 4.58624 12.7049, 4.8098 12.5596, 5.01717 12.377, 5.24478 12.1665, 5.43596 11.9326, 5.5916 11.6757, 5.74724 11.4193, 5.8624 11.1539, 5.93617 10.88, 5.98565 10.6595, 6.01039 10.4535, 6.01039 10.261, 6.01039 10.0217, 5.97846 9.79137, 5.91413 9.57006, 5.76614 9.2012, 5.49174 8.96369, 5.09139 8.85753 L 3.40903 8.38251 C 3.10765 8.30154, 2.84855 8.16839, 2.63083 7.98351, 2.41356 7.79908, 2.24443 7.57956, 2.12342 7.32496, 2.00242 7.07081, 1.93179 6.79011, 1.912 6.48243 L 1.912 6.32409 C 1.912 6.08478, 1.94169 5.83288, 2.00062 5.56838, 2.10453 5.18512, 2.27007 4.81806, 2.49723 4.46765, 2.72484 4.11768, 3.00644 3.80775, 3.34246 3.53875, 3.65869 3.2801, 4.00596 3.07273, 4.38381 2.91664, 4.76167 2.76099, 5.13593 2.68272, 5.50659 2.68227, 6.01579 2.68272, 6.43548 2.77764, 6.76656 2.96702, 7.09763 3.15684, 7.33739 3.38086, 7.48538 3.63951 L 8.19701 2.78304 C 8.2366 2.71646, 8.30092 2.68272, 8.38954 2.68227 L 8.45611 2.68227 C 8.57487 2.68272, 8.63425 2.7403, 8.63425 2.85501 L 8.63425 2.91259 Z" stroke="none" fill="#000000" />
			<rect />
		</svg>
	</g>
	<g transform="matrix(1 0 -0 1 20.2912 157.377)">
		<svg width="39.0369186" height="38.9535408">
			<defs />
			<path d="M 7.76608 6.28091 C 7.73639 6.41586, 7.66262 6.48288, 7.54386 6.48243, 7.53396 6.49233, 7.50922 6.49727, 7.46964 6.49683, 7.4449 6.49727, 7.42511 6.49233, 7.41026 6.48243 L 7.34369 6.48243 C 7.21504 6.48288, 7.15071 6.43475, 7.15071 6.33849 L 7.15071 6.2881 C 7.21009 5.93364, 7.23978 5.60481, 7.23978 5.30208 L 7.23978 5.02858 C 7.21009 4.65972, 7.12732 4.34169, 6.99147 4.07539, 6.85562 3.8091, 6.6568 3.60307, 6.395 3.45643, 6.1332 3.31024, 5.80167 3.23691, 5.40133 3.23646, 5.16921 3.23691, 4.93305 3.28729, 4.69329 3.38806, 4.45399 3.48882, 4.23042 3.62557, 4.0226 3.79785, 3.79544 3.98543, 3.61011 4.19775, 3.46661 4.43526, 3.32357 4.67277, 3.21965 4.91613, 3.15488 5.16533, 3.10585 5.34346, 3.07886 5.5135, 3.07346 5.67634, 3.07346 5.90215, 3.12294 6.11807, 3.2219 6.32409, 3.3654 6.67001, 3.62225 6.89088, 3.99291 6.98624 L 5.69776 7.46126 C 6.00904 7.55302, 6.27489 7.69832, 6.49486 7.89714, 6.71483 8.09642, 6.88036 8.33168, 6.99147 8.60248, 7.10303 8.87372, 7.16825 9.16971, 7.18805 9.49089 L 7.18805 9.62044 C 7.18805 9.89933, 7.14846 10.1845, 7.06929 10.4769, 6.96583 10.8804, 6.80029 11.2691, 6.57268 11.6433, 6.34552 12.0176, 6.06392 12.3536, 5.72745 12.6505, 5.40627 12.9244, 5.05451 13.1439, 4.67125 13.309, 4.288 13.4746, 3.90384 13.5573, 3.51834 13.5573, 2.95021 13.5573, 2.46574 13.4665, 2.06539 13.2838, 1.66505 13.1021, 1.36861 12.8718, 1.17563 12.5929 L 0.44196 13.4638 C 0.378085 13.5263, 0.31106 13.5573, 0.241786 13.5573 L 0.197253 13.5573 C 0.0740002 13.5573, 0.00697565 13.5097, -0.00292063 13.4134, -0.00292063 13.3846, 0.00472647 13.3585, 0.019121 13.3342 L 0.879194 9.96591 C 0.908883 9.83186, 0.9957 9.76258, 1.13875 9.75719 L 1.30158 9.75719 C 1.36096 9.75764, 1.41539 9.78148, 1.46487 9.82916, 1.48466 9.86784, 1.49456 9.90158, 1.49456 9.92992, 1.49456 9.94971, 1.48961 9.97355, 1.47972 10.0019, 1.39065 10.3478, 1.34612 10.6694, 1.34612 10.9663, 1.34612 11.4418, 1.46262 11.8448, 1.69473 12.1755, 2.06539 12.7085, 2.71315 12.9748, 3.6371 12.9744, 3.86921 12.9748, 4.10537 12.9208, 4.34513 12.8129, 4.58489 12.7049, 4.80845 12.5596, 5.01582 12.377, 5.24344 12.1665, 5.43461 11.9326, 5.59025 11.6757, 5.74589 11.4193, 5.86105 11.1539, 5.93482 10.88, 5.9843 10.6595, 6.00904 10.4535, 6.00904 10.261, 6.00904 10.0217, 5.97711 9.79137, 5.91278 9.57006, 5.76479 9.2012, 5.49039 8.96369, 5.09004 8.85753 L 3.40723 8.38251 C 3.10585 8.30154, 2.8463 8.16839, 2.62858 7.98351, 2.41131 7.79908, 2.24218 7.57956, 2.12117 7.32496, 2.00017 7.07081, 1.92955 6.79011, 1.90975 6.48243 L 1.90975 6.32409 C 1.90975 6.08478, 1.93944 5.83288, 1.99882 5.56838, 2.10273 5.18512, 2.26827 4.81806, 2.49543 4.46765, 2.72304 4.11768, 3.00464 3.80775, 3.34021 3.53875, 3.65689 3.2801, 4.00416 3.07273, 4.38201 2.91664, 4.76032 2.76099, 5.13458 2.68272, 5.50524 2.68227, 6.01444 2.68272, 6.43413 2.77764, 6.76521 2.96702, 7.09628 3.15684, 7.33604 3.38086, 7.48448 3.63951 L 8.19611 2.78304 C 8.2357 2.71646, 8.30002 2.68272, 8.38864 2.68227 L 8.45566 2.68227 C 8.57442 2.68272, 8.63335 2.7403, 8.63335 2.85501 L 8.63335 2.91259 Z" stroke="none" fill="#000000" />
			<path d="M 10.2302 7.95067 C 10.1906 8.06133, 10.1241 8.11666, 10.0301 8.11621 L 9.97067 8.11621, 9.92614 8.09462 C 9.83258 8.07123, 9.7804 8.00645, 9.7705 7.90029 L 9.7705 7.84991, 10.5195 3.20767 C 10.5541 2.98726, 10.6589 2.82082, 10.8343 2.70791, 11.0098 2.59546, 11.1866 2.53878, 11.3642 2.53833, 11.5568 2.53878, 11.7124 2.59861, 11.8312 2.71826, 11.9054 2.79068, 11.9423 2.8865, 11.9423 3.00615, 11.9423 3.09297, 11.9202 3.19373, 11.8757 3.30844 Z" stroke="none" fill="#000000" />
			<rect />
		</svg>
	</g>
	<ellipse cx="568.13902568817139" cy="499.75679302215576" rx="4.1999998092651367" ry="4.1999998092651367" stroke="none" fill="#000000" transform="matrix(0.625 0 0 0.625 -317.222 -135.572)" />
	<path d="M -35.7676 0 L 35.7676 0" fill="none" stroke="#000000" stroke-width="1.20000005" stroke-linecap="round" stroke-linejoin="round" marker-start="url(#CustomMarker-05)" marker-end="url(#CustomMarker-06)" transform="matrix(4.71862e-008 0.625 -0.625 4.71862e-008 26.3393 199.131)" />
	<path d="M -35.7676 -10.8492 L -35.7676 10.8492" fill="none" stroke="#000000" stroke-width="0.800000012" stroke-linecap="round" stroke-linejoin="round" transform="matrix(4.71862e-008 0.625 -0.625 4.71862e-008 26.3393 199.131)" />
	<path d="M 35.7676 -10.8492 L 35.7676 10.8492" fill="none" stroke="#000000" stroke-width="0.800000012" stroke-linecap="round" stroke-linejoin="round" transform="matrix(4.71862e-008 0.625 -0.625 4.71862e-008 26.3393 199.131)" />
	<g transform="matrix(1 0 -0 1 16.875 190.325)">
		<svg width="21.0184593" height="38.9535408">
			<defs />
			<path d="M 5.2151 10.0163 C 5.09634 10.4342, 4.9299 10.8471, 4.71489 11.2547, 4.49987 11.6627, 4.21962 12.0392, 3.87326 12.3842, 3.58671 12.6725, 3.26194 12.9136, 2.89848 13.108, 2.53546 13.3023, 2.15851 13.399, 1.76806 13.399, 1.39245 13.399, 1.07847 13.2987, 0.826563 13.0972, 0.574659 12.8956, 0.381682 12.646, 0.248083 12.3482, 0.0901932 11.9937, 0.00607514 11.6123, -0.00382107 11.2038 L -0.00382107 11.1103 C -0.00382107 10.7315, 0.0456601 10.355, 0.144623 9.9803 L 1.63446 4.1865 C 1.67404 4.02861, 1.69878 3.90851, 1.70868 3.82664 L 1.70868 3.80505 C 1.70868 3.76231, 1.69878 3.73128, 1.67899 3.71148, 1.61961 3.6737, 1.5085 3.64716, 1.34522 3.63276, 1.18238 3.61837, 0.99435 3.61117, 0.78203 3.61072, 0.708258 3.61117, 0.653829 3.58733, 0.618742 3.53875, 0.589054 3.51041, 0.574209 3.47442, 0.574209 3.43079, 0.574209 3.40245, 0.581856 3.37591, 0.596701 3.35162 L 0.618742 3.23646 C 0.658327 3.12176, 0.747393 3.04978, 0.885941 3.02055 L 2.85034 2.86221, 2.88003 2.86221 C 2.93941 2.86266, 2.98844 2.882, 3.02803 2.91978, 3.04782 2.95847, 3.05772 2.99715, 3.05772 3.03494, 3.05772 3.06418, 3.05052 3.09072, 3.03567 3.11411 L 1.96823 7.25974 C 2.07709 7.14998, 2.27726 7.00828, 2.56875 6.83555, 2.86024 6.66281, 3.16657 6.57645, 3.48775 6.57599, 3.8782 6.57645, 4.20838 6.67721, 4.47738 6.87873, 4.74682 7.08025, 4.9533 7.32721, 5.09634 7.6196, 5.26458 7.97496, 5.35319 8.35912, 5.36309 8.77116 L 5.36309 8.87192 C 5.36309 9.24168, 5.31406 9.62314, 5.2151 10.0163 Z M 4.14 7.82832 C 4.09592 7.59846, 4.0118 7.41268, 3.8881 7.27098, 3.76485 7.12973, 3.60426 7.05866, 3.40633 7.05821, 3.16927 7.05866, 2.93716 7.13558, 2.70955 7.28897, 2.48238 7.44282, 2.26961 7.63669, 2.07169 7.8715, 1.91875 8.06853, 1.78515 8.25341, 1.67134 8.42569 L 1.2638 10.0091 C 1.16483 10.3932, 1.09106 10.763, 1.04158 11.1175, 1.02179 11.2668, 1.01189 11.4081, 1.01189 11.5421, 1.01189 11.7535, 1.03663 11.9551, 1.08611 12.1467, 1.14054 12.368, 1.23051 12.5529, 1.35646 12.7013, 1.48241 12.8502, 1.6493 12.9244, 1.85667 12.924, 2.06449 12.9244, 2.27096 12.848, 2.47609 12.6941, 2.68121 12.5407, 2.86519 12.3487, 3.02803 12.1179, 3.26554 11.7967, 3.44457 11.4553, 3.56557 11.0927, 3.68703 10.7306, 3.79678 10.36, 3.8953 9.9803, 3.99426 9.58715, 4.08108 9.2084, 4.15485 8.84313, 4.18454 8.67085, 4.19938 8.50306, 4.19938 8.33932, 4.19938 8.16704, 4.17959 7.99656, 4.14 7.82832 Z" stroke="none" fill="#000000" />
			<rect />
		</svg>
	</g>
	<path d="M -62.1323 16.9493 L 62.1321 -16.9497" fill="none" stroke="#000000" stroke-width="1.60000002" stroke-linecap="round" stroke-linejoin="round" transform="matrix(0.625 0 0 0.625 76.6978 166.183)" />
	<path d="M -62.1323 -52.717 L 62.1321 52.7169" fill="none" stroke="#000000" stroke-width="1.60000002" stroke-linecap="round" stroke-linejoin="round" transform="matrix(0.625 0 0 0.625 76.6978 209.725)" />
	<g transform="matrix(1 0 -0 1 69.685 146.738)">
		<svg width="48.0461464" height="41.8799934">
			<defs />
			<path d="M 10.1871 11.7796 C 10.1331 11.996, 10.0517 12.2083, 9.9428 12.417, 9.83394 12.6257, 9.70079 12.8142, 9.54245 12.982, 9.38411 13.1502, 9.20733 13.2874, 9.0121 13.3954, 8.81687 13.5034, 8.60591 13.5573, 8.37829 13.5573, 7.66171 13.5573, 7.12282 13.368, 6.76206 12.9888, 6.5151 12.7301, 6.3914 12.404, 6.3914 12.0099, 6.3914 11.8089, 6.42378 11.5907, 6.48811 11.355 L 6.82143 10.0667 C 6.86102 9.90383, 6.88081 9.75044, 6.88081 9.60604, 6.88081 9.53452, 6.87586 9.4603, 6.86597 9.38293, 6.83628 9.18186, 6.76745 9.00462, 6.6586 8.85078, 6.54974 8.69739, 6.41029 8.57638, 6.2398 8.48732, 6.06932 8.3987, 5.8678 8.35417, 5.63523 8.35372 L 3.96007 8.35372, 2.97405 12.1899 C 2.95425 12.2816, 2.94436 12.3558, 2.94436 12.413, 2.94436 12.4854, 2.9592 12.5335, 2.98889 12.5569, 3.05322 12.5956, 3.18681 12.6185, 3.38924 12.6257, 3.59211 12.6329, 3.80938 12.6365, 4.04149 12.6361, 4.18004 12.6365, 4.24931 12.6941, 4.24931 12.8088, 4.24931 12.8381, 4.24436 12.8691, 4.23447 12.9024 L 4.20478 13.0175 C 4.1508 13.1615, 4.05408 13.2335, 3.91554 13.2335, 3.30782 13.2047, 2.69515 13.1903, 2.07709 13.1903, 1.45947 13.1903, 0.839157 13.2047, 0.216593 13.2335, 0.0834438 13.2335, 0.011921 13.1714, 0.00157491 13.0463 L 0.00157491 12.9888, 0.0312636 12.8664 C 0.0708486 12.7085, 0.167112 12.6316, 0.320054 12.6361, 0.552615 12.6365, 0.772582 12.6329, 0.979953 12.6257, 1.18777 12.6185, 1.34072 12.5934, 1.43968 12.5497, 1.53369 12.4975, 1.60522 12.368, 1.6547 12.1611 L 3.73786 4.04976 C 3.76754 3.94449, 3.78194 3.86308, 3.78194 3.80505, 3.78194 3.74792, 3.76979 3.71418, 3.74505 3.70429, 3.67578 3.66155, 3.54128 3.63546, 3.34111 3.62557, 3.14093 3.61612, 2.92232 3.61117, 2.68481 3.61072, 2.54671 3.61117, 2.47743 3.5464, 2.47743 3.4164 L 2.47743 3.35882, 2.52197 3.23646 C 2.55166 3.09297, 2.64342 3.021, 2.79636 3.02055 L 6.96988 3.02055 C 7.4395 3.021, 7.88663 3.08352, 8.31172 3.20812, 8.7368 3.33318, 9.10746 3.5392, 9.42369 3.82664, 9.6855 4.0574, 9.87577 4.34034, 9.99453 4.67592, 10.0687 4.85855, 10.1083 5.04838, 10.1128 5.2445, 10.1128 5.42263, 10.0858 5.59762, 10.0314 5.7699, 9.93785 6.15406, 9.74262 6.50222, 9.44574 6.81395, 9.1493 7.12614, 8.81553 7.39198, 8.44487 7.6124, 8.18801 7.76174, 7.92756 7.88545, 7.66306 7.98351, 7.39856 8.08202, 7.20964 8.1432, 7.09583 8.16659, 7.37742 8.27725, 7.64462 8.49317, 7.89652 8.81434, 8.10929 9.09324, 8.21545 9.42656, 8.21545 9.81476, 8.21545 9.89663, 8.21051 9.9785, 8.20061 10.0595 L 8.05936 11.355 C 8.02023 11.6915, 8.00043 11.9838, 8.00043 12.233, 8.00043 12.3968, 8.01033 12.5407, 8.03012 12.6649, 8.06476 12.9483, 8.21275 13.09, 8.47456 13.0895, 8.71206 13.09, 8.92933 12.9618, 9.12726 12.7049, 9.32518 12.4485, 9.47093 12.1305, 9.56449 11.7508, 9.61892 11.6073, 9.71518 11.5376, 9.85373 11.5421 L 9.97204 11.5421 C 10.1056 11.5426, 10.1772 11.6051, 10.1871 11.7292 L 10.1871 11.7796 Z M 8.44487 5.72672 C 8.52404 5.43928, 8.56857 5.15139, 8.57847 4.86305 L 8.57847 4.81986 C 8.57847 4.5756, 8.50199 4.36464, 8.3486 4.1865, 8.16597 3.97598, 7.92756 3.82709, 7.63337 3.74072, 7.33919 3.65436, 7.01666 3.61117, 6.66579 3.61072 L 5.67977 3.61072 C 5.42786 3.61117, 5.27717 3.63051, 5.22769 3.66875, 5.17821 3.70743, 5.12648 3.84373, 5.07205 4.07854 L 4.09367 7.8859, 5.52413 7.8859 C 5.87499 7.88635, 6.22136 7.84316, 6.56233 7.7568, 6.9033 7.67043, 7.22718 7.51704, 7.53306 7.29572, 7.79531 7.10904, 7.99324 6.87423, 8.12639 6.59084, 8.25999 6.3079, 8.36615 6.02001, 8.44487 5.72672 Z" stroke="none" fill="#000000" />
			<path d="M 1.86424 2.51203 C 1.35514 2.49591, 0.859898 2.48785, 0.378257 2.48785, -0.103133 2.48785, -0.598376 2.49591, -1.10748 2.51203 L -1.10748 2.16541, -0.82106 2.16541 C -0.72987 2.16566, -0.643971 2.1644, -0.563866 2.16163, -0.483508 2.15911, -0.407433 2.15231, -0.335388 2.14148, -0.263344 2.1309, -0.201123 2.12007, -0.148727 2.10898, -0.104392 2.10117, -0.067866 2.07649, -0.0388969 2.03467, -0.0096761 1.99311, 0.00468242 1.94676, 0.00468242 1.89537 L 0.00468242 -2.64697 C -0.133361 -2.57946, -0.303648 -2.52832, -0.505676 -2.49356, -0.707703 -2.45855, -0.928875 -2.44116, -1.1697 -2.44142 L -1.1697 -2.78401 C -0.837685 -2.78375, -0.531118 -2.8233, -0.250245 -2.90265, 0.0306287 -2.98175, 0.273464 -3.13037, 0.478011 -3.34827 L 0.606734 -3.34827 C 0.697923 -3.34802, 0.743518 -3.30368, 0.743518 -3.21527 L 0.743518 1.89537 C 0.743518 1.94928, 0.757372 1.99638, 0.785082 2.03669, 0.812791 2.07699, 0.853096 2.10117, 0.905492 2.10898, 0.949827 2.12007, 1.00676 2.1309, 1.07578 2.14148, 1.1448 2.15231, 1.22289 2.15911, 1.31005 2.16163, 1.39721 2.1644, 1.48235 2.16566, 1.56548 2.16541 L 1.86424 2.16541, 1.86424 2.51203 Z" stroke="none" fill="#000000" transform="matrix(1.12 0 0 1 12.1207 12.8121)" />
			<rect />
		</svg>
	</g>
	<g transform="matrix(1 0 -0 1 65.2312 209.069)">
		<svg width="48.0461464" height="41.8799934">
			<defs />
			<path d="M 10.1871 11.7796 C 10.1331 11.996, 10.0517 12.2083, 9.9428 12.417, 9.83394 12.6257, 9.70079 12.8142, 9.54245 12.982, 9.38411 13.1502, 9.20733 13.2874, 9.0121 13.3954, 8.81687 13.5034, 8.60591 13.5573, 8.37829 13.5573, 7.66171 13.5573, 7.12282 13.368, 6.76206 12.9888, 6.5151 12.7301, 6.3914 12.404, 6.3914 12.0099, 6.3914 11.8089, 6.42378 11.5907, 6.48811 11.355 L 6.82143 10.0667 C 6.86102 9.90383, 6.88081 9.75044, 6.88081 9.60604, 6.88081 9.53452, 6.87586 9.4603, 6.86597 9.38293, 6.83628 9.18186, 6.76745 9.00462, 6.6586 8.85078, 6.54974 8.69739, 6.41029 8.57638, 6.2398 8.48732, 6.06932 8.3987, 5.8678 8.35417, 5.63523 8.35372 L 3.96007 8.35372, 2.97405 12.1899 C 2.95425 12.2816, 2.94436 12.3558, 2.94436 12.413, 2.94436 12.4854, 2.9592 12.5335, 2.98889 12.5569, 3.05322 12.5956, 3.18681 12.6185, 3.38924 12.6257, 3.59211 12.6329, 3.80938 12.6365, 4.04149 12.6361, 4.18004 12.6365, 4.24931 12.6941, 4.24931 12.8088, 4.24931 12.8381, 4.24436 12.8691, 4.23447 12.9024 L 4.20478 13.0175 C 4.1508 13.1615, 4.05408 13.2335, 3.91554 13.2335, 3.30782 13.2047, 2.69515 13.1903, 2.07709 13.1903, 1.45947 13.1903, 0.839157 13.2047, 0.216593 13.2335, 0.0834438 13.2335, 0.011921 13.1714, 0.00157491 13.0463 L 0.00157491 12.9888, 0.0312636 12.8664 C 0.0708486 12.7085, 0.167112 12.6316, 0.320054 12.6361, 0.552615 12.6365, 0.772582 12.6329, 0.979953 12.6257, 1.18777 12.6185, 1.34072 12.5934, 1.43968 12.5497, 1.53369 12.4975, 1.60522 12.368, 1.6547 12.1611 L 3.73786 4.04976 C 3.76754 3.94449, 3.78194 3.86308, 3.78194 3.80505, 3.78194 3.74792, 3.76979 3.71418, 3.74505 3.70429, 3.67578 3.66155, 3.54128 3.63546, 3.34111 3.62557, 3.14093 3.61612, 2.92232 3.61117, 2.68481 3.61072, 2.54671 3.61117, 2.47743 3.5464, 2.47743 3.4164 L 2.47743 3.35882, 2.52197 3.23646 C 2.55166 3.09297, 2.64342 3.021, 2.79636 3.02055 L 6.96988 3.02055 C 7.4395 3.021, 7.88663 3.08352, 8.31172 3.20812, 8.7368 3.33318, 9.10746 3.5392, 9.42369 3.82664, 9.6855 4.0574, 9.87577 4.34034, 9.99453 4.67592, 10.0687 4.85855, 10.1083 5.04838, 10.1128 5.2445, 10.1128 5.42263, 10.0858 5.59762, 10.0314 5.7699, 9.93785 6.15406, 9.74262 6.50222, 9.44574 6.81395, 9.1493 7.12614, 8.81553 7.39198, 8.44487 7.6124, 8.18801 7.76174, 7.92756 7.88545, 7.66306 7.98351, 7.39856 8.08202, 7.20964 8.1432, 7.09583 8.16659, 7.37742 8.27725, 7.64462 8.49317, 7.89652 8.81434, 8.10929 9.09324, 8.21545 9.42656, 8.21545 9.81476, 8.21545 9.89663, 8.21051 9.9785, 8.20061 10.0595 L 8.05936 11.355 C 8.02023 11.6915, 8.00043 11.9838, 8.00043 12.233, 8.00043 12.3968, 8.01033 12.5407, 8.03012 12.6649, 8.06476 12.9483, 8.21275 13.09, 8.47456 13.0895, 8.71206 13.09, 8.92933 12.9618, 9.12726 12.7049, 9.32518 12.4485, 9.47093 12.1305, 9.56449 11.7508, 9.61892 11.6073, 9.71518 11.5376, 9.85373 11.5421 L 9.97204 11.5421 C 10.1056 11.5426, 10.1772 11.6051, 10.1871 11.7292 L 10.1871 11.7796 Z M 8.44487 5.72672 C 8.52404 5.43928, 8.56857 5.15139, 8.57847 4.86305 L 8.57847 4.81986 C 8.57847 4.5756, 8.50199 4.36464, 8.3486 4.1865, 8.16597 3.97598, 7.92756 3.82709, 7.63337 3.74072, 7.33919 3.65436, 7.01666 3.61117, 6.66579 3.61072 L 5.67977 3.61072 C 5.42786 3.61117, 5.27717 3.63051, 5.22769 3.66875, 5.17821 3.70743, 5.12648 3.84373, 5.07205 4.07854 L 4.09367 7.8859, 5.52413 7.8859 C 5.87499 7.88635, 6.22136 7.84316, 6.56233 7.7568, 6.9033 7.67043, 7.22718 7.51704, 7.53306 7.29572, 7.79531 7.10904, 7.99324 6.87423, 8.12639 6.59084, 8.25999 6.3079, 8.36615 6.02001, 8.44487 5.72672 Z" stroke="none" fill="#000000" />
			<path d="M 1.87894 2.51203 L -1.4996 2.51203, -1.4996 2.29035 C -1.4996 2.27448, -1.49129 2.2503, -1.47466 2.21781 L -0.1174 0.742655 C 0.0433152 0.565566, 0.205793 0.384195, 0.370539 0.198793, 0.535284 0.0133917, 0.682396 -0.17604, 0.812379 -0.369503, 0.942362 -0.562965, 1.04615 -0.762474, 1.12373 -0.968027, 1.20132 -1.17358, 1.23986 -1.38921, 1.23986 -1.61517, 1.23986 -1.80561, 1.21517 -1.98371, 1.1653 -2.14895, 1.11542 -2.3142, 1.04363 -2.4593, 0.949415 -2.58425, 0.855203 -2.70919, 0.737563 -2.80995, 0.596497 -2.88653, 0.455431 -2.96311, 0.292197 -3.0014, 0.106795 -3.00165, -0.169796 -3.0014, -0.414143 -2.91877, -0.625743 -2.75353, -0.837342 -2.58828, -0.977905 -2.40615, -1.04718 -2.20765, -1.06078 -2.20211, -1.03861 -2.19934, -0.980676 -2.19959 L -0.910143 -2.19959 C -0.827014 -2.18044, -0.755221 -2.15147, -0.694261 -2.11268, -0.6333 -2.07364, -0.582163 -2.01998, -0.540599 -1.95146, -0.499035 -1.88294, -0.478379 -1.80032, -0.478379 -1.70384, -0.478379 -1.54237, -0.530775 -1.41868, -0.636071 -1.33278, -0.741367 -1.24663, -0.859006 -1.20381, -0.988989 -1.20406, -1.11343 -1.20381, -1.22956 -1.24663, -1.33762 -1.33278, -1.44544 -1.41868, -1.4996 -1.54237, -1.4996 -1.70384, -1.4996 -1.92929, -1.45526 -2.14291, -1.36659 -2.34443, -1.27792 -2.54596, -1.15776 -2.72053, -1.00561 -2.86839, -0.853464 -3.01601, -0.673604 -3.13289, -0.466035 -3.21904, -0.258466 -3.30494, -0.0383018 -3.34802, 0.193954 -3.34827, 0.481629 -3.34802, 0.745372 -3.3057, 0.984681 -3.22106, 1.22399 -3.13642, 1.42803 -3.01475, 1.59681 -2.8563, 1.76558 -2.6976, 1.89783 -2.51422, 1.99331 -2.30614, 2.08878 -2.09782, 2.13639 -1.86758, 2.13639 -1.61517, 2.13639 -1.33556, 2.07291 -1.07811, 1.94544 -0.843083, 1.81823 -0.607804, 1.66054 -0.392174, 1.47237 -0.196193, 1.2842 4.07696e-005, 1.08418 0.184687, 0.872584 0.357997, 0.660985 0.531307, 0.469285 0.699831, 0.297738 0.863569 L -0.656979 1.76236, 0.592466 1.76236 C 0.766784 1.76262, 0.929514 1.76136, 1.08015 1.75858, 1.23104 1.75607, 1.35901 1.75052, 1.46406 1.74246, 1.56935 1.7344, 1.62326 1.72911, 1.62578 1.72609, 1.64795 1.70745, 1.66885 1.66991, 1.68825 1.61349, 1.70765 1.55706, 1.72553 1.49056, 1.74216 1.41398, 1.75878 1.3374, 1.77541 1.25956, 1.79203 1.18021, 1.80866 1.10111, 1.82377 1.01421, 1.83763 0.919995 L 2.1447 0.919995 Z" stroke="none" fill="#000000" transform="matrix(1.12 0 0 1 12.453 12.8121)" />
			<rect />
		</svg>
	</g>
	<path d="M -62.1322 0 L 62.1322 0" fill="none" stroke="#000000" stroke-width="1.20000005" stroke-linecap="round" stroke-linejoin="round" marker-start="url(#CustomMarker-07)" marker-end="url(#CustomMarker-08)" transform="matrix(0.625 0 -0 0.625 76.6978 307.415)" />
	<path d="M -62.1322 -10.2932 L -62.1322 10.2932" fill="none" stroke="#000000" stroke-width="0.800000012" stroke-linecap="round" stroke-linejoin="round" transform="matrix(0.625 0 -0 0.625 76.6978 307.415)" />
	<path d="M 62.1322 -10.2932 L 62.1322 10.2932" fill="none" stroke="#000000" stroke-width="0.800000012" stroke-linecap="round" stroke-linejoin="round" transform="matrix(0.625 0 -0 0.625 76.6978 307.415)" />
	<g transform="matrix(1 0 -0 1 71.6051 285.742)">
		<svg width="35.935379" height="35.8877335">
			<defs />
			<path d="M 10.1871 11.7796 C 10.1331 11.996, 10.0517 12.2083, 9.9428 12.417, 9.83394 12.6257, 9.70079 12.8142, 9.54245 12.982, 9.38411 13.1502, 9.20733 13.2874, 9.0121 13.3954, 8.81687 13.5034, 8.60591 13.5573, 8.37829 13.5573, 7.66171 13.5573, 7.12282 13.368, 6.76206 12.9888, 6.5151 12.7301, 6.3914 12.404, 6.3914 12.0099, 6.3914 11.8089, 6.42378 11.5907, 6.48811 11.355 L 6.82143 10.0667 C 6.86102 9.90383, 6.88081 9.75044, 6.88081 9.60604, 6.88081 9.53452, 6.87586 9.4603, 6.86597 9.38293, 6.83628 9.18186, 6.76745 9.00462, 6.6586 8.85078, 6.54974 8.69739, 6.41029 8.57638, 6.2398 8.48732, 6.06932 8.3987, 5.8678 8.35417, 5.63523 8.35372 L 3.96007 8.35372, 2.97405 12.1899 C 2.95425 12.2816, 2.94436 12.3558, 2.94436 12.413, 2.94436 12.4854, 2.9592 12.5335, 2.98889 12.5569, 3.05322 12.5956, 3.18681 12.6185, 3.38924 12.6257, 3.59211 12.6329, 3.80938 12.6365, 4.04149 12.6361, 4.18004 12.6365, 4.24931 12.6941, 4.24931 12.8088, 4.24931 12.8381, 4.24436 12.8691, 4.23447 12.9024 L 4.20478 13.0175 C 4.1508 13.1615, 4.05408 13.2335, 3.91554 13.2335, 3.30782 13.2047, 2.69515 13.1903, 2.07709 13.1903, 1.45947 13.1903, 0.839157 13.2047, 0.216593 13.2335, 0.0834438 13.2335, 0.011921 13.1714, 0.00157491 13.0463 L 0.00157491 12.9888, 0.0312636 12.8664 C 0.0708486 12.7085, 0.167112 12.6316, 0.320054 12.6361, 0.552615 12.6365, 0.772582 12.6329, 0.979953 12.6257, 1.18777 12.6185, 1.34072 12.5934, 1.43968 12.5497, 1.53369 12.4975, 1.60522 12.368, 1.6547 12.1611 L 3.73786 4.04976 C 3.76754 3.94449, 3.78194 3.86308, 3.78194 3.80505, 3.78194 3.74792, 3.76979 3.71418, 3.74505 3.70429, 3.67578 3.66155, 3.54128 3.63546, 3.34111 3.62557, 3.14093 3.61612, 2.92232 3.61117, 2.68481 3.61072, 2.54671 3.61117, 2.47743 3.5464, 2.47743 3.4164 L 2.47743 3.35882, 2.52197 3.23646 C 2.55166 3.09297, 2.64342 3.021, 2.79636 3.02055 L 6.96988 3.02055 C 7.4395 3.021, 7.88663 3.08352, 8.31172 3.20812, 8.7368 3.33318, 9.10746 3.5392, 9.42369 3.82664, 9.6855 4.0574, 9.87577 4.34034, 9.99453 4.67592, 10.0687 4.85855, 10.1083 5.04838, 10.1128 5.2445, 10.1128 5.42263, 10.0858 5.59762, 10.0314 5.7699, 9.93785 6.15406, 9.74262 6.50222, 9.44574 6.81395, 9.1493 7.12614, 8.81553 7.39198, 8.44487 7.6124, 8.18801 7.76174, 7.92756 7.88545, 7.66306 7.98351, 7.39856 8.08202, 7.20964 8.1432, 7.09583 8.16659, 7.37742 8.27725, 7.64462 8.49317, 7.89652 8.81434, 8.10929 9.09324, 8.21545 9.42656, 8.21545 9.81476, 8.21545 9.89663, 8.21051 9.9785, 8.20061 10.0595 L 8.05936 11.355 C 8.02023 11.6915, 8.00043 11.9838, 8.00043 12.233, 8.00043 12.3968, 8.01033 12.5407, 8.03012 12.6649, 8.06476 12.9483, 8.21275 13.09, 8.47456 13.0895, 8.71206 13.09, 8.92933 12.9618, 9.12726 12.7049, 9.32518 12.4485, 9.47093 12.1305, 9.56449 11.7508, 9.61892 11.6073, 9.71518 11.5376, 9.85373 11.5421 L 9.97204 11.5421 C 10.1056 11.5426, 10.1772 11.6051, 10.1871 11.7292 L 10.1871 11.7796 Z M 8.44487 5.72672 C 8.52404 5.43928, 8.56857 5.15139, 8.57847 4.86305 L 8.57847 4.81986 C 8.57847 4.5756, 8.50199 4.36464, 8.3486 4.1865, 8.16597 3.97598, 7.92756 3.82709, 7.63337 3.74072, 7.33919 3.65436, 7.01666 3.61117, 6.66579 3.61072 L 5.67977 3.61072 C 5.42786 3.61117, 5.27717 3.63051, 5.22769 3.66875, 5.17821 3.70743, 5.12648 3.84373, 5.07205 4.07854 L 4.09367 7.8859, 5.52413 7.8859 C 5.87499 7.88635, 6.22136 7.84316, 6.56233 7.7568, 6.9033 7.67043, 7.22718 7.51704, 7.53306 7.29572, 7.79531 7.10904, 7.99324 6.87423, 8.12639 6.59084, 8.25999 6.3079, 8.36615 6.02001, 8.44487 5.72672 Z" stroke="none" fill="#000000" />
			<rect />
		</svg>
	</g>
	<g transform="matrix(1 0 -0 1 368.221 105.356)">
		<svg width="32.9815331" height="32.9612846">
			<defs />
			<path d="M 6.27669 7.78514 C 6.22271 7.99656, 6.1125 8.15624, 5.94697 8.2642, 5.78143 8.37216, 5.61454 8.42614, 5.44631 8.42569, 5.27357 8.42614, 5.13008 8.37081, 5.01627 8.26015, 4.92271 8.18368, 4.87547 8.07842, 4.87547 7.94348, 4.87547 7.8769, 4.88537 7.80943, 4.90516 7.74195, 4.9497 7.57462, 5.02752 7.44282, 5.13862 7.34655, 5.25018 7.25074, 5.3253 7.19766, 5.36489 7.18776, 5.25153 7.10185, 5.01672 7.05866, 4.66046 7.05821, 4.2853 7.05866, 3.95063 7.21115, 3.65644 7.51569, 3.36225 7.82067, 3.09685 8.23182, 2.85934 8.74957 L 1.78425 12.8664 C 1.74017 13.0445, 1.64975 13.1772, 1.5139 13.2659, 1.37805 13.3549, 1.24086 13.399, 1.10231 13.399, 0.954314 13.399, 0.840507 13.3513, 0.761337 13.2551, 0.697462 13.193, 0.665074 13.1066, 0.665074 12.996, 0.665074 12.9532, 0.670022 12.9006, 0.679918 12.8376 L 1.82113 8.38251 C 1.9003 8.07123, 1.93989 7.80223, 1.93989 7.57642 L 1.93989 7.40368 C 1.9156 7.17382, 1.79954 7.05866, 1.59172 7.05821, 1.374 7.05866, 1.19227 7.2341, 1.04653 7.58406, 0.900785 7.93448, 0.759088 8.39016, 0.620541 8.95109, 0.566112 9.08109, 0.474796 9.14812, 0.346145 9.15262 L 0.17566 9.15262 C 0.0569052 9.15307, -0.00247222 9.09324, -0.00247222 8.97268 L -0.00247222 8.9223 C 0.0569052 8.69739, 0.12393 8.45133, 0.198152 8.18503, 0.272373 7.91874, 0.371336 7.66683, 0.494589 7.42932, 0.618292 7.19181, 0.773933 6.99029, 0.961511 6.82475, 1.14954 6.65921, 1.3839 6.57645, 1.66549 6.57599, 2.04155 6.57645, 2.34429 6.6835, 2.5737 6.89672, 2.80356 7.11039, 2.93311 7.32001, 2.9628 7.52603, 3.13599 7.29617, 3.37709 7.08025, 3.68568 6.87873, 3.99471 6.67721, 4.34917 6.57645, 4.74952 6.57599, 4.94745 6.57645, 5.14852 6.59714, 5.35364 6.63762, 5.55876 6.67856, 5.73915 6.74558, 5.89479 6.83915, 6.05043 6.93271, 6.16558 7.05641, 6.23981 7.20935, 6.28434 7.30562, 6.30908 7.41358, 6.31358 7.53323, 6.31358 7.60565, 6.30143 7.68977, 6.27669 7.78514 Z" stroke="none" fill="#000000" />
			<path d="M 1.86424 2.51203 C 1.35514 2.49591, 0.859898 2.48785, 0.378257 2.48785, -0.103133 2.48785, -0.598376 2.49591, -1.10748 2.51203 L -1.10748 2.16541, -0.82106 2.16541 C -0.72987 2.16566, -0.643971 2.1644, -0.563866 2.16163, -0.483508 2.15911, -0.407433 2.15231, -0.335388 2.14148, -0.263344 2.1309, -0.201123 2.12007, -0.148727 2.10898, -0.104392 2.10117, -0.067866 2.07649, -0.0388969 2.03467, -0.0096761 1.99311, 0.00468242 1.94676, 0.00468242 1.89537 L 0.00468242 -2.64697 C -0.133361 -2.57946, -0.303648 -2.52832, -0.505676 -2.49356, -0.707703 -2.45855, -0.928875 -2.44116, -1.1697 -2.44142 L -1.1697 -2.78401 C -0.837685 -2.78375, -0.531118 -2.8233, -0.250245 -2.90265, 0.0306287 -2.98175, 0.273464 -3.13037, 0.478011 -3.34827 L 0.606734 -3.34827 C 0.697923 -3.34802, 0.743518 -3.30368, 0.743518 -3.21527 L 0.743518 1.89537 C 0.743518 1.94928, 0.757372 1.99638, 0.785082 2.03669, 0.812791 2.07699, 0.853096 2.10117, 0.905492 2.10898, 0.949827 2.12007, 1.00676 2.1309, 1.07578 2.14148, 1.1448 2.15231, 1.22289 2.15911, 1.31005 2.16163, 1.39721 2.1644, 1.48235 2.16566, 1.56548 2.16541 L 1.86424 2.16541, 1.86424 2.51203 Z" stroke="none" fill="#000000" transform="matrix(1.12 0 0 1 7.51428 12.8121)" />
			<rect />
		</svg>
	</g>
	<g transform="matrix(1 0 -0 1 450.345 159.801)">
		<svg width="35.935379" height="32.9612846">
			<defs />
			<path d="M 6.27669 7.78514 C 6.22271 7.99656, 6.1125 8.15624, 5.94697 8.2642, 5.78143 8.37216, 5.61454 8.42614, 5.44631 8.42569, 5.27357 8.42614, 5.13008 8.37081, 5.01627 8.26015, 4.92271 8.18368, 4.87547 8.07842, 4.87547 7.94348, 4.87547 7.8769, 4.88537 7.80943, 4.90516 7.74195, 4.9497 7.57462, 5.02752 7.44282, 5.13862 7.34655, 5.25018 7.25074, 5.3253 7.19766, 5.36489 7.18776, 5.25153 7.10185, 5.01672 7.05866, 4.66046 7.05821, 4.2853 7.05866, 3.95063 7.21115, 3.65644 7.51569, 3.36225 7.82067, 3.09685 8.23182, 2.85934 8.74957 L 1.78425 12.8664 C 1.74017 13.0445, 1.64975 13.1772, 1.5139 13.2659, 1.37805 13.3549, 1.24086 13.399, 1.10231 13.399, 0.954314 13.399, 0.840507 13.3513, 0.761337 13.2551, 0.697462 13.193, 0.665074 13.1066, 0.665074 12.996, 0.665074 12.9532, 0.670022 12.9006, 0.679918 12.8376 L 1.82113 8.38251 C 1.9003 8.07123, 1.93989 7.80223, 1.93989 7.57642 L 1.93989 7.40368 C 1.9156 7.17382, 1.79954 7.05866, 1.59172 7.05821, 1.374 7.05866, 1.19227 7.2341, 1.04653 7.58406, 0.900785 7.93448, 0.759088 8.39016, 0.620541 8.95109, 0.566112 9.08109, 0.474796 9.14812, 0.346145 9.15262 L 0.17566 9.15262 C 0.0569052 9.15307, -0.00247222 9.09324, -0.00247222 8.97268 L -0.00247222 8.9223 C 0.0569052 8.69739, 0.12393 8.45133, 0.198152 8.18503, 0.272373 7.91874, 0.371336 7.66683, 0.494589 7.42932, 0.618292 7.19181, 0.773933 6.99029, 0.961511 6.82475, 1.14954 6.65921, 1.3839 6.57645, 1.66549 6.57599, 2.04155 6.57645, 2.34429 6.6835, 2.5737 6.89672, 2.80356 7.11039, 2.93311 7.32001, 2.9628 7.52603, 3.13599 7.29617, 3.37709 7.08025, 3.68568 6.87873, 3.99471 6.67721, 4.34917 6.57645, 4.74952 6.57599, 4.94745 6.57645, 5.14852 6.59714, 5.35364 6.63762, 5.55876 6.67856, 5.73915 6.74558, 5.89479 6.83915, 6.05043 6.93271, 6.16558 7.05641, 6.23981 7.20935, 6.28434 7.30562, 6.30908 7.41358, 6.31358 7.53323, 6.31358 7.60565, 6.30143 7.68977, 6.27669 7.78514 Z" stroke="none" fill="#000000" />
			<path d="M 1.87894 2.51203 L -1.4996 2.51203, -1.4996 2.29035 C -1.4996 2.27448, -1.49129 2.2503, -1.47466 2.21781 L -0.1174 0.742655 C 0.0433152 0.565566, 0.205793 0.384195, 0.370539 0.198793, 0.535284 0.0133917, 0.682396 -0.17604, 0.812379 -0.369503, 0.942362 -0.562965, 1.04615 -0.762474, 1.12373 -0.968027, 1.20132 -1.17358, 1.23986 -1.38921, 1.23986 -1.61517, 1.23986 -1.80561, 1.21517 -1.98371, 1.1653 -2.14895, 1.11542 -2.3142, 1.04363 -2.4593, 0.949415 -2.58425, 0.855203 -2.70919, 0.737563 -2.80995, 0.596497 -2.88653, 0.455431 -2.96311, 0.292197 -3.0014, 0.106795 -3.00165, -0.169796 -3.0014, -0.414143 -2.91877, -0.625743 -2.75353, -0.837342 -2.58828, -0.977905 -2.40615, -1.04718 -2.20765, -1.06078 -2.20211, -1.03861 -2.19934, -0.980676 -2.19959 L -0.910143 -2.19959 C -0.827014 -2.18044, -0.755221 -2.15147, -0.694261 -2.11268, -0.6333 -2.07364, -0.582163 -2.01998, -0.540599 -1.95146, -0.499035 -1.88294, -0.478379 -1.80032, -0.478379 -1.70384, -0.478379 -1.54237, -0.530775 -1.41868, -0.636071 -1.33278, -0.741367 -1.24663, -0.859006 -1.20381, -0.988989 -1.20406, -1.11343 -1.20381, -1.22956 -1.24663, -1.33762 -1.33278, -1.44544 -1.41868, -1.4996 -1.54237, -1.4996 -1.70384, -1.4996 -1.92929, -1.45526 -2.14291, -1.36659 -2.34443, -1.27792 -2.54596, -1.15776 -2.72053, -1.00561 -2.86839, -0.853464 -3.01601, -0.673604 -3.13289, -0.466035 -3.21904, -0.258466 -3.30494, -0.0383018 -3.34802, 0.193954 -3.34827, 0.481629 -3.34802, 0.745372 -3.3057, 0.984681 -3.22106, 1.22399 -3.13642, 1.42803 -3.01475, 1.59681 -2.8563, 1.76558 -2.6976, 1.89783 -2.51422, 1.99331 -2.30614, 2.08878 -2.09782, 2.13639 -1.86758, 2.13639 -1.61517, 2.13639 -1.33556, 2.07291 -1.07811, 1.94544 -0.843083, 1.81823 -0.607804, 1.66054 -0.392174, 1.47237 -0.196193, 1.2842 4.07696e-005, 1.08418 0.184687, 0.872584 0.357997, 0.660985 0.531307, 0.469285 0.699831, 0.297738 0.863569 L -0.656979 1.76236, 0.592466 1.76236 C 0.766784 1.76262, 0.929514 1.76136, 1.08015 1.75858, 1.23104 1.75607, 1.35901 1.75052, 1.46406 1.74246, 1.56935 1.7344, 1.62326 1.72911, 1.62578 1.72609, 1.64795 1.70745, 1.66885 1.66991, 1.68825 1.61349, 1.70765 1.55706, 1.72553 1.49056, 1.74216 1.41398, 1.75878 1.3374, 1.77541 1.25956, 1.79203 1.18021, 1.80866 1.10111, 1.82377 1.01421, 1.83763 0.919995 L 2.1447 0.919995 Z" stroke="none" fill="#000000" transform="matrix(1.12 0 0 1 7.84654 12.8121)" />
			<rect />
		</svg>
	</g>
	<path d="M 42.3094 -23.8819 L 46.2037 -15.0249 C 49.3454 -5.36462, 49.3782 5.05271, 46.2978 14.7323 L 42.4478 23.635" fill="none" stroke="#0006BF" stroke-width="1.20000005" stroke-linecap="round" stroke-linejoin="round" marker-start="url(#CustomMarker-09)" marker-end="url(#CustomMarker-10)" transform="matrix(0.625 0 -0 0.625 37.8652 199.428)" />
	<path d="M 0 0 L 124.264 -70.1421" fill="none" stroke="#0006BF" stroke-width="0.800000012" stroke-linecap="round" stroke-linejoin="round" stroke-dasharray="4.404, 1.996, 0.008, 2.392" transform="matrix(0.625 0 -0 0.625 37.8652 199.428)" />
	<path d="M 0 0 L 124.264 69.1908" fill="none" stroke="#0006BF" stroke-width="0.800000012" stroke-linecap="round" stroke-linejoin="round" stroke-dasharray="4.404, 1.996, 0.008, 2.392" transform="matrix(0.625 0 -0 0.625 37.8652 199.428)" />
	<g transform="matrix(1 0 -0 1 72.2239 180.149)">
		<svg width="60.0092239" height="38.9535408">
			<defs />
			<path d="M 11.3493 12.9528 C 11.3642 12.987, 11.3714 13.018, 11.3714 13.0463, 11.3714 13.085, 11.3615 13.1138, 11.3417 13.1327, 11.312 13.1903, 11.2553 13.2191, 11.1712 13.2191 L 0.199869 13.2191 C 0.120699 13.2191, 0.0640202 13.1903, 0.0293834 13.1327, 0.00959092 13.1138, -0.000305355 13.085, -0.000305355 13.0463, -0.000305355 13.018, 0.00734174 12.987, 0.0217363 12.9528 L 5.27799 2.71106 C 5.34231 2.57252, 5.45612 2.50504, 5.61896 2.50954 L 5.75211 2.50954 C 5.9055 2.50999, 6.01931 2.57477, 6.09308 2.70387 L 11.3493 12.9528 Z M 5.24065 4.12173 L 1.17825 12.0315, 9.29586 12.0315 Z" stroke="none" fill="#0006BF" />
			<path d="M 18.7919 4.32325 C 18.9106 4.77938, 18.9696 5.24495, 18.9696 5.71952, 18.9696 5.86886, 18.9646 6.01281, 18.9547 6.15136, 18.9057 6.78517, 18.7995 7.42077, 18.6362 8.05863, 18.4586 8.70189, 18.2336 9.3393, 17.9619 9.96996, 17.6902 10.6011, 17.329 11.2065, 16.8792 11.7868, 16.7263 11.9838, 16.5567 12.1786, 16.3713 12.3702, 16.186 12.5623, 15.9872 12.7337, 15.7749 12.8848, 15.5626 13.036, 15.3412 13.1597, 15.1114 13.2551, 14.8815 13.3513, 14.6404 13.399, 14.3885 13.399, 14.1316 13.399, 13.9103 13.35, 13.725 13.2515, 13.5397 13.1534, 13.3804 13.0265, 13.2468 12.8705, 13.1137 12.7148, 13.0035 12.5407, 12.9171 12.3487, 12.8307 12.157, 12.7601 11.96, 12.7057 11.758, 12.5824 11.3122, 12.5204 10.8516, 12.5204 10.3762, 12.5204 10.2232, 12.5303 10.0721, 12.5501 9.92272, 12.5896 9.29926, 12.6958 8.6686, 12.8685 8.02984, 13.0318 7.38749, 13.2518 6.75188, 13.5284 6.12302, 13.8055 5.49461, 14.1735 4.88734, 14.6332 4.30166, 14.7866 4.10553, 14.9548 3.90986, 15.1375 3.71553, 15.3201 3.52121, 15.5153 3.34847, 15.7227 3.19733, 15.9305 3.04619, 16.1491 2.92293, 16.379 2.82667, 16.6089 2.73086, 16.8522 2.68272, 17.1091 2.68227, 17.3664 2.68272, 17.5863 2.73221, 17.769 2.83027, 17.9516 2.92878, 18.1135 3.05473, 18.2543 3.20812, 18.3956 3.36197, 18.5067 3.53695, 18.5881 3.73353, 18.67 3.93055, 18.7379 4.12713, 18.7919 4.32325 Z M 17.791 4.48879 C 17.7712 4.30211, 17.7465 4.12713, 17.7168 3.96384, 17.6871 3.801, 17.6439 3.6593, 17.5872 3.5392, 17.5306 3.41954, 17.4577 3.32688, 17.3686 3.2621, 17.2796 3.19733, 17.1662 3.16494, 17.0276 3.16449, 16.7411 3.16494, 16.4766 3.29809, 16.2346 3.56439, 15.9926 3.83069, 15.7578 4.14872, 15.5302 4.51758, 15.204 5.04568, 14.9521 5.58817, 14.774 6.14461, 14.5959 6.7015, 14.4429 7.23859, 14.3143 7.75635 L 17.3313 7.75635 C 17.4649 7.21475, 17.5886 6.66281, 17.7019 6.10098, 17.7811 5.72222, 17.8207 5.34796, 17.8207 4.9782, 17.8207 4.81536, 17.8108 4.65253, 17.791 4.48879 Z M 14.1586 8.33932 C 14.0255 8.88182, 13.909 9.42881, 13.81 9.9803, 13.7313 10.3788, 13.6917 10.7774, 13.6917 11.175, 13.6917 11.3244, 13.6967 11.4683, 13.7066 11.6069, 13.7165 11.7945, 13.7389 11.9699, 13.7731 12.1327, 13.8078 12.296, 13.8537 12.4364, 13.9103 12.5538, 13.967 12.6716, 14.0426 12.7625, 14.1366 12.8273, 14.2306 12.892, 14.3444 12.9244, 14.4776 12.924, 14.7592 12.9244, 15.0223 12.7926, 15.267 12.5286, 15.5117 12.265, 15.7425 11.9479, 15.9602 11.5781, 16.2863 11.041, 16.5382 10.4967, 16.7164 9.94477, 16.8945 9.39327, 17.0474 8.85798, 17.1756 8.33932 Z" stroke="none" fill="#0006BF" />
			<rect />
		</svg>
	</g>
</svg>
