<?xml version="1.0"?>
<svg xmlns="http://www.w3.org/2000/svg" xmlns:xlink="http://www.w3.org/1999/xlink" width="314.112457" height="234.500015">
	<defs>
		<marker id="CustomMarker-01" markerUnits="strokeWidth" markerWidth="15.000001" markerHeight="9" viewBox="-15 -4.5 15 9" orient="auto-start-reverse">
			<path d="M 0 -0 L -10 -3, -8 -0.5, -8 0.5, -10 3 Z" fill="#FF2A00" stroke="#FF2A00" stroke-linejoin="round" />
		</marker>
		<marker id="CustomMarker-02" markerUnits="strokeWidth" markerWidth="15.000001" markerHeight="9" viewBox="-15 -4.5 15 9" orient="auto-start-reverse">
			<path d="M 0 -0 L -10 -3, -8 -0.5, -8 0.5, -10 3 Z" fill="#FF2A00" stroke="#FF2A00" stroke-linejoin="round" />
		</marker>
		<marker id="CustomMarker-03" markerUnits="strokeWidth" markerWidth="15.000001" markerHeight="9" viewBox="-15 -4.5 15 9" orient="auto-start-reverse">
			<path d="M 0 -0 L -10 -3, -8 -0.5, -8 0.5, -10 3 Z" fill="#FF2A00" stroke="#FF2A00" stroke-linejoin="round" />
		</marker>
		<marker id="CustomMarker-04" markerUnits="strokeWidth" markerWidth="15.000001" markerHeight="9" viewBox="-15 -4.5 15 9" orient="auto-start-reverse">
			<path d="M 0 -0 L -10 -3, -8 -0.5, -8 0.5, -10 3 Z" fill="#FF2A00" stroke="#FF2A00" stroke-linejoin="round" />
		</marker>
		<marker id="CustomMarker-05" markerUnits="strokeWidth" markerWidth="15.000001" markerHeight="9" viewBox="-15 -4.5 15 9" orient="auto-start-reverse">
			<path d="M 0 -0 L -10 -3, -8 -0.5, -8 0.5, -10 3 Z" fill="#000000" stroke="#000000" stroke-linejoin="round" />
		</marker>
		<marker id="CustomMarker-06" markerUnits="strokeWidth" markerWidth="15.000001" markerHeight="9" viewBox="-15 -4.5 15 9" orient="auto-start-reverse">
			<path d="M 0 -0 L -10 -3, -8 -0.5, -8 0.5, -10 3 Z" fill="#000000" stroke="#000000" stroke-linejoin="round" />
		</marker>
		<marker id="CustomMarker-07" markerUnits="strokeWidth" markerWidth="15.000001" markerHeight="9" viewBox="-15 -4.5 15 9" orient="auto-start-reverse">
			<path d="M 0 -0 L -10 -3, -8 -0.5, -8 0.5, -10 3 Z" fill="#FF2A00" stroke="#FF2A00" stroke-linejoin="round" />
		</marker>
		<marker id="CustomMarker-08" markerUnits="strokeWidth" markerWidth="15.000001" markerHeight="9" viewBox="-15 -4.5 15 9" orient="auto-start-reverse">
			<path d="M 0 -0 L -10 -3, -8 -0.5, -8 0.5, -10 3 Z" fill="#FF2A00" stroke="#FF2A00" stroke-linejoin="round" />
		</marker>
		<marker id="CustomMarker-09" markerUnits="strokeWidth" markerWidth="15.000001" markerHeight="9" viewBox="-15 -4.5 15 9" orient="auto-start-reverse">
			<path d="M 0 -0 L -10 -3, -8 -0.5, -8 0.5, -10 3 Z" fill="#000000" stroke="#000000" stroke-linejoin="round" />
		</marker>
		<marker id="CustomMarker-10" markerUnits="strokeWidth" markerWidth="15.000001" markerHeight="9" viewBox="-15 -4.5 15 9" orient="auto-start-reverse">
			<path d="M 0 -0 L -10 -3, -8 -0.5, -8 0.5, -10 3 Z" fill="#000000" stroke="#000000" stroke-linejoin="round" />
		</marker>
		<marker id="CustomMarker-11" markerUnits="strokeWidth" markerWidth="15.000001" markerHeight="9" viewBox="-15 -4.5 15 9" orient="auto-start-reverse">
			<path d="M 0 -0 L -10 -3, -8 -0.5, -8 0.5, -10 3 Z" fill="#FF2A00" stroke="#FF2A00" stroke-linejoin="round" />
		</marker>
		<marker id="CustomMarker-12" markerUnits="strokeWidth" markerWidth="15.000001" markerHeight="9" viewBox="-15 -4.5 15 9" orient="auto-start-reverse">
			<path d="M 0 -0 L -10 -3, -8 -0.5, -8 0.5, -10 3 Z" fill="#FF2A00" stroke="#FF2A00" stroke-linejoin="round" />
		</marker>
		<marker id="CustomMarker-13" markerUnits="strokeWidth" markerWidth="15.000001" markerHeight="9" viewBox="-15 -4.5 15 9" orient="auto-start-reverse">
			<path d="M 0 -0 L -10 -3, -8 -0.5, -8 0.5, -10 3 Z" fill="#FF2A00" stroke="#FF2A00" stroke-linejoin="round" />
		</marker>
	</defs>
	<rect x="-0" y="-0" width="314.112457" height="234.500015" stroke="none" fill="#FFFFFF" />
	<path d="M 79.9137 -29.0278 C 83.2935 -19.723, 85.0223 -9.89956, 85.0224 -2.85378e-005" fill="none" stroke="#000000" stroke-width="2.0999999" stroke-linecap="round" stroke-linejoin="round" transform="matrix(0.357143 0 -0 0.357143 71.3962 75.4338)" />
	<path d="M -83.7504 0 L 83.7499 0" fill="none" stroke="#FF2A00" stroke-width="2.79999995" stroke-linecap="round" stroke-linejoin="round" marker-end="url(#CustomMarker-01)" transform="matrix(0.357143 0 0 0.357143 41.4855 75.4338)" />
	<path d="M -52.7502 0 L 52.7499 0" fill="none" stroke="#FF2A00" stroke-width="2.79999995" stroke-linecap="round" stroke-linejoin="round" marker-end="url(#CustomMarker-02)" transform="matrix(0.357143 0 0 0.357143 52.557 117.25)" />
	<path d="M -83.7504 0 L 83.7499 0" fill="none" stroke="#FF2A00" stroke-width="2.79999995" stroke-linecap="round" stroke-linejoin="round" marker-end="url(#CustomMarker-03)" transform="matrix(0.357143 0 0 0.357143 41.4855 159.603)" />
	<path d="M -108.555 38.6306 L 108.555 -38.6307" fill="none" stroke="#FF2A00" stroke-width="2.79999995" stroke-linecap="round" stroke-linejoin="round" marker-end="url(#CustomMarker-04)" transform="matrix(0.357143 0 0 0.357143 108.591 145.806)" />
	<path d="M 0 38.6306 L 0 -38.6304" fill="none" stroke="#000000" stroke-width="2.79999995" stroke-linecap="round" stroke-linejoin="round" transform="matrix(0.357143 0 0 0.357143 69.8219 61.6371)" />
	<path d="M 0 38.6307 L 0 -38.6304" fill="none" stroke="#000000" stroke-width="2.79999995" stroke-linecap="round" stroke-linejoin="round" transform="matrix(0.357143 0 0 0.357143 69.8219 173.72)" />
	<path d="M 0 -265.417 L 0 265.416" fill="none" stroke="#000000" stroke-width="2.79999995" stroke-linecap="round" stroke-linejoin="round" marker-start="url(#CustomMarker-05)" marker-end="url(#CustomMarker-06)" transform="matrix(0.357143 0 0 0.357143 147.361 117.268)" />
	<path d="M -108.555 38.6306 L 108.555 -38.6304" fill="none" stroke="#FF2A00" stroke-width="2.79999995" stroke-linecap="round" stroke-linejoin="round" marker-end="url(#CustomMarker-07)" transform="matrix(0.357143 0 0 0.357143 108.591 61.6371)" />
	<path d="M -108.555 38.6305 L 108.555 -38.6305" fill="none" stroke="#FF2A00" stroke-width="2.79999995" stroke-linecap="round" stroke-linejoin="round" marker-end="url(#CustomMarker-08)" transform="matrix(0.357143 0 0 0.357143 108.591 103.453)" />
	<ellipse cx="884.74379920959473" cy="536.05037879943848" rx="7.3500003814697266" ry="7.3500003814697266" stroke="none" fill="#000000" transform="matrix(0.357143 0 0 0.357143 -246.158 -74.1786)" />
	<ellipse cx="884.74379920959473" cy="418.91460609436035" rx="7.3500003814697266" ry="7.3500003814697266" stroke="none" fill="#000000" transform="matrix(0.357143 0 0 0.357143 -246.158 -74.1786)" />
	<ellipse cx="884.74379920959473" cy="655.48684120178223" rx="7.3500003814697266" ry="7.3500003814697266" stroke="none" fill="#000000" transform="matrix(0.357143 0 0 0.357143 -246.158 -74.1786)" />
	<g transform="matrix(1 0 -0 1 51.144 58.9298)">
		<svg width="35.935379" height="35.8877335">
			<defs />
			<path d="M 10.1243 6.28091 C 10.1099 6.34388, 10.0775 6.39786, 10.028 6.4433, 9.97856 6.48918, 9.92458 6.51167, 9.86521 6.51122, 9.84541 6.52112, 9.82067 6.52606, 9.79098 6.52561, 9.73161 6.52606, 9.70192 6.52112, 9.70192 6.51122, 9.57866 6.51167, 9.51164 6.45904, 9.50174 6.35288 L 9.50174 6.3025 C 9.53143 6.07758, 9.55617 5.84952, 9.57597 5.61876, 9.59576 5.44153, 9.60565 5.27869, 9.60565 5.12934 L 9.60565 5.00699 C 9.59576 4.81536, 9.57237 4.64398, 9.53548 4.49284, 9.4986 4.34169, 9.43292 4.21349, 9.33891 4.10733, 9.15088 3.88692, 8.87153 3.75647, 8.50087 3.71553, 8.13021 3.67505, 7.73482 3.65436, 7.31467 3.6539 L 5.72093 3.6539 C 5.45913 3.65436, 5.30619 3.6737, 5.26165 3.71148, 5.23691 3.73128, 5.18743 3.87252, 5.11321 4.13612 L 4.19376 7.64839, 5.21712 7.64839 C 5.49422 7.64884, 5.74612 7.63714, 5.97328 7.61285, 6.2009 7.58901, 6.39612 7.51704, 6.55896 7.39648, 6.70741 7.27683, 6.81986 7.10904, 6.89633 6.89312, 6.9728 6.67721, 7.04838 6.43025, 7.12215 6.15136, 7.17658 6.00786, 7.27059 5.93814, 7.40374 5.94264 L 7.52969 5.94264 C 7.66824 5.94309, 7.73751 6.00561, 7.73751 6.12976 L 7.73751 6.18015, 6.81087 9.74279 C 6.78118 9.89213, 6.68491 9.96411, 6.52163 9.95871 L 6.40287 9.95871 C 6.26477 9.95916, 6.1955 9.90158, 6.1955 9.78598, 6.1955 9.75764, 6.20315 9.7311, 6.21754 9.70681, 6.28232 9.43871, 6.3291 9.1913, 6.35879 8.96549, 6.36868 8.90836, 6.37363 8.85798, 6.37363 8.81434, 6.37363 8.68029, 6.34394 8.57234, 6.28457 8.49047, 6.2009 8.37576, 6.05111 8.30739, 5.83609 8.2858, 5.62107 8.2642, 5.38041 8.25341, 5.11321 8.25296 L 4.04577 8.25296, 3.03005 12.1971 C 2.98057 12.3653, 2.95583 12.4903, 2.95583 12.5713 L 2.95583 12.6001 C 2.97562 12.6199, 3.11417 12.6316, 3.37102 12.6361 L 5.06868 12.6361 C 5.50861 12.6365, 5.93505 12.6069, 6.34754 12.5466, 6.76049 12.4867, 7.14464 12.3343, 7.5 12.0891, 7.65834 11.9744, 7.80949 11.821, 7.95253 11.6289, 8.09603 11.4373, 8.23188 11.225, 8.36053 10.992, 8.48918 10.7594, 8.61108 10.5124, 8.72714 10.2506, 8.84319 9.9893, 8.95835 9.7311, 9.07171 9.47649, 9.11129 9.36179, 9.19811 9.30421, 9.33126 9.30376 L 9.45721 9.30376 C 9.59576 9.30421, 9.66503 9.36673, 9.66503 9.49089 L 9.66503 9.54847, 8.18959 13.0607 C 8.13561 13.1759, 8.04655 13.2335, 7.92284 13.2335 L 0.213224 13.2335 C 0.139002 13.2335, 0.0845724 13.2119, 0.0499356 13.1687, 0.0157486 13.1354, -0.00134492 13.0994, -0.00179474 13.0607, -0.00134492 13.0324, 0.00360321 13.0036, 0.0130496 12.9744 L 0.0427383 12.8664 C 0.0575827 12.8043, 0.0922195 12.7508, 0.146649 12.7049, 0.201078 12.6595, 0.262705 12.6365, 0.331529 12.6361, 0.56409 12.6365, 0.781807 12.6329, 0.984231 12.6257, 1.18665 12.6185, 1.34005 12.5934, 1.44351 12.5497, 1.53257 12.502, 1.60185 12.3725, 1.65133 12.1611 L 3.73449 4.10014 C 3.76417 3.99488, 3.77902 3.91121, 3.77902 3.84823, 3.77902 3.7911, 3.76687 3.75737, 3.74168 3.74747, 3.67241 3.70474, 3.53656 3.67865, 3.33414 3.66875, 3.13171 3.6593, 2.914 3.65436, 2.68144 3.6539, 2.54334 3.65436, 2.47406 3.58958, 2.47406 3.45958 L 2.47406 3.4092, 2.50375 3.28684 C 2.54334 3.12895, 2.64005 3.04978, 2.79299 3.04933 L 10.3024 3.04933 C 10.4261 3.04978, 10.4927 3.10961, 10.5026 3.22927 L 10.5026 3.27965 Z" stroke="none" fill="#000000" />
			<rect />
		</svg>
	</g>
	<g transform="matrix(1 0 -0 1 50.3101 98.5726)">
		<svg width="41.9907646" height="35.8877335">
			<defs />
			<path d="M 12.1287 3.38761 C 12.1144 3.45058, 12.0811 3.50321, 12.0289 3.5464, 11.9767 3.58958, 11.9137 3.61117, 11.8395 3.61072, 11.6074 3.61117, 11.3901 3.61612, 11.1873 3.62557, 10.9848 3.63546, 10.8341 3.66155, 10.7352 3.70429, 10.6416 3.73847, 10.5696 3.86308, 10.5202 4.07854 L 8.42215 12.1899 C 8.40236 12.2816, 8.39246 12.3558, 8.39246 12.413, 8.39246 12.4854, 8.40731 12.5335, 8.437 12.5569, 8.50132 12.5956, 8.63492 12.6185, 8.83735 12.6257, 9.04022 12.6329, 9.25749 12.6365, 9.4896 12.6361, 9.62814 12.6365, 9.69742 12.6941, 9.69742 12.8088, 9.69742 12.8381, 9.69247 12.8691, 9.68257 12.9024 L 9.65289 13.0104 C 9.63804 13.0733, 9.60475 13.126, 9.55257 13.1687, 9.50084 13.2119, 9.43787 13.2335, 9.36365 13.2335, 8.74603 13.2047, 8.12572 13.1903, 7.5027 13.1903, 6.88509 13.1903, 6.25758 13.2047, 5.62017 13.2335, 5.54595 13.2335, 5.49152 13.2119, 5.45688 13.1687, 5.42269 13.1354, 5.40515 13.0994, 5.40515 13.0607, 5.40515 13.0324, 5.4101 13.0036, 5.41999 12.9744 L 5.44968 12.8664 C 5.47937 12.7085, 5.57563 12.6316, 5.73847 12.6361, 5.97103 12.6365, 6.18875 12.6329, 6.39117 12.6257, 6.5936 12.6185, 6.74699 12.5934, 6.85045 12.5497, 6.93952 12.502, 7.00879 12.3725, 7.05827 12.1611 L 8.07353 8.22417, 4.04846 8.22417, 3.03275 12.1899 C 3.00306 12.296, 2.98822 12.3797, 2.98822 12.4418, 2.98822 12.4998, 3.00081 12.5358, 3.02555 12.5497, 3.09483 12.5934, 3.23068 12.6185, 3.4331 12.6257, 3.63597 12.6329, 3.85324 12.6365, 4.08535 12.6361, 4.2239 12.6365, 4.29317 12.6941, 4.29317 12.8088, 4.29317 12.8381, 4.28822 12.8691, 4.27833 12.9024 L 4.24864 13.0104 C 4.21895 13.1597, 4.12269 13.2335, 3.9594 13.2335, 3.34178 13.2047, 2.71922 13.1903, 2.09126 13.1903, 1.47364 13.1903, 0.848381 13.2047, 0.215921 13.2335, 0.1417 13.2335, 0.0872702 13.2119, 0.0526333 13.1687, 0.0184463 13.1354, 0.00135283 13.0994, 0.000903003 13.0607, 0.00135283 13.0324, 0.00630095 13.0036, 0.0157474 12.9744 L 0.0454361 12.8664 C 0.0602804 12.8043, 0.0949173 12.7508, 0.149347 12.7049, 0.203776 12.6595, 0.265402 12.6365, 0.334226 12.6361, 0.566788 12.6365, 0.784505 12.6329, 0.986928 12.6257, 1.18935 12.6185, 1.34274 12.5934, 1.4462 12.5497, 1.53527 12.502, 1.60454 12.3725, 1.65402 12.1611 L 3.75203 4.04976 C 3.77182 3.95889, 3.78172 3.88692, 3.78172 3.83384, 3.78172 3.76231, 3.76687 3.71688, 3.73718 3.69709, 3.67286 3.6593, 3.53926 3.63546, 3.33684 3.62557, 3.13441 3.61612, 2.91669 3.61117, 2.68413 3.61072, 2.61036 3.61117, 2.55593 3.58733, 2.5213 3.53875, 2.49161 3.51041, 2.47676 3.47442, 2.47676 3.43079, 2.47676 3.40245, 2.48441 3.37591, 2.4988 3.35162 L 2.5213 3.23646 C 2.57572 3.09297, 2.67199 3.021, 2.81054 3.02055, 3.4286 3.04034, 4.05116 3.04978, 4.67868 3.04933, 5.30664 3.04978, 5.93415 3.04034, 6.56166 3.02055, 6.70021 3.021, 6.76903 3.08577, 6.76903 3.21487 L 6.76903 3.27245, 6.7245 3.3948 C 6.69481 3.5392, 6.60349 3.61117, 6.4501 3.61072, 6.21799 3.61117, 5.99847 3.61612, 5.79065 3.62557, 5.58283 3.63546, 5.43214 3.66065, 5.33812 3.70114, 5.24456 3.74207, 5.17034 3.86802, 5.11591 4.07854 L 4.2113 7.6196, 8.22963 7.6196, 9.14143 4.04976 C 9.17112 3.94449, 9.18551 3.86308, 9.18551 3.80505, 9.18551 3.74792, 9.17337 3.71418, 9.14863 3.70429, 9.07935 3.66155, 8.94485 3.63546, 8.74468 3.62557, 8.54451 3.61612, 8.32589 3.61117, 8.08838 3.61072, 8.01461 3.61117, 7.96018 3.58733, 7.92554 3.53875, 7.89585 3.51041, 7.88101 3.47442, 7.88101 3.43079, 7.88101 3.40245, 7.88866 3.37591, 7.90305 3.35162 L 7.92554 3.24366 C 7.94039 3.17709, 7.97637 3.12311, 8.03305 3.08217, 8.08973 3.04169, 8.15046 3.021, 8.21478 3.02055, 8.83285 3.04034, 9.45541 3.04978, 10.0829 3.04933, 10.7104 3.04978, 11.3379 3.04034, 11.9655 3.02055, 12.0347 3.021, 12.0941 3.04484, 12.1436 3.09252, 12.1634 3.1312, 12.1733 3.16719, 12.1733 3.20048, 12.1733 3.22972, 12.1661 3.25626, 12.1508 3.27965 Z" stroke="none" fill="#000000" />
			<rect />
		</svg>
	</g>
	<g transform="matrix(1 0 -0 1 51.2367 160.001)">
		<svg width="35.935379" height="35.8877335">
			<defs />
			<path d="M 9.92503 6.28091 C 9.91064 6.34388, 9.8796 6.39786, 9.83282 6.4433, 9.78603 6.48918, 9.7352 6.51167, 9.68077 6.51122, 9.67088 6.52112, 9.64614 6.52606, 9.60655 6.52561, 9.54718 6.52606, 9.51749 6.52112, 9.51749 6.51122 L 9.50264 6.51122 C 9.37444 6.51167, 9.31011 6.45904, 9.31011 6.35288 L 9.31011 6.3025 C 9.3398 6.07758, 9.36409 5.84952, 9.38389 5.61876, 9.40368 5.44153, 9.41358 5.27869, 9.41358 5.12934 L 9.41358 5.00699 C 9.40368 4.81536, 9.38164 4.64308, 9.347 4.48924, 9.31281 4.33585, 9.25344 4.20854, 9.16887 4.10733, 8.98129 3.88692, 8.71319 3.75647, 8.36502 3.71553, 8.01686 3.67505, 7.6372 3.65436, 7.22696 3.6539 L 5.72183 3.6539 C 5.46003 3.65436, 5.30709 3.6737, 5.26255 3.71148, 5.23781 3.73128, 5.18833 3.87252, 5.11411 4.13612 L 4.15058 7.84271, 5.1438 7.84271 C 5.4056 7.84316, 5.64671 7.83372, 5.86667 7.81437, 6.08664 7.79548, 6.27557 7.72081, 6.43346 7.59081, 6.57201 7.48105, 6.68086 7.31416, 6.76003 7.09105, 6.8392 6.86793, 6.91792 6.62188, 6.99709 6.35288, 7.01194 6.2863, 7.04793 6.23233, 7.1046 6.19139, 7.16128 6.15091, 7.22201 6.13021, 7.28633 6.12976 L 7.40464 6.12976 C 7.47391 6.13021, 7.53599 6.15406, 7.58997 6.20174, 7.60976 6.24042, 7.61966 6.27641, 7.61966 6.3097, 7.61966 6.33894, 7.61246 6.36548, 7.59762 6.38887 L 6.69301 9.95151 C 6.63903 10.0959, 6.54232 10.1679, 6.40377 10.1674 L 6.28547 10.1674 C 6.15232 10.1679, 6.08034 10.1054, 6.07045 9.9803 L 6.07045 9.92272 C 6.14962 9.63528, 6.20675 9.37843, 6.24093 9.15262, 6.25083 9.10044, 6.25578 9.05005, 6.25578 9.00147, 6.25578 8.86742, 6.22609 8.75947, 6.16671 8.6776, 6.08304 8.56289, 5.93595 8.49452, 5.72588 8.47292, 5.51581 8.45133, 5.28235 8.44054, 5.02504 8.44009 L 3.98729 8.44009, 3.03095 12.1899 C 3.01116 12.2623, 3.00126 12.332, 3.00126 12.3986, 3.00126 12.476, 3.02106 12.5214, 3.06064 12.5353, 3.16455 12.579, 3.35123 12.6069, 3.62023 12.6185, 3.88968 12.6307, 4.16542 12.6365, 4.44701 12.6361, 4.58556 12.6365, 4.65438 12.6941, 4.65438 12.8088, 4.65438 12.8381, 4.64944 12.8691, 4.63954 12.9024 L 4.60985 13.0175 C 4.55587 13.1615, 4.46186 13.2335, 4.32826 13.2335, 3.65127 13.2146, 2.97157 13.2002, 2.28963 13.1903 L 1.98555 13.1903 C 1.39762 13.1903, 0.806997 13.2047, 0.214122 13.2335, 0.139901 13.2335, 0.0854712 13.2119, 0.0508344 13.1687, 0.0166474 13.1354, -0.000446137 13.0994, -0.000895966 13.0607, -0.000446137 13.0324, 0.00450198 13.0036, 0.0139484 12.9744 L 0.0436371 12.8664 C 0.0584815 12.8043, 0.0931183 12.7508, 0.147548 12.7049, 0.201977 12.6595, 0.263604 12.6365, 0.332427 12.6361, 0.564989 12.6365, 0.782706 12.6329, 0.985129 12.6257, 1.18755 12.6185, 1.34094 12.5934, 1.4444 12.5497, 1.53347 12.502, 1.60274 12.3725, 1.65223 12.1611 L 3.73538 4.10014 C 3.76507 3.99488, 3.77992 3.91121, 3.77992 3.84823, 3.77992 3.7911, 3.76777 3.75737, 3.74258 3.74747, 3.67331 3.70474, 3.53746 3.67865, 3.33504 3.66875, 3.13261 3.6593, 2.9149 3.65436, 2.68233 3.6539, 2.54424 3.65436, 2.47496 3.58958, 2.47496 3.45958 L 2.47496 3.4092, 2.50465 3.28684 C 2.54424 3.12895, 2.64095 3.04978, 2.79389 3.04933 L 10.1104 3.04933 C 10.2489 3.04978, 10.3182 3.12671, 10.3182 3.27965 Z" stroke="none" fill="#000000" />
			<rect />
		</svg>
	</g>
	<path d="M 0 -117.837 L 0 117.837" fill="none" stroke="#000000" stroke-width="2.79999995" stroke-linecap="round" stroke-linejoin="round" marker-start="url(#CustomMarker-09)" marker-end="url(#CustomMarker-10)" transform="matrix(0.357143 0 0 0.357143 19.432 117.518)" />
	<g transform="matrix(1 0 -0 1 8.25002 108.712)">
		<svg width="23.9723053" height="26.9690266">
			<defs />
			<path d="M 6.64713 11.0455 C 6.5882 11.2812, 6.52163 11.5331, 6.4474 11.8017, 6.37318 12.0707, 6.27422 12.3199, 6.15052 12.5502, 6.02726 12.7805, 5.87162 12.9798, 5.68359 13.1475, 5.49601 13.3153, 5.2612 13.399, 4.97916 13.399, 4.604 13.399, 4.30352 13.2951, 4.0786 13.0864, 3.85369 12.8777, 3.72414 12.6653, 3.6895 12.449, 3.52127 12.6415, 3.27071 12.848, 2.93694 13.0684, 2.60361 13.2888, 2.2514 13.399, 1.88074 13.399, 1.49029 13.399, 1.16281 13.3009, 0.898312 13.1044, 0.633813 12.9078, 0.427791 12.6604, 0.279347 12.3626, 0.101665 12.0081, 0.00765055 11.6267, -0.00224572 11.2182 L -0.00224572 11.1103 C -0.00224572 10.7315, 0.0499345 10.3528, 0.153395 9.9731, 0.27215 9.55611, 0.437687 9.14362, 0.650006 8.73562, 0.862776 8.32808, 1.14437 7.94887, 1.49524 7.59801, 1.78223 7.31057, 2.1097 7.06856, 2.47766 6.87153, 2.84562 6.67496, 3.21988 6.57645, 3.60044 6.57599, 3.93151 6.57645, 4.20096 6.66416, 4.40833 6.83915, 4.61615 7.01458, 4.74705 7.15942, 4.80148 7.27413 L 4.77179 7.39648 C 4.80643 7.21925, 4.8892 7.0852, 5.0201 6.99389, 5.15145 6.90302, 5.2837 6.85714, 5.41684 6.85669, 5.56979 6.85714, 5.69844 6.90257, 5.80235 6.99344, 5.86667 7.06586, 5.90131 7.16167, 5.90581 7.28133, 5.90581 7.32496, 5.90086 7.37309, 5.89096 7.42527 L 4.82352 11.5853 C 4.77404 11.7823, 4.7394 11.9672, 4.71961 12.1395, 4.71016 12.2263, 4.70521 12.3055, 4.70521 12.377, 4.70521 12.44, 4.71016 12.507, 4.71961 12.5785, 4.7349 12.6941, 4.76954 12.7805, 4.82352 12.8381, 4.87795 12.8956, 4.95442 12.9244, 5.05338 12.924, 5.15729 12.9244, 5.25491 12.8812, 5.34622 12.7949, 5.43799 12.7085, 5.5221 12.5803, 5.59858 12.4098, 5.67505 12.2398, 5.74792 12.0356, 5.81719 11.7981, 5.88647 11.5606, 5.95799 11.3028, 6.03176 11.0239, 6.06145 10.8998, 6.14557 10.8372, 6.28412 10.8368 L 6.4546 10.8368 C 6.58325 10.8372, 6.64713 10.8899, 6.64713 10.9951 L 6.64713 11.0455 Z M 4.52708 8.3969 C 4.50729 8.31099, 4.4902 8.22102, 4.47535 8.12746, 4.46051 8.03389, 4.43802 7.94168, 4.40833 7.84991, 4.32961 7.625, 4.21715 7.43652, 4.07141 7.28538, 3.92566 7.13423, 3.74123 7.05866, 3.51902 7.05821, 3.31164 7.05866, 3.10652 7.13333, 2.90365 7.28178, 2.70123 7.43067, 2.5159 7.6223, 2.34766 7.85711, 2.1106 8.18863, 1.93292 8.5332, 1.81416 8.89037, 1.69541 9.24798, 1.58655 9.62089, 1.48759 10.0091, 1.38908 10.3932, 1.30766 10.7653, 1.24288 11.1247, 1.20375 11.3073, 1.18395 11.48, 1.18395 11.6429, 1.18395 11.8161, 1.20375 11.9838, 1.24288 12.1467, 1.28786 12.3725, 1.36793 12.5587, 1.48399 12.7049, 1.60005 12.8516, 1.76198 12.9244, 1.96935 12.924, 2.19697 12.9244, 2.42548 12.8453, 2.65534 12.6869, 2.88521 12.5286, 3.09888 12.3343, 3.29635 12.1035, 3.37552 12.0081, 3.45109 11.9159, 3.52261 11.8268, 3.59459 11.7382, 3.65756 11.6433, 3.71154 11.5421 L 4.52708 8.3969 Z" stroke="none" fill="#000000" />
			<rect />
		</svg>
	</g>
	<path d="M -36.9788 -103.913 L 36.9791 103.914" fill="none" stroke="#44E500" stroke-width="1.39999998" stroke-linecap="round" stroke-linejoin="round" stroke-dasharray="4.907, 3.493" transform="matrix(0.357143 0 0 0.357143 83.0286 112.546)" />
	<path d="M -18.4895 -51.9564 L 18.4893 51.9565" fill="none" stroke="#44E500" stroke-width="1.39999998" stroke-linecap="round" stroke-linejoin="round" stroke-dasharray="4.907, 3.493" transform="matrix(0.357143 0 0 0.357143 76.4253 135.806)" />
	<g transform="matrix(1 0 -0 1 99.7234 145.556)">
		<svg width="35.935379" height="38.9535408">
			<defs />
			<path d="M 9.17112 6.8351 C 9.14143 6.9507, 9.06271 7.02492, 8.93406 7.05821 L 8.76357 7.05821 C 8.63042 7.05866, 8.55845 6.98894, 8.54856 6.84949, 8.59804 6.51887, 8.62548 6.20938, 8.62997 5.92104, 8.62997 5.76315, 8.62503 5.61426, 8.61513 5.47481, 8.57554 5.05287, 8.46939 4.67997, 8.29665 4.35609, 8.12392 4.03221, 7.89135 3.77311, 7.59986 3.57878, 7.30838 3.38446, 6.95211 3.28729, 6.53197 3.28684, 6.01827 3.28729, 5.50186 3.41235, 4.98276 3.66155, 4.46411 3.91121, 3.99449 4.24453, 3.57435 4.66152, 3.08493 5.15633, 2.70213 5.70333, 2.42548 6.30295, 2.14884 6.90302, 1.93112 7.51434, 1.77278 8.1378, 1.60005 8.77161, 1.50603 9.38833, 1.49119 9.9875, 1.48129 10.0455, 1.47634 10.0959, 1.47634 10.1386, 1.47634 10.6717, 1.5852 11.1589, 1.80247 11.5997, 2.01029 12.0176, 2.30898 12.3514, 2.69943 12.6006, 3.08988 12.8502, 3.5523 12.9748, 4.0858 12.9744, 4.37279 12.9748, 4.65663 12.9366, 4.93823 12.8597, 5.21982 12.7832, 5.47577 12.6716, 5.70564 12.525, 5.9355 12.3788, 6.13432 12.2061, 6.30256 12.0068, 6.47079 11.808, 6.5819 11.5929, 6.63588 11.3622 L 6.95481 10.0955 C 6.9746 10.0239, 6.9845 9.95421, 6.9845 9.88674, 6.9845 9.81027, 6.96471 9.76483, 6.92512 9.74999, 6.82166 9.70726, 6.64128 9.67982, 6.38398 9.66767, 6.12713 9.65597, 5.86263 9.64968, 5.59048 9.64923, 5.51671 9.64968, 5.46228 9.62809, 5.42764 9.58445, 5.393 9.55116, 5.37546 9.51518, 5.37546 9.47649, 5.37546 9.44815, 5.38041 9.42161, 5.39031 9.39732 L 5.41999 9.26777 C 5.43529 9.2012, 5.47127 9.14857, 5.52795 9.10988, 5.58463 9.07165, 5.64536 9.0523, 5.70923 9.05185, 6.41637 9.08109, 7.14014 9.09549, 7.88146 9.09504, 8.35603 9.09549, 8.83285 9.08109, 9.31192 9.05185, 9.38119 9.0523, 9.44057 9.07615, 9.49005 9.12383, 9.50984 9.16251, 9.51974 9.19625, 9.51974 9.22459, 9.51974 9.25383, 9.51479 9.28037, 9.50489 9.30376 L 9.4752 9.43331 C 9.44551 9.58265, 9.34925 9.65462, 9.18596 9.64923, 9.01323 9.64968, 8.86838 9.65462, 8.75233 9.66407, 8.63627 9.67397, 8.55125 9.69781, 8.49682 9.73559, 8.45229 9.75539, 8.39786 9.88719, 8.33354 10.1314 L 7.57737 13.0247 C 7.57737 13.0684, 7.55038 13.1165, 7.49595 13.1687, 7.45142 13.2119, 7.39204 13.2335, 7.31782 13.2335, 7.25395 13.2335, 7.20447 13.2096, 7.16983 13.1615, 7.05647 13.0324, 6.95391 12.8947, 6.86215 12.7481, 6.77083 12.6019, 6.7101 12.4854, 6.68042 12.3986, 6.39387 12.7396, 5.97373 13.018, 5.42044 13.2335, 4.86715 13.4494, 4.31072 13.5573, 3.75203 13.5573, 3.07009 13.5573, 2.46372 13.4147, 1.93247 13.1296, 1.40122 12.8444, 0.969835 12.4494, 0.638761 11.9452, 0.292842 11.4036, 0.0899695 10.8035, 0.0305919 10.1458, 0.0107995 9.96861, 0.000903249 9.78418, 0.000903249 9.59165, 0.000903249 9.10763, 0.0629796 8.61327, 0.186233 8.10901, 0.374261 7.40413, 0.672498 6.72399, 1.08004 6.06904, 1.48759 5.41409, 1.99769 4.81806, 2.61036 4.28007, 3.18884 3.7911, 3.81545 3.40245, 4.4902 3.11456, 5.16494 2.82667, 5.84058 2.68272, 6.51713 2.68227, 7.05602 2.68272, 7.5171 2.80148, 7.8999 3.03899, 8.28316 3.2765, 8.5661 3.56304, 8.74873 3.89861 L 9.7496 2.78304 C 9.78918 2.71646, 9.85576 2.68272, 9.94977 2.68227 L 10.0087 2.68227 C 10.1275 2.68272, 10.1868 2.7403, 10.1868 2.85501 L 10.1868 2.91259 Z" stroke="none" fill="#000000" />
			<rect />
		</svg>
	</g>
	<ellipse cx="959.18416786193848" cy="628.09743690490723" rx="7.3500003814697266" ry="7.3500003814697266" stroke="none" fill="#000000" transform="matrix(0.357143 0 0 0.357143 -246.158 -74.1786)" />
	<g transform="matrix(1 0 -0 1 83.8434 155.853)">
		<svg width="27.073843" height="38.9535408">
			<defs />
			<path d="M 7.65429 13.1831 C 7.6246 13.327, 7.54049 13.399, 7.40194 13.399 L 6.69031 13.399 C 6.64083 13.399, 6.60394 13.3873, 6.5792 13.363, 6.3273 13.229, 6.14916 13.018, 6.04525 12.7297 L 4.66653 9.00147, 1.03416 13.1543 C 0.886165 13.3176, 0.737721 13.404, 0.589277 13.4134, 0.564987 13.4233, 0.537547 13.4278, 0.507858 13.4278, 0.364813 13.4278, 0.251006 13.3846, 0.166888 13.2982, 0.0634272 13.2218, 0.011247 13.1309, 0.011247 13.0247, 0.00135076 13.0252, -0.00359738 12.9964, -0.00359738 12.9384, -0.00359738 12.7998, 0.0733235 12.6559, 0.226265 12.5065 L 4.45916 8.44009, 2.96168 4.36643 C 2.84832 4.07899, 2.72956 3.83429, 2.60586 3.63276, 2.48261 3.43124, 2.29953 3.33048, 2.05707 3.33003, 1.9779 3.33048, 1.92122 3.29674, 1.88658 3.22927, 1.87219 3.20093, 1.86454 3.16989, 1.86454 3.1357 L 1.86454 3.08532 C 1.87939 3.02819, 1.91043 2.97691, 1.95721 2.93103, 2.00399 2.8856, 2.06697 2.86266, 2.14614 2.86221, 2.56133 2.86266, 2.95673 2.92878, 3.33233 3.06058, 3.70794 3.19283, 3.96255 3.44339, 4.09569 3.81225 L 7.16488 12.1683 C 7.23415 12.3509, 7.30343 12.5205, 7.3727 12.6761, 7.44197 12.8322, 7.52069 12.9438, 7.60976 13.0104, 7.63945 13.0589, 7.65429 13.1044, 7.65429 13.1471 L 7.65429 13.1831 Z" stroke="none" fill="#44E500" />
			<rect />
		</svg>
	</g>
	<path d="M -37.2204 13.2455 L 37.22 -13.2452" fill="none" stroke="#44E500" stroke-width="2.79999995" stroke-linecap="round" stroke-linejoin="round" transform="matrix(0.357143 0 0 0.357143 83.1149 154.872)" />
	<path d="M -18.4895 6.57971 L 18.4893 -6.57977" fill="none" stroke="#44E500" stroke-width="2.79999995" stroke-linecap="round" stroke-linejoin="round" transform="matrix(0.357143 0 0 0.357143 76.4253 114.9)" />
	<g transform="matrix(1 0 -0 1 65.7378 91.706)">
		<svg width="66.0646057" height="48.0116043">
			<defs />
			<path d="M 7.65421 13.1831 C 7.62452 13.327, 7.5404 13.399, 7.40186 13.399 L 6.69023 13.399 C 6.64075 13.399, 6.60386 13.3873, 6.57912 13.363, 6.32721 13.229, 6.14908 13.018, 6.04517 12.7297 L 4.66645 9.00147, 1.03408 13.1543 C 0.886083 13.3176, 0.737639 13.404, 0.589195 13.4134, 0.564905 13.4233, 0.537465 13.4278, 0.507776 13.4278, 0.364731 13.4278, 0.250924 13.3846, 0.166806 13.2982, 0.0633452 13.2218, 0.011165 13.1309, 0.011165 13.0247, 0.00126874 13.0252, -0.00367939 12.9964, -0.00367939 12.9384, -0.00367939 12.7998, 0.0732415 12.6559, 0.226183 12.5065 L 4.45907 8.44009, 2.96159 4.36643 C 2.84824 4.07899, 2.72948 3.83429, 2.60578 3.63276, 2.48253 3.43124, 2.29945 3.33048, 2.05699 3.33003, 1.97782 3.33048, 1.92114 3.29674, 1.8865 3.22927, 1.87211 3.20093, 1.86446 3.16989, 1.86446 3.1357 L 1.86446 3.08532 C 1.87931 3.02819, 1.91034 2.97691, 1.95713 2.93103, 2.00391 2.8856, 2.06688 2.86266, 2.14605 2.86221, 2.56125 2.86266, 2.95665 2.92878, 3.33225 3.06058, 3.70786 3.19283, 3.96246 3.44339, 4.09561 3.81225 L 7.1648 12.1683 C 7.23407 12.3509, 7.30334 12.5205, 7.37262 12.6761, 7.44189 12.8322, 7.52061 12.9438, 7.60968 13.0104, 7.63937 13.0589, 7.65421 13.1044, 7.65421 13.1471 L 7.65421 13.1831 Z" stroke="none" fill="#44E500" />
			<path d="M 8.60663 16.6594 C 8.57245 16.7556, 8.50812 16.8249, 8.41411 16.8681, 8.35473 16.8924, 8.3003 16.9041, 8.25082 16.9041, 8.21663 16.9041, 8.17435 16.8996, 8.12487 16.8897, 7.94719 16.8276, 7.85812 16.7196, 7.85812 16.5658, 7.85812 16.5181, 7.87071 16.465, 7.895 16.4075 L 13.1513 2.26483 C 13.1859 2.16947, 13.2525 2.0948, 13.3514 2.04172, 13.4059 2.02777, 13.4553 2.02058, 13.4994 2.02013, 13.5345 2.02058, 13.579 2.02552, 13.633 2.03452, 13.8112 2.0975, 13.8975 2.20545, 13.8926 2.3584, 13.8926 2.40698, 13.8804 2.45961, 13.8552 2.51674 Z" stroke="none" fill="#44E500" />
			<path d="M 20.3612 13.174 L 14.4478 13.174, 14.4478 12.7861 C 14.4478 12.7583, 14.4624 12.716, 14.4915 12.6591 L 16.8671 10.0776 C 17.1479 9.7677, 17.4323 9.4503, 17.7206 9.12585, 18.0089 8.8014, 18.2672 8.46989, 18.4947 8.13133, 18.7222 7.79277, 18.9038 7.44363, 19.0396 7.08391, 19.1753 6.7242, 19.2428 6.34684, 19.2428 5.95142, 19.2428 5.61815, 19.1991 5.30648, 19.1119 5.01729, 19.0246 4.72811, 18.8989 4.47419, 18.7341 4.25553, 18.5696 4.03688, 18.3638 3.86055, 18.1169 3.72653, 17.87 3.59252, 17.5839 3.52551, 17.2595 3.52507, 16.7754 3.52551, 16.3478 3.67011, 15.9771 3.95929, 15.6068 4.24848, 15.3608 4.5672, 15.2396 4.91458, 15.2158 4.92428, 15.2546 4.92913, 15.356 4.92868 L 15.4794 4.92868 C 15.6249 4.96219, 15.7505 5.01288, 15.8572 5.08077, 15.9639 5.1491, 16.0534 5.243, 16.1261 5.3629, 16.1988 5.48281, 16.235 5.6274, 16.235 5.79624, 16.235 6.07882, 16.1433 6.29527, 15.959 6.44559, 15.7748 6.59635, 15.5689 6.6713, 15.3414 6.67086, 15.1236 6.6713, 14.92 6.59635, 14.7313 6.44559, 14.5426 6.29527, 14.4478 6.07882, 14.4478 5.79624, 14.4478 5.4017, 14.5254 5.02787, 14.6806 4.67521, 14.8358 4.32254, 15.0461 4.01704, 15.3123 3.75827, 15.5786 3.49995, 15.8933 3.2954, 16.2566 3.14464, 16.6198 2.99431, 17.0051 2.91893, 17.412 2.91849, 17.9159 2.91893, 18.3774 2.99299, 18.7962 3.14111, 19.215 3.28923, 19.5721 3.50215, 19.8674 3.77943, 20.1628 4.05716, 20.3942 4.37809, 20.5613 4.74221, 20.7284 5.10678, 20.8117 5.5097, 20.8117 5.95142, 20.8117 6.44074, 20.7006 6.89127, 20.4776 7.30257, 20.2549 7.71431, 19.979 8.09166, 19.6497 8.43463, 19.3204 8.77803, 18.9703 9.10116, 18.5996 9.40446, 18.2293 9.70775, 17.8938 10.0027, 17.5936 10.2892 L 15.9224 11.8621, 18.1094 11.8621 C 18.4145 11.8625, 18.6992 11.8603, 18.9629 11.8555, 19.2269 11.8511, 19.4509 11.8414, 19.6351 11.8273, 19.8194 11.8132, 19.9137 11.8039, 19.9181 11.7986, 19.9569 11.766, 19.9935 11.7003, 20.0275 11.6016, 20.0614 11.5028, 20.0927 11.3864, 20.1218 11.2524, 20.1509 11.1184, 20.18 10.9822, 20.2091 10.8433, 20.2382 10.7049, 20.2646 10.5528, 20.2889 10.388 L 20.8263 10.388 Z" stroke="none" fill="#44E500" />
			<rect />
		</svg>
	</g>
	<path d="M -108.555 0 L 108.555 0" fill="none" stroke="#000000" stroke-width="1.39999998" stroke-linecap="round" stroke-linejoin="round" stroke-dasharray="4.907, 3.493" transform="matrix(0.357143 0 0 0.357143 108.591 75.4338)" />
	<g transform="matrix(1 0 -0 1 112.495 58.9298)">
		<svg width="23.9723053" height="38.9535408">
			<defs />
			<path d="M 6.26725 4.32325 C 6.386 4.77938, 6.44493 5.24495, 6.44493 5.71952, 6.44493 5.86886, 6.43998 6.01281, 6.43008 6.15136, 6.38105 6.78517, 6.27489 7.42077, 6.1116 8.05863, 5.93392 8.70189, 5.70901 9.3393, 5.43731 9.96996, 5.16561 10.6011, 4.8044 11.2065, 4.35457 11.7868, 4.20163 11.9838, 4.03204 12.1786, 3.84671 12.3702, 3.66139 12.5623, 3.46256 12.7337, 3.25024 12.8848, 3.03792 13.036, 2.81661 13.1597, 2.58674 13.2551, 2.35688 13.3513, 2.11577 13.399, 1.86387 13.399, 1.60702 13.399, 1.3857 13.35, 1.20037 13.2515, 1.01504 13.1534, 0.855802 13.0265, 0.722203 12.8705, 0.589053 12.7148, 0.478845 12.5407, 0.392478 12.3487, 0.306111 12.157, 0.235488 11.96, 0.181058 11.758, 0.0578051 11.3122, -0.00427139 10.8516, -0.00427139 10.3762, -0.00427139 10.2232, 0.00562489 10.0721, 0.0254173 9.92272, 0.0650023 9.29926, 0.171162 8.6686, 0.343896 8.02984, 0.507184 7.38749, 0.727151 6.75188, 1.0038 6.12302, 1.28089 5.49461, 1.64885 4.88734, 2.10858 4.30166, 2.26197 4.10553, 2.4302 3.90986, 2.61283 3.71553, 2.79546 3.52121, 2.99069 3.34847, 3.19806 3.19733, 3.40588 3.04619, 3.6245 2.92293, 3.85436 2.82667, 4.08422 2.73086, 4.32758 2.68272, 4.58443 2.68227, 4.84174 2.68272, 5.0617 2.73221, 5.24433 2.83027, 5.42696 2.92878, 5.5889 3.05473, 5.7297 3.20812, 5.87095 3.36197, 5.98205 3.53695, 6.06347 3.73353, 6.14534 3.93055, 6.21327 4.12713, 6.26725 4.32325 Z M 5.26638 4.48879 C 5.24658 4.30211, 5.22184 4.12713, 5.19215 3.96384, 5.16247 3.801, 5.11928 3.6593, 5.0626 3.5392, 5.00592 3.41954, 4.93305 3.32688, 4.84399 3.2621, 4.75492 3.19733, 4.64156 3.16494, 4.50302 3.16449, 4.21647 3.16494, 3.95198 3.29809, 3.70997 3.56439, 3.46796 3.83069, 3.23315 4.14872, 3.00553 4.51758, 2.67941 5.04568, 2.4275 5.58817, 2.24937 6.14461, 2.07124 6.7015, 1.9183 7.23859, 1.78965 7.75635 L 4.80665 7.75635 C 4.94025 7.21475, 5.06395 6.66281, 5.17731 6.10098, 5.25648 5.72222, 5.29606 5.34796, 5.29606 4.9782, 5.29606 4.81536, 5.28617 4.65253, 5.26638 4.48879 Z M 1.63401 8.33932 C 1.50086 8.88182, 1.38435 9.42881, 1.28539 9.9803, 1.20667 10.3788, 1.16708 10.7774, 1.16708 11.175, 1.16708 11.3244, 1.17203 11.4683, 1.18193 11.6069, 1.19182 11.7945, 1.21432 11.9699, 1.2485 12.1327, 1.28314 12.296, 1.32902 12.4364, 1.3857 12.5538, 1.44238 12.6716, 1.51795 12.7625, 1.61196 12.8273, 1.70598 12.892, 1.81979 12.9244, 1.95293 12.924, 2.23453 12.9244, 2.49768 12.7926, 2.74238 12.5286, 2.98709 12.265, 3.21785 11.9479, 3.43557 11.5781, 3.7617 11.041, 4.0136 10.4967, 4.19173 9.94477, 4.36987 9.39327, 4.52281 8.85798, 4.65101 8.33932 Z" stroke="none" fill="#000000" />
			<rect />
		</svg>
	</g>
	<path d="M 0 -304.5 L 0 304.5" fill="none" stroke="#000000" stroke-width="2.79999995" stroke-linecap="round" stroke-linejoin="round" transform="matrix(0.357143 0 0 0.357143 305.612 117.25)" />
	<path d="M -221.337 78.7653 L 221.337 -78.7653" fill="none" stroke="#FF2A00" stroke-width="2.79999995" stroke-linecap="round" stroke-linejoin="round" stroke-dasharray="4.214, 6.986" transform="matrix(0.357143 0 0 0.357143 226.563 89.1194)" />
	<path d="M -221.338 0 L 221.337 0" fill="none" stroke="#000000" stroke-width="1.39999998" stroke-linecap="round" stroke-linejoin="round" stroke-dasharray="4.907, 3.493" transform="matrix(0.357143 0 0 0.357143 226.563 117.25)" />
	<path d="M 79.9137 -29.0277 C 83.2935 -19.723, 85.0224 -9.89955, 85.0224 -2.92059e-005" fill="none" stroke="#000000" stroke-width="2.0999999" stroke-linecap="round" stroke-linejoin="round" transform="matrix(0.357143 0 -0 0.357143 147.514 117.518)" />
	<g transform="matrix(1 0 -0 1 166.885 91.706)">
		<svg width="23.9723053" height="38.9535408">
			<defs />
			<path d="M 6.26725 4.32325 C 6.386 4.77938, 6.44493 5.24495, 6.44493 5.71952, 6.44493 5.86886, 6.43998 6.01281, 6.43008 6.15136, 6.38105 6.78517, 6.27489 7.42077, 6.1116 8.05863, 5.93392 8.70189, 5.70901 9.3393, 5.43731 9.96996, 5.16561 10.6011, 4.8044 11.2065, 4.35457 11.7868, 4.20163 11.9838, 4.03204 12.1786, 3.84671 12.3702, 3.66139 12.5623, 3.46256 12.7337, 3.25024 12.8848, 3.03792 13.036, 2.81661 13.1597, 2.58674 13.2551, 2.35688 13.3513, 2.11577 13.399, 1.86387 13.399, 1.60702 13.399, 1.3857 13.35, 1.20037 13.2515, 1.01504 13.1534, 0.855802 13.0265, 0.722203 12.8705, 0.589053 12.7148, 0.478845 12.5407, 0.392478 12.3487, 0.306111 12.157, 0.235488 11.96, 0.181058 11.758, 0.0578051 11.3122, -0.00427139 10.8516, -0.00427139 10.3762, -0.00427139 10.2232, 0.00562489 10.0721, 0.0254173 9.92272, 0.0650023 9.29926, 0.171162 8.6686, 0.343896 8.02984, 0.507184 7.38749, 0.727151 6.75188, 1.0038 6.12302, 1.28089 5.49461, 1.64885 4.88734, 2.10858 4.30166, 2.26197 4.10553, 2.4302 3.90986, 2.61283 3.71553, 2.79546 3.52121, 2.99069 3.34847, 3.19806 3.19733, 3.40588 3.04619, 3.6245 2.92293, 3.85436 2.82667, 4.08422 2.73086, 4.32758 2.68272, 4.58443 2.68227, 4.84174 2.68272, 5.0617 2.73221, 5.24433 2.83027, 5.42696 2.92878, 5.5889 3.05473, 5.7297 3.20812, 5.87095 3.36197, 5.98205 3.53695, 6.06347 3.73353, 6.14534 3.93055, 6.21327 4.12713, 6.26725 4.32325 Z M 5.26638 4.48879 C 5.24658 4.30211, 5.22184 4.12713, 5.19215 3.96384, 5.16247 3.801, 5.11928 3.6593, 5.0626 3.5392, 5.00592 3.41954, 4.93305 3.32688, 4.84399 3.2621, 4.75492 3.19733, 4.64156 3.16494, 4.50302 3.16449, 4.21647 3.16494, 3.95198 3.29809, 3.70997 3.56439, 3.46796 3.83069, 3.23315 4.14872, 3.00553 4.51758, 2.67941 5.04568, 2.4275 5.58817, 2.24937 6.14461, 2.07124 6.7015, 1.9183 7.23859, 1.78965 7.75635 L 4.80665 7.75635 C 4.94025 7.21475, 5.06395 6.66281, 5.17731 6.10098, 5.25648 5.72222, 5.29606 5.34796, 5.29606 4.9782, 5.29606 4.81536, 5.28617 4.65253, 5.26638 4.48879 Z M 1.63401 8.33932 C 1.50086 8.88182, 1.38435 9.42881, 1.28539 9.9803, 1.20667 10.3788, 1.16708 10.7774, 1.16708 11.175, 1.16708 11.3244, 1.17203 11.4683, 1.18193 11.6069, 1.19182 11.7945, 1.21432 11.9699, 1.2485 12.1327, 1.28314 12.296, 1.32902 12.4364, 1.3857 12.5538, 1.44238 12.6716, 1.51795 12.7625, 1.61196 12.8273, 1.70598 12.892, 1.81979 12.9244, 1.95293 12.924, 2.23453 12.9244, 2.49768 12.7926, 2.74238 12.5286, 2.98709 12.265, 3.21785 11.9479, 3.43557 11.5781, 3.7617 11.041, 4.0136 10.4967, 4.19173 9.94477, 4.36987 9.39327, 4.52281 8.85798, 4.65101 8.33932 Z" stroke="none" fill="#000000" />
			<rect />
		</svg>
	</g>
	<path d="M -221.563 -18.4041 L 221.563 18.404" fill="none" stroke="#FF2A00" stroke-width="2.79999995" stroke-linecap="round" stroke-linejoin="round" marker-end="url(#CustomMarker-11)" transform="matrix(0.357143 0 0 0.357143 226.483 54.4161)" />
	<path d="M -221.552 41.3917 L 221.552 -41.3917" fill="none" stroke="#FF2A00" stroke-width="2.79999995" stroke-linecap="round" stroke-linejoin="round" marker-end="url(#CustomMarker-12)" transform="matrix(0.357143 0 0 0.357143 226.487 74.874)" />
	<path d="M -218.736 99.6628 L 218.736 -99.6628" fill="none" stroke="#FF2A00" stroke-width="2.79999995" stroke-linecap="round" stroke-linejoin="round" marker-end="url(#CustomMarker-13)" transform="matrix(0.357143 0 0 0.357143 225.481 96.4157)" />
	<g transform="matrix(1 0 -0 1 291.361 39.0347)">
		<svg width="35.935379" height="35.8877335">
			<defs />
			<path d="M 10.1979 5.84907 C 10.0894 6.23817, 9.90411 6.59714, 9.64231 6.92551, 9.38051 7.25434, 9.06878 7.53863, 8.70802 7.77794, 8.31757 8.04694, 7.90147 8.24981, 7.45884 8.38656, 7.01666 8.5233, 6.57808 8.59168, 6.14309 8.59123 L 3.94118 8.59123, 3.01453 12.1899 C 2.98484 12.296, 2.97 12.3797, 2.97 12.4418, 2.97 12.4998, 2.98259 12.5358, 3.00733 12.5497, 3.07661 12.5934, 3.21246 12.6185, 3.41488 12.6257, 3.61775 12.6329, 3.83502 12.6365, 4.06713 12.6361, 4.20568 12.6365, 4.27495 12.7036, 4.27495 12.8376 L 4.27495 12.888, 4.24526 13.0175 C 4.19083 13.1615, 4.09457 13.2335, 3.95602 13.2335, 3.33841 13.2047, 2.71809 13.1903, 2.09553 13.1903, 1.46802 13.1903, 0.840507 13.2047, 0.212546 13.2335, 0.0793963 13.2335, 0.00787344 13.1714, -0.00247263 13.0463 L -0.00247263 12.9888, 0.0272161 12.8664 C 0.066801 12.7085, 0.163064 12.6316, 0.316006 12.6361, 0.548568 12.6365, 0.768534 12.6329, 0.975906 12.6257, 1.18373 12.6185, 1.33667 12.5934, 1.43563 12.5497, 1.52965 12.4975, 1.60117 12.368, 1.65065 12.1611 L 3.73381 4.04976 C 3.7635 3.94449, 3.77789 3.86308, 3.77789 3.80505, 3.77789 3.74792, 3.76575 3.71418, 3.741 3.70429, 3.67173 3.66155, 3.53723 3.63546, 3.33706 3.62557, 3.13688 3.61612, 2.91827 3.61117, 2.68076 3.61072, 2.54266 3.61117, 2.47339 3.5464, 2.47339 3.4164 L 2.47339 3.35882, 2.51792 3.23646 C 2.54761 3.09297, 2.63937 3.021, 2.79232 3.02055 L 7.54386 3.02055 C 7.97929 3.021, 8.38324 3.08937, 8.75615 3.22612, 9.12951 3.36287, 9.44934 3.56799, 9.71608 3.84103, 9.95809 4.09564, 10.1286 4.39792, 10.2275 4.74789, 10.2572 4.91163, 10.2721 5.07716, 10.2721 5.2445, 10.2721 5.43703, 10.2473 5.63855, 10.1979 5.84907 Z M 8.61895 5.81309 C 8.70307 5.51125, 8.75975 5.21841, 8.78944 4.93502 L 8.78944 4.80547 C 8.78944 4.58505, 8.72781 4.38353, 8.60411 4.2009, 8.44127 3.98543, 8.22355 3.83339, 7.95185 3.74432, 7.68016 3.6557, 7.38597 3.61117, 7.06974 3.61072 L 5.67572 3.61072 C 5.42382 3.61117, 5.27312 3.63051, 5.22364 3.66875, 5.17416 3.70743, 5.12243 3.84373, 5.068 4.07854 L 4.03744 8.05143, 5.89074 8.05143 C 6.21192 8.05188, 6.53354 8.00645, 6.85472 7.91514, 7.1759 7.82427, 7.47729 7.66818, 7.75888 7.44686, 8.01123 7.2314, 8.19791 6.97949, 8.31892 6.6916, 8.43992 6.40371, 8.53978 6.11087, 8.61895 5.81309 Z" stroke="none" fill="#000000" />
			<rect />
		</svg>
	</g>
	<g transform="matrix(1 0 -0 1 221.786 118.993)">
		<svg width="27.073843" height="48.0116043">
			<defs />
			<path d="M 7.34796 3.97058 C 7.29353 4.182, 7.18242 4.34439, 7.01419 4.45685, 6.8464 4.56976, 6.68086 4.62599, 6.51757 4.62554, 6.33989 4.62599, 6.1964 4.56346, 6.08754 4.43841, 6.00387 4.35744, 5.95934 4.25398, 5.95394 4.12892, 5.95394 4.07674, 5.96384 4.00927, 5.98363 3.9274, 6.03851 3.74567, 6.13117 3.60172, 6.26207 3.49601, 6.39297 3.39075, 6.49059 3.33273, 6.55446 3.32283, 6.4609 3.21757, 6.27557 3.16494, 5.99847 3.16449, 5.83563 3.16494, 5.67999 3.30664, 5.53155 3.58913, 5.50186 3.63276, 5.46857 3.72993, 5.43169 3.88107, 5.3948 4.03221, 5.35252 4.21709, 5.30574 4.43526, 5.25895 4.65388, 5.21037 4.88509, 5.16089 5.12979, 5.11141 5.3745, 5.06688 5.60976, 5.02729 5.83468 L 4.84196 6.74873, 6.19865 6.74873 C 6.3273 6.74918, 6.39162 6.81395, 6.39162 6.94306 L 6.39162 6.99344, 6.36193 7.12299 C 6.3075 7.26738, 6.21124 7.33935, 6.07269 7.33891 L 4.72366 7.33891, 4.01203 10.9231 C 3.94275 11.2596, 3.86898 11.6181, 3.78981 11.9996, 3.71064 12.381, 3.62427 12.7602, 3.53026 13.1368, 3.43625 13.5133, 3.32874 13.8695, 3.20773 14.2051, 3.08673 14.5411, 2.95673 14.834, 2.81818 15.0832, 2.73451 15.2226, 2.63915 15.363, 2.53299 15.5042, 2.42683 15.6459, 2.30987 15.7719, 2.18122 15.8821, 2.05257 15.9927, 1.91312 16.0849, 1.76198 16.1592, 1.61129 16.2338, 1.44935 16.2707, 1.27662 16.2707, 1.08409 16.2707, 0.903708 16.2397, 0.735472 16.1771, 0.567686 16.1151, 0.423291 16.0287, 0.301837 15.918, 0.181283 15.8078, 0.0908669 15.6733, 0.0310397 15.515, 0.0116971 15.4286, 0.00180078 15.3423, 0.001351 15.2559, 0.00180078 15.1745, 0.0116971 15.0859, 0.0310397 14.9896, 0.0859189 14.7737, 0.199726 14.6117, 0.37246 14.5038, 0.545644 14.3958, 0.716129 14.3418, 0.883466 14.3418, 1.0571 14.3418, 1.20015 14.3994, 1.3135 14.5146, 1.39762 14.5964, 1.43945 14.6995, 1.43945 14.8241, 1.43945 14.8771, 1.42956 14.9442, 1.40977 15.0256, 1.35579 15.2082, 1.26177 15.3544, 1.12862 15.4646, 0.995473 15.5753, 0.896511 15.6351, 0.831735 15.6445, 0.916303 15.7408, 1.08904 15.7885, 1.35039 15.7885, 1.47904 15.7885, 1.59914 15.7165, 1.71025 15.5726, 1.82136 15.4286, 1.91133 15.2321, 1.9806 14.9824, 2.15378 14.3972, 2.31077 13.7485, 2.45157 13.036, 2.59237 12.3235, 2.73181 11.6289, 2.87036 10.9519 L 3.60403 7.33891, 2.49205 7.33891 C 2.41828 7.33935, 2.36385 7.31551, 2.32922 7.26693, 2.29953 7.23859, 2.28468 7.20261, 2.28468 7.15897, 2.28468 7.13063, 2.29233 7.10409, 2.30673 7.0798 L 2.32922 6.97184 C 2.34406 6.90977, 2.37735 6.85714, 2.42908 6.81395, 2.48126 6.77077, 2.53659 6.74918, 2.59597 6.74873 L 3.72279 6.74873, 3.89327 5.84907 C 3.92296 5.66239, 3.96255 5.45637, 4.01203 5.23056, 4.06151 5.00519, 4.12044 4.78073, 4.18971 4.55761, 4.25898 4.3345, 4.33725 4.11993, 4.42362 3.91346, 4.50999 3.70743, 4.61525 3.532, 4.7385 3.38761, 4.91663 3.18158, 5.12176 3.0129, 5.35387 2.88065, 5.58598 2.74885, 5.83069 2.68272, 6.08754 2.68227, 6.28052 2.68272, 6.4645 2.71151, 6.63993 2.76909, 6.81536 2.82667, 6.96381 2.91079, 7.08481 3.021, 7.20581 3.13165, 7.29083 3.26345, 7.34031 3.4164, 7.37495 3.49377, 7.39204 3.58238, 7.39204 3.68269, 7.39204 3.76456, 7.37765 3.86083, 7.34796 3.97058 Z" stroke="none" fill="#000000" />
			<rect />
		</svg>
	</g>
</svg>
