<?xml version="1.0"?>
<svg xmlns="http://www.w3.org/2000/svg" xmlns:xlink="http://www.w3.org/1999/xlink" width="247.888474" height="235.157974">
	<defs>
		<marker id="CustomMarker-01" markerUnits="strokeWidth" markerWidth="21" markerHeight="9" viewBox="-21 -4.5 21 9" orient="auto-start-reverse">
			<path d="M 0 -0 L -14 -3, -11.2 -0.5, -11.2 0.5, -14 3 Z" fill="#000000" stroke="#000000" stroke-linejoin="round" />
		</marker>
		<marker id="CustomMarker-02" markerUnits="strokeWidth" markerWidth="21" markerHeight="9" viewBox="-21 -4.5 21 9" orient="auto-start-reverse">
			<path d="M 0 -0 L -14 -3, -11.2 -0.5, -11.2 0.5, -14 3 Z" fill="#000000" stroke="#000000" stroke-linejoin="round" />
		</marker>
		<marker id="CustomMarker-03" markerUnits="strokeWidth" markerWidth="15.000001" markerHeight="9" viewBox="-15 -4.5 15 9" orient="auto-start-reverse">
			<path d="M 0 -0 L -10 -3, -8 -0.5, -8 0.5, -10 3 Z" fill="#000000" stroke="#000000" stroke-linejoin="round" />
		</marker>
		<marker id="CustomMarker-04" markerUnits="strokeWidth" markerWidth="15.000001" markerHeight="9" viewBox="-15 -4.5 15 9" orient="auto-start-reverse">
			<path d="M 0 -0 L -10 -3, -8 -0.5, -8 0.5, -10 3 Z" fill="#000000" stroke="#000000" stroke-linejoin="round" />
		</marker>
		<marker id="CustomMarker-05" markerUnits="strokeWidth" markerWidth="15.000001" markerHeight="9" viewBox="-15 -4.5 15 9" orient="auto-start-reverse">
			<path d="M 0 -0 L -10 -3, -8 -0.5, -8 0.5, -10 3 Z" fill="#FF2A00" stroke="#FF2A00" stroke-linejoin="round" />
		</marker>
		<marker id="CustomMarker-06" markerUnits="strokeWidth" markerWidth="15.000001" markerHeight="9" viewBox="-15 -4.5 15 9" orient="auto-start-reverse">
			<path d="M 0 -0 L -10 -3, -8 -0.5, -8 0.5, -10 3 Z" fill="#FF2A00" stroke="#FF2A00" stroke-linejoin="round" />
		</marker>
		<marker id="CustomMarker-07" markerUnits="strokeWidth" markerWidth="15.000001" markerHeight="9" viewBox="-15 -4.5 15 9" orient="auto-start-reverse">
			<path d="M 0 -0 L -10 -3, -8 -0.5, -8 0.5, -10 3 Z" fill="#FF2A00" stroke="#FF2A00" stroke-linejoin="round" />
		</marker>
		<marker id="CustomMarker-08" markerUnits="strokeWidth" markerWidth="15.000001" markerHeight="9" viewBox="-15 -4.5 15 9" orient="auto-start-reverse">
			<path d="M 0 -0 L -10 -3, -8 -0.5, -8 0.5, -10 3 Z" fill="#FF2A00" stroke="#FF2A00" stroke-linejoin="round" />
		</marker>
		<marker id="CustomMarker-09" markerUnits="strokeWidth" markerWidth="15.000001" markerHeight="9" viewBox="-15 -4.5 15 9" orient="auto-start-reverse">
			<path d="M 0 -0 L -10 -3, -8 -0.5, -8 0.5, -10 3 Z" fill="#FF2A00" stroke="#FF2A00" stroke-linejoin="round" />
		</marker>
		<marker id="CustomMarker-10" markerUnits="strokeWidth" markerWidth="15.000001" markerHeight="9" viewBox="-15 -4.5 15 9" orient="auto-start-reverse">
			<path d="M 0 -0 L -10 -3, -8 -0.5, -8 0.5, -10 3 Z" fill="#FF2A00" stroke="#FF2A00" stroke-linejoin="round" />
		</marker>
		<marker id="CustomMarker-11" markerUnits="strokeWidth" markerWidth="15.000001" markerHeight="9" viewBox="-15 -4.5 15 9" orient="auto-start-reverse">
			<path d="M 0 -0 L -10 -3, -8 -0.5, -8 0.5, -10 3 Z" fill="#FF2A00" stroke="#FF2A00" stroke-linejoin="round" />
		</marker>
		<marker id="CustomMarker-12" markerUnits="strokeWidth" markerWidth="15.000001" markerHeight="9" viewBox="-15 -4.5 15 9" orient="auto-start-reverse">
			<path d="M 0 -0 L -10 -3, -8 -0.5, -8 0.5, -10 3 Z" fill="#FF2A00" stroke="#FF2A00" stroke-linejoin="round" />
		</marker>
	</defs>
	<rect x="-0" y="-0" width="247.888474" height="235.157974" stroke="none" fill="#FFFFFF" />
	<path d="M 0 -82.7282 L 0 82.7271" fill="none" stroke="#000000" stroke-width="2.79999995" stroke-linecap="round" stroke-linejoin="round" transform="matrix(0.357143 0 0 0.357143 47.9625 117.579)" />
	<path d="M 0 26.0908 L 0 -26.0909" fill="none" stroke="#000000" stroke-width="2.79999995" stroke-linecap="round" stroke-linejoin="round" transform="matrix(0.357143 0 0 0.357143 47.9625 64.7646)" />
	<path d="M 0 26.0911 L 0 -26.0909" fill="none" stroke="#000000" stroke-width="2.79999995" stroke-linecap="round" stroke-linejoin="round" transform="matrix(0.357143 0 0 0.357143 47.9625 171.227)" />
	<path d="M -19.5307 0 L 19.5307 0" fill="none" stroke="#000000" stroke-width="2.0999999" stroke-linecap="round" stroke-linejoin="round" transform="matrix(2.69635e-008 0.357143 -0.357143 2.69635e-008 41.8986 81.0582)" />
	<path d="M -19.5307 -10.5667 L -19.5307 10.5667" fill="none" stroke="#000000" stroke-width="1.39999998" stroke-linecap="round" stroke-linejoin="round" transform="matrix(2.69635e-008 0.357143 -0.357143 2.69635e-008 41.8986 81.0582)" />
	<path d="M 19.5307 -10.5667 L 19.5307 10.5667" fill="none" stroke="#000000" stroke-width="1.39999998" stroke-linecap="round" stroke-linejoin="round" transform="matrix(2.69635e-008 0.357143 -0.357143 2.69635e-008 41.8986 81.0582)" />
	<g transform="matrix(1 0 -0 1 31.2774 70.4341)">
		<svg width="23.9723053" height="26.9690266">
			<defs />
			<path d="M 6.64713 11.0455 C 6.5882 11.2812, 6.52163 11.5331, 6.4474 11.8017, 6.37318 12.0707, 6.27422 12.3199, 6.15052 12.5502, 6.02726 12.7805, 5.87162 12.9798, 5.68359 13.1475, 5.49601 13.3153, 5.2612 13.399, 4.97916 13.399, 4.604 13.399, 4.30352 13.2951, 4.0786 13.0864, 3.85369 12.8777, 3.72414 12.6653, 3.6895 12.449, 3.52127 12.6415, 3.27071 12.848, 2.93694 13.0684, 2.60361 13.2888, 2.2514 13.399, 1.88074 13.399, 1.49029 13.399, 1.16281 13.3009, 0.898312 13.1044, 0.633813 12.9078, 0.427791 12.6604, 0.279347 12.3626, 0.101665 12.0081, 0.00765055 11.6267, -0.00224572 11.2182 L -0.00224572 11.1103 C -0.00224572 10.7315, 0.0499345 10.3528, 0.153395 9.9731, 0.27215 9.55611, 0.437687 9.14362, 0.650006 8.73562, 0.862776 8.32808, 1.14437 7.94887, 1.49524 7.59801, 1.78223 7.31057, 2.1097 7.06856, 2.47766 6.87153, 2.84562 6.67496, 3.21988 6.57645, 3.60044 6.57599, 3.93151 6.57645, 4.20096 6.66416, 4.40833 6.83915, 4.61615 7.01458, 4.74705 7.15942, 4.80148 7.27413 L 4.77179 7.39648 C 4.80643 7.21925, 4.8892 7.0852, 5.0201 6.99389, 5.15145 6.90302, 5.2837 6.85714, 5.41684 6.85669, 5.56979 6.85714, 5.69844 6.90257, 5.80235 6.99344, 5.86667 7.06586, 5.90131 7.16167, 5.90581 7.28133, 5.90581 7.32496, 5.90086 7.37309, 5.89096 7.42527 L 4.82352 11.5853 C 4.77404 11.7823, 4.7394 11.9672, 4.71961 12.1395, 4.71016 12.2263, 4.70521 12.3055, 4.70521 12.377, 4.70521 12.44, 4.71016 12.507, 4.71961 12.5785, 4.7349 12.6941, 4.76954 12.7805, 4.82352 12.8381, 4.87795 12.8956, 4.95442 12.9244, 5.05338 12.924, 5.15729 12.9244, 5.25491 12.8812, 5.34622 12.7949, 5.43799 12.7085, 5.5221 12.5803, 5.59858 12.4098, 5.67505 12.2398, 5.74792 12.0356, 5.81719 11.7981, 5.88647 11.5606, 5.95799 11.3028, 6.03176 11.0239, 6.06145 10.8998, 6.14557 10.8372, 6.28412 10.8368 L 6.4546 10.8368 C 6.58325 10.8372, 6.64713 10.8899, 6.64713 10.9951 L 6.64713 11.0455 Z M 4.52708 8.3969 C 4.50729 8.31099, 4.4902 8.22102, 4.47535 8.12746, 4.46051 8.03389, 4.43802 7.94168, 4.40833 7.84991, 4.32961 7.625, 4.21715 7.43652, 4.07141 7.28538, 3.92566 7.13423, 3.74123 7.05866, 3.51902 7.05821, 3.31164 7.05866, 3.10652 7.13333, 2.90365 7.28178, 2.70123 7.43067, 2.5159 7.6223, 2.34766 7.85711, 2.1106 8.18863, 1.93292 8.5332, 1.81416 8.89037, 1.69541 9.24798, 1.58655 9.62089, 1.48759 10.0091, 1.38908 10.3932, 1.30766 10.7653, 1.24288 11.1247, 1.20375 11.3073, 1.18395 11.48, 1.18395 11.6429, 1.18395 11.8161, 1.20375 11.9838, 1.24288 12.1467, 1.28786 12.3725, 1.36793 12.5587, 1.48399 12.7049, 1.60005 12.8516, 1.76198 12.9244, 1.96935 12.924, 2.19697 12.9244, 2.42548 12.8453, 2.65534 12.6869, 2.88521 12.5286, 3.09888 12.3343, 3.29635 12.1035, 3.37552 12.0081, 3.45109 11.9159, 3.52261 11.8268, 3.59459 11.7382, 3.65756 11.6433, 3.71154 11.5421 L 4.52708 8.3969 Z" stroke="none" fill="#000000" />
			<rect />
		</svg>
	</g>
	<path d="M -83.0084 0 L 83.0084 0" fill="none" stroke="#000000" stroke-width="2.0999999" stroke-linecap="round" stroke-linejoin="round" transform="matrix(2.69635e-008 0.357143 -0.357143 2.69635e-008 41.8986 117.478)" />
	<path d="M -83.0084 -10.5667 L -83.0084 10.5667" fill="none" stroke="#000000" stroke-width="1.39999998" stroke-linecap="round" stroke-linejoin="round" transform="matrix(2.69635e-008 0.357143 -0.357143 2.69635e-008 41.8986 117.478)" />
	<path d="M 83.0084 -10.5667 L 83.0084 10.5667" fill="none" stroke="#000000" stroke-width="1.39999998" stroke-linecap="round" stroke-linejoin="round" transform="matrix(2.69635e-008 0.357143 -0.357143 2.69635e-008 41.8986 117.478)" />
	<g transform="matrix(1 0 -0 1 31.9186 106.625)">
		<svg width="21.0184593" height="38.9535408">
			<defs />
			<path d="M 5.2151 10.0163 C 5.09634 10.4342, 4.9299 10.8471, 4.71489 11.2547, 4.49987 11.6627, 4.21962 12.0392, 3.87326 12.3842, 3.58671 12.6725, 3.26194 12.9136, 2.89848 13.108, 2.53546 13.3023, 2.15851 13.399, 1.76806 13.399, 1.39245 13.399, 1.07847 13.2987, 0.826563 13.0972, 0.574659 12.8956, 0.381682 12.646, 0.248083 12.3482, 0.0901932 11.9937, 0.00607514 11.6123, -0.00382107 11.2038 L -0.00382107 11.1103 C -0.00382107 10.7315, 0.0456601 10.355, 0.144623 9.9803 L 1.63446 4.1865 C 1.67404 4.02861, 1.69878 3.90851, 1.70868 3.82664 L 1.70868 3.80505 C 1.70868 3.76231, 1.69878 3.73128, 1.67899 3.71148, 1.61961 3.6737, 1.5085 3.64716, 1.34522 3.63276, 1.18238 3.61837, 0.99435 3.61117, 0.78203 3.61072, 0.708258 3.61117, 0.653829 3.58733, 0.618742 3.53875, 0.589054 3.51041, 0.574209 3.47442, 0.574209 3.43079, 0.574209 3.40245, 0.581856 3.37591, 0.596701 3.35162 L 0.618742 3.23646 C 0.658327 3.12176, 0.747393 3.04978, 0.885941 3.02055 L 2.85034 2.86221, 2.88003 2.86221 C 2.93941 2.86266, 2.98844 2.882, 3.02803 2.91978, 3.04782 2.95847, 3.05772 2.99715, 3.05772 3.03494, 3.05772 3.06418, 3.05052 3.09072, 3.03567 3.11411 L 1.96823 7.25974 C 2.07709 7.14998, 2.27726 7.00828, 2.56875 6.83555, 2.86024 6.66281, 3.16657 6.57645, 3.48775 6.57599, 3.8782 6.57645, 4.20838 6.67721, 4.47738 6.87873, 4.74682 7.08025, 4.9533 7.32721, 5.09634 7.6196, 5.26458 7.97496, 5.35319 8.35912, 5.36309 8.77116 L 5.36309 8.87192 C 5.36309 9.24168, 5.31406 9.62314, 5.2151 10.0163 Z M 4.14 7.82832 C 4.09592 7.59846, 4.0118 7.41268, 3.8881 7.27098, 3.76485 7.12973, 3.60426 7.05866, 3.40633 7.05821, 3.16927 7.05866, 2.93716 7.13558, 2.70955 7.28897, 2.48238 7.44282, 2.26961 7.63669, 2.07169 7.8715, 1.91875 8.06853, 1.78515 8.25341, 1.67134 8.42569 L 1.2638 10.0091 C 1.16483 10.3932, 1.09106 10.763, 1.04158 11.1175, 1.02179 11.2668, 1.01189 11.4081, 1.01189 11.5421, 1.01189 11.7535, 1.03663 11.9551, 1.08611 12.1467, 1.14054 12.368, 1.23051 12.5529, 1.35646 12.7013, 1.48241 12.8502, 1.6493 12.9244, 1.85667 12.924, 2.06449 12.9244, 2.27096 12.848, 2.47609 12.6941, 2.68121 12.5407, 2.86519 12.3487, 3.02803 12.1179, 3.26554 11.7967, 3.44457 11.4553, 3.56557 11.0927, 3.68703 10.7306, 3.79678 10.36, 3.8953 9.9803, 3.99426 9.58715, 4.08108 9.2084, 4.15485 8.84313, 4.18454 8.67085, 4.19938 8.50306, 4.19938 8.33932, 4.19938 8.16704, 4.17959 7.99656, 4.14 7.82832 Z" stroke="none" fill="#000000" />
			<rect />
		</svg>
	</g>
	<path d="M -102.539 0 L 102.539 0" fill="none" stroke="#000000" stroke-width="2.0999999" stroke-linecap="round" stroke-linejoin="round" marker-start="url(#CustomMarker-01)" marker-end="url(#CustomMarker-02)" transform="matrix(2.69635e-008 0.357143 -0.357143 2.69635e-008 22.6128 110.704)" />
	<path d="M -102.539 -10.5668 L -102.539 10.5668" fill="none" stroke="#000000" stroke-width="1.39999998" stroke-linecap="round" stroke-linejoin="round" transform="matrix(2.69635e-008 0.357143 -0.357143 2.69635e-008 22.6128 110.704)" />
	<path d="M 102.539 -10.5668 L 102.539 10.5668" fill="none" stroke="#000000" stroke-width="1.39999998" stroke-linecap="round" stroke-linejoin="round" transform="matrix(2.69635e-008 0.357143 -0.357143 2.69635e-008 22.6128 110.704)" />
	<g transform="matrix(1 0 -0 1 8.24999 98.9431)">
		<svg width="27.073843" height="38.9535408">
			<defs />
			<path d="M 4.82532 11.5925 C 4.7367 11.9002, 4.69217 12.1687, 4.69217 12.3986, 4.69217 12.4616, 4.69712 12.5214, 4.70701 12.5785, 4.73175 12.8093, 4.84781 12.9244, 5.05518 12.924, 5.15909 12.9244, 5.2567 12.8812, 5.34802 12.7949, 5.43979 12.7085, 5.5239 12.5803, 5.60037 12.4098, 5.67685 12.2398, 5.74972 12.0356, 5.81899 11.7981, 5.88827 11.5606, 5.95979 11.3028, 6.03356 11.0239, 6.06325 10.8998, 6.14737 10.8372, 6.28591 10.8368 L 6.4564 10.8368 C 6.58505 10.8372, 6.64893 10.8899, 6.64893 10.9951 L 6.64893 11.0455 C 6.59 11.2812, 6.52342 11.5331, 6.4492 11.8017, 6.37498 12.0707, 6.27602 12.3199, 6.15231 12.5502, 6.02906 12.7805, 5.87342 12.9798, 5.68539 13.1475, 5.49781 13.3153, 5.263 13.399, 4.98096 13.399, 4.6058 13.399, 4.30532 13.2951, 4.0804 13.0864, 3.85549 12.8777, 3.72594 12.6653, 3.6913 12.449, 3.52306 12.6415, 3.27251 12.848, 2.93874 13.0684, 2.60541 13.2888, 2.2532 13.399, 1.88254 13.399, 1.49209 13.399, 1.16461 13.3009, 0.900111 13.1044, 0.635611 12.9078, 0.429589 12.6604, 0.281146 12.3626, 0.103463 12.0081, 0.00944906 11.6267, -0.000447214 11.2182 L -0.000447214 11.1103 C -0.000447214 10.7315, 0.051733 10.3528, 0.155194 9.9731, 0.273949 9.55611, 0.439486 9.14362, 0.651805 8.73562, 0.864574 8.32808, 1.14617 7.94887, 1.49703 7.59801, 1.78402 7.31057, 2.1115 7.06856, 2.47946 6.87153, 2.84742 6.67496, 3.22168 6.57645, 3.60223 6.57599, 3.93331 6.57645, 4.20276 6.66416, 4.41013 6.83915, 4.61795 7.01458, 4.74885 7.16167, 4.80328 7.28133 L 5.60397 4.1865 C 5.64356 4.02861, 5.66785 3.90851, 5.67774 3.82664 L 5.67774 3.81944 C 5.67774 3.77176, 5.66065 3.73577, 5.62601 3.71148, 5.58193 3.6737, 5.47802 3.64716, 5.31473 3.63276, 5.15189 3.61837, 4.96387 3.61117, 4.7511 3.61072, 4.613 3.61117, 4.54373 3.5464, 4.54373 3.4164 L 4.54373 3.35882, 4.58826 3.23646 C 4.61795 3.12671, 4.70701 3.05473, 4.85501 3.02055 L 6.26342 2.90539, 6.80457 2.86221, 6.83426 2.86221 C 6.89363 2.86266, 6.94581 2.88425, 6.9899 2.92698, 7.00519 2.97061, 7.01239 3.01155, 7.01239 3.04933 L 7.01239 3.09972 Z M 4.52888 8.3969 C 4.50909 8.31099, 4.492 8.22102, 4.47715 8.12746, 4.46231 8.03389, 4.43982 7.94168, 4.41013 7.84991, 4.33141 7.625, 4.21895 7.43652, 4.0732 7.28538, 3.92746 7.13423, 3.74303 7.05866, 3.52081 7.05821, 3.31344 7.05866, 3.10832 7.13333, 2.90545 7.28178, 2.70303 7.43067, 2.5177 7.6223, 2.34946 7.85711, 2.1124 8.18863, 1.93472 8.5332, 1.81596 8.89037, 1.69721 9.24798, 1.58835 9.62089, 1.48939 10.0091, 1.39087 10.3932, 1.30945 10.7653, 1.24468 11.1247, 1.20554 11.3073, 1.18575 11.48, 1.18575 11.6429, 1.18575 11.8161, 1.20554 11.9838, 1.24468 12.1467, 1.28966 12.3725, 1.36973 12.5587, 1.48579 12.7049, 1.60184 12.8516, 1.76378 12.9244, 1.97115 12.924, 2.19877 12.9244, 2.42728 12.8453, 2.65714 12.6869, 2.88701 12.5286, 3.10067 12.3343, 3.29815 12.1035, 3.37732 12.0081, 3.45289 11.9159, 3.52441 11.8268, 3.59639 11.7382, 3.65936 11.6433, 3.71334 11.5421 L 4.52888 8.3969 Z" stroke="none" fill="#000000" />
			<rect />
		</svg>
	</g>
	<path d="M 0 -220.296 L 0 220.296" fill="none" stroke="#000000" stroke-width="2.79999995" stroke-linecap="round" stroke-linejoin="round" marker-start="url(#CustomMarker-03)" marker-end="url(#CustomMarker-04)" transform="matrix(0.357143 0 0 0.357143 88.7414 117.478)" />
	<path d="M -57.0905 0 L 57.0906 0" fill="none" stroke="#000000" stroke-width="1.39999998" stroke-linecap="round" stroke-linejoin="round" stroke-dasharray="4.907, 3.493" transform="matrix(0.357143 0 0 0.357143 68.3519 74.0828)" />
	<path d="M -57.0905 13.0455 L 57.0906 -13.0453" fill="none" stroke="#FF2A00" stroke-width="2.79999995" stroke-linecap="round" stroke-linejoin="round" marker-end="url(#CustomMarker-05)" transform="matrix(0.357143 0 0 0.357143 68.3519 69.4237)" />
	<path d="M -57.0905 13.0455 L 57.0906 -13.0455" fill="none" stroke="#FF2A00" stroke-width="2.79999995" stroke-linecap="round" stroke-linejoin="round" marker-end="url(#CustomMarker-06)" transform="matrix(0.357143 0 0 0.357143 68.3519 82.9582)" />
	<path d="M -57.0905 13.0453 L 57.0906 -13.0457" fill="none" stroke="#FF2A00" stroke-width="2.79999995" stroke-linecap="round" stroke-linejoin="round" marker-end="url(#CustomMarker-07)" transform="matrix(0.357143 0 0 0.357143 68.3519 142.811)" />
	<path d="M -57.0905 13.0455 L 57.0906 -13.0455" fill="none" stroke="#FF2A00" stroke-width="2.79999995" stroke-linecap="round" stroke-linejoin="round" marker-end="url(#CustomMarker-08)" transform="matrix(0.357143 0 0 0.357143 68.3519 157.076)" />
	<path d="M 54.1606 -12.376 C 55.0883 -8.31604, 55.5566 -4.16464, 55.5566 -3.05624e-005" fill="none" stroke="#000000" stroke-width="2.0999999" stroke-linecap="round" stroke-linejoin="round" transform="matrix(0.357143 0 -0 0.357143 47.9625 74.0828)" />
	<g transform="matrix(1 0 -0 1 60.1457 53.1688)">
		<svg width="23.9723053" height="38.9535408">
			<defs />
			<path d="M 6.26725 4.32325 C 6.386 4.77938, 6.44493 5.24495, 6.44493 5.71952, 6.44493 5.86886, 6.43998 6.01281, 6.43008 6.15136, 6.38105 6.78517, 6.27489 7.42077, 6.1116 8.05863, 5.93392 8.70189, 5.70901 9.3393, 5.43731 9.96996, 5.16561 10.6011, 4.8044 11.2065, 4.35457 11.7868, 4.20163 11.9838, 4.03204 12.1786, 3.84671 12.3702, 3.66139 12.5623, 3.46256 12.7337, 3.25024 12.8848, 3.03792 13.036, 2.81661 13.1597, 2.58674 13.2551, 2.35688 13.3513, 2.11577 13.399, 1.86387 13.399, 1.60702 13.399, 1.3857 13.35, 1.20037 13.2515, 1.01504 13.1534, 0.855802 13.0265, 0.722203 12.8705, 0.589053 12.7148, 0.478845 12.5407, 0.392478 12.3487, 0.306111 12.157, 0.235488 11.96, 0.181058 11.758, 0.0578051 11.3122, -0.00427139 10.8516, -0.00427139 10.3762, -0.00427139 10.2232, 0.00562489 10.0721, 0.0254173 9.92272, 0.0650023 9.29926, 0.171162 8.6686, 0.343896 8.02984, 0.507184 7.38749, 0.727151 6.75188, 1.0038 6.12302, 1.28089 5.49461, 1.64885 4.88734, 2.10858 4.30166, 2.26197 4.10553, 2.4302 3.90986, 2.61283 3.71553, 2.79546 3.52121, 2.99069 3.34847, 3.19806 3.19733, 3.40588 3.04619, 3.6245 2.92293, 3.85436 2.82667, 4.08422 2.73086, 4.32758 2.68272, 4.58443 2.68227, 4.84174 2.68272, 5.0617 2.73221, 5.24433 2.83027, 5.42696 2.92878, 5.5889 3.05473, 5.7297 3.20812, 5.87095 3.36197, 5.98205 3.53695, 6.06347 3.73353, 6.14534 3.93055, 6.21327 4.12713, 6.26725 4.32325 Z M 5.26638 4.48879 C 5.24658 4.30211, 5.22184 4.12713, 5.19215 3.96384, 5.16247 3.801, 5.11928 3.6593, 5.0626 3.5392, 5.00592 3.41954, 4.93305 3.32688, 4.84399 3.2621, 4.75492 3.19733, 4.64156 3.16494, 4.50302 3.16449, 4.21647 3.16494, 3.95198 3.29809, 3.70997 3.56439, 3.46796 3.83069, 3.23315 4.14872, 3.00553 4.51758, 2.67941 5.04568, 2.4275 5.58817, 2.24937 6.14461, 2.07124 6.7015, 1.9183 7.23859, 1.78965 7.75635 L 4.80665 7.75635 C 4.94025 7.21475, 5.06395 6.66281, 5.17731 6.10098, 5.25648 5.72222, 5.29606 5.34796, 5.29606 4.9782, 5.29606 4.81536, 5.28617 4.65253, 5.26638 4.48879 Z M 1.63401 8.33932 C 1.50086 8.88182, 1.38435 9.42881, 1.28539 9.9803, 1.20667 10.3788, 1.16708 10.7774, 1.16708 11.175, 1.16708 11.3244, 1.17203 11.4683, 1.18193 11.6069, 1.19182 11.7945, 1.21432 11.9699, 1.2485 12.1327, 1.28314 12.296, 1.32902 12.4364, 1.3857 12.5538, 1.44238 12.6716, 1.51795 12.7625, 1.61196 12.8273, 1.70598 12.892, 1.81979 12.9244, 1.95293 12.924, 2.23453 12.9244, 2.49768 12.7926, 2.74238 12.5286, 2.98709 12.265, 3.21785 11.9479, 3.43557 11.5781, 3.7617 11.041, 4.0136 10.4967, 4.19173 9.94477, 4.36987 9.39327, 4.52281 8.85798, 4.65101 8.33932 Z" stroke="none" fill="#000000" />
			<rect />
		</svg>
	</g>
	<path d="M 0 -305.421 L 0 305.421" fill="none" stroke="#000000" stroke-width="2.79999995" stroke-linecap="round" stroke-linejoin="round" transform="matrix(0.357143 0 0 0.357143 219.897 117.579)" />
	<ellipse cx="1397.6671390533447" cy="451.94491004943848" rx="7.3500003814697266" ry="7.3500003814697266" stroke="none" fill="#000000" transform="matrix(0.357143 0 0 0.357143 -279.27 -73.8496)" />
	<g transform="matrix(1 0 -0 1 229.364 74.1523)">
		<svg width="35.935379" height="35.8877335">
			<defs />
			<path d="M 10.1979 5.84907 C 10.0894 6.23817, 9.90411 6.59714, 9.64231 6.92551, 9.38051 7.25434, 9.06878 7.53863, 8.70802 7.77794, 8.31757 8.04694, 7.90147 8.24981, 7.45884 8.38656, 7.01666 8.5233, 6.57808 8.59168, 6.14309 8.59123 L 3.94118 8.59123, 3.01453 12.1899 C 2.98484 12.296, 2.97 12.3797, 2.97 12.4418, 2.97 12.4998, 2.98259 12.5358, 3.00733 12.5497, 3.07661 12.5934, 3.21246 12.6185, 3.41488 12.6257, 3.61775 12.6329, 3.83502 12.6365, 4.06713 12.6361, 4.20568 12.6365, 4.27495 12.7036, 4.27495 12.8376 L 4.27495 12.888, 4.24526 13.0175 C 4.19083 13.1615, 4.09457 13.2335, 3.95602 13.2335, 3.33841 13.2047, 2.71809 13.1903, 2.09553 13.1903, 1.46802 13.1903, 0.840507 13.2047, 0.212546 13.2335, 0.0793963 13.2335, 0.00787344 13.1714, -0.00247263 13.0463 L -0.00247263 12.9888, 0.0272161 12.8664 C 0.066801 12.7085, 0.163064 12.6316, 0.316006 12.6361, 0.548568 12.6365, 0.768534 12.6329, 0.975906 12.6257, 1.18373 12.6185, 1.33667 12.5934, 1.43563 12.5497, 1.52965 12.4975, 1.60117 12.368, 1.65065 12.1611 L 3.73381 4.04976 C 3.7635 3.94449, 3.77789 3.86308, 3.77789 3.80505, 3.77789 3.74792, 3.76575 3.71418, 3.741 3.70429, 3.67173 3.66155, 3.53723 3.63546, 3.33706 3.62557, 3.13688 3.61612, 2.91827 3.61117, 2.68076 3.61072, 2.54266 3.61117, 2.47339 3.5464, 2.47339 3.4164 L 2.47339 3.35882, 2.51792 3.23646 C 2.54761 3.09297, 2.63937 3.021, 2.79232 3.02055 L 7.54386 3.02055 C 7.97929 3.021, 8.38324 3.08937, 8.75615 3.22612, 9.12951 3.36287, 9.44934 3.56799, 9.71608 3.84103, 9.95809 4.09564, 10.1286 4.39792, 10.2275 4.74789, 10.2572 4.91163, 10.2721 5.07716, 10.2721 5.2445, 10.2721 5.43703, 10.2473 5.63855, 10.1979 5.84907 Z M 8.61895 5.81309 C 8.70307 5.51125, 8.75975 5.21841, 8.78944 4.93502 L 8.78944 4.80547 C 8.78944 4.58505, 8.72781 4.38353, 8.60411 4.2009, 8.44127 3.98543, 8.22355 3.83339, 7.95185 3.74432, 7.68016 3.6557, 7.38597 3.61117, 7.06974 3.61072 L 5.67572 3.61072 C 5.42382 3.61117, 5.27312 3.63051, 5.22364 3.66875, 5.17416 3.70743, 5.12243 3.84373, 5.068 4.07854 L 4.03744 8.05143, 5.89074 8.05143 C 6.21192 8.05188, 6.53354 8.00645, 6.85472 7.91514, 7.1759 7.82427, 7.47729 7.66818, 7.75888 7.44686, 8.01123 7.2314, 8.19791 6.97949, 8.31892 6.6916, 8.43992 6.40371, 8.53978 6.11087, 8.61895 5.81309 Z" stroke="none" fill="#000000" />
			<rect />
		</svg>
	</g>
	<path d="M -183.618 -31.9125 L 183.617 31.9126" fill="none" stroke="#FF2A00" stroke-width="2.79999995" stroke-linecap="round" stroke-linejoin="round" marker-end="url(#CustomMarker-09)" transform="matrix(0.357143 0 0 0.357143 154.319 76.1619)" />
	<path d="M -183.618 -12.9644 L 183.617 12.9644" fill="none" stroke="#FF2A00" stroke-width="2.79999995" stroke-linecap="round" stroke-linejoin="round" marker-end="url(#CustomMarker-10)" transform="matrix(0.357143 0 0 0.357143 154.319 82.9292)" />
	<path d="M -183.618 70.8297 L 183.617 -70.8296" fill="none" stroke="#FF2A00" stroke-width="2.79999995" stroke-linecap="round" stroke-linejoin="round" marker-end="url(#CustomMarker-11)" transform="matrix(0.357143 0 0 0.357143 154.319 112.856)" />
	<path d="M -183.618 90.8 L 183.617 -90.8007" fill="none" stroke="#FF2A00" stroke-width="2.79999995" stroke-linecap="round" stroke-linejoin="round" marker-end="url(#CustomMarker-12)" transform="matrix(0.357143 0 0 0.357143 154.319 119.988)" />
	<path d="M -240.709 0 L 240.707 0" fill="none" stroke="#000000" stroke-width="1.39999998" stroke-linecap="round" stroke-linejoin="round" stroke-dasharray="4.907, 3.493" transform="matrix(0.357143 0 0 0.357143 133.93 117.478)" />
	<path d="M -183.618 41.9566 L 183.617 -41.9566" fill="none" stroke="#000000" stroke-width="1.39999998" stroke-linecap="round" stroke-linejoin="round" stroke-dasharray="4.907, 3.493" transform="matrix(0.357143 0 0 0.357143 154.319 102.494)" />
</svg>
