<?xml version="1.0"?>
<svg xmlns="http://www.w3.org/2000/svg" xmlns:xlink="http://www.w3.org/1999/xlink" width="390.142395" height="372.086853">
	<defs>
		<marker id="CustomMarker-01" markerUnits="strokeWidth" markerWidth="15.000001" markerHeight="9" viewBox="-15 -4.5 15 9" orient="auto-start-reverse">
			<path d="M 0 -0 L -10 -3, -8 -0.5, -8 0.5, -10 3 Z" fill="#000000" stroke="#000000" stroke-linejoin="round" />
		</marker>
		<marker id="CustomMarker-02" markerUnits="strokeWidth" markerWidth="15.000001" markerHeight="9" viewBox="-15 -4.5 15 9" orient="auto-start-reverse">
			<path d="M 0 -0 L -10 -3, -8 -0.5, -8 0.5, -10 3 Z" fill="#000000" stroke="#000000" stroke-linejoin="round" />
		</marker>
		<marker id="CustomMarker-03" markerUnits="strokeWidth" markerWidth="15.000001" markerHeight="9" viewBox="-15 -4.5 15 9" orient="auto-start-reverse">
			<path d="M 0 -0 L -10 -3, -8 -0.5, -8 0.5, -10 3 Z" fill="#FF3600" stroke="#FF3600" stroke-linejoin="round" />
		</marker>
		<marker id="CustomMarker-04" markerUnits="strokeWidth" markerWidth="9" markerHeight="6" viewBox="-9 -3 9 6" orient="auto-start-reverse">
			<path d="M 0 -0 L -6 -2, -4.8 -0.5, -4.8 0.5, -6 2 Z" fill="#000000" stroke="#000000" stroke-linejoin="round" />
		</marker>
	</defs>
	<path d="M 157.12 -0 C 157.12 86.775, 86.775 157.12, -0 157.12, -86.775 157.12, -157.12 86.775, -157.12 -0, -157.12 -86.775, -86.775 -157.12, -0 -157.12, 86.775 -157.12, 157.12 -86.775, 157.12 -0 Z" fill="none" stroke="#000000" stroke-width="1.60000002" stroke-linecap="round" stroke-linejoin="round" transform="matrix(0.625 0 0 0.625 186.043 186.109)" />
	<g transform="matrix(1 0 -0 1 143.96 101.391)">
		<svg width="105.055351" height="105.007736">
			<defs />
			<polyline points="-4.1272 -4.1272 4.1272 4.1272" fill="none" stroke="#000000" stroke-width="0.589599967" stroke-linecap="round" stroke-linejoin="round" transform="matrix(1 0 0 1 4.1272 8.80585)" />
			<polyline points="4.1272 -4.1272 -4.1272 4.1272" fill="none" stroke="#000000" stroke-width="0.589599967" stroke-linecap="round" stroke-linejoin="round" transform="matrix(1 0 0 1 4.1272 8.80585)" />
			<rect />
		</svg>
	</g>
	<g transform="matrix(1 0 -0 1 181.916 101.391)">
		<svg width="105.055351" height="105.007736">
			<defs />
			<polyline points="-4.1272 -4.1272 4.1272 4.1272" fill="none" stroke="#000000" stroke-width="0.589599967" stroke-linecap="round" stroke-linejoin="round" transform="matrix(1 0 0 1 4.1272 8.80585)" />
			<polyline points="4.1272 -4.1272 -4.1272 4.1272" fill="none" stroke="#000000" stroke-width="0.589599967" stroke-linecap="round" stroke-linejoin="round" transform="matrix(1 0 0 1 4.1272 8.80585)" />
			<rect />
		</svg>
	</g>
	<g transform="matrix(1 0 -0 1 219.873 101.391)">
		<svg width="105.055351" height="105.007736">
			<defs />
			<polyline points="-4.1272 -4.1272 4.1272 4.1272" fill="none" stroke="#000000" stroke-width="0.589599967" stroke-linecap="round" stroke-linejoin="round" transform="matrix(1 0 0 1 4.1272 8.80585)" />
			<polyline points="4.1272 -4.1272 -4.1272 4.1272" fill="none" stroke="#000000" stroke-width="0.589599967" stroke-linecap="round" stroke-linejoin="round" transform="matrix(1 0 0 1 4.1272 8.80585)" />
			<rect />
		</svg>
	</g>
	<g transform="matrix(1 0 -0 1 106.003 139.347)">
		<svg width="105.055351" height="105.007736">
			<defs />
			<polyline points="-4.1272 -4.1272 4.1272 4.1272" fill="none" stroke="#000000" stroke-width="0.589599967" stroke-linecap="round" stroke-linejoin="round" transform="matrix(1 0 0 1 4.1272 8.80585)" />
			<polyline points="4.1272 -4.1272 -4.1272 4.1272" fill="none" stroke="#000000" stroke-width="0.589599967" stroke-linecap="round" stroke-linejoin="round" transform="matrix(1 0 0 1 4.1272 8.80585)" />
			<rect />
		</svg>
	</g>
	<g transform="matrix(1 0 -0 1 143.96 139.347)">
		<svg width="105.055351" height="105.007736">
			<defs />
			<polyline points="-4.1272 -4.1272 4.1272 4.1272" fill="none" stroke="#000000" stroke-width="0.589599967" stroke-linecap="round" stroke-linejoin="round" transform="matrix(1 0 0 1 4.1272 8.80585)" />
			<polyline points="4.1272 -4.1272 -4.1272 4.1272" fill="none" stroke="#000000" stroke-width="0.589599967" stroke-linecap="round" stroke-linejoin="round" transform="matrix(1 0 0 1 4.1272 8.80585)" />
			<rect />
		</svg>
	</g>
	<g transform="matrix(1 0 -0 1 181.916 139.347)">
		<svg width="105.055351" height="105.007736">
			<defs />
			<polyline points="-4.1272 -4.1272 4.1272 4.1272" fill="none" stroke="#000000" stroke-width="0.589599967" stroke-linecap="round" stroke-linejoin="round" transform="matrix(1 0 0 1 4.1272 8.80585)" />
			<polyline points="4.1272 -4.1272 -4.1272 4.1272" fill="none" stroke="#000000" stroke-width="0.589599967" stroke-linecap="round" stroke-linejoin="round" transform="matrix(1 0 0 1 4.1272 8.80585)" />
			<rect />
		</svg>
	</g>
	<g transform="matrix(1 0 -0 1 219.873 139.347)">
		<svg width="105.055351" height="105.007736">
			<defs />
			<polyline points="-4.1272 -4.1272 4.1272 4.1272" fill="none" stroke="#000000" stroke-width="0.589599967" stroke-linecap="round" stroke-linejoin="round" transform="matrix(1 0 0 1 4.1272 8.80585)" />
			<polyline points="4.1272 -4.1272 -4.1272 4.1272" fill="none" stroke="#000000" stroke-width="0.589599967" stroke-linecap="round" stroke-linejoin="round" transform="matrix(1 0 0 1 4.1272 8.80585)" />
			<rect />
		</svg>
	</g>
	<g transform="matrix(1 0 -0 1 257.829 139.347)">
		<svg width="105.055351" height="105.007736">
			<defs />
			<polyline points="-4.1272 -4.1272 4.1272 4.1272" fill="none" stroke="#000000" stroke-width="0.589599967" stroke-linecap="round" stroke-linejoin="round" transform="matrix(1 0 0 1 4.1272 8.80585)" />
			<polyline points="4.1272 -4.1272 -4.1272 4.1272" fill="none" stroke="#000000" stroke-width="0.589599967" stroke-linecap="round" stroke-linejoin="round" transform="matrix(1 0 0 1 4.1272 8.80585)" />
			<rect />
		</svg>
	</g>
	<g transform="matrix(1 0 -0 1 106.003 177.303)">
		<svg width="105.055351" height="105.007736">
			<defs />
			<polyline points="-4.1272 -4.1272 4.1272 4.1272" fill="none" stroke="#000000" stroke-width="0.589599967" stroke-linecap="round" stroke-linejoin="round" transform="matrix(1 0 0 1 4.1272 8.80585)" />
			<polyline points="4.1272 -4.1272 -4.1272 4.1272" fill="none" stroke="#000000" stroke-width="0.589599967" stroke-linecap="round" stroke-linejoin="round" transform="matrix(1 0 0 1 4.1272 8.80585)" />
			<rect />
		</svg>
	</g>
	<g transform="matrix(1 0 -0 1 219.873 177.303)">
		<svg width="105.055351" height="105.007736">
			<defs />
			<polyline points="-4.1272 -4.1272 4.1272 4.1272" fill="none" stroke="#000000" stroke-width="0.589599967" stroke-linecap="round" stroke-linejoin="round" transform="matrix(1 0 0 1 4.1272 8.80585)" />
			<polyline points="4.1272 -4.1272 -4.1272 4.1272" fill="none" stroke="#000000" stroke-width="0.589599967" stroke-linecap="round" stroke-linejoin="round" transform="matrix(1 0 0 1 4.1272 8.80585)" />
			<rect />
		</svg>
	</g>
	<g transform="matrix(1 0 -0 1 143.96 177.303)">
		<svg width="105.055351" height="105.007736">
			<defs />
			<polyline points="-4.1272 -4.1272 4.1272 4.1272" fill="none" stroke="#000000" stroke-width="0.589599967" stroke-linecap="round" stroke-linejoin="round" transform="matrix(1 0 0 1 4.1272 8.80585)" />
			<polyline points="4.1272 -4.1272 -4.1272 4.1272" fill="none" stroke="#000000" stroke-width="0.589599967" stroke-linecap="round" stroke-linejoin="round" transform="matrix(1 0 0 1 4.1272 8.80585)" />
			<rect />
		</svg>
	</g>
	<g transform="matrix(1 0 -0 1 181.916 177.303)">
		<svg width="105.055351" height="105.007736">
			<defs />
			<polyline points="-4.1272 -4.1272 4.1272 4.1272" fill="none" stroke="#000000" stroke-width="0.589599967" stroke-linecap="round" stroke-linejoin="round" transform="matrix(1 0 0 1 4.1272 8.80585)" />
			<polyline points="4.1272 -4.1272 -4.1272 4.1272" fill="none" stroke="#000000" stroke-width="0.589599967" stroke-linecap="round" stroke-linejoin="round" transform="matrix(1 0 0 1 4.1272 8.80585)" />
			<rect />
		</svg>
	</g>
	<g transform="matrix(1 0 -0 1 257.829 177.303)">
		<svg width="105.055351" height="105.007736">
			<defs />
			<polyline points="-4.1272 -4.1272 4.1272 4.1272" fill="none" stroke="#000000" stroke-width="0.589599967" stroke-linecap="round" stroke-linejoin="round" transform="matrix(1 0 0 1 4.1272 8.80585)" />
			<polyline points="4.1272 -4.1272 -4.1272 4.1272" fill="none" stroke="#000000" stroke-width="0.589599967" stroke-linecap="round" stroke-linejoin="round" transform="matrix(1 0 0 1 4.1272 8.80585)" />
			<rect />
		</svg>
	</g>
	<g transform="matrix(1 0 -0 1 106.003 215.26)">
		<svg width="105.055351" height="105.007736">
			<defs />
			<polyline points="-4.1272 -4.1272 4.1272 4.1272" fill="none" stroke="#000000" stroke-width="0.589599967" stroke-linecap="round" stroke-linejoin="round" transform="matrix(1 0 0 1 4.1272 8.80585)" />
			<polyline points="4.1272 -4.1272 -4.1272 4.1272" fill="none" stroke="#000000" stroke-width="0.589599967" stroke-linecap="round" stroke-linejoin="round" transform="matrix(1 0 0 1 4.1272 8.80585)" />
			<rect />
		</svg>
	</g>
	<g transform="matrix(1 0 -0 1 219.873 215.26)">
		<svg width="105.055351" height="105.007736">
			<defs />
			<polyline points="-4.1272 -4.1272 4.1272 4.1272" fill="none" stroke="#000000" stroke-width="0.589599967" stroke-linecap="round" stroke-linejoin="round" transform="matrix(1 0 0 1 4.1272 8.80585)" />
			<polyline points="4.1272 -4.1272 -4.1272 4.1272" fill="none" stroke="#000000" stroke-width="0.589599967" stroke-linecap="round" stroke-linejoin="round" transform="matrix(1 0 0 1 4.1272 8.80585)" />
			<rect />
		</svg>
	</g>
	<g transform="matrix(1 0 -0 1 143.96 215.26)">
		<svg width="105.055351" height="105.007736">
			<defs />
			<polyline points="-4.1272 -4.1272 4.1272 4.1272" fill="none" stroke="#000000" stroke-width="0.589599967" stroke-linecap="round" stroke-linejoin="round" transform="matrix(1 0 0 1 4.1272 8.80585)" />
			<polyline points="4.1272 -4.1272 -4.1272 4.1272" fill="none" stroke="#000000" stroke-width="0.589599967" stroke-linecap="round" stroke-linejoin="round" transform="matrix(1 0 0 1 4.1272 8.80585)" />
			<rect />
		</svg>
	</g>
	<g transform="matrix(1 0 -0 1 181.916 215.26)">
		<svg width="105.055351" height="105.007736">
			<defs />
			<polyline points="-4.1272 -4.1272 4.1272 4.1272" fill="none" stroke="#000000" stroke-width="0.589599967" stroke-linecap="round" stroke-linejoin="round" transform="matrix(1 0 0 1 4.1272 8.80585)" />
			<polyline points="4.1272 -4.1272 -4.1272 4.1272" fill="none" stroke="#000000" stroke-width="0.589599967" stroke-linecap="round" stroke-linejoin="round" transform="matrix(1 0 0 1 4.1272 8.80585)" />
			<rect />
		</svg>
	</g>
	<g transform="matrix(1 0 -0 1 257.829 215.26)">
		<svg width="105.055351" height="105.007736">
			<defs />
			<polyline points="-4.1272 -4.1272 4.1272 4.1272" fill="none" stroke="#000000" stroke-width="0.589599967" stroke-linecap="round" stroke-linejoin="round" transform="matrix(1 0 0 1 4.1272 8.80585)" />
			<polyline points="4.1272 -4.1272 -4.1272 4.1272" fill="none" stroke="#000000" stroke-width="0.589599967" stroke-linecap="round" stroke-linejoin="round" transform="matrix(1 0 0 1 4.1272 8.80585)" />
			<rect />
		</svg>
	</g>
	<g transform="matrix(1 0 -0 1 219.873 253.216)">
		<svg width="105.055351" height="105.007736">
			<defs />
			<polyline points="-4.1272 -4.1272 4.1272 4.1272" fill="none" stroke="#000000" stroke-width="0.589599967" stroke-linecap="round" stroke-linejoin="round" transform="matrix(1 0 0 1 4.1272 8.80585)" />
			<polyline points="4.1272 -4.1272 -4.1272 4.1272" fill="none" stroke="#000000" stroke-width="0.589599967" stroke-linecap="round" stroke-linejoin="round" transform="matrix(1 0 0 1 4.1272 8.80585)" />
			<rect />
		</svg>
	</g>
	<g transform="matrix(1 0 -0 1 143.96 253.216)">
		<svg width="105.055351" height="105.007736">
			<defs />
			<polyline points="-4.1272 -4.1272 4.1272 4.1272" fill="none" stroke="#000000" stroke-width="0.589599967" stroke-linecap="round" stroke-linejoin="round" transform="matrix(1 0 0 1 4.1272 8.80585)" />
			<polyline points="4.1272 -4.1272 -4.1272 4.1272" fill="none" stroke="#000000" stroke-width="0.589599967" stroke-linecap="round" stroke-linejoin="round" transform="matrix(1 0 0 1 4.1272 8.80585)" />
			<rect />
		</svg>
	</g>
	<g transform="matrix(1 0 -0 1 181.916 253.216)">
		<svg width="105.055351" height="105.007736">
			<defs />
			<polyline points="-4.1272 -4.1272 4.1272 4.1272" fill="none" stroke="#000000" stroke-width="0.589599967" stroke-linecap="round" stroke-linejoin="round" transform="matrix(1 0 0 1 4.1272 8.80585)" />
			<polyline points="4.1272 -4.1272 -4.1272 4.1272" fill="none" stroke="#000000" stroke-width="0.589599967" stroke-linecap="round" stroke-linejoin="round" transform="matrix(1 0 0 1 4.1272 8.80585)" />
			<rect />
		</svg>
	</g>
	<path d="M 204.336 -0 C 204.336 112.852, 112.852 204.336, -0 204.336, -112.852 204.336, -204.336 112.852, -204.336 -0, -204.336 -112.852, -112.852 -204.336, -0 -204.336, 112.852 -204.336, 204.336 -112.852, 204.336 -0 Z" fill="none" stroke="#000000" stroke-width="1.60000002" stroke-linecap="round" stroke-linejoin="round" transform="matrix(0.625 0 0 0.625 186.043 186.109)" />
	<path d="M 0.000244141 7.72028 L -0.000244141 -7.72021" fill="none" stroke="#000000" stroke-width="1.60000002" stroke-linecap="round" stroke-linejoin="round" marker-end="url(#CustomMarker-01)" transform="matrix(0.625 0 0 0.625 313.753 181.218)" />
	<path d="M 285.225 -0 C 285.225 157.525, 157.525 285.225, -0 285.225, -157.525 285.225, -285.225 157.525, -285.225 -0, -285.225 -157.525, -157.525 -285.225, -0 -285.225, 157.525 -285.225, 285.225 -157.525, 285.225 -0 Z" fill="none" stroke="#000000" stroke-width="1.60000002" stroke-linecap="round" stroke-linejoin="round" transform="matrix(0.625 0 0 0.625 186.043 186.043)" />
	<path d="M 0.000488281 7.33801 L -0.000366211 -7.33807" fill="none" stroke="#000000" stroke-width="1.60000002" stroke-linecap="round" stroke-linejoin="round" marker-end="url(#CustomMarker-02)" transform="matrix(0.625 0 0 0.625 364.309 181.535)" />
	<path d="M 0 0 L -262.222 258.667" fill="none" stroke="#000000" stroke-width="4.26666689" stroke-linecap="round" stroke-linejoin="round" transform="matrix(0.625 0 0 0.625 379.309 82.5042)" />
	<path d="M -60.7302 -9.77759 L 60.7303 9.77753" fill="none" stroke="#FF3600" stroke-width="0.800000012" stroke-linecap="round" stroke-linejoin="round" stroke-dasharray="2.804, 1.996" transform="matrix(0.625 0 0 0.625 224 192.155)" />
	<path d="M -6.45422 40.0904 L 6.45435 -40.0904" fill="none" stroke="#FF3600" stroke-width="1.60000002" stroke-linecap="round" stroke-linejoin="round" marker-end="url(#CustomMarker-03)" transform="matrix(0.625 0 0 0.625 265.99 173.209)" />
	<g transform="matrix(1 0 -0 1 246.833 164.358)">
		<svg width="48.0461464" height="41.8799934">
			<defs />
			<path d="M 11.1364 6.47523 C 11.077 6.706, 10.9412 6.82115, 10.7289 6.8207 L 10.4248 6.8207 C 10.3114 6.82115, 10.2152 6.78292, 10.136 6.706, 10.0568 6.62952, 10.0172 6.53551, 10.0172 6.42485 L 10.0172 6.38887 C 10.0667 5.92869, 10.0915 5.5234, 10.0915 5.17253, 10.0915 4.84685, 10.0051 4.58505, 9.83192 4.38803, 9.66368 4.2063, 9.42032 4.08979, 9.10184 4.03941, 8.78336 3.98903, 8.40866 3.96384, 7.97862 3.96339 L 6.22879 3.96339 C 6.24408 3.96384, 6.26882 3.94719, 6.30301 3.91301 L 6.30301 3.89141, 5.36916 7.47565, 5.76186 7.47565 C 6.00927 7.4761, 6.22924 7.46531, 6.42176 7.44372, 6.61474 7.42212, 6.78792 7.34925, 6.94087 7.2242, 7.09381 7.0996, 7.20626 6.93901, 7.27779 6.74198, 7.34976 6.54541, 7.41993 6.31509, 7.48921 6.05059, 7.5189 5.96468, 7.56973 5.8954, 7.64125 5.84232, 7.71322 5.78969, 7.79599 5.76315, 7.88955 5.7627 L 8.27506 5.7627 C 8.37897 5.79689, 8.45544 5.85087, 8.50492 5.92509, 8.5544 5.99976, 8.57914 6.07758, 8.57914 6.15855 L 8.57914 6.23053, 8.13426 7.95787, 7.65249 9.85075 C 7.59807 10.0527, 7.46447 10.1535, 7.25215 10.153 L 6.96291 10.153 C 6.84955 10.1535, 6.75329 10.1153, 6.67412 10.0383, 6.59495 9.96186, 6.55536 9.86784, 6.55536 9.75719 L 6.55536 9.68521 C 6.63453 9.38833, 6.68356 9.14812, 6.70336 8.96549 L 6.70336 8.87192 C 6.70336 8.75722, 6.68131 8.6686, 6.63678 8.60562, 6.5873 8.53905, 6.48969 8.49227, 6.34394 8.46573, 6.1982 8.43964, 5.99442 8.42614, 5.73217 8.42569 L 5.12445 8.42569, 4.11639 12.3554 C 4.06691 12.3464, 4.0795 12.3415, 4.15327 12.341 L 5.74702 12.341 C 6.17256 12.3415, 6.5891 12.3032, 6.99664 12.2263, 7.40419 12.1498, 7.7762 11.9888, 8.11177 11.7436, 8.48243 11.485, 8.79146 11.1265, 9.03842 10.6681, 9.28582 10.2102, 9.51793 9.7338, 9.73565 9.23898, 9.78019 9.0667, 9.90389 8.98528, 10.1063 8.99428 L 10.4099 8.99428 C 10.4792 8.99473, 10.5336 9.00417, 10.5732 9.02307, 10.7365 9.09054, 10.8179 9.21289, 10.8179 9.39013, 10.8179 9.44321, 10.8008 9.49629, 10.7658 9.54847 L 9.24624 13.0463 C 9.17247 13.2096, 9.04876 13.291, 8.87558 13.291 L 0.40215 13.291 C 0.283845 13.291, 0.186232 13.2506, 0.109761 13.1687, 0.03329 13.0877, -0.0049455 12.9964, -0.00539533 12.8952 L -0.00539533 12.8232, 0.046335 12.6217 C 0.0760237 12.5308, 0.129553 12.4616, 0.206024 12.4134, 0.282495 12.3657, 0.363015 12.3415, 0.446683 12.341, 0.689141 12.3415, 0.937446 12.3392, 1.19205 12.3343, 1.44665 12.3298, 1.64053 12.3176, 1.77368 12.2978, 2.10475 11.0509, 2.45967 9.68701, 2.83752 8.20662, 3.21583 6.72669, 3.58019 5.31467, 3.93106 3.97058, 3.90137 3.96609, 3.76327 3.96384, 3.51587 3.96339 L 2.80424 3.96339 C 2.68548 3.96384, 2.58787 3.92335, 2.5114 3.84148, 2.43493 3.76007, 2.39624 3.66875, 2.39624 3.56754, 2.39624 3.51986, 2.40389 3.48162, 2.41873 3.45238 L 2.45562 3.30124 C 2.50015 3.09522, 2.63105 2.99221, 2.84877 2.99176 L 11.077 2.99176 C 11.1958 2.99221, 11.2939 3.03314, 11.3703 3.11456, 11.4468 3.19643, 11.485 3.28729, 11.485 3.38761 L 11.485 3.43799 Z" stroke="none" fill="#FF1800" />
			<path d="M 1.3393 -2.60263 C 1.31436 -2.50036, 1.25693 -2.41497, 1.167 -2.34645, 1.07707 -2.27793, 0.979583 -2.24367, 0.874287 -2.24392, 0.763701 -2.24367, 0.679313 -2.2812, 0.621123 -2.35678, 0.58233 -2.3996, 0.561674 -2.452, 0.558651 -2.51396, 0.558651 -2.55125, 0.564193 -2.58903, 0.575276 -2.62682, 0.600467 -2.72859, 0.658657 -2.81398, 0.749846 -2.8825, 0.841035 -2.95102, 0.939278 -2.98528, 1.04457 -2.98553, 1.15541 -2.98528, 1.2398 -2.949, 1.29774 -2.87671, 1.33653 -2.82532, 1.35593 -2.7704, 1.35593 -2.71146, 1.35593 -2.67367, 1.35039 -2.6374, 1.3393 -2.60263 Z M 1.3849 1.30692 C 1.35467 1.44698, 1.30756 1.59409, 1.24383 1.74851, 1.18035 1.90318, 1.10201 2.04349, 1.00931 2.16969, 0.916607 2.29615, 0.807784 2.40144, 0.683343 2.48583, 0.558903 2.57047, 0.414813 2.61279, 0.251579 2.61279, 0.113284 2.61279, -0.00561488 2.58332, -0.105369 2.52412, -0.205123 2.46518, -0.281954 2.38734, -0.335861 2.29061, -0.389769 2.19388, -0.416723 2.08631, -0.416723 1.96792, -0.422265 1.96288, -0.425036 1.95205, -0.425036 1.93567, -0.425036 1.81501, -0.398586 1.69133, -0.346189 1.56487 L 0.326395 -0.208536 C 0.409523 -0.431219, 0.450836 -0.614102, 0.450836 -0.75668, 0.450836 -0.877342, 0.399699 -0.937799, 0.297174 -0.938051, 0.203214 -0.937799, 0.118826 -0.910845, 0.0440102 -0.85719, -0.0305535 -0.803282, -0.0990714 -0.728718, -0.161544 -0.633498, -0.223764 -0.538027, -0.279687 -0.425174, -0.329564 -0.294939, -0.379441 -0.164453, -0.421005 -0.0256534, -0.454256 0.121963, -0.484485 0.194763, -0.535622 0.232296, -0.607666 0.234816 L -0.699107 0.234816 C -0.76561 0.235068, -0.798862 0.201564, -0.798862 0.134054 L -0.798862 0.105841 C -0.76561 -0.0417752, -0.715733 -0.192666, -0.64923 -0.347335, -0.582728 -0.501753, -0.502622 -0.642063, -0.40841 -0.768519, -0.314198 -0.894723, -0.204871 -0.999516, -0.0804305 -1.0829, 0.0440102 -1.16602, 0.186588 -1.20784, 0.347051 -1.20809, 0.485598 -1.20784, 0.603238 -1.17812, 0.699969 -1.11917, 0.796952 -1.05997, 0.871012 -0.981378, 0.922149 -0.883388, 0.973285 -0.785145, 1.0015 -0.674559, 1.00704 -0.551126 L 1.00704 -0.522913 C 1.00704 -0.407037, 0.983613 -0.287634, 0.936507 -0.164201 L 0.263923 1.61727 C 0.186588 1.83516, 0.147795 2.02057, 0.147795 2.17347, 0.142253 2.17901, 0.139482 2.17901, 0.139482 2.17347, 0.139482 2.28935, 0.19213 2.34703, 0.297174 2.34678, 0.391386 2.34703, 0.47653 2.31882, 0.552605 2.26239, 0.62868 2.20597, 0.697954 2.1309, 0.760174 2.03669, 0.822394 1.94273, 0.877058 1.82987, 0.924164 1.69813, 0.97127 1.56663, 1.01409 1.42809, 1.05289 1.28274, 1.06951 1.21321, 1.11788 1.1782, 1.19798 1.17795 L 1.28943 1.17795 C 1.31991 1.1782, 1.35039 1.18752, 1.38061 1.20616, 1.38918 1.22782, 1.39598 1.24672, 1.40152 1.26259, 1.40152 1.27896, 1.39598 1.29382, 1.3849 1.30692 Z" stroke="none" fill="#FF1800" transform="matrix(1.12 0 0 1 13.054 12.8121)" />
			<rect />
		</svg>
	</g>
	<path d="M -17.8297 17.5881 L 17.8297 -17.5881" fill="none" stroke="#000000" stroke-width="4.26666689" stroke-linecap="round" stroke-linejoin="round" marker-end="url(#CustomMarker-04)" transform="matrix(0.625 0 0 0.625 273.1 187.273)" />
	<ellipse cx="1237.4950685501099" cy="554.09681415557861" rx="4.8000001907348633" ry="4.8000001907348633" stroke="none" fill="#000000" transform="matrix(0.625 0 0 0.625 -510.554 -148.957)" />
	<g transform="matrix(1 0 -0 1 266.441 189.46)">
		<svg width="41.9907646" height="38.9535408">
			<defs />
			<path d="M 5.24538 13.3918 L 5.24538 12.5353 C 5.08749 12.7324, 4.83423 12.9235, 4.48562 13.108, 4.13745 13.2924, 3.7479 13.3846, 3.31786 13.3846, 2.86353 13.3846, 2.43349 13.296, 2.0282 13.1188, 1.62335 12.9415, 1.27249 12.6964, 0.975599 12.3842, 0.654421 12.0486, 0.411063 11.6771, 0.245526 11.2691, 0.0799892 10.8615, -0.00322923 10.4319, -0.00322923 9.9803, -0.00322923 9.52957, 0.0835878 9.09549, 0.256322 8.67805, 0.429506 8.2606, 0.681411 7.89129, 1.01248 7.56967, 1.34356 7.24849, 1.72187 7.00018, 2.14695 6.82475, 2.57204 6.64977, 3.01692 6.56205, 3.48115 6.5616, 3.88149 6.56205, 4.24631 6.64752, 4.57468 6.81755, 4.90351 6.98804, 5.13697 7.16167, 5.27506 7.3389 L 5.27506 4.34484 C 5.27506 4.22069, 5.26922 4.09969, 5.25662 3.98183, 5.24448 3.86442, 5.19634 3.77446, 5.11223 3.71148, 5.02811 3.65436, 4.89451 3.62107, 4.71188 3.61117, 4.52925 3.60172, 4.32907 3.59678, 4.11136 3.59633 L 4.11136 3.01335, 6.44642 2.84061, 6.44642 11.8804 C 6.44642 12.0054, 6.45272 12.1255, 6.46486 12.2407, 6.47746 12.3558, 6.52694 12.4422, 6.61331 12.4998, 6.69967 12.5574, 6.83462 12.5925, 7.01725 12.6042, 7.20033 12.6163, 7.40276 12.6221, 7.62497 12.6217 L 7.62497 13.2119 Z M 5.24538 8.1522 C 5.08254 7.83102, 4.84998 7.56607, 4.54859 7.35735, 4.24721 7.14863, 3.90129 7.04427, 3.51084 7.04382, 3.19955 7.04427, 2.90806 7.11759, 2.63637 7.26378, 2.36467 7.41043, 2.12986 7.61285, 1.93194 7.8715, 1.71467 8.16479, 1.57522 8.49227, 1.51314 8.85438, 1.45152 9.21694, 1.42048 9.5921, 1.42048 9.9803, 1.42048 10.3694, 1.44792 10.7414, 1.5019 11.0963, 1.55633 11.4517, 1.68498 11.785, 1.8874 12.0963, 2.05564 12.3415, 2.26931 12.5385, 2.52886 12.6869, 2.78841 12.8358, 3.06146 12.91, 3.34755 12.9096, 3.77758 12.91, 4.15814 12.7913, 4.48921 12.5538, 4.82029 12.3163, 5.07264 12.0126, 5.24538 11.6429 Z" stroke="none" fill="#000000" />
			<path d="M 12.9279 3.20048 C 12.9279 3.26345, 12.918 3.30394, 12.8982 3.32283, 12.5474 4.70516, 12.1915 6.08343, 11.8308 7.45811, 11.47 8.83279, 11.1169 10.2183, 10.771 11.6141, 10.7017 11.9074, 10.6648 12.1377, 10.6599 12.305, 10.6599 12.5119, 10.7071 12.6172, 10.8007 12.6217, 10.9739 12.6221, 11.1259 12.4665, 11.2568 12.1543, 11.3877 11.8426, 11.5199 11.4225, 11.6531 10.8944, 11.6877 10.7365, 11.7988 10.6523, 11.9864 10.6425 L 12.4088 10.6425 C 12.4929 10.6429, 12.5721 10.6753, 12.6463 10.7401, 12.7205 10.8048, 12.7574 10.8854, 12.7574 10.9807 L 12.7574 11.0383 C 12.6931 11.2979, 12.609 11.5641, 12.5051 11.8376, 12.4016 12.1111, 12.2716 12.3644, 12.116 12.597, 11.9603 12.83, 11.7727 13.0229, 11.5528 13.1759, 11.3333 13.3297, 11.0724 13.4062, 10.771 13.4062, 10.4844 13.4062, 10.2141 13.363, 9.95949 13.2766, 9.70488 13.1903, 9.48627 13.0612, 9.30364 12.8884, 9.12101 12.7157, 8.99235 12.5047, 8.91813 12.2546, 8.8835 12.1305, 8.86595 12.0054, 8.86595 11.8804, 8.86595 11.7418, 8.8808 11.6051, 8.91049 11.4701 L 10.8821 3.80505 C 10.8821 3.78166, 10.8848 3.76591, 10.8897 3.75872, 10.8947 3.75152, 10.8969 3.79335, 10.8969 3.88422, 10.9068 3.88467, 10.8479 3.88242, 10.7192 3.87747, 10.5906 3.87297, 10.4377 3.87027, 10.2595 3.86982, 10.1462 3.87027, 10.0499 3.83429, 9.97073 3.76231, 9.89156 3.69034, 9.85198 3.59453, 9.85198 3.47397, 9.85198 3.4119, 9.86187 3.37141, 9.88167 3.35162 L 9.91136 3.22927 C 9.95589 3.02324, 10.0818 2.92023, 10.2892 2.91978 L 11.6158 2.84781 C 11.7691 2.83881, 11.9185 2.82937, 12.0642 2.81947, 12.21 2.81003, 12.362 2.80508, 12.5199 2.80463, 12.6337 2.80508, 12.73 2.84106, 12.8092 2.91304, 12.8883 2.98501, 12.9279 3.08082, 12.9279 3.20048 Z" stroke="none" fill="#000000" />
			<rect />
		</svg>
	</g>
</svg>
