<?xml version="1.0"?>
<svg xmlns="http://www.w3.org/2000/svg" xmlns:xlink="http://www.w3.org/1999/xlink" width="533.004272" height="335.000061">
	<defs>
		<marker id="CustomMarker-01" markerUnits="strokeWidth" markerWidth="15.000001" markerHeight="9" viewBox="-15 -4.5 15 9" orient="auto-start-reverse">
			<path d="M 0 -0 L -10 -3, -8 -0.5, -8 0.5, -10 3 Z" fill="#000000" stroke="#000000" stroke-linejoin="round" />
		</marker>
		<marker id="CustomMarker-02" markerUnits="strokeWidth" markerWidth="15.000001" markerHeight="9" viewBox="-15 -4.5 15 9" orient="auto-start-reverse">
			<path d="M 0 -0 L -10 -3, -8 -0.5, -8 0.5, -10 3 Z" fill="#000000" stroke="#000000" stroke-linejoin="round" />
		</marker>
		<marker id="CustomMarker-03" markerUnits="strokeWidth" markerWidth="15.000001" markerHeight="9" viewBox="-15 -4.5 15 9" orient="auto-start-reverse">
			<path d="M 0 -0 L -10 -3, -8 -0.5, -8 0.5, -10 3 Z" fill="#000000" stroke="#000000" stroke-linejoin="round" />
		</marker>
		<linearGradient id="Fill_LG-01" gradientTransform="matrix(-3.49283e-008 0.325505 -3.07215 -5.36526e-008 -4.57764e-005 -7.62939e-006)">
			<stop offset="0%" stop-color="#FFFFFF" stop-opacity="0" />
			<stop offset="61.9289%" stop-color="#000000" stop-opacity="0.580392122" />
			<stop offset="100%" stop-color="#000000" stop-opacity="0.717647016" />
		</linearGradient>
		<marker id="CustomMarker-04" markerUnits="strokeWidth" markerWidth="15.000001" markerHeight="6" viewBox="-15 -3 15 6" orient="auto-start-reverse">
			<path d="M 0 -0 L -10 -2, -10 -0.5, -10 0.5, -10 2 Z" fill="#000000" stroke="#000000" stroke-linejoin="round" />
		</marker>
		<marker id="CustomMarker-05" markerUnits="strokeWidth" markerWidth="15.000001" markerHeight="6" viewBox="-15 -3 15 6" orient="auto-start-reverse">
			<path d="M 0 -0 L -10 -2, -10 -0.5, -10 0.5, -10 2 Z" fill="#000000" stroke="#000000" stroke-linejoin="round" />
		</marker>
		<marker id="CustomMarker-06" markerUnits="strokeWidth" markerWidth="15.000001" markerHeight="6" viewBox="-15 -3 15 6" orient="auto-start-reverse">
			<path d="M 0 -0 L -10 -2, -10 -0.5, -10 0.5, -10 2 Z" fill="#000000" stroke="#000000" stroke-linejoin="round" />
		</marker>
		<marker id="CustomMarker-07" markerUnits="strokeWidth" markerWidth="15.000001" markerHeight="6" viewBox="-15 -3 15 6" orient="auto-start-reverse">
			<path d="M 0 -0 L -10 -2, -10 -0.5, -10 0.5, -10 2 Z" fill="#000000" stroke="#000000" stroke-linejoin="round" />
		</marker>
		<marker id="CustomMarker-08" markerUnits="strokeWidth" markerWidth="15.000001" markerHeight="6" viewBox="-15 -3 15 6" orient="auto-start-reverse">
			<path d="M 0 -0 L -10 -2, -10 -0.5, -10 0.5, -10 2 Z" fill="#000000" stroke="#000000" stroke-linejoin="round" />
		</marker>
		<marker id="CustomMarker-09" markerUnits="strokeWidth" markerWidth="15.000001" markerHeight="6" viewBox="-15 -3 15 6" orient="auto-start-reverse">
			<path d="M 0 -0 L -10 -2, -10 -0.5, -10 0.5, -10 2 Z" fill="#000000" stroke="#000000" stroke-linejoin="round" />
		</marker>
	</defs>
	<rect x="-0" y="-0" width="533.004272" height="335.000061" stroke="none" fill="#FFFFFF" />
	<path d="M -453.96 0 L 453.96 0" fill="none" stroke="#000000" stroke-width="1.79999995" stroke-linecap="round" stroke-linejoin="round" transform="matrix(0.555556 0 0 0.555556 260.7 152.5)" />
	<path d="M 0 -286.2 L 0 286.2" fill="none" stroke="#000000" stroke-width="0.899999976" stroke-linecap="round" stroke-linejoin="round" stroke-dasharray="3.1545, 2.2455" transform="matrix(0.555556 0 0 0.555556 259.1 167.5)" />
	<path d="M -145.98 -114.84 L 145.98 114.84" fill="none" stroke="#000000" stroke-width="1.79999995" stroke-linecap="round" stroke-linejoin="round" marker-end="url(#CustomMarker-01)" transform="matrix(0.555556 0 0 0.555556 178 88.7001)" />
	<path d="M -145.98 114.84 L 145.98 -114.84" fill="none" stroke="#000000" stroke-width="1.79999995" stroke-linecap="round" stroke-linejoin="round" marker-end="url(#CustomMarker-02)" transform="matrix(0.555556 0 0 0.555556 340 88.7001)" />
	<path d="M -62.4343 -142.2 L 62.4349 142.2" fill="none" stroke="#000000" stroke-width="1.79999995" stroke-linecap="round" stroke-linejoin="round" marker-end="url(#CustomMarker-03)" transform="matrix(0.555556 0 0 0.555556 293.586 231.5)" />
	<rect x="-436.860107" y="-142.199966" width="873.720215" height="284.399933" stroke="none" fill="url(#Fill_LG-01)" transform="matrix(0.555556 -1.67773e-007 -1.67773e-007 -0.555556 262 231.5)" />
	<g transform="matrix(1 0 -0 1 518.79 124.294)">
		<svg width="21.0184593" height="38.9535408">
			<defs />
			<path d="M 5.36074 13.174 C 4.46982 13.1458, 3.6027 13.1317, 2.75983 13.1317, 1.9174 13.1317, 1.05028 13.1458, 0.158917 13.174 L 0.158917 12.5674, 0.660585 12.5674 C 0.820166 12.5679, 0.97049 12.5657, 1.11067 12.5608, 1.2513 12.5564, 1.38443 12.5445, 1.51051 12.5256, 1.63659 12.507, 1.74547 12.4881, 1.83717 12.4687, 1.91475 12.455, 1.97911 12.4118, 2.02981 12.3386, 2.08095 12.2659, 2.10607 12.1848, 2.10607 12.0949 L 2.10607 4.14577 C 1.86406 4.26391, 1.56605 4.3534, 1.21251 4.41423, 0.858959 4.47551, 0.471468 4.50593, 0.0500318 4.50549 L 0.0500318 3.90595 C 0.63149 3.90639, 1.16798 3.83718, 1.65951 3.69832, 2.15104 3.5599, 2.576 3.29981, 2.9344 2.91849 L 3.15966 2.91849 C 3.31925 2.91893, 3.39904 2.99652, 3.39904 3.15125 L 3.39904 12.0949 C 3.39904 12.1892, 3.42328 12.2716, 3.47177 12.3422, 3.52026 12.4127, 3.5908 12.455, 3.68249 12.4687, 3.76008 12.4881, 3.85971 12.507, 3.98049 12.5256, 4.10172 12.5445, 4.23838 12.5564, 4.39091 12.5608, 4.54344 12.5657, 4.69244 12.5679, 4.83747 12.5674 L 5.36074 12.5674, 5.36074 13.174 Z" stroke="none" fill="#000000" />
			<rect />
		</svg>
	</g>
	<g transform="matrix(1 0 -0 1 518.246 158.694)">
		<svg width="23.9723053" height="38.9535408">
			<defs />
			<path d="M 5.97736 13.174 L 0.0640322 13.174, 0.0640322 12.7861 C 0.0640322 12.7583, 0.0785797 12.716, 0.107675 12.6591 L 2.48332 10.0776 C 2.76413 9.7677, 3.04847 9.4503, 3.33677 9.12585, 3.62508 8.8014, 3.8834 8.46989, 4.11087 8.13133, 4.33834 7.79277, 4.51997 7.44363, 4.65574 7.08391, 4.79152 6.7242, 4.85897 6.34684, 4.85897 5.95142, 4.85897 5.61815, 4.81532 5.30648, 4.72804 5.01729, 4.64076 4.72811, 4.51512 4.47419, 4.35025 4.25553, 4.18582 4.03688, 3.97995 3.86055, 3.73308 3.72653, 3.48621 3.59252, 3.20011 3.52551, 2.87566 3.52507, 2.39163 3.52551, 1.96402 3.67011, 1.59328 3.95929, 1.22298 4.24848, 0.976996 4.5672, 0.855767 4.91458, 0.831962 4.92428, 0.870756 4.92913, 0.972147 4.92868 L 1.09558 4.92868 C 1.24106 4.96219, 1.36669 5.01288, 1.47337 5.08077, 1.58006 5.1491, 1.66954 5.243, 1.74228 5.3629, 1.81502 5.48281, 1.85117 5.6274, 1.85117 5.79624, 1.85117 6.07882, 1.75947 6.29527, 1.57521 6.44559, 1.39094 6.59635, 1.18507 6.6713, 0.9576 6.67086, 0.739828 6.6713, 0.536164 6.59635, 0.347488 6.44559, 0.158811 6.29527, 0.0640322 6.07882, 0.0640322 5.79624, 0.0640322 5.4017, 0.141619 5.02787, 0.296792 4.67521, 0.451965 4.32254, 0.662242 4.01704, 0.928505 3.75827, 1.19477 3.49995, 1.50952 3.2954, 1.87277 3.14464, 2.23601 2.99431, 2.6213 2.91893, 3.02819 2.91849, 3.53206 2.91893, 3.99361 2.99299, 4.4124 3.14111, 4.83119 3.28923, 5.18827 3.50215, 5.48363 3.77943, 5.77898 4.05716, 6.01042 4.37809, 6.1775 4.74221, 6.34457 5.10678, 6.42789 5.5097, 6.42789 5.95142, 6.42789 6.44074, 6.3168 6.89127, 6.09374 7.30257, 5.87112 7.71431, 5.59516 8.09166, 5.26586 8.43463, 4.93655 8.77803, 4.58653 9.10116, 4.21579 9.40446, 3.84549 9.70775, 3.51002 10.0027, 3.20981 10.2892 L 1.53862 11.8621, 3.72559 11.8621 C 4.03064 11.8625, 4.31542 11.8603, 4.57904 11.8555, 4.8431 11.8511, 5.06704 11.8414, 5.25131 11.8273, 5.43558 11.8132, 5.52991 11.8039, 5.53432 11.7986, 5.57312 11.766, 5.6097 11.7003, 5.64365 11.6016, 5.67759 11.5028, 5.70889 11.3864, 5.73799 11.2524, 5.76708 11.1184, 5.79618 10.9822, 5.82527 10.8433, 5.85437 10.7049, 5.88082 10.5528, 5.90506 10.388 L 6.44244 10.388 Z" stroke="none" fill="#000000" />
			<rect />
		</svg>
	</g>
	<path d="M -42.917 -33.8457 L -35.3861 -41.6569 C -28.3392 -47.643, -19.8815 -51.7464, -10.8184 -53.5766 L -6.58637e-005 -54.6574" fill="none" stroke="#000000" stroke-width="1.3499999" stroke-linecap="round" stroke-linejoin="round" marker-start="url(#CustomMarker-04)" marker-end="url(#CustomMarker-05)" transform="matrix(0.555556 0 -0 0.555556 258.9 152.5)" />
	<path d="M -0.108929 -54.6573 L 10.6906 -53.6023 C 19.8049 -51.7844, 28.3119 -47.6685, 35.3938 -41.6505 L 42.9375 -33.8201" fill="none" stroke="#000000" stroke-width="1.3499999" stroke-linecap="round" stroke-linejoin="round" marker-start="url(#CustomMarker-06)" marker-end="url(#CustomMarker-07)" transform="matrix(0.555556 0 -0 0.555556 259.1 152.5)" />
	<path d="M 43.6122 99.3305 L 33.5194 103.175 C 26.0573 105.599, 18.3541 107.207, 10.5452 107.969 L -0.247472 108.483" fill="none" stroke="#000000" stroke-width="1.3499999" stroke-linecap="round" stroke-linejoin="round" marker-start="url(#CustomMarker-08)" marker-end="url(#CustomMarker-09)" transform="matrix(0.555556 0 -0 0.555556 258.9 152.5)" />
	<g transform="matrix(1 0 -0 1 242.073 102.968)">
		<svg width="14.9630756" height="35.8877335">
			<defs />
			<path d="M 3.81523 4.08574 C 3.77069 4.26837, 3.66813 4.42086, 3.50754 4.54322, 3.34695 4.66557, 3.17287 4.72675, 2.98484 4.7263, 2.78737 4.72675, 2.63667 4.65972, 2.53276 4.52477, 2.46349 4.4483, 2.4266 4.35474, 2.42121 4.24408, 2.42121 4.17751, 2.4311 4.11003, 2.45089 4.04256, 2.49588 3.86083, 2.59979 3.70833, 2.76263 3.58598, 2.92546 3.46363, 3.1009 3.40245, 3.28893 3.402, 3.48685 3.40245, 3.63754 3.46723, 3.741 3.59633, 3.81028 3.68809, 3.84491 3.78615, 3.84491 3.89141, 3.84491 3.95889, 3.83502 4.02366, 3.81523 4.08574 Z M 3.89664 11.0671 C 3.84266 11.3172, 3.75855 11.5799, 3.64474 11.8556, 3.53138 12.1318, 3.39149 12.3824, 3.22595 12.6078, 3.06041 12.8336, 2.86609 13.0216, 2.64387 13.1723, 2.42165 13.3234, 2.16435 13.399, 1.87286 13.399, 1.62591 13.399, 1.41359 13.3464, 1.23546 13.2407, 1.05732 13.1354, 0.920125 12.9964, 0.823862 12.8237, 0.727599 12.6509, 0.679467 12.4589, 0.679467 12.2474, 0.669571 12.2384, 0.664623 12.2191, 0.664623 12.1899, 0.664623 11.9744, 0.711855 11.7535, 0.805419 11.5277 L 2.00646 8.36092 C 2.15491 7.96327, 2.22868 7.63669, 2.22868 7.38209, 2.22868 7.16662, 2.13736 7.05866, 1.95428 7.05821, 1.7865 7.05866, 1.6358 7.10679, 1.5022 7.20261, 1.36905 7.29887, 1.2467 7.43202, 1.13514 7.60206, 1.02404 7.77254, 0.924174 7.97406, 0.835108 8.20662, 0.746042 8.43964, 0.67182 8.68749, 0.612442 8.95109, 0.558463 9.08109, 0.467148 9.14812, 0.338497 9.15262 L 0.175209 9.15262 C 0.0564537 9.15307, -0.0029237 9.09324, -0.0029237 8.97268 L -0.0029237 8.9223 C 0.0564537 8.6587, 0.14552 8.38926, 0.264275 8.11306, 0.38303 7.83732, 0.526075 7.58676, 0.694311 7.36095, 0.862547 7.13558, 1.05777 6.94845, 1.27999 6.79956, 1.5022 6.65112, 1.75681 6.57645, 2.04335 6.57599, 2.29075 6.57645, 2.50082 6.62952, 2.67356 6.73478, 2.84674 6.84049, 2.97899 6.98084, 3.07031 7.15582, 3.16162 7.33126, 3.212 7.52873, 3.2219 7.74915 L 3.2219 7.79953 C 3.2219 8.00645, 3.18007 8.21967, 3.09595 8.44009 L 1.89491 11.6213 C 1.75681 12.0104, 1.68753 12.3415, 1.68753 12.6145, 1.67764 12.6244, 1.67269 12.6244, 1.67269 12.6145, 1.67269 12.8214, 1.7667 12.9244, 1.95428 12.924, 2.12252 12.9244, 2.27456 12.8741, 2.41041 12.7733, 2.54626 12.6725, 2.66996 12.5385, 2.78107 12.3702, 2.89218 12.2025, 2.98979 12.0009, 3.07391 11.7657, 3.15803 11.5309, 3.2345 11.2835, 3.30377 11.0239, 3.33346 10.8998, 3.41983 10.8372, 3.56287 10.8368 L 3.72616 10.8368 C 3.78059 10.8372, 3.83502 10.8539, 3.889 10.8872, 3.90429 10.9258, 3.91644 10.9596, 3.92633 10.9879, 3.92633 11.0172, 3.91644 11.0437, 3.89664 11.0671 Z" stroke="none" fill="#000000" />
			<rect />
		</svg>
	</g>
	<g transform="matrix(1 0 -0 1 274.927 102.968)">
		<svg width="27.073843" height="38.9535408">
			<defs />
			<path d="M 3.81523 4.08574 C 3.77069 4.26837, 3.66813 4.42086, 3.50754 4.54322, 3.34695 4.66557, 3.17287 4.72675, 2.98484 4.7263, 2.78737 4.72675, 2.63667 4.65972, 2.53276 4.52477, 2.46349 4.4483, 2.4266 4.35474, 2.42121 4.24408, 2.42121 4.17751, 2.4311 4.11003, 2.45089 4.04256, 2.49588 3.86083, 2.59979 3.70833, 2.76263 3.58598, 2.92546 3.46363, 3.1009 3.40245, 3.28893 3.402, 3.48685 3.40245, 3.63754 3.46723, 3.741 3.59633, 3.81028 3.68809, 3.84491 3.78615, 3.84491 3.89141, 3.84491 3.95889, 3.83502 4.02366, 3.81523 4.08574 Z M 3.89664 11.0671 C 3.84266 11.3172, 3.75855 11.5799, 3.64474 11.8556, 3.53138 12.1318, 3.39149 12.3824, 3.22595 12.6078, 3.06041 12.8336, 2.86609 13.0216, 2.64387 13.1723, 2.42165 13.3234, 2.16435 13.399, 1.87286 13.399, 1.62591 13.399, 1.41359 13.3464, 1.23546 13.2407, 1.05732 13.1354, 0.920125 12.9964, 0.823862 12.8237, 0.727599 12.6509, 0.679467 12.4589, 0.679467 12.2474, 0.669571 12.2384, 0.664623 12.2191, 0.664623 12.1899, 0.664623 11.9744, 0.711855 11.7535, 0.805419 11.5277 L 2.00646 8.36092 C 2.15491 7.96327, 2.22868 7.63669, 2.22868 7.38209, 2.22868 7.16662, 2.13736 7.05866, 1.95428 7.05821, 1.7865 7.05866, 1.6358 7.10679, 1.5022 7.20261, 1.36905 7.29887, 1.2467 7.43202, 1.13514 7.60206, 1.02404 7.77254, 0.924174 7.97406, 0.835108 8.20662, 0.746042 8.43964, 0.67182 8.68749, 0.612442 8.95109, 0.558463 9.08109, 0.467148 9.14812, 0.338497 9.15262 L 0.175209 9.15262 C 0.0564537 9.15307, -0.0029237 9.09324, -0.0029237 8.97268 L -0.0029237 8.9223 C 0.0564537 8.6587, 0.14552 8.38926, 0.264275 8.11306, 0.38303 7.83732, 0.526075 7.58676, 0.694311 7.36095, 0.862547 7.13558, 1.05777 6.94845, 1.27999 6.79956, 1.5022 6.65112, 1.75681 6.57645, 2.04335 6.57599, 2.29075 6.57645, 2.50082 6.62952, 2.67356 6.73478, 2.84674 6.84049, 2.97899 6.98084, 3.07031 7.15582, 3.16162 7.33126, 3.212 7.52873, 3.2219 7.74915 L 3.2219 7.79953 C 3.2219 8.00645, 3.18007 8.21967, 3.09595 8.44009 L 1.89491 11.6213 C 1.75681 12.0104, 1.68753 12.3415, 1.68753 12.6145, 1.67764 12.6244, 1.67269 12.6244, 1.67269 12.6145, 1.67269 12.8214, 1.7667 12.9244, 1.95428 12.924, 2.12252 12.9244, 2.27456 12.8741, 2.41041 12.7733, 2.54626 12.6725, 2.66996 12.5385, 2.78107 12.3702, 2.89218 12.2025, 2.98979 12.0009, 3.07391 11.7657, 3.15803 11.5309, 3.2345 11.2835, 3.30377 11.0239, 3.33346 10.8998, 3.41983 10.8372, 3.56287 10.8368 L 3.72616 10.8368 C 3.78059 10.8372, 3.83502 10.8539, 3.889 10.8872, 3.90429 10.9258, 3.91644 10.9596, 3.92633 10.9879, 3.92633 11.0172, 3.91644 11.0437, 3.89664 11.0671 Z" stroke="none" fill="#000000" />
			<path d="M 5.52322 7.95067 C 5.48363 8.06133, 5.41706 8.11666, 5.32304 8.11621 L 5.26367 8.11621, 5.21913 8.09462 C 5.12557 8.07123, 5.07339 8.00645, 5.06349 7.90029 L 5.06349 7.84991, 5.81246 3.20767 C 5.84709 2.98726, 5.9519 2.82082, 6.12734 2.70791, 6.30277 2.59546, 6.47955 2.53878, 6.65724 2.53833, 6.84976 2.53878, 7.0054 2.59861, 7.12416 2.71826, 7.19838 2.79068, 7.23527 2.8865, 7.23527 3.00615, 7.23527 3.09297, 7.21323 3.19373, 7.16869 3.30844 Z" stroke="none" fill="#000000" />
			<rect />
		</svg>
	</g>
	<g transform="matrix(1 0 -0 1 269.563 212.968)">
		<svg width="30.027689" height="36.0270882">
			<defs />
			<path d="M 8.07511 7.03662 C 7.59109 7.95337, 7.14621 8.87237, 6.74091 9.79362, 6.33562 10.7149, 5.9771 11.6505, 5.66582 12.6001, 5.62624 12.9316, 5.57451 13.265, 5.51018 13.6005, 5.44586 13.9365, 5.37163 14.2699, 5.28752 14.6009, 5.28752 14.6108, 5.27267 14.6851, 5.24298 14.8241, 5.20385 15.0067, 5.14717 15.2141, 5.07295 15.4466, 4.99873 15.6796, 4.90966 15.9014, 4.80575 16.1124, 4.70229 16.3238, 4.59073 16.4291, 4.47198 16.4291, 4.33388 16.4291, 4.26236 16.3188, 4.25741 16.098, 4.25741 16.0741, 4.26236 16.0548, 4.2718 16.0404, 4.2718 15.8533, 4.29564 15.6437, 4.34243 15.4106, 4.38966 15.1781, 4.43779 14.9707, 4.48682 14.7881 L 4.5462 14.5794 C 4.70949 13.9172, 4.90741 13.2528, 5.13952 12.5857, 5.17911 12.2025, 5.19845 11.8183, 5.19845 11.4341 L 5.19845 10.9663 C 5.16921 10.4535, 5.08554 9.95106, 4.947 9.45895, 4.80845 8.96729, 4.55519 8.56424, 4.18678 8.24981, 3.81883 7.93583, 3.35775 7.77839, 2.80401 7.77794, 2.55211 7.77839, 2.3029 7.81932, 2.0555 7.90074, 1.80854 7.98261, 1.58138 8.09417, 1.37355 8.23541, 1.16618 8.37711, 0.9885 8.5449, 0.840057 8.73922, 0.691613 8.93355, 0.590402 9.14812, 0.535972 9.38293, 0.476595 9.50348, 0.392477 9.56331, 0.283618 9.56286 L 0.187355 9.56286 C 0.123479 9.56331, 0.0762471 9.54397, 0.0465584 9.50528, 0.0123714 9.48639, -0.00517195 9.4531, -0.00517195 9.40452, -0.00517195 9.38563, 0.00247514 9.36404, 0.0168697 9.33974, 0.105936 8.98978, 0.245833 8.64836, 0.43611 8.31458, 0.626388 7.98126, 0.8585 7.68617, 1.1329 7.42932, 1.40729 7.17292, 1.70868 6.96645, 2.03705 6.81036, 2.36588 6.65472, 2.71045 6.57645, 3.07121 6.57599, 3.46166 6.57645, 3.79184 6.66056, 4.06083 6.82835, 4.33028 6.99659, 4.5525 7.2089, 4.72793 7.46531, 4.90336 7.72216, 5.05046 8.0078, 5.16921 8.32178, 5.28797 8.63621, 5.38918 8.94435, 5.47285 9.24618, 5.56191 9.5777, 5.62759 9.91373, 5.66942 10.2542, 5.71171 10.5952, 5.7351 10.8179, 5.74004 10.9231, 6.20967 9.66632, 6.82728 8.32538, 7.59334 6.89987, 7.63293 6.79461, 7.7094 6.73973, 7.82275 6.73433, 7.89203 6.73478, 7.94151 6.73973, 7.9712 6.74873, 8.06521 6.76852, 8.11199 6.8234, 8.11199 6.91427, 8.11199 6.94351, 8.09985 6.98444, 8.07511 7.03662 Z" stroke="none" fill="#000000" />
			<rect />
		</svg>
	</g>
</svg>
