<?xml version="1.0"?>
<svg xmlns="http://www.w3.org/2000/svg" xmlns:xlink="http://www.w3.org/1999/xlink" width="480.500153" height="480.500031">
	<defs>
		<marker id="CustomMarker-01" markerUnits="strokeWidth" markerWidth="15.000001" markerHeight="9" viewBox="-15 -4.5 15 9" orient="auto-start-reverse">
			<path d="M 0 -0 L -10 -3, -8 -0.5, -8 0.5, -10 3 Z" fill="#000000" stroke="#000000" stroke-linejoin="round" />
		</marker>
		<marker id="CustomMarker-02" markerUnits="strokeWidth" markerWidth="15.000001" markerHeight="9" viewBox="-15 -4.5 15 9" orient="auto-start-reverse">
			<path d="M 0 -0 L -10 -3, -8 -0.5, -8 0.5, -10 3 Z" fill="#000000" stroke="#000000" stroke-linejoin="round" />
		</marker>
		<marker id="CustomMarker-03" markerUnits="strokeWidth" markerWidth="15.000001" markerHeight="9" viewBox="-15 -4.5 15 9" orient="auto-start-reverse">
			<path d="M 0 -0 L -10 -3, -8 -0.5, -8 0.5, -10 3 Z" fill="#000000" stroke="#000000" stroke-linejoin="round" />
		</marker>
		<marker id="CustomMarker-04" markerUnits="strokeWidth" markerWidth="15.000001" markerHeight="9" viewBox="-15 -4.5 15 9" orient="auto-start-reverse">
			<path d="M 0 -0 L -10 -3, -8 -0.5, -8 0.5, -10 3 Z" fill="#000000" stroke="#000000" stroke-linejoin="round" />
		</marker>
		<marker id="CustomMarker-05" markerUnits="strokeWidth" markerWidth="15.000001" markerHeight="9" viewBox="-15 -4.5 15 9" orient="auto-start-reverse">
			<path d="M 0 -0 L -10 -3, -8 -0.5, -8 0.5, -10 3 Z" fill="#000000" stroke="#000000" stroke-linejoin="round" />
		</marker>
		<marker id="CustomMarker-06" markerUnits="strokeWidth" markerWidth="15.000001" markerHeight="9" viewBox="-15 -4.5 15 9" orient="auto-start-reverse">
			<path d="M 0 -0 L -10 -3, -8 -0.5, -8 0.5, -10 3 Z" fill="#000000" stroke="#000000" stroke-linejoin="round" />
		</marker>
	</defs>
	<rect x="-0" y="-0" width="480.500153" height="480.500031" stroke="none" fill="#FFFFFF" />
	<path d="M 370.8 -0 C 370.8 204.787, 204.787 370.8, -0 370.8, -204.787 370.8, -370.8 204.787, -370.8 -0, -370.8 -204.787, -204.787 -370.8, -0 -370.8, 204.787 -370.8, 370.8 -204.787, 370.8 -0 Z" fill="none" stroke="#000000" stroke-width="1.60000002" stroke-linecap="round" stroke-linejoin="round" transform="matrix(0.625 0 -0 0.625 240.25 240.25)" />
	<path d="M 370.8 -8.96104e-006 C 370.8 46.7315, 204.787 84.6148, 5.87864e-005 84.6148, -204.787 84.6148, -370.8 46.7315, -370.8 -0, -370.8 -0, -370.8 -0, -370.8 -0" fill="none" stroke="#000000" stroke-width="0.800000012" stroke-linecap="round" stroke-linejoin="round" transform="matrix(0.625 0 -0 0.625 240.25 240.25)" />
	<path d="M -370.8 2.78428e-005 C -370.8 -46.7315, -204.787 -84.6148, -0.000274578 -84.6148, 204.787 -84.6149, 370.8 -46.7315, 370.8 -0, 370.8 -0, 370.8 -0, 370.8 -0" fill="none" stroke="#000000" stroke-width="0.800000012" stroke-linecap="round" stroke-linejoin="round" stroke-dasharray="1.204, 1.996" transform="matrix(0.625 0 -0 0.625 240.25 240.25)" />
	<path d="M -0.000343197 -370.8 C 114.262 -370.8, 206.89 -204.788, 206.89 -0.000533529, 206.89 204.787, 114.262 370.8, 0.000448047 370.8, 0.000431605 370.8, 0.000415162 370.8, 0.00039872 370.8" fill="none" stroke="#000000" stroke-width="0.800000012" stroke-linecap="round" stroke-linejoin="round" transform="matrix(0.625 0 -0 0.625 240.25 240.25)" />
	<path d="M 0.000105826 370.8 C -114.262 370.8, -206.89 204.787, -206.89 0.000310285, -206.89 -204.787, -114.262 -370.8, -0.000259391 -370.8" fill="none" stroke="#000000" stroke-width="0.800000012" stroke-linecap="round" stroke-linejoin="round" stroke-dasharray="1.204, 1.996" transform="matrix(0.625 0 -0 0.625 240.25 240.25)" />
	<path d="M 0 24.3014 L 0 -24.3013" fill="none" stroke="#000000" stroke-width="1.60000002" stroke-linecap="round" stroke-linejoin="round" marker-end="url(#CustomMarker-01)" transform="matrix(0.625 0 0 0.625 240.25 225.062)" />
	<g transform="matrix(1 0 -0 1 224.895 211.256)">
		<svg width="30.027689" height="36.0270882">
			<defs />
			<path d="M 8.77549 9.95871 C 8.66664 10.4148, 8.4912 10.8602, 8.24919 11.2943, 8.00719 11.7288, 7.68556 12.1161, 7.28521 12.4562, 6.91455 12.7877, 6.50476 13.0288, 6.05493 13.1795, 5.6051 13.3306, 5.15527 13.4062, 4.70544 13.4062, 4.12246 13.4062, 3.70007 13.2888, 3.43782 13.0535 L 2.87464 15.2055 C 2.8499 15.201, 2.90657 15.1983, 3.04512 15.1983 L 3.49 15.1983 C 3.60381 15.1983, 3.70007 15.237, 3.77924 15.3135, 3.85841 15.3904, 3.89755 15.484, 3.89755 15.5942 L 3.89755 15.6805, 3.85301 15.8605 C 3.80353 16.062, 3.67263 16.1583, 3.46031 16.1484, 3.24799 16.1484, 3.03523 16.1439, 2.82291 16.134, 2.61059 16.1245, 2.39782 16.1196, 2.18505 16.1196 L 1.40684 16.1196 C 1.23411 16.1196, 1.06362 16.1223, 0.895388 16.1268, 0.727152 16.1317, 0.552169 16.1389, 0.368638 16.1484, 0.122132 16.1196, -0.00157106 15.9878, -0.0020209 15.7525, -0.00157106 15.6904, 0.00832516 15.6495, 0.0276678 15.6302 L 0.0573565 15.5078 C 0.102339 15.3018, 0.23369 15.1983, 0.450507 15.1983 L 0.850855 15.1983 C 0.954766 15.1983, 1.00155 15.201, 0.991652 15.2055, 1.19407 14.5677, 1.37716 13.9496, 1.53999 13.3522, 1.70328 12.7553, 1.85172 12.1687, 1.98487 11.5929, 2.11847 11.0172, 2.24847 10.4477, 2.37443 9.88359, 2.50038 9.31995, 2.64252 8.74282, 2.80041 8.1522, 2.87464 7.85981, 2.91152 7.6223, 2.91152 7.43967, 2.91152 7.24354, 2.86204 7.14503, 2.76308 7.14458, 2.59034 7.14503, 2.43875 7.29977, 2.3074 7.60925, 2.1765 7.91874, 2.0393 8.34202, 1.89581 8.87912, 1.83688 9.05725, 1.73072 9.14092, 1.57733 9.13102 L 1.14729 9.13102 C 1.1176 9.13147, 1.09286 9.12653, 1.07307 9.11663, 0.895388 9.08334, 0.806322 8.97808, 0.806322 8.79995 L 0.806322 8.72798 C 0.870648 8.46933, 0.954766 8.20303, 1.05823 7.92953, 1.16214 7.65603, 1.29079 7.40323, 1.44373 7.17022, 1.59712 6.93766, 1.7838 6.74333, 2.00377 6.58724, 2.22373 6.4316, 2.48688 6.35333, 2.79277 6.35288, 3.16882 6.35333, 3.50845 6.4253, 3.81253 6.56925, 4.11661 6.71319, 4.32039 6.87378, 4.42385 7.05101, 4.64651 6.87378, 4.9308 6.71319, 5.27672 6.56925, 5.62264 6.4253, 5.9834 6.35333, 6.35856 6.35288, 6.80344 6.35333, 7.21999 6.43745, 7.60774 6.60523, 7.99594 6.77347, 8.31082 7.03212, 8.55283 7.38209, 8.80023 7.74735, 8.92844 8.15984, 8.93833 8.62002 L 8.93833 8.72798 C 8.93833 9.14092, 8.88435 9.55116, 8.77549 9.95871 Z M 7.01846 7.72756 C 6.97438 7.55527, 6.89296 7.41493, 6.7742 7.30697, 6.65545 7.19901, 6.50701 7.14503, 6.32887 7.14458, 6.08687 7.14503, 5.83766 7.21115, 5.58036 7.34295, 5.32351 7.4752, 5.09634 7.64884, 4.89842 7.86431, 4.85883 7.90794, 4.81925 7.95382, 4.77966 8.0015, 4.74008 8.04963, 4.71039 8.09012, 4.6906 8.12341, 4.6861 8.1477, 4.6735 8.20528, 4.65371 8.29614 L 4.65371 8.32493, 3.7491 11.8156 C 3.759 11.8448, 3.76665 11.8727, 3.7716 11.8988, 3.77654 11.9254, 3.78869 11.9528, 3.80848 11.9811, 3.8827 12.1831, 4.00011 12.3406, 4.1607 12.453, 4.32174 12.5659, 4.51291 12.6221, 4.73513 12.6217, 4.94295 12.6221, 5.15167 12.5601, 5.36174 12.435, 5.57181 12.3104, 5.75579 12.1422, 5.91368 11.9308, 6.11161 11.6721, 6.26995 11.3518, 6.3887 10.9704, 6.50746 10.5889, 6.62351 10.1989, 6.73687 9.80037, 6.83088 9.39777, 6.91725 9.00687, 6.99642 8.62722, 7.03601 8.4167, 7.05805 8.23182, 7.06299 8.07303, 7.06299 7.94887, 7.04815 7.83372, 7.01846 7.72756 Z" stroke="none" fill="#000000" />
			<rect />
		</svg>
	</g>
	<path d="M -134.542 162.602 L 134.542 -162.602" fill="none" stroke="#000000" stroke-width="1.60000002" stroke-linecap="round" stroke-linejoin="round" marker-end="url(#CustomMarker-02)" transform="matrix(0.625 0 0 0.625 324.339 138.624)" />
	<ellipse cx="1436.7513914108276" cy="412.13057231903076" rx="4.1999998092651367" ry="4.1999998092651367" stroke="none" fill="#000000" transform="matrix(0.625 0 0 0.625 -550.642 -146.742)" />
	<path d="M -105 13.5 L 105 -13.5" fill="none" stroke="#000000" stroke-width="1.60000002" stroke-linecap="round" stroke-linejoin="round" marker-start="url(#CustomMarker-03)" marker-end="url(#CustomMarker-04)" transform="matrix(0.625 0 0 0.625 349.678 110.435)" />
	<path d="M -39.2711 -99.5 L 39.2709 99.5" fill="none" stroke="#000000" stroke-width="1.60000002" stroke-linecap="round" stroke-linejoin="round" marker-start="url(#CustomMarker-05)" marker-end="url(#CustomMarker-06)" transform="matrix(0.625 0 0 0.625 348.883 112.935)" />
	<g transform="matrix(1 0 -0 1 370.495 141.941)">
		<svg width="39.0369186" height="35.8877335">
			<defs />
			<path d="M 11.1364 6.47523 C 11.077 6.706, 10.9412 6.82115, 10.7289 6.8207 L 10.4248 6.8207 C 10.3114 6.82115, 10.2152 6.78292, 10.136 6.706, 10.0568 6.62952, 10.0172 6.53551, 10.0172 6.42485 L 10.0172 6.38887 C 10.0667 5.92869, 10.0915 5.5234, 10.0915 5.17253, 10.0915 4.84685, 10.0051 4.58505, 9.83192 4.38803, 9.66368 4.2063, 9.42032 4.08979, 9.10184 4.03941, 8.78336 3.98903, 8.40866 3.96384, 7.97862 3.96339 L 6.22879 3.96339 C 6.24408 3.96384, 6.26882 3.94719, 6.30301 3.91301 L 6.30301 3.89141, 5.36916 7.47565, 5.76186 7.47565 C 6.00927 7.4761, 6.22924 7.46531, 6.42176 7.44372, 6.61474 7.42212, 6.78792 7.34925, 6.94087 7.2242, 7.09381 7.0996, 7.20626 6.93901, 7.27779 6.74198, 7.34976 6.54541, 7.41993 6.31509, 7.48921 6.05059, 7.5189 5.96468, 7.56973 5.8954, 7.64125 5.84232, 7.71322 5.78969, 7.79599 5.76315, 7.88955 5.7627 L 8.27506 5.7627 C 8.37897 5.79689, 8.45544 5.85087, 8.50492 5.92509, 8.5544 5.99976, 8.57914 6.07758, 8.57914 6.15855 L 8.57914 6.23053, 8.13426 7.95787, 7.65249 9.85075 C 7.59807 10.0527, 7.46447 10.1535, 7.25215 10.153 L 6.96291 10.153 C 6.84955 10.1535, 6.75329 10.1153, 6.67412 10.0383, 6.59495 9.96186, 6.55536 9.86784, 6.55536 9.75719 L 6.55536 9.68521 C 6.63453 9.38833, 6.68356 9.14812, 6.70336 8.96549 L 6.70336 8.87192 C 6.70336 8.75722, 6.68131 8.6686, 6.63678 8.60562, 6.5873 8.53905, 6.48969 8.49227, 6.34394 8.46573, 6.1982 8.43964, 5.99442 8.42614, 5.73217 8.42569 L 5.12445 8.42569, 4.11639 12.3554 C 4.06691 12.3464, 4.0795 12.3415, 4.15327 12.341 L 5.74702 12.341 C 6.17256 12.3415, 6.5891 12.3032, 6.99664 12.2263, 7.40419 12.1498, 7.7762 11.9888, 8.11177 11.7436, 8.48243 11.485, 8.79146 11.1265, 9.03842 10.6681, 9.28582 10.2102, 9.51793 9.7338, 9.73565 9.23898, 9.78019 9.0667, 9.90389 8.98528, 10.1063 8.99428 L 10.4099 8.99428 C 10.4792 8.99473, 10.5336 9.00417, 10.5732 9.02307, 10.7365 9.09054, 10.8179 9.21289, 10.8179 9.39013, 10.8179 9.44321, 10.8008 9.49629, 10.7658 9.54847 L 9.24624 13.0463 C 9.17247 13.2096, 9.04876 13.291, 8.87558 13.291 L 0.40215 13.291 C 0.283845 13.291, 0.186232 13.2506, 0.109761 13.1687, 0.03329 13.0877, -0.0049455 12.9964, -0.00539533 12.8952 L -0.00539533 12.8232, 0.046335 12.6217 C 0.0760237 12.5308, 0.129553 12.4616, 0.206024 12.4134, 0.282495 12.3657, 0.363015 12.3415, 0.446683 12.341, 0.689141 12.3415, 0.937446 12.3392, 1.19205 12.3343, 1.44665 12.3298, 1.64053 12.3176, 1.77368 12.2978, 2.10475 11.0509, 2.45967 9.68701, 2.83752 8.20662, 3.21583 6.72669, 3.58019 5.31467, 3.93106 3.97058, 3.90137 3.96609, 3.76327 3.96384, 3.51587 3.96339 L 2.80424 3.96339 C 2.68548 3.96384, 2.58787 3.92335, 2.5114 3.84148, 2.43493 3.76007, 2.39624 3.66875, 2.39624 3.56754, 2.39624 3.51986, 2.40389 3.48162, 2.41873 3.45238 L 2.45562 3.30124 C 2.50015 3.09522, 2.63105 2.99221, 2.84877 2.99176 L 11.077 2.99176 C 11.1958 2.99221, 11.2939 3.03314, 11.3703 3.11456, 11.4468 3.19643, 11.485 3.28729, 11.485 3.38761 L 11.485 3.43799 Z" stroke="none" fill="#000000" />
			<rect />
		</svg>
	</g>
	<g transform="matrix(1 0 -0 1 296.484 96.3164)">
		<svg width="48.0461464" height="38.9535408">
			<defs />
			<path d="M 14.4807 3.402 L 14.4361 3.57473 C 14.3822 3.78166, 14.2535 3.87972, 14.0506 3.86982, 13.8086 3.87027, 13.5603 3.87297, 13.3057 3.87747, 13.0511 3.88242, 12.8644 3.88962, 12.7457 3.89861, 12.7259 3.90401, 12.7236 3.89681, 12.7385 3.87702 L 10.5591 12.3338 C 10.5244 12.3293, 10.5663 12.3271, 10.685 12.3266, 10.7691 12.3271, 10.8681 12.3221, 10.9815 12.3122 L 11.2262 12.3122 C 11.4043 12.3127, 11.5797 12.3221, 11.7525 12.341, 11.9702 12.399, 12.0786 12.538, 12.0786 12.7584 L 12.0489 12.8304, 12.0269 12.9744 C 11.9972 13.1858, 11.864 13.291, 11.6265 13.291, 11.2509 13.291, 10.8753 13.2838, 10.4997 13.2695, 10.1241 13.2551, 9.74848 13.2479, 9.37287 13.2479 L 9.06878 13.2479 C 8.31757 13.2479, 7.55646 13.2623, 6.78545 13.291 L 6.73372 13.2766 C 6.64466 13.2623, 6.56953 13.2168, 6.50746 13.1404, 6.44583 13.0639, 6.41479 12.982, 6.41479 12.8952 L 6.41479 12.8232, 6.47417 12.6217 C 6.53355 12.4301, 6.66715 12.3365, 6.87452 12.341, 7.11698 12.3415, 7.36528 12.3392, 7.61988 12.3343, 7.87449 12.3298, 8.06342 12.3176, 8.18667 12.2978 L 8.17947 12.2978, 8.44622 11.3622, 9.20238 8.38251, 5.13998 8.38251, 4.13191 12.3338 C 4.09727 12.3293, 4.13911 12.3271, 4.25786 12.3266, 4.34198 12.3271, 4.44094 12.3221, 4.5543 12.3122 L 4.8062 12.3122 C 4.98434 12.3127, 5.15977 12.3221, 5.3325 12.341, 5.55022 12.399, 5.65683 12.538, 5.65143 12.7584 L 5.63659 12.8232, 5.6069 12.9744 C 5.57721 13.1858, 5.44136 13.291, 5.19935 13.291, 4.82375 13.291, 4.44949 13.2838, 4.07613 13.2695, 3.70322 13.2551, 3.32897 13.2479, 2.95291 13.2479 L 2.64927 13.2479 C 1.89806 13.2479, 1.13695 13.2623, 0.365941 13.291 L 0.313761 13.2766 C 0.225145 13.2623, 0.150023 13.2168, 0.0879468 13.1404, 0.0267701 13.0639, -0.00426812 12.982, -0.00471795 12.8952 L -0.00471795 12.8232, 0.0470124 12.6217 C 0.10639 12.4301, 0.239989 12.3365, 0.44736 12.341, 0.689818 12.3415, 0.939473 12.3392, 1.19633 12.3343, 1.45363 12.3298, 1.64391 12.3221, 1.76716 12.3122, 1.78695 12.3077, 1.7892 12.3127, 1.77436 12.3266 L 3.94658 3.87702 C 3.98122 3.88242, 3.93893 3.88467, 3.82018 3.88422 L 3.53859 3.88422 C 3.44997 3.89411, 3.3609 3.89906, 3.27184 3.89861, 3.09415 3.89906, 2.91377 3.88962, 2.73069 3.86982, 2.52332 3.82214, 2.42211 3.69034, 2.42661 3.47397 L 2.42661 3.402, 2.47114 3.22927 C 2.51567 3.02324, 2.64657 2.92023, 2.86429 2.91978, 3.1162 2.92023, 3.36855 2.92518, 3.62045 2.93463, 3.87236 2.94452, 4.12696 2.94902, 4.38381 2.94857, 4.50752 2.94902, 4.63122 2.95172, 4.75447 2.95622, 4.87818 2.96117, 5.00188 2.96342, 5.12513 2.96297 L 5.41437 2.96297 C 5.79988 2.96342, 6.17908 2.95622, 6.55244 2.94183, 6.9258 2.92743, 7.305 2.92023, 7.69006 2.91978 L 7.74944 2.91978 C 7.97165 2.97781, 8.08276 3.11456, 8.08276 3.33003 L 8.06072 3.402, 8.01618 3.57473 C 7.9622 3.78166, 7.83355 3.87972, 7.63068 3.86982, 7.38867 3.87027, 7.13947 3.87297, 6.88216 3.87747, 6.62531 3.88242, 6.43728 3.88962, 6.31853 3.89861, 6.29424 3.89906, 6.29154 3.88467, 6.31133 3.85543 L 5.38468 7.43247, 9.45429 7.43247, 10.3661 3.87702 C 10.4012 3.88242, 10.3589 3.88467, 10.2401 3.88422 L 9.95855 3.88422 C 9.86948 3.89411, 9.78086 3.89906, 9.6918 3.89861, 9.51367 3.89906, 9.33598 3.88962, 9.15785 3.86982, 8.95048 3.82214, 8.84657 3.69034, 8.84657 3.47397 L 8.84657 3.402, 8.8911 3.22927 C 8.93563 3.02324, 9.07148 2.92023, 9.29865 2.91978, 9.551 2.92023, 9.80201 2.92518, 10.0512 2.93463, 10.3009 2.94452, 10.5519 2.94902, 10.8038 2.94857, 10.9275 2.94902, 11.0521 2.95172, 11.178 2.95622, 11.304 2.96117, 11.4263 2.96342, 11.5451 2.96297 L 11.8339 2.96297 C 12.2198 2.96342, 12.6004 2.95622, 12.976 2.94183, 13.3516 2.92743, 13.7295 2.92023, 14.11 2.91978 L 14.1766 2.91978 C 14.3993 2.97781, 14.5081 3.11681, 14.5027 3.33722 Z" stroke="none" fill="#000000" />
			<rect />
		</svg>
	</g>
	<g transform="matrix(1 0 -0 1 403.919 41.9414)">
		<svg width="32.9815331" height="26.9690266">
			<defs />
			<path d="M 9.00176 10.9879 C 8.97207 11.2569, 8.90684 11.5318, 8.80518 11.8125, 8.70397 12.0931, 8.57172 12.3523, 8.40888 12.5898, 8.24605 12.8273, 8.04947 13.0229, 7.81961 13.1759, 7.58974 13.3297, 7.3239 13.4062, 7.02251 13.4062, 6.6469 13.4062, 6.30593 13.3356, 5.9996 13.1939, 5.69327 13.0526, 5.49309 12.9006, 5.39908 12.7369, 5.22634 12.8956, 4.98523 13.0468, 4.6762 13.1903, 4.36762 13.3342, 4.0352 13.4062, 3.67893 13.4062, 3.30377 13.4062, 2.92547 13.3549, 2.54491 13.2515, 2.16436 13.1489, 1.85802 12.9438, 1.62546 12.6361, 1.3884 12.3199, 1.26965 11.96, 1.26965 11.5565, 1.26965 11.1732, 1.31418 10.794, 1.40325 10.4193, 1.48736 10.0982, 1.60837 9.73155, 1.76671 9.3186, 1.92505 8.90611, 2.07574 8.51251, 2.21879 8.1378, 2.36723 7.75905, 2.441 7.48825, 2.441 7.32451 L 2.441 7.28133 C 2.4365 7.19046, 2.41896 7.14503, 2.38927 7.14458, 2.24623 7.14503, 2.11263 7.18821, 1.98892 7.27458, 1.86567 7.36095, 1.74691 7.4833, 1.63311 7.64164, 1.51975 7.79998, 1.41584 7.98621, 1.32183 8.19943, 1.22826 8.4131, 1.14909 8.63981, 1.08432 8.87912, 1.02539 9.05725, 0.916531 9.14092, 0.758191 9.13102 L 0.261579 9.11663 C 0.083897 9.08334, -0.00516918 8.97538, -0.00516918 8.79275, 0.0245195 8.49092, 0.111337 8.19358, 0.254382 7.90074, 0.397878 7.60835, 0.578259 7.34925, 0.795527 7.12344, 1.01324 6.89807, 1.2602 6.71319, 1.53684 6.56925, 1.81349 6.4253, 2.10768 6.35333, 2.41896 6.35288, 2.71045 6.35333, 2.9799 6.40371, 3.22685 6.50447, 3.47426 6.60523, 3.67803 6.74828, 3.83862 6.93271, 3.99921 7.11759, 4.10177 7.32991, 4.1463 7.56922, 4.1562 7.64659, 4.16115 7.72306, 4.16115 7.79953, 4.16115 7.98216, 4.12426 8.17199, 4.04959 8.36811, 3.89665 8.74282, 3.74686 9.13057, 3.60111 9.53092, 3.45537 9.93172, 3.34066 10.283, 3.25654 10.5849, 3.18277 10.9069, 3.12564 11.2043, 3.08606 11.4773, 3.07616 11.5691, 3.07121 11.6627, 3.07121 11.758, 3.07121 11.9218, 3.0937 12.0824, 3.13779 12.2402, 3.17737 12.3509, 3.2444 12.4422, 3.33796 12.5142, 3.43197 12.5862, 3.55568 12.6221, 3.70862 12.6217, 3.99066 12.6221, 4.24796 12.5394, 4.48008 12.3738, 4.71219 12.2083, 4.91956 11.991, 5.10219 11.722, 5.11748 11.6168, 5.13728 11.5282, 5.16157 11.4557 L 6.22181 7.31012 C 6.28614 7.04202, 6.43458 6.83825, 6.6667 6.6988, 6.89881 6.5598, 7.12867 6.49008, 7.35583 6.48963, 7.59334 6.49008, 7.79082 6.567, 7.94916 6.71994, 8.05307 6.8306, 8.1075 6.98444, 8.112 7.18057, 8.112 7.26738, 8.1021 7.3632, 8.08231 7.46846 L 6.99282 11.5997 C 6.91905 11.893, 6.88171 12.1278, 6.88171 12.305, 6.88171 12.5119, 6.93884 12.6172, 7.0522 12.6217, 7.22538 12.6221, 7.37608 12.4665, 7.50428 12.1543, 7.63293 11.8426, 7.76608 11.4225, 7.90462 10.8944, 7.93926 10.7365, 8.04812 10.6523, 8.23075 10.6425 L 8.72736 10.6425 C 8.92034 10.7054, 9.01165 10.8206, 9.00176 10.9879 Z" stroke="none" fill="#000000" />
			<rect />
		</svg>
	</g>
	<path d="M -2.6336e-005 -36.4381 C 8.48179 -36.4381, 16.6979 -33.4792, 23.2322 -28.0714" fill="none" stroke="#000000" stroke-width="1.20000005" stroke-linecap="round" stroke-linejoin="round" transform="matrix(0.625 0 -0 0.625 240.25 240.25)" />
	<g transform="matrix(1 0 -0 1 248.097 201.068)">
		<svg width="23.9723053" height="38.9535408">
			<defs />
			<path d="M 6.26725 4.32325 C 6.386 4.77938, 6.44493 5.24495, 6.44493 5.71952, 6.44493 5.86886, 6.43998 6.01281, 6.43008 6.15136, 6.38105 6.78517, 6.27489 7.42077, 6.1116 8.05863, 5.93392 8.70189, 5.70901 9.3393, 5.43731 9.96996, 5.16561 10.6011, 4.8044 11.2065, 4.35457 11.7868, 4.20163 11.9838, 4.03204 12.1786, 3.84671 12.3702, 3.66139 12.5623, 3.46256 12.7337, 3.25024 12.8848, 3.03792 13.036, 2.81661 13.1597, 2.58674 13.2551, 2.35688 13.3513, 2.11577 13.399, 1.86387 13.399, 1.60702 13.399, 1.3857 13.35, 1.20037 13.2515, 1.01504 13.1534, 0.855802 13.0265, 0.722203 12.8705, 0.589053 12.7148, 0.478845 12.5407, 0.392478 12.3487, 0.306111 12.157, 0.235488 11.96, 0.181058 11.758, 0.0578051 11.3122, -0.00427139 10.8516, -0.00427139 10.3762, -0.00427139 10.2232, 0.00562489 10.0721, 0.0254173 9.92272, 0.0650023 9.29926, 0.171162 8.6686, 0.343896 8.02984, 0.507184 7.38749, 0.727151 6.75188, 1.0038 6.12302, 1.28089 5.49461, 1.64885 4.88734, 2.10858 4.30166, 2.26197 4.10553, 2.4302 3.90986, 2.61283 3.71553, 2.79546 3.52121, 2.99069 3.34847, 3.19806 3.19733, 3.40588 3.04619, 3.6245 2.92293, 3.85436 2.82667, 4.08422 2.73086, 4.32758 2.68272, 4.58443 2.68227, 4.84174 2.68272, 5.0617 2.73221, 5.24433 2.83027, 5.42696 2.92878, 5.5889 3.05473, 5.7297 3.20812, 5.87095 3.36197, 5.98205 3.53695, 6.06347 3.73353, 6.14534 3.93055, 6.21327 4.12713, 6.26725 4.32325 Z M 5.26638 4.48879 C 5.24658 4.30211, 5.22184 4.12713, 5.19215 3.96384, 5.16247 3.801, 5.11928 3.6593, 5.0626 3.5392, 5.00592 3.41954, 4.93305 3.32688, 4.84399 3.2621, 4.75492 3.19733, 4.64156 3.16494, 4.50302 3.16449, 4.21647 3.16494, 3.95198 3.29809, 3.70997 3.56439, 3.46796 3.83069, 3.23315 4.14872, 3.00553 4.51758, 2.67941 5.04568, 2.4275 5.58817, 2.24937 6.14461, 2.07124 6.7015, 1.9183 7.23859, 1.78965 7.75635 L 4.80665 7.75635 C 4.94025 7.21475, 5.06395 6.66281, 5.17731 6.10098, 5.25648 5.72222, 5.29606 5.34796, 5.29606 4.9782, 5.29606 4.81536, 5.28617 4.65253, 5.26638 4.48879 Z M 1.63401 8.33932 C 1.50086 8.88182, 1.38435 9.42881, 1.28539 9.9803, 1.20667 10.3788, 1.16708 10.7774, 1.16708 11.175, 1.16708 11.3244, 1.17203 11.4683, 1.18193 11.6069, 1.19182 11.7945, 1.21432 11.9699, 1.2485 12.1327, 1.28314 12.296, 1.32902 12.4364, 1.3857 12.5538, 1.44238 12.6716, 1.51795 12.7625, 1.61196 12.8273, 1.70598 12.892, 1.81979 12.9244, 1.95293 12.924, 2.23453 12.9244, 2.49768 12.7926, 2.74238 12.5286, 2.98709 12.265, 3.21785 11.9479, 3.43557 11.5781, 3.7617 11.041, 4.0136 10.4967, 4.19173 9.94477, 4.36987 9.39327, 4.52281 8.85798, 4.65101 8.33932 Z" stroke="none" fill="#000000" />
			<rect />
		</svg>
	</g>
</svg>
