<?xml version="1.0"?>
<svg xmlns="http://www.w3.org/2000/svg" xmlns:xlink="http://www.w3.org/1999/xlink" width="572.959167" height="319.545624">
	<defs>
		<marker id="CustomMarker-01" markerUnits="strokeWidth" markerWidth="15.000001" markerHeight="9" viewBox="-15 -4.5 15 9" orient="auto-start-reverse">
			<path d="M 0 -0 L -10 -3, -8 -0.5, -8 0.5, -10 3 Z" fill="#000000" stroke="#000000" stroke-linejoin="round" />
		</marker>
		<marker id="CustomMarker-02" markerUnits="strokeWidth" markerWidth="15.000001" markerHeight="9" viewBox="-15 -4.5 15 9" orient="auto-start-reverse">
			<path d="M 0 -0 L -10 -3, -8 -0.5, -8 0.5, -10 3 Z" fill="#000000" stroke="#000000" stroke-linejoin="round" />
		</marker>
		<marker id="CustomMarker-03" markerUnits="strokeWidth" markerWidth="21" markerHeight="9" viewBox="-21 -4.5 21 9" orient="auto-start-reverse">
			<path d="M 0 -0 L -14 -3, -14 -0.5, -14 0.5, -14 3 Z" fill="#FF2A00" stroke="#FF2A00" stroke-linejoin="round" />
		</marker>
		<marker id="CustomMarker-04" markerUnits="strokeWidth" markerWidth="21" markerHeight="9" viewBox="-21 -4.5 21 9" orient="auto-start-reverse">
			<path d="M 0 -0 L -14 -3, -14 -0.5, -14 0.5, -14 3 Z" fill="#FF2A00" stroke="#FF2A00" stroke-linejoin="round" />
		</marker>
		<marker id="CustomMarker-05" markerUnits="strokeWidth" markerWidth="21" markerHeight="9" viewBox="-21 -4.5 21 9" orient="auto-start-reverse">
			<path d="M 0 -0 L -14 -3, -14 -0.5, -14 0.5, -14 3 Z" fill="#000000" stroke="#000000" stroke-linejoin="round" />
		</marker>
		<marker id="CustomMarker-06" markerUnits="strokeWidth" markerWidth="21" markerHeight="9" viewBox="-21 -4.5 21 9" orient="auto-start-reverse">
			<path d="M 0 -0 L -14 -3, -14 -0.5, -14 0.5, -14 3 Z" fill="#000000" stroke="#000000" stroke-linejoin="round" />
		</marker>
		<marker id="CustomMarker-07" markerUnits="strokeWidth" markerWidth="21" markerHeight="9" viewBox="-21 -4.5 21 9" orient="auto-start-reverse">
			<path d="M 0 -0 L -14 -3, -14 -0.5, -14 0.5, -14 3 Z" fill="#000000" stroke="#000000" stroke-linejoin="round" />
		</marker>
		<marker id="CustomMarker-08" markerUnits="strokeWidth" markerWidth="21" markerHeight="9" viewBox="-21 -4.5 21 9" orient="auto-start-reverse">
			<path d="M 0 -0 L -14 -3, -14 -0.5, -14 0.5, -14 3 Z" fill="#000000" stroke="#000000" stroke-linejoin="round" />
		</marker>
		<marker id="CustomMarker-09" markerUnits="strokeWidth" markerWidth="15.000001" markerHeight="6" viewBox="-15 -3 15 6" orient="auto-start-reverse">
			<path d="M 0 -0 L -10 -2, -10 -0.5, -10 0.5, -10 2 Z" fill="#000000" stroke="#000000" stroke-linejoin="round" />
		</marker>
		<marker id="CustomMarker-10" markerUnits="strokeWidth" markerWidth="15.000001" markerHeight="6" viewBox="-15 -3 15 6" orient="auto-start-reverse">
			<path d="M 0 -0 L -10 -2, -10 -0.5, -10 0.5, -10 2 Z" fill="#000000" stroke="#000000" stroke-linejoin="round" />
		</marker>
	</defs>
	<rect x="-0" y="-0" width="572.959167" height="319.545624" stroke="none" fill="#FFFFFF" />
	<path d="M 181.452 -0 C 181.452 100.213, 100.213 181.452, -0 181.452, -100.213 181.452, -181.452 100.213, -181.452 -0, -181.452 -100.213, -100.213 -181.452, -0 -181.452, 100.213 -181.452, 181.452 -100.213, 181.452 -0 Z" stroke="none" fill="#17DF77" fill-opacity="0.290196061" transform="matrix(0.5 0 0 0.5 418.493 129.594)" />
	<path d="M 181.452 -0 C 181.452 100.213, 100.213 181.452, -0 181.452, -100.213 181.452, -181.452 100.213, -181.452 -0, -181.452 -100.213, -100.213 -181.452, -0 -181.452, 100.213 -181.452, 181.452 -100.213, 181.452 -0 Z" fill="none" stroke="#000000" stroke-width="2" stroke-linecap="round" stroke-linejoin="round" stroke-dasharray="1.01, 2.99" transform="matrix(0.5 0 0 0.5 418.493 129.594)" />
	<path d="M 181.452 -0 C 181.452 100.213, 100.213 181.452, -0 181.452, -100.213 181.452, -181.452 100.213, -181.452 -0, -181.452 -100.213, -100.213 -181.452, -0 -181.452, 100.213 -181.452, 181.452 -100.213, 181.452 -0 Z" stroke="none" fill="#17DF77" fill-opacity="0.29411763" transform="matrix(0.5 0 0 0.5 418.493 220.32)" />
	<path d="M 181.452 -0 C 181.452 100.213, 100.213 181.452, -0 181.452, -100.213 181.452, -181.452 100.213, -181.452 -0, -181.452 -100.213, -100.213 -181.452, -0 -181.452, 100.213 -181.452, 181.452 -100.213, 181.452 -0 Z" fill="none" stroke="#000000" stroke-width="2" stroke-linecap="round" stroke-linejoin="round" stroke-dasharray="1.01, 2.99" transform="matrix(0.5 0 0 0.5 418.493 220.32)" />
	<path d="M 0 -125.09 L 0 125.09" fill="none" stroke="#000000" stroke-width="2" stroke-linecap="round" stroke-linejoin="round" marker-start="url(#CustomMarker-01)" marker-end="url(#CustomMarker-02)" transform="matrix(0.5 0 0 0.5 87.3992 129.594)" />
	<ellipse cx="630.38922119140625" cy="475.64215087890625" rx="5.25" ry="5.25" stroke="none" fill="#000000" transform="matrix(0.5 0 0 0.5 -278.02 -108.227)" />
	<path d="M 0 -242.188 L 0 242.187" fill="none" stroke="#000000" stroke-width="2" stroke-linecap="round" stroke-linejoin="round" transform="matrix(0.5 0 0 0.5 327.768 129.594)" />
	<path d="M -290.594 0 L 290.593 0" fill="none" stroke="#000000" stroke-width="1" stroke-linecap="round" stroke-linejoin="round" stroke-dasharray="3.505, 2.495" transform="matrix(0.5 0 0 0.5 182.471 129.594)" />
	<ellipse cx="630.38922119140625" cy="437.62411499023437" rx="5.25" ry="5.25" stroke="none" fill="#000000" transform="matrix(0.5 0 0 0.5 -278.02 -108.227)" />
	<path d="M -290.594 -109.788 L 290.593 109.788" fill="none" stroke="#000000" stroke-width="1" stroke-linecap="round" stroke-linejoin="round" stroke-dasharray="3.505, 2.495" transform="matrix(0.5 0 0 0.5 182.471 165.479)" />
	<g transform="matrix(1 0 -0 1 25.7217 89.8218)">
		<svg width="41.9907646" height="44.9458008">
			<defs />
			<path d="M 7.76608 6.28091 C 7.73639 6.41586, 7.66262 6.48288, 7.54386 6.48243, 7.53396 6.49233, 7.50922 6.49727, 7.46964 6.49683, 7.4449 6.49727, 7.42511 6.49233, 7.41026 6.48243 L 7.34369 6.48243 C 7.21504 6.48288, 7.15071 6.43475, 7.15071 6.33849 L 7.15071 6.2881 C 7.21009 5.93364, 7.23978 5.60481, 7.23978 5.30208 L 7.23978 5.02858 C 7.21009 4.65972, 7.12732 4.34169, 6.99147 4.07539, 6.85562 3.8091, 6.6568 3.60307, 6.395 3.45643, 6.1332 3.31024, 5.80167 3.23691, 5.40133 3.23646, 5.16921 3.23691, 4.93305 3.28729, 4.69329 3.38806, 4.45399 3.48882, 4.23042 3.62557, 4.0226 3.79785, 3.79544 3.98543, 3.61011 4.19775, 3.46661 4.43526, 3.32357 4.67277, 3.21965 4.91613, 3.15488 5.16533, 3.10585 5.34346, 3.07886 5.5135, 3.07346 5.67634, 3.07346 5.90215, 3.12294 6.11807, 3.2219 6.32409, 3.3654 6.67001, 3.62225 6.89088, 3.99291 6.98624 L 5.69776 7.46126 C 6.00904 7.55302, 6.27489 7.69832, 6.49486 7.89714, 6.71483 8.09642, 6.88036 8.33168, 6.99147 8.60248, 7.10303 8.87372, 7.16825 9.16971, 7.18805 9.49089 L 7.18805 9.62044 C 7.18805 9.89933, 7.14846 10.1845, 7.06929 10.4769, 6.96583 10.8804, 6.80029 11.2691, 6.57268 11.6433, 6.34552 12.0176, 6.06392 12.3536, 5.72745 12.6505, 5.40627 12.9244, 5.05451 13.1439, 4.67125 13.309, 4.288 13.4746, 3.90384 13.5573, 3.51834 13.5573, 2.95021 13.5573, 2.46574 13.4665, 2.06539 13.2838, 1.66505 13.1021, 1.36861 12.8718, 1.17563 12.5929 L 0.44196 13.4638 C 0.378085 13.5263, 0.31106 13.5573, 0.241786 13.5573 L 0.197253 13.5573 C 0.0740002 13.5573, 0.00697565 13.5097, -0.00292063 13.4134, -0.00292063 13.3846, 0.00472647 13.3585, 0.019121 13.3342 L 0.879194 9.96591 C 0.908883 9.83186, 0.9957 9.76258, 1.13875 9.75719 L 1.30158 9.75719 C 1.36096 9.75764, 1.41539 9.78148, 1.46487 9.82916, 1.48466 9.86784, 1.49456 9.90158, 1.49456 9.92992, 1.49456 9.94971, 1.48961 9.97355, 1.47972 10.0019, 1.39065 10.3478, 1.34612 10.6694, 1.34612 10.9663, 1.34612 11.4418, 1.46262 11.8448, 1.69473 12.1755, 2.06539 12.7085, 2.71315 12.9748, 3.6371 12.9744, 3.86921 12.9748, 4.10537 12.9208, 4.34513 12.8129, 4.58489 12.7049, 4.80845 12.5596, 5.01582 12.377, 5.24344 12.1665, 5.43461 11.9326, 5.59025 11.6757, 5.74589 11.4193, 5.86105 11.1539, 5.93482 10.88, 5.9843 10.6595, 6.00904 10.4535, 6.00904 10.261, 6.00904 10.0217, 5.97711 9.79137, 5.91278 9.57006, 5.76479 9.2012, 5.49039 8.96369, 5.09004 8.85753 L 3.40723 8.38251 C 3.10585 8.30154, 2.8463 8.16839, 2.62858 7.98351, 2.41131 7.79908, 2.24218 7.57956, 2.12117 7.32496, 2.00017 7.07081, 1.92955 6.79011, 1.90975 6.48243 L 1.90975 6.32409 C 1.90975 6.08478, 1.93944 5.83288, 1.99882 5.56838, 2.10273 5.18512, 2.26827 4.81806, 2.49543 4.46765, 2.72304 4.11768, 3.00464 3.80775, 3.34021 3.53875, 3.65689 3.2801, 4.00416 3.07273, 4.38201 2.91664, 4.76032 2.76099, 5.13458 2.68272, 5.50524 2.68227, 6.01444 2.68272, 6.43413 2.77764, 6.76521 2.96702, 7.09628 3.15684, 7.33604 3.38086, 7.48448 3.63951 L 8.19611 2.78304 C 8.2357 2.71646, 8.30002 2.68272, 8.38864 2.68227 L 8.45566 2.68227 C 8.57442 2.68272, 8.63335 2.7403, 8.63335 2.85501 L 8.63335 2.91259 Z" stroke="none" fill="#000000" />
			<path d="M 1.86424 2.51203 C 1.35514 2.49591, 0.859898 2.48785, 0.378257 2.48785, -0.103133 2.48785, -0.598376 2.49591, -1.10748 2.51203 L -1.10748 2.16541, -0.82106 2.16541 C -0.72987 2.16566, -0.643971 2.1644, -0.563866 2.16163, -0.483508 2.15911, -0.407433 2.15231, -0.335388 2.14148, -0.263344 2.1309, -0.201123 2.12007, -0.148727 2.10898, -0.104392 2.10117, -0.067866 2.07649, -0.0388969 2.03467, -0.0096761 1.99311, 0.00468242 1.94676, 0.00468242 1.89537 L 0.00468242 -2.64697 C -0.133361 -2.57946, -0.303648 -2.52832, -0.505676 -2.49356, -0.707703 -2.45855, -0.928875 -2.44116, -1.1697 -2.44142 L -1.1697 -2.78401 C -0.837685 -2.78375, -0.531118 -2.8233, -0.250245 -2.90265, 0.0306287 -2.98175, 0.273464 -3.13037, 0.478011 -3.34827 L 0.606734 -3.34827 C 0.697923 -3.34802, 0.743518 -3.30368, 0.743518 -3.21527 L 0.743518 1.89537 C 0.743518 1.94928, 0.757372 1.99638, 0.785082 2.03669, 0.812791 2.07699, 0.853096 2.10117, 0.905492 2.10898, 0.949827 2.12007, 1.00676 2.1309, 1.07578 2.14148, 1.1448 2.15231, 1.22289 2.15911, 1.31005 2.16163, 1.39721 2.1644, 1.48235 2.16566, 1.56548 2.16541 L 1.86424 2.16541, 1.86424 2.51203 Z" stroke="none" fill="#000000" transform="matrix(1.12 0 0 1 10.5715 12.8121)" />
			<rect />
		</svg>
	</g>
	<g transform="matrix(1 0 -0 1 25.3799 134.528)">
		<svg width="44.9446106" height="44.9458008">
			<defs />
			<path d="M 7.76608 6.28091 C 7.73639 6.41586, 7.66262 6.48288, 7.54386 6.48243, 7.53396 6.49233, 7.50922 6.49727, 7.46964 6.49683, 7.4449 6.49727, 7.42511 6.49233, 7.41026 6.48243 L 7.34369 6.48243 C 7.21504 6.48288, 7.15071 6.43475, 7.15071 6.33849 L 7.15071 6.2881 C 7.21009 5.93364, 7.23978 5.60481, 7.23978 5.30208 L 7.23978 5.02858 C 7.21009 4.65972, 7.12732 4.34169, 6.99147 4.07539, 6.85562 3.8091, 6.6568 3.60307, 6.395 3.45643, 6.1332 3.31024, 5.80167 3.23691, 5.40133 3.23646, 5.16921 3.23691, 4.93305 3.28729, 4.69329 3.38806, 4.45399 3.48882, 4.23042 3.62557, 4.0226 3.79785, 3.79544 3.98543, 3.61011 4.19775, 3.46661 4.43526, 3.32357 4.67277, 3.21965 4.91613, 3.15488 5.16533, 3.10585 5.34346, 3.07886 5.5135, 3.07346 5.67634, 3.07346 5.90215, 3.12294 6.11807, 3.2219 6.32409, 3.3654 6.67001, 3.62225 6.89088, 3.99291 6.98624 L 5.69776 7.46126 C 6.00904 7.55302, 6.27489 7.69832, 6.49486 7.89714, 6.71483 8.09642, 6.88036 8.33168, 6.99147 8.60248, 7.10303 8.87372, 7.16825 9.16971, 7.18805 9.49089 L 7.18805 9.62044 C 7.18805 9.89933, 7.14846 10.1845, 7.06929 10.4769, 6.96583 10.8804, 6.80029 11.2691, 6.57268 11.6433, 6.34552 12.0176, 6.06392 12.3536, 5.72745 12.6505, 5.40627 12.9244, 5.05451 13.1439, 4.67125 13.309, 4.288 13.4746, 3.90384 13.5573, 3.51834 13.5573, 2.95021 13.5573, 2.46574 13.4665, 2.06539 13.2838, 1.66505 13.1021, 1.36861 12.8718, 1.17563 12.5929 L 0.44196 13.4638 C 0.378085 13.5263, 0.31106 13.5573, 0.241786 13.5573 L 0.197253 13.5573 C 0.0740002 13.5573, 0.00697565 13.5097, -0.00292063 13.4134, -0.00292063 13.3846, 0.00472647 13.3585, 0.019121 13.3342 L 0.879194 9.96591 C 0.908883 9.83186, 0.9957 9.76258, 1.13875 9.75719 L 1.30158 9.75719 C 1.36096 9.75764, 1.41539 9.78148, 1.46487 9.82916, 1.48466 9.86784, 1.49456 9.90158, 1.49456 9.92992, 1.49456 9.94971, 1.48961 9.97355, 1.47972 10.0019, 1.39065 10.3478, 1.34612 10.6694, 1.34612 10.9663, 1.34612 11.4418, 1.46262 11.8448, 1.69473 12.1755, 2.06539 12.7085, 2.71315 12.9748, 3.6371 12.9744, 3.86921 12.9748, 4.10537 12.9208, 4.34513 12.8129, 4.58489 12.7049, 4.80845 12.5596, 5.01582 12.377, 5.24344 12.1665, 5.43461 11.9326, 5.59025 11.6757, 5.74589 11.4193, 5.86105 11.1539, 5.93482 10.88, 5.9843 10.6595, 6.00904 10.4535, 6.00904 10.261, 6.00904 10.0217, 5.97711 9.79137, 5.91278 9.57006, 5.76479 9.2012, 5.49039 8.96369, 5.09004 8.85753 L 3.40723 8.38251 C 3.10585 8.30154, 2.8463 8.16839, 2.62858 7.98351, 2.41131 7.79908, 2.24218 7.57956, 2.12117 7.32496, 2.00017 7.07081, 1.92955 6.79011, 1.90975 6.48243 L 1.90975 6.32409 C 1.90975 6.08478, 1.93944 5.83288, 1.99882 5.56838, 2.10273 5.18512, 2.26827 4.81806, 2.49543 4.46765, 2.72304 4.11768, 3.00464 3.80775, 3.34021 3.53875, 3.65689 3.2801, 4.00416 3.07273, 4.38201 2.91664, 4.76032 2.76099, 5.13458 2.68272, 5.50524 2.68227, 6.01444 2.68272, 6.43413 2.77764, 6.76521 2.96702, 7.09628 3.15684, 7.33604 3.38086, 7.48448 3.63951 L 8.19611 2.78304 C 8.2357 2.71646, 8.30002 2.68272, 8.38864 2.68227 L 8.45566 2.68227 C 8.57442 2.68272, 8.63335 2.7403, 8.63335 2.85501 L 8.63335 2.91259 Z" stroke="none" fill="#000000" />
			<path d="M 1.87894 2.51203 L -1.4996 2.51203, -1.4996 2.29035 C -1.4996 2.27448, -1.49129 2.2503, -1.47466 2.21781 L -0.1174 0.742655 C 0.0433152 0.565566, 0.205793 0.384195, 0.370539 0.198793, 0.535284 0.0133917, 0.682396 -0.17604, 0.812379 -0.369503, 0.942362 -0.562965, 1.04615 -0.762474, 1.12373 -0.968027, 1.20132 -1.17358, 1.23986 -1.38921, 1.23986 -1.61517, 1.23986 -1.80561, 1.21517 -1.98371, 1.1653 -2.14895, 1.11542 -2.3142, 1.04363 -2.4593, 0.949415 -2.58425, 0.855203 -2.70919, 0.737563 -2.80995, 0.596497 -2.88653, 0.455431 -2.96311, 0.292197 -3.0014, 0.106795 -3.00165, -0.169796 -3.0014, -0.414143 -2.91877, -0.625743 -2.75353, -0.837342 -2.58828, -0.977905 -2.40615, -1.04718 -2.20765, -1.06078 -2.20211, -1.03861 -2.19934, -0.980676 -2.19959 L -0.910143 -2.19959 C -0.827014 -2.18044, -0.755221 -2.15147, -0.694261 -2.11268, -0.6333 -2.07364, -0.582163 -2.01998, -0.540599 -1.95146, -0.499035 -1.88294, -0.478379 -1.80032, -0.478379 -1.70384, -0.478379 -1.54237, -0.530775 -1.41868, -0.636071 -1.33278, -0.741367 -1.24663, -0.859006 -1.20381, -0.988989 -1.20406, -1.11343 -1.20381, -1.22956 -1.24663, -1.33762 -1.33278, -1.44544 -1.41868, -1.4996 -1.54237, -1.4996 -1.70384, -1.4996 -1.92929, -1.45526 -2.14291, -1.36659 -2.34443, -1.27792 -2.54596, -1.15776 -2.72053, -1.00561 -2.86839, -0.853464 -3.01601, -0.673604 -3.13289, -0.466035 -3.21904, -0.258466 -3.30494, -0.0383018 -3.34802, 0.193954 -3.34827, 0.481629 -3.34802, 0.745372 -3.3057, 0.984681 -3.22106, 1.22399 -3.13642, 1.42803 -3.01475, 1.59681 -2.8563, 1.76558 -2.6976, 1.89783 -2.51422, 1.99331 -2.30614, 2.08878 -2.09782, 2.13639 -1.86758, 2.13639 -1.61517, 2.13639 -1.33556, 2.07291 -1.07811, 1.94544 -0.843083, 1.81823 -0.607804, 1.66054 -0.392174, 1.47237 -0.196193, 1.2842 4.07696e-005, 1.08418 0.184687, 0.872584 0.357997, 0.660985 0.531307, 0.469285 0.699831, 0.297738 0.863569 L -0.656979 1.76236, 0.592466 1.76236 C 0.766784 1.76262, 0.929514 1.76136, 1.08015 1.75858, 1.23104 1.75607, 1.35901 1.75052, 1.46406 1.74246, 1.56935 1.7344, 1.62326 1.72911, 1.62578 1.72609, 1.64795 1.70745, 1.66885 1.66991, 1.68825 1.61349, 1.70765 1.55706, 1.72553 1.49056, 1.74216 1.41398, 1.75878 1.3374, 1.77541 1.25956, 1.79203 1.18021, 1.80866 1.10111, 1.82377 1.01421, 1.83763 0.919995 L 2.1447 0.919995 Z" stroke="none" fill="#000000" transform="matrix(1.12 0 0 1 10.9038 12.8121)" />
			<rect />
		</svg>
	</g>
	<g transform="matrix(1 0 -0 1 332.5 220.704)">
		<svg width="57.055378" height="44.9458008">
			<defs />
			<path d="M 7.76608 6.28091 C 7.73639 6.41586, 7.66262 6.48288, 7.54386 6.48243, 7.53396 6.49233, 7.50922 6.49727, 7.46964 6.49683, 7.4449 6.49727, 7.42511 6.49233, 7.41026 6.48243 L 7.34369 6.48243 C 7.21504 6.48288, 7.15071 6.43475, 7.15071 6.33849 L 7.15071 6.2881 C 7.21009 5.93364, 7.23978 5.60481, 7.23978 5.30208 L 7.23978 5.02858 C 7.21009 4.65972, 7.12732 4.34169, 6.99147 4.07539, 6.85562 3.8091, 6.6568 3.60307, 6.395 3.45643, 6.1332 3.31024, 5.80167 3.23691, 5.40133 3.23646, 5.16921 3.23691, 4.93305 3.28729, 4.69329 3.38806, 4.45399 3.48882, 4.23042 3.62557, 4.0226 3.79785, 3.79544 3.98543, 3.61011 4.19775, 3.46661 4.43526, 3.32357 4.67277, 3.21965 4.91613, 3.15488 5.16533, 3.10585 5.34346, 3.07886 5.5135, 3.07346 5.67634, 3.07346 5.90215, 3.12294 6.11807, 3.2219 6.32409, 3.3654 6.67001, 3.62225 6.89088, 3.99291 6.98624 L 5.69776 7.46126 C 6.00904 7.55302, 6.27489 7.69832, 6.49486 7.89714, 6.71483 8.09642, 6.88036 8.33168, 6.99147 8.60248, 7.10303 8.87372, 7.16825 9.16971, 7.18805 9.49089 L 7.18805 9.62044 C 7.18805 9.89933, 7.14846 10.1845, 7.06929 10.4769, 6.96583 10.8804, 6.80029 11.2691, 6.57268 11.6433, 6.34552 12.0176, 6.06392 12.3536, 5.72745 12.6505, 5.40627 12.9244, 5.05451 13.1439, 4.67125 13.309, 4.288 13.4746, 3.90384 13.5573, 3.51834 13.5573, 2.95021 13.5573, 2.46574 13.4665, 2.06539 13.2838, 1.66505 13.1021, 1.36861 12.8718, 1.17563 12.5929 L 0.44196 13.4638 C 0.378085 13.5263, 0.31106 13.5573, 0.241786 13.5573 L 0.197253 13.5573 C 0.0740002 13.5573, 0.00697565 13.5097, -0.00292063 13.4134, -0.00292063 13.3846, 0.00472647 13.3585, 0.019121 13.3342 L 0.879194 9.96591 C 0.908883 9.83186, 0.9957 9.76258, 1.13875 9.75719 L 1.30158 9.75719 C 1.36096 9.75764, 1.41539 9.78148, 1.46487 9.82916, 1.48466 9.86784, 1.49456 9.90158, 1.49456 9.92992, 1.49456 9.94971, 1.48961 9.97355, 1.47972 10.0019, 1.39065 10.3478, 1.34612 10.6694, 1.34612 10.9663, 1.34612 11.4418, 1.46262 11.8448, 1.69473 12.1755, 2.06539 12.7085, 2.71315 12.9748, 3.6371 12.9744, 3.86921 12.9748, 4.10537 12.9208, 4.34513 12.8129, 4.58489 12.7049, 4.80845 12.5596, 5.01582 12.377, 5.24344 12.1665, 5.43461 11.9326, 5.59025 11.6757, 5.74589 11.4193, 5.86105 11.1539, 5.93482 10.88, 5.9843 10.6595, 6.00904 10.4535, 6.00904 10.261, 6.00904 10.0217, 5.97711 9.79137, 5.91278 9.57006, 5.76479 9.2012, 5.49039 8.96369, 5.09004 8.85753 L 3.40723 8.38251 C 3.10585 8.30154, 2.8463 8.16839, 2.62858 7.98351, 2.41131 7.79908, 2.24218 7.57956, 2.12117 7.32496, 2.00017 7.07081, 1.92955 6.79011, 1.90975 6.48243 L 1.90975 6.32409 C 1.90975 6.08478, 1.93944 5.83288, 1.99882 5.56838, 2.10273 5.18512, 2.26827 4.81806, 2.49543 4.46765, 2.72304 4.11768, 3.00464 3.80775, 3.34021 3.53875, 3.65689 3.2801, 4.00416 3.07273, 4.38201 2.91664, 4.76032 2.76099, 5.13458 2.68272, 5.50524 2.68227, 6.01444 2.68272, 6.43413 2.77764, 6.76521 2.96702, 7.09628 3.15684, 7.33604 3.38086, 7.48448 3.63951 L 8.19611 2.78304 C 8.2357 2.71646, 8.30002 2.68272, 8.38864 2.68227 L 8.45566 2.68227 C 8.57442 2.68272, 8.63335 2.7403, 8.63335 2.85501 L 8.63335 2.91259 Z" stroke="none" fill="#000000" />
			<path d="M 1.86424 2.51203 C 1.35514 2.49591, 0.859898 2.48785, 0.378257 2.48785, -0.103133 2.48785, -0.598376 2.49591, -1.10748 2.51203 L -1.10748 2.16541, -0.82106 2.16541 C -0.72987 2.16566, -0.643971 2.1644, -0.563866 2.16163, -0.483508 2.15911, -0.407433 2.15231, -0.335388 2.14148, -0.263344 2.1309, -0.201123 2.12007, -0.148727 2.10898, -0.104392 2.10117, -0.067866 2.07649, -0.0388969 2.03467, -0.0096761 1.99311, 0.00468242 1.94676, 0.00468242 1.89537 L 0.00468242 -2.64697 C -0.133361 -2.57946, -0.303648 -2.52832, -0.505676 -2.49356, -0.707703 -2.45855, -0.928875 -2.44116, -1.1697 -2.44142 L -1.1697 -2.78401 C -0.837685 -2.78375, -0.531118 -2.8233, -0.250245 -2.90265, 0.0306287 -2.98175, 0.273464 -3.13037, 0.478011 -3.34827 L 0.606734 -3.34827 C 0.697923 -3.34802, 0.743518 -3.30368, 0.743518 -3.21527 L 0.743518 1.89537 C 0.743518 1.94928, 0.757372 1.99638, 0.785082 2.03669, 0.812791 2.07699, 0.853096 2.10117, 0.905492 2.10898, 0.949827 2.12007, 1.00676 2.1309, 1.07578 2.14148, 1.1448 2.15231, 1.22289 2.15911, 1.31005 2.16163, 1.39721 2.1644, 1.48235 2.16566, 1.56548 2.16541 L 1.86424 2.16541, 1.86424 2.51203 Z" stroke="none" fill="#000000" transform="matrix(1.12 0 0 1 10.5715 12.8121)" />
			<path d="M 15.4447 7.95067 C 15.4051 8.06133, 15.3385 8.11666, 15.2445 8.11621 L 15.1851 8.11621, 15.1406 8.09462 C 15.047 8.07123, 14.9949 8.00645, 14.985 7.90029 L 14.985 7.84991, 15.7339 3.20767 C 15.7686 2.98726, 15.8734 2.82082, 16.0488 2.70791, 16.2243 2.59546, 16.401 2.53878, 16.5787 2.53833, 16.7712 2.53878, 16.9269 2.59861, 17.0456 2.71826, 17.1199 2.79068, 17.1567 2.8865, 17.1567 3.00615, 17.1567 3.09297, 17.1347 3.19373, 17.0902 3.30844 Z" stroke="none" fill="#000000" />
			<rect />
		</svg>
	</g>
	<ellipse cx="1211.575927734375" cy="657.2000732421875" rx="5.25" ry="5.25" stroke="none" fill="#000000" transform="matrix(0.5 0 0 0.5 -278.02 -108.227)" />
	<ellipse cx="1211.575927734375" cy="475.64215087890625" rx="5.25" ry="5.25" stroke="none" fill="#000000" transform="matrix(0.5 0 0 0.5 -278.02 -108.227)" />
	<g transform="matrix(1 0 -0 1 332.158 111.881)">
		<svg width="57.055378" height="44.9458008">
			<defs />
			<path d="M 7.76608 6.28091 C 7.73639 6.41586, 7.66262 6.48288, 7.54386 6.48243, 7.53396 6.49233, 7.50922 6.49727, 7.46964 6.49683, 7.4449 6.49727, 7.42511 6.49233, 7.41026 6.48243 L 7.34369 6.48243 C 7.21504 6.48288, 7.15071 6.43475, 7.15071 6.33849 L 7.15071 6.2881 C 7.21009 5.93364, 7.23978 5.60481, 7.23978 5.30208 L 7.23978 5.02858 C 7.21009 4.65972, 7.12732 4.34169, 6.99147 4.07539, 6.85562 3.8091, 6.6568 3.60307, 6.395 3.45643, 6.1332 3.31024, 5.80167 3.23691, 5.40133 3.23646, 5.16921 3.23691, 4.93305 3.28729, 4.69329 3.38806, 4.45399 3.48882, 4.23042 3.62557, 4.0226 3.79785, 3.79544 3.98543, 3.61011 4.19775, 3.46661 4.43526, 3.32357 4.67277, 3.21965 4.91613, 3.15488 5.16533, 3.10585 5.34346, 3.07886 5.5135, 3.07346 5.67634, 3.07346 5.90215, 3.12294 6.11807, 3.2219 6.32409, 3.3654 6.67001, 3.62225 6.89088, 3.99291 6.98624 L 5.69776 7.46126 C 6.00904 7.55302, 6.27489 7.69832, 6.49486 7.89714, 6.71483 8.09642, 6.88036 8.33168, 6.99147 8.60248, 7.10303 8.87372, 7.16825 9.16971, 7.18805 9.49089 L 7.18805 9.62044 C 7.18805 9.89933, 7.14846 10.1845, 7.06929 10.4769, 6.96583 10.8804, 6.80029 11.2691, 6.57268 11.6433, 6.34552 12.0176, 6.06392 12.3536, 5.72745 12.6505, 5.40627 12.9244, 5.05451 13.1439, 4.67125 13.309, 4.288 13.4746, 3.90384 13.5573, 3.51834 13.5573, 2.95021 13.5573, 2.46574 13.4665, 2.06539 13.2838, 1.66505 13.1021, 1.36861 12.8718, 1.17563 12.5929 L 0.44196 13.4638 C 0.378085 13.5263, 0.31106 13.5573, 0.241786 13.5573 L 0.197253 13.5573 C 0.0740002 13.5573, 0.00697565 13.5097, -0.00292063 13.4134, -0.00292063 13.3846, 0.00472647 13.3585, 0.019121 13.3342 L 0.879194 9.96591 C 0.908883 9.83186, 0.9957 9.76258, 1.13875 9.75719 L 1.30158 9.75719 C 1.36096 9.75764, 1.41539 9.78148, 1.46487 9.82916, 1.48466 9.86784, 1.49456 9.90158, 1.49456 9.92992, 1.49456 9.94971, 1.48961 9.97355, 1.47972 10.0019, 1.39065 10.3478, 1.34612 10.6694, 1.34612 10.9663, 1.34612 11.4418, 1.46262 11.8448, 1.69473 12.1755, 2.06539 12.7085, 2.71315 12.9748, 3.6371 12.9744, 3.86921 12.9748, 4.10537 12.9208, 4.34513 12.8129, 4.58489 12.7049, 4.80845 12.5596, 5.01582 12.377, 5.24344 12.1665, 5.43461 11.9326, 5.59025 11.6757, 5.74589 11.4193, 5.86105 11.1539, 5.93482 10.88, 5.9843 10.6595, 6.00904 10.4535, 6.00904 10.261, 6.00904 10.0217, 5.97711 9.79137, 5.91278 9.57006, 5.76479 9.2012, 5.49039 8.96369, 5.09004 8.85753 L 3.40723 8.38251 C 3.10585 8.30154, 2.8463 8.16839, 2.62858 7.98351, 2.41131 7.79908, 2.24218 7.57956, 2.12117 7.32496, 2.00017 7.07081, 1.92955 6.79011, 1.90975 6.48243 L 1.90975 6.32409 C 1.90975 6.08478, 1.93944 5.83288, 1.99882 5.56838, 2.10273 5.18512, 2.26827 4.81806, 2.49543 4.46765, 2.72304 4.11768, 3.00464 3.80775, 3.34021 3.53875, 3.65689 3.2801, 4.00416 3.07273, 4.38201 2.91664, 4.76032 2.76099, 5.13458 2.68272, 5.50524 2.68227, 6.01444 2.68272, 6.43413 2.77764, 6.76521 2.96702, 7.09628 3.15684, 7.33604 3.38086, 7.48448 3.63951 L 8.19611 2.78304 C 8.2357 2.71646, 8.30002 2.68272, 8.38864 2.68227 L 8.45566 2.68227 C 8.57442 2.68272, 8.63335 2.7403, 8.63335 2.85501 L 8.63335 2.91259 Z" stroke="none" fill="#000000" />
			<path d="M 1.87894 2.51203 L -1.4996 2.51203, -1.4996 2.29035 C -1.4996 2.27448, -1.49129 2.2503, -1.47466 2.21781 L -0.1174 0.742655 C 0.0433152 0.565566, 0.205793 0.384195, 0.370539 0.198793, 0.535284 0.0133917, 0.682396 -0.17604, 0.812379 -0.369503, 0.942362 -0.562965, 1.04615 -0.762474, 1.12373 -0.968027, 1.20132 -1.17358, 1.23986 -1.38921, 1.23986 -1.61517, 1.23986 -1.80561, 1.21517 -1.98371, 1.1653 -2.14895, 1.11542 -2.3142, 1.04363 -2.4593, 0.949415 -2.58425, 0.855203 -2.70919, 0.737563 -2.80995, 0.596497 -2.88653, 0.455431 -2.96311, 0.292197 -3.0014, 0.106795 -3.00165, -0.169796 -3.0014, -0.414143 -2.91877, -0.625743 -2.75353, -0.837342 -2.58828, -0.977905 -2.40615, -1.04718 -2.20765, -1.06078 -2.20211, -1.03861 -2.19934, -0.980676 -2.19959 L -0.910143 -2.19959 C -0.827014 -2.18044, -0.755221 -2.15147, -0.694261 -2.11268, -0.6333 -2.07364, -0.582163 -2.01998, -0.540599 -1.95146, -0.499035 -1.88294, -0.478379 -1.80032, -0.478379 -1.70384, -0.478379 -1.54237, -0.530775 -1.41868, -0.636071 -1.33278, -0.741367 -1.24663, -0.859006 -1.20381, -0.988989 -1.20406, -1.11343 -1.20381, -1.22956 -1.24663, -1.33762 -1.33278, -1.44544 -1.41868, -1.4996 -1.54237, -1.4996 -1.70384, -1.4996 -1.92929, -1.45526 -2.14291, -1.36659 -2.34443, -1.27792 -2.54596, -1.15776 -2.72053, -1.00561 -2.86839, -0.853464 -3.01601, -0.673604 -3.13289, -0.466035 -3.21904, -0.258466 -3.30494, -0.0383018 -3.34802, 0.193954 -3.34827, 0.481629 -3.34802, 0.745372 -3.3057, 0.984681 -3.22106, 1.22399 -3.13642, 1.42803 -3.01475, 1.59681 -2.8563, 1.76558 -2.6976, 1.89783 -2.51422, 1.99331 -2.30614, 2.08878 -2.09782, 2.13639 -1.86758, 2.13639 -1.61517, 2.13639 -1.33556, 2.07291 -1.07811, 1.94544 -0.843083, 1.81823 -0.607804, 1.66054 -0.392174, 1.47237 -0.196193, 1.2842 4.07696e-005, 1.08418 0.184687, 0.872584 0.357997, 0.660985 0.531307, 0.469285 0.699831, 0.297738 0.863569 L -0.656979 1.76236, 0.592466 1.76236 C 0.766784 1.76262, 0.929514 1.76136, 1.08015 1.75858, 1.23104 1.75607, 1.35901 1.75052, 1.46406 1.74246, 1.56935 1.7344, 1.62326 1.72911, 1.62578 1.72609, 1.64795 1.70745, 1.66885 1.66991, 1.68825 1.61349, 1.70765 1.55706, 1.72553 1.49056, 1.74216 1.41398, 1.75878 1.3374, 1.77541 1.25956, 1.79203 1.18021, 1.80866 1.10111, 1.82377 1.01421, 1.83763 0.919995 L 2.1447 0.919995 Z" stroke="none" fill="#000000" transform="matrix(1.12 0 0 1 10.9038 12.8121)" />
			<path d="M 16.1276 7.95067 C 16.088 8.06133, 16.0215 8.11666, 15.9275 8.11621 L 15.8681 8.11621, 15.8235 8.09462 C 15.73 8.07123, 15.6778 8.00645, 15.6679 7.90029 L 15.6679 7.84991, 16.4164 3.20767 C 16.4515 2.98726, 16.5563 2.82082, 16.7318 2.70791, 16.9072 2.59546, 17.084 2.53878, 17.2617 2.53833, 17.4546 2.53878, 17.6103 2.59861, 17.7286 2.71826, 17.8032 2.79068, 17.8401 2.8865, 17.8401 3.00615, 17.8401 3.09297, 17.8181 3.19373, 17.7731 3.30844 Z" stroke="none" fill="#000000" />
			<rect />
		</svg>
	</g>
	<path d="M -19.9727 0 L 19.9727 0" fill="none" stroke="#000000" stroke-width="1.5" stroke-linecap="round" stroke-linejoin="round" transform="matrix(3.77489e-008 0.5 -0.5 3.77489e-008 31.9599 120.732)" />
	<path d="M -19.9727 -7.21497 L -19.9727 7.21497" fill="none" stroke="#000000" stroke-width="1" stroke-linecap="round" stroke-linejoin="round" transform="matrix(3.77489e-008 0.5 -0.5 3.77489e-008 31.9599 120.732)" />
	<path d="M 19.9727 -7.21497 L 19.9727 7.21497" fill="none" stroke="#000000" stroke-width="1" stroke-linecap="round" stroke-linejoin="round" transform="matrix(3.77489e-008 0.5 -0.5 3.77489e-008 31.9599 120.732)" />
	<g transform="matrix(1 0 -0 1 8.24999 111.926)">
		<svg width="62.9630699" height="38.9535408">
			<defs />
			<path d="M 11.3466 12.9528 C 11.3619 12.987, 11.3691 13.018, 11.3691 13.0463, 11.3691 13.085, 11.3592 13.1138, 11.3394 13.1327, 11.3097 13.1903, 11.2531 13.2191, 11.169 13.2191 L 0.199419 13.2191 C 0.120699 13.2191, 0.0640202 13.1903, 0.0289336 13.1327, 0.00959092 13.1138, -0.000305355 13.085, -0.000305355 13.0463, -0.000305355 13.018, 0.00734174 12.987, 0.0217363 12.9528 L 5.27664 2.71106 C 5.34096 2.57252, 5.45477 2.50504, 5.61761 2.50954 L 5.75076 2.50954 C 5.90415 2.50999, 6.01796 2.57477, 6.09173 2.70387 L 11.3466 12.9528 Z M 5.2393 4.12173 L 1.1778 12.0315, 9.29361 12.0315 Z" stroke="none" fill="#000000" />
			<path d="M 18.9993 7.77794 C 18.9453 7.99431, 18.8351 8.15624, 18.6695 8.2642, 18.504 8.37216, 18.3376 8.42614, 18.1693 8.42569, 17.9966 8.42614, 17.8531 8.37081, 17.7393 8.26015, 17.6556 8.17919, 17.6111 8.07348, 17.6057 7.94348, 17.6057 7.8913, 17.6156 7.82382, 17.6354 7.74195, 17.6898 7.56022, 17.7739 7.42212, 17.8873 7.32856, 18.0011 7.23499, 18.0802 7.18102, 18.1248 7.16617, 18.0312 7.09465, 17.8382 7.05866, 17.5463 7.05821, 17.2895 7.05866, 17.0596 7.19181, 16.8572 7.45811, 16.6547 7.72441, 16.5036 8.04469, 16.4046 8.4185 L 15.7227 11.0527 C 15.6534 11.3172, 15.6017 11.5691, 15.5671 11.8084, 15.5473 11.8903, 15.5374 11.9622, 15.5374 12.0243, 15.5374 12.1737, 15.5621 12.3149, 15.6116 12.449, 15.6611 12.5934, 15.7353 12.7085, 15.8343 12.7949, 15.9332 12.8812, 16.0592 12.9244, 16.2121 12.924, 16.41 12.9244, 16.6003 12.8732, 16.7829 12.7697, 16.966 12.6667, 17.1343 12.5277, 17.2872 12.3523, 17.4401 12.1773, 17.576 11.9735, 17.6947 11.7405, 17.8135 11.5079, 17.9071 11.2691, 17.9763 11.0239, 18.006 10.8998, 18.0901 10.8372, 18.2282 10.8368 L 18.3987 10.8368 C 18.5274 10.8372, 18.5917 10.8854, 18.5917 10.9807, 18.5917 11.01, 18.5845 11.0365, 18.5697 11.0599, 18.5004 11.3482, 18.3879 11.6325, 18.2323 11.9132, 18.0767 12.1939, 17.8954 12.4422, 17.6875 12.6581, 17.4797 12.8741, 17.244 13.0517, 16.9795 13.1903, 16.715 13.3297, 16.4321 13.399, 16.1307 13.399, 15.8244 13.399, 15.5599 13.3333, 15.3376 13.2011, 15.1154 13.0697, 14.9346 12.8979, 14.796 12.6865, 14.752 12.6343, 14.7173 12.5803, 14.6926 12.525, 14.6678 12.4701, 14.6602 12.4616, 14.6701 12.4993, 14.5518 12.6964, 14.3642 12.8956, 14.1069 13.0972, 13.8501 13.2987, 13.5536 13.399, 13.2171 13.399, 13.0296 13.399, 12.8442 13.3752, 12.6612 13.327, 12.4785 13.2793, 12.3188 13.2051, 12.183 13.1044, 12.0471 13.0036, 11.9446 12.8812, 11.8753 12.7369, 11.8411 12.6509, 11.824 12.5574, 11.8236 12.4562, 11.824 12.3846, 11.8339 12.3005, 11.8533 12.2043, 11.9077 11.9888, 12.0188 11.8268, 12.187 11.7189, 12.3553 11.6109, 12.5231 11.557, 12.6908 11.5565, 12.864 11.557, 13.0125 11.6123, 13.1357 11.722, 13.2198 11.8039, 13.2617 11.9096, 13.2617 12.0387, 13.2617 12.1062, 13.2518 12.1737, 13.232 12.2402, 13.1879 12.4085, 13.1074 12.5443, 12.9913 12.6473, 12.8753 12.7508, 12.7921 12.807, 12.7426 12.816, 12.8366 12.8934, 13.0269 12.9294, 13.3134 12.924, 13.5707 12.9244, 13.8028 12.7904, 14.0102 12.5214, 14.218 12.2528, 14.3687 11.9312, 14.4627 11.5565 L 15.1519 8.90791 C 15.2211 8.6587, 15.2756 8.414, 15.3152 8.17379, 15.325 8.09732, 15.33 8.02534, 15.33 7.95787, 15.33 7.80943, 15.308 7.67043, 15.263 7.54043, 15.2139 7.39693, 15.1375 7.28088, 15.0336 7.19181, 14.9296 7.10319, 14.801 7.05866, 14.6481 7.05821, 14.4501 7.05866, 14.2585 7.11039, 14.0732 7.2134, 13.8878 7.31686, 13.7187 7.45451, 13.5658 7.62725, 13.4128 7.79998, 13.277 8.0006, 13.1582 8.22822, 13.0395 8.45628, 12.9531 8.69739, 12.8982 8.95109, 12.8442 9.08109, 12.7529 9.14812, 12.6243 9.15262 L 12.461 9.15262 C 12.3427 9.15307, 12.2833 9.09324, 12.2833 8.97268 L 12.2833 8.9223 C 12.3575 8.62542, 12.4713 8.33618, 12.6243 8.05548, 12.7772 7.77479, 12.9603 7.52648, 13.1726 7.31057, 13.3854 7.09465, 13.6229 6.91831, 13.8847 6.78157, 14.1465 6.64482, 14.4308 6.57645, 14.7367 6.57599, 15.0336 6.57645, 15.2954 6.64122, 15.5225 6.77077, 15.7501 6.90032, 15.9355 7.07306, 16.0785 7.28852, 16.1082 7.3416, 16.1356 7.39828, 16.1604 7.45811, 16.1851 7.51839, 16.1923 7.53368, 16.1824 7.50444, 16.3061 7.29392, 16.4964 7.08655, 16.7533 6.88233, 17.0106 6.67856, 17.3043 6.57645, 17.6354 6.57599, 17.8234 6.57645, 18.0096 6.59939, 18.195 6.64482, 18.3803 6.6907, 18.5413 6.76357, 18.6772 6.86434, 18.813 6.9651, 18.9133 7.0897, 18.9772 7.23814, 19.0118 7.32496, 19.0289 7.42347, 19.0289 7.53323, 19.0289 7.60565, 19.019 7.68707, 18.9993 7.77794 Z" stroke="none" fill="#000000" />
			<rect />
		</svg>
	</g>
	<path d="M -125.09 0 L 125.09 0" fill="none" stroke="#FF2A00" stroke-width="1.5" stroke-linecap="round" stroke-linejoin="round" marker-start="url(#CustomMarker-03)" marker-end="url(#CustomMarker-04)" transform="matrix(3.77489e-008 0.5 -0.5 3.77489e-008 105.001 129.594)" />
	<path d="M -125.09 -12.5281 L -125.09 12.5281" fill="none" stroke="#FF2A00" stroke-width="1" stroke-linecap="round" stroke-linejoin="round" transform="matrix(3.77489e-008 0.5 -0.5 3.77489e-008 105.001 129.594)" />
	<path d="M 125.09 -12.5281 L 125.09 12.5281" fill="none" stroke="#FF2A00" stroke-width="1" stroke-linecap="round" stroke-linejoin="round" transform="matrix(3.77489e-008 0.5 -0.5 3.77489e-008 105.001 129.594)" />
	<g transform="matrix(1 0 -0 1 111.328 104.936)">
		<svg width="35.935379" height="35.8877335">
			<defs />
			<path d="M 10.7457 8.23856 C 10.5775 8.88677, 10.3121 9.51293, 9.94865 10.1175, 9.58563 10.7221, 9.12996 11.2713, 8.58117 11.7652, 8.08185 12.2119, 7.53351 12.5682, 6.93524 12.8345, 6.33742 13.1008, 5.7396 13.2335, 5.14132 13.2335 L 0.211646 13.2335 C 0.0784966 13.2335, 0.0069738 13.1714, -0.00337227 13.0463 L -0.00337227 12.9888, 0.0263165 12.8664 C 0.0659014 12.7085, 0.162165 12.6316, 0.315107 12.6361, 0.547668 12.6365, 0.767635 12.6329, 0.975006 12.6257, 1.18283 12.6185, 1.33577 12.5934, 1.43473 12.5497, 1.52875 12.4975, 1.60027 12.368, 1.64975 12.1611 L 3.73291 4.04976 C 3.7626 3.94449, 3.77699 3.86308, 3.77699 3.80505, 3.77699 3.74792, 3.76485 3.71418, 3.74011 3.70429, 3.67083 3.66155, 3.53633 3.63546, 3.33616 3.62557, 3.13598 3.61612, 2.91737 3.61117, 2.67986 3.61072, 2.54176 3.61117, 2.47249 3.5464, 2.47249 3.4164 L 2.47249 3.35882, 2.51702 3.23646 C 2.54671 3.09297, 2.63847 3.021, 2.79142 3.02055 L 7.73594 3.02055 C 8.3486 3.021, 8.88255 3.16269, 9.33733 3.44563, 9.7921 3.72903, 10.1578 4.10058, 10.4345 4.56076, 10.7309 5.07941, 10.8987 5.65519, 10.9383 6.2881, 10.9482 6.42305, 10.9531 6.54766, 10.9531 6.66236, 10.9531 7.17607, 10.8843 7.70147, 10.7457 8.23856 Z M 9.31484 4.89184 C 9.14705 4.49419, 8.8839 4.1811, 8.52539 3.95304, 8.16732 3.72543, 7.74853 3.61117, 7.26901 3.61072 L 5.67482 3.61072 C 5.42292 3.61117, 5.27222 3.63051, 5.22274 3.66875, 5.17326 3.70743, 5.12153 3.84373, 5.0671 4.07854 L 2.9691 12.1899 C 2.92951 12.3536, 2.90972 12.471, 2.90972 12.5425 L 2.90972 12.6001 C 2.92951 12.6199, 3.06086 12.6316, 3.30287 12.6361 L 4.89662 12.6361 C 5.38108 12.6365, 5.8642 12.5277, 6.34596 12.3091, 6.82818 12.0909, 7.25912 11.7873, 7.63967 11.3982, 8.07466 10.9474, 8.40843 10.445, 8.64054 9.89079, 8.87265 9.3366, 9.05798 8.77656, 9.19608 8.20977, 9.34947 7.62005, 9.45563 7.03707, 9.51501 6.46084, 9.52491 6.32679, 9.52985 6.19724, 9.52985 6.07219, 9.52985 5.65025, 9.45833 5.2571, 9.31484 4.89184 Z" stroke="none" fill="#FF2A00" />
			<rect />
		</svg>
	</g>
	<path d="M -50.225 0 L 50.225 0" fill="none" stroke="#000000" stroke-width="1.5" stroke-linecap="round" stroke-linejoin="round" marker-start="url(#CustomMarker-05)" marker-end="url(#CustomMarker-06)" transform="matrix(0.5 0 -0 0.5 62.2868 203.139)" />
	<path d="M -50.225 -12.7672 L -50.225 12.7672" fill="none" stroke="#000000" stroke-width="1" stroke-linecap="round" stroke-linejoin="round" transform="matrix(0.5 0 -0 0.5 62.2868 203.139)" />
	<path d="M 50.225 -12.7672 L 50.225 12.7672" fill="none" stroke="#000000" stroke-width="1" stroke-linecap="round" stroke-linejoin="round" transform="matrix(0.5 0 -0 0.5 62.2868 203.139)" />
	<g transform="matrix(1 0 -0 1 58.5764 200.717)">
		<svg width="27.073843" height="26.9690266">
			<defs />
			<path d="M 7.39407 11.0671 C 7.34009 11.2884, 7.27576 11.5331, 7.20154 11.8017, 7.12777 12.0707, 7.02881 12.3199, 6.9051 12.5502, 6.78185 12.7805, 6.62621 12.9798, 6.43818 13.1475, 6.25015 13.3153, 6.01534 13.399, 5.73375 13.399, 5.38783 13.399, 5.10849 13.3104, 4.89617 13.1332, 4.68385 12.9559, 4.5525 12.7733, 4.50302 12.5857, 4.33523 12.7926, 4.11032 12.9798, 3.82872 13.1475, 3.54713 13.3153, 3.22055 13.399, 2.84989 13.399, 2.51432 13.399, 2.21384 13.3369, 1.94934 13.2119, 1.68484 13.0877, 1.47612 12.8956, 1.32272 12.6361, 1.17473 12.3581, 1.10321 12.0513, 1.10771 11.7148 L 1.10771 11.6573 C 1.1176 11.3073, 1.16214 10.9596, 1.24131 10.6137, 1.32048 10.283, 1.43563 9.91867, 1.58632 9.52013, 1.73702 9.12203, 1.88141 8.73562, 2.01951 8.36092, 2.16795 7.96327, 2.24217 7.63669, 2.24217 7.38209, 2.24217 7.16662, 2.15086 7.05866, 1.96778 7.05821, 1.79999 7.05866, 1.64795 7.10679, 1.5121 7.20261, 1.37625 7.29887, 1.25255 7.43202, 1.14144 7.60206, 1.03034 7.77254, 0.930024 7.97406, 0.840957 8.20662, 0.751891 8.43964, 0.678119 8.68749, 0.618742 8.95109, 0.564313 9.08109, 0.472997 9.14812, 0.344346 9.15262 L 0.173861 9.15262 C 0.055106 9.15307, -0.00427139 9.09324, -0.00427139 8.97268 L -0.00427139 8.9223 C 0.0650023 8.6587, 0.156767 8.38926, 0.270124 8.11306, 0.383931 7.83732, 0.527427 7.58676, 0.700161 7.36095, 0.873345 7.13558, 1.07127 6.94845, 1.29349 6.79956, 1.5157 6.65112, 1.7703 6.57645, 2.05685 6.57599, 2.30425 6.57645, 2.51522 6.62952, 2.69065 6.73478, 2.86609 6.84049, 2.99969 6.98084, 3.091 7.15582, 3.18277 7.33126, 3.23315 7.52873, 3.24304 7.74915 L 3.24304 7.79953 C 3.24304 8.00645, 3.20121 8.21967, 3.11664 8.44009, 2.9736 8.81479, 2.8319 9.1976, 2.69065 9.5885, 2.54986 9.97985, 2.4401 10.3312, 2.36093 10.6429, 2.28176 10.9551, 2.22733 11.2641, 2.19764 11.5709, 2.17785 11.6528, 2.1657 11.7418, 2.16076 11.8372, 2.16076 12.0248, 2.19314 12.2097, 2.25702 12.3914, 2.30155 12.5551, 2.38297 12.6847, 2.50173 12.7805, 2.62048 12.8768, 2.76128 12.9244, 2.92412 12.924, 3.25069 12.9244, 3.53498 12.8264, 3.77699 12.6293, 4.019 12.4328, 4.23132 12.171, 4.41395 11.8444, 4.42385 11.8066, 4.43149 11.7621, 4.43644 11.7117, 4.44139 11.6613, 4.44859 11.6096, 4.45848 11.5565 L 5.57046 7.26693 C 5.61544 7.0897, 5.70541 6.95925, 5.84126 6.87513, 5.97711 6.79146, 6.1143 6.74918, 6.2524 6.74873, 6.3959 6.74918, 6.51465 6.79236, 6.60867 6.87828, 6.67299 6.94126, 6.70493 7.02492, 6.70493 7.13018, 6.70493 7.18326, 6.69998 7.23859, 6.69008 7.29572 L 5.57811 11.5853 C 5.49894 11.8831, 5.45935 12.1471, 5.45935 12.377, 5.45935 12.44, 5.4643 12.507, 5.4742 12.5785, 5.49894 12.8093, 5.61499 12.9244, 5.82281 12.924, 6.03064 12.9244, 6.20967 12.7472, 6.36036 12.3918, 6.51105 12.0369, 6.65815 11.5808, 6.80119 11.0239, 6.83088 10.8998, 6.915 10.8372, 7.0531 10.8368 L 7.22358 10.8368 C 7.27846 10.8372, 7.33289 10.8539, 7.38687 10.8872, 7.40666 10.9308, 7.41656 10.9668, 7.41656 10.9951, 7.41656 11.0149, 7.40936 11.0387, 7.39407 11.0671 Z" stroke="none" fill="#000000" />
			<rect />
		</svg>
	</g>
	<path d="M -240.368 0 L 240.368 0" fill="none" stroke="#000000" stroke-width="1.5" stroke-linecap="round" stroke-linejoin="round" marker-start="url(#CustomMarker-07)" marker-end="url(#CustomMarker-08)" transform="matrix(0.5 0 -0 0.5 207.583 203.139)" />
	<path d="M -240.368 -12.7672 L -240.368 12.7672" fill="none" stroke="#000000" stroke-width="1" stroke-linecap="round" stroke-linejoin="round" transform="matrix(0.5 0 -0 0.5 207.583 203.139)" />
	<path d="M 240.368 -12.7672 L 240.368 12.7672" fill="none" stroke="#000000" stroke-width="1" stroke-linecap="round" stroke-linejoin="round" transform="matrix(0.5 0 -0 0.5 207.583 203.139)" />
	<g transform="matrix(1 0 -0 1 203.888 204.717)">
		<svg width="27.073843" height="48.0116043">
			<defs />
			<path d="M 7.34796 3.97058 C 7.29353 4.182, 7.18242 4.34439, 7.01419 4.45685, 6.8464 4.56976, 6.68086 4.62599, 6.51757 4.62554, 6.33989 4.62599, 6.1964 4.56346, 6.08754 4.43841, 6.00387 4.35744, 5.95934 4.25398, 5.95394 4.12892, 5.95394 4.07674, 5.96384 4.00927, 5.98363 3.9274, 6.03851 3.74567, 6.13117 3.60172, 6.26207 3.49601, 6.39297 3.39075, 6.49059 3.33273, 6.55446 3.32283, 6.4609 3.21757, 6.27557 3.16494, 5.99847 3.16449, 5.83563 3.16494, 5.67999 3.30664, 5.53155 3.58913, 5.50186 3.63276, 5.46857 3.72993, 5.43169 3.88107, 5.3948 4.03221, 5.35252 4.21709, 5.30574 4.43526, 5.25895 4.65388, 5.21037 4.88509, 5.16089 5.12979, 5.11141 5.3745, 5.06688 5.60976, 5.02729 5.83468 L 4.84196 6.74873, 6.19865 6.74873 C 6.3273 6.74918, 6.39162 6.81395, 6.39162 6.94306 L 6.39162 6.99344, 6.36193 7.12299 C 6.3075 7.26738, 6.21124 7.33935, 6.07269 7.33891 L 4.72366 7.33891, 4.01203 10.9231 C 3.94275 11.2596, 3.86898 11.6181, 3.78981 11.9996, 3.71064 12.381, 3.62427 12.7602, 3.53026 13.1368, 3.43625 13.5133, 3.32874 13.8695, 3.20773 14.2051, 3.08673 14.5411, 2.95673 14.834, 2.81818 15.0832, 2.73451 15.2226, 2.63915 15.363, 2.53299 15.5042, 2.42683 15.6459, 2.30987 15.7719, 2.18122 15.8821, 2.05257 15.9927, 1.91312 16.0849, 1.76198 16.1592, 1.61129 16.2338, 1.44935 16.2707, 1.27662 16.2707, 1.08409 16.2707, 0.903708 16.2397, 0.735472 16.1771, 0.567686 16.1151, 0.423291 16.0287, 0.301837 15.918, 0.181283 15.8078, 0.0908669 15.6733, 0.0310397 15.515, 0.0116971 15.4286, 0.00180078 15.3423, 0.001351 15.2559, 0.00180078 15.1745, 0.0116971 15.0859, 0.0310397 14.9896, 0.0859189 14.7737, 0.199726 14.6117, 0.37246 14.5038, 0.545644 14.3958, 0.716129 14.3418, 0.883466 14.3418, 1.0571 14.3418, 1.20015 14.3994, 1.3135 14.5146, 1.39762 14.5964, 1.43945 14.6995, 1.43945 14.8241, 1.43945 14.8771, 1.42956 14.9442, 1.40977 15.0256, 1.35579 15.2082, 1.26177 15.3544, 1.12862 15.4646, 0.995473 15.5753, 0.896511 15.6351, 0.831735 15.6445, 0.916303 15.7408, 1.08904 15.7885, 1.35039 15.7885, 1.47904 15.7885, 1.59914 15.7165, 1.71025 15.5726, 1.82136 15.4286, 1.91133 15.2321, 1.9806 14.9824, 2.15378 14.3972, 2.31077 13.7485, 2.45157 13.036, 2.59237 12.3235, 2.73181 11.6289, 2.87036 10.9519 L 3.60403 7.33891, 2.49205 7.33891 C 2.41828 7.33935, 2.36385 7.31551, 2.32922 7.26693, 2.29953 7.23859, 2.28468 7.20261, 2.28468 7.15897, 2.28468 7.13063, 2.29233 7.10409, 2.30673 7.0798 L 2.32922 6.97184 C 2.34406 6.90977, 2.37735 6.85714, 2.42908 6.81395, 2.48126 6.77077, 2.53659 6.74918, 2.59597 6.74873 L 3.72279 6.74873, 3.89327 5.84907 C 3.92296 5.66239, 3.96255 5.45637, 4.01203 5.23056, 4.06151 5.00519, 4.12044 4.78073, 4.18971 4.55761, 4.25898 4.3345, 4.33725 4.11993, 4.42362 3.91346, 4.50999 3.70743, 4.61525 3.532, 4.7385 3.38761, 4.91663 3.18158, 5.12176 3.0129, 5.35387 2.88065, 5.58598 2.74885, 5.83069 2.68272, 6.08754 2.68227, 6.28052 2.68272, 6.4645 2.71151, 6.63993 2.76909, 6.81536 2.82667, 6.96381 2.91079, 7.08481 3.021, 7.20581 3.13165, 7.29083 3.26345, 7.34031 3.4164, 7.37495 3.49377, 7.39204 3.58238, 7.39204 3.68269, 7.39204 3.76456, 7.37765 3.86083, 7.34796 3.97058 Z" stroke="none" fill="#000000" />
			<rect />
		</svg>
	</g>
	<path d="M 121.29 4.57312e-005 L 120.697 11.9791 C 120.045 18.5495, 118.857 25.0558, 117.146 31.4329 L 113.467 42.8529" fill="none" stroke="#000000" stroke-width="1.5" stroke-linecap="round" stroke-linejoin="round" marker-start="url(#CustomMarker-09)" marker-end="url(#CustomMarker-10)" transform="matrix(0.5 0 -0 0.5 87.3992 129.594)" />
	<g transform="matrix(1 0 -0 1 154.552 134.528)">
		<svg width="44.9446106" height="44.9458008">
			<defs />
			<path d="M 6.26725 4.32325 C 6.386 4.77938, 6.44493 5.24495, 6.44493 5.71952, 6.44493 5.86886, 6.43998 6.01281, 6.43008 6.15136, 6.38105 6.78517, 6.27489 7.42077, 6.1116 8.05863, 5.93392 8.70189, 5.70901 9.3393, 5.43731 9.96996, 5.16561 10.6011, 4.8044 11.2065, 4.35457 11.7868, 4.20163 11.9838, 4.03204 12.1786, 3.84671 12.3702, 3.66139 12.5623, 3.46256 12.7337, 3.25024 12.8848, 3.03792 13.036, 2.81661 13.1597, 2.58674 13.2551, 2.35688 13.3513, 2.11577 13.399, 1.86387 13.399, 1.60702 13.399, 1.3857 13.35, 1.20037 13.2515, 1.01504 13.1534, 0.855802 13.0265, 0.722203 12.8705, 0.589053 12.7148, 0.478845 12.5407, 0.392478 12.3487, 0.306111 12.157, 0.235488 11.96, 0.181058 11.758, 0.0578051 11.3122, -0.00427139 10.8516, -0.00427139 10.3762, -0.00427139 10.2232, 0.00562489 10.0721, 0.0254173 9.92272, 0.0650023 9.29926, 0.171162 8.6686, 0.343896 8.02984, 0.507184 7.38749, 0.727151 6.75188, 1.0038 6.12302, 1.28089 5.49461, 1.64885 4.88734, 2.10858 4.30166, 2.26197 4.10553, 2.4302 3.90986, 2.61283 3.71553, 2.79546 3.52121, 2.99069 3.34847, 3.19806 3.19733, 3.40588 3.04619, 3.6245 2.92293, 3.85436 2.82667, 4.08422 2.73086, 4.32758 2.68272, 4.58443 2.68227, 4.84174 2.68272, 5.0617 2.73221, 5.24433 2.83027, 5.42696 2.92878, 5.5889 3.05473, 5.7297 3.20812, 5.87095 3.36197, 5.98205 3.53695, 6.06347 3.73353, 6.14534 3.93055, 6.21327 4.12713, 6.26725 4.32325 Z M 5.26638 4.48879 C 5.24658 4.30211, 5.22184 4.12713, 5.19215 3.96384, 5.16247 3.801, 5.11928 3.6593, 5.0626 3.5392, 5.00592 3.41954, 4.93305 3.32688, 4.84399 3.2621, 4.75492 3.19733, 4.64156 3.16494, 4.50302 3.16449, 4.21647 3.16494, 3.95198 3.29809, 3.70997 3.56439, 3.46796 3.83069, 3.23315 4.14872, 3.00553 4.51758, 2.67941 5.04568, 2.4275 5.58817, 2.24937 6.14461, 2.07124 6.7015, 1.9183 7.23859, 1.78965 7.75635 L 4.80665 7.75635 C 4.94025 7.21475, 5.06395 6.66281, 5.17731 6.10098, 5.25648 5.72222, 5.29606 5.34796, 5.29606 4.9782, 5.29606 4.81536, 5.28617 4.65253, 5.26638 4.48879 Z M 1.63401 8.33932 C 1.50086 8.88182, 1.38435 9.42881, 1.28539 9.9803, 1.20667 10.3788, 1.16708 10.7774, 1.16708 11.175, 1.16708 11.3244, 1.17203 11.4683, 1.18193 11.6069, 1.19182 11.7945, 1.21432 11.9699, 1.2485 12.1327, 1.28314 12.296, 1.32902 12.4364, 1.3857 12.5538, 1.44238 12.6716, 1.51795 12.7625, 1.61196 12.8273, 1.70598 12.892, 1.81979 12.9244, 1.95293 12.924, 2.23453 12.9244, 2.49768 12.7926, 2.74238 12.5286, 2.98709 12.265, 3.21785 11.9479, 3.43557 11.5781, 3.7617 11.041, 4.0136 10.4967, 4.19173 9.94477, 4.36987 9.39327, 4.52281 8.85798, 4.65101 8.33932 Z" stroke="none" fill="#000000" />
			<path d="M 3.03091 1.70594 C 3.00043 1.8271, 2.95483 1.946, 2.89387 2.06289, 2.83291 2.17977, 2.75835 2.28532, 2.66968 2.37928, 2.58126 2.47349, 2.48226 2.55032, 2.37294 2.61078, 2.26361 2.67123, 2.14547 2.70146, 2.018 2.70146, 1.61697 2.70146, 1.31519 2.59541, 1.11316 2.38306, 0.975118 2.23821, 0.905845 2.05558, 0.905845 1.83491, 0.905845 1.72231, 0.923982 1.60014, 0.959752 1.46814 L 1.14641 0.746685 C 1.16858 0.655496, 1.17966 0.569597, 1.17966 0.488735, 1.17966 0.448682, 1.17689 0.407118, 1.17135 0.363791, 1.15473 0.251189, 1.11618 0.151939, 1.05522 0.0657878, 0.994263 -0.0201116, 0.916173 -0.0878739, 0.820701 -0.137751, 0.725229 -0.187376, 0.612376 -0.212315, 0.482394 -0.212566 L -0.455698 -0.212566, -1.00762 1.93567 C -1.0187 1.98706, -1.02425 2.02863, -1.02425 2.06062, -1.02425 2.10117, -1.01593 2.12813, -0.999308 2.14123, -0.963285 2.16289, -0.88847 2.17574, -0.775113 2.17977, -0.661756 2.1838, -0.540086 2.18581, -0.410103 2.18556, -0.332517 2.18581, -0.293724 2.21806, -0.293724 2.28229, -0.293724 2.29867, -0.296494 2.31605, -0.302037 2.33469 L -0.318662 2.39918 C -0.348891 2.47979, -0.40305 2.52009, -0.480637 2.52009, -0.820707 2.50397, -1.1638 2.49591, -1.50992 2.49591, -1.85553 2.49591, -2.20291 2.50397, -2.55154 2.52009, -2.62611 2.52009, -2.66616 2.48533, -2.67195 2.4153 L -2.67195 2.38306, -2.65533 2.31454 C -2.63316 2.22612, -2.57925 2.18304, -2.4936 2.18556, -2.36337 2.18581, -2.24019 2.1838, -2.12406 2.17977, -2.00768 2.17574, -1.92203 2.16163, -1.86687 2.1372, -1.81422 2.10798, -1.77417 2.03543, -1.74646 1.91955 L -0.580139 -2.62279 C -0.563513 -2.68173, -0.5552 -2.72733, -0.5552 -2.75982, -0.5552 -2.79181, -0.562002 -2.81071, -0.576108 -2.81625, -0.61465 -2.84018, -0.689969 -2.85479, -0.802066 -2.86033, -0.914164 -2.86562, -1.03659 -2.86839, -1.16959 -2.86865, -1.24693 -2.86839, -1.28572 -2.90467, -1.28572 -2.97747 L -1.28572 -3.00971, -1.26078 -3.07823 C -1.24416 -3.15859, -1.19302 -3.19889, -1.10737 -3.19914 L 1.22954 -3.19914 C 1.49253 -3.19889, 1.74292 -3.16388, 1.98072 -3.0941, 2.21877 -3.02407, 2.42634 -2.9087, 2.60318 -2.74773, 2.75004 -2.6185, 2.85659 -2.46006, 2.92284 -2.27214, 2.96441 -2.16986, 2.98657 -2.06356, 2.98935 -1.95373, 2.98935 -1.85397, 2.97423 -1.75598, 2.94375 -1.6595, 2.8911 -1.44438, 2.78178 -1.2494, 2.61577 -1.07483, 2.44977 -0.900013, 2.2631 -0.751138, 2.05554 -0.627705, 1.9117 -0.544073, 1.76585 -0.474799, 1.61773 -0.419884, 1.46961 -0.364717, 1.36381 -0.330458, 1.30007 -0.317359, 1.45777 -0.25539, 1.60715 -0.134476, 1.74821 0.0453835, 1.86736 0.201564, 1.92681 0.388225, 1.92681 0.605619, 1.92681 0.651465, 1.92404 0.697312, 1.9185 0.742655 L 1.83965 1.46814 C 1.81749 1.65656, 1.8064 1.8203, 1.8064 1.95986, 1.8064 2.05155, 1.81194 2.13216, 1.82303 2.20168, 1.84242 2.36038, 1.9253 2.43973, 2.07191 2.43948, 2.20492 2.43973, 2.32658 2.36794, 2.43717 2.2241, 2.54801 2.08052, 2.62963 1.90242, 2.68202 1.68981, 2.71275 1.60946, 2.76666 1.57041, 2.844 1.57293 L 2.9105 1.57293 C 2.98531 1.57318, 3.02537 1.6082, 3.03091 1.67772 L 3.03091 1.70594 Z M 2.05554 -1.68369 C 2.09987 -1.84465, 2.12456 -2.00587, 2.1301 -2.16734 L 2.1301 -2.19153 C 2.1301 -2.32831, 2.08728 -2.44645, 2.00138 -2.54621, 1.8991 -2.6641, 1.76585 -2.74748, 1.6011 -2.79585, 1.43636 -2.84421, 1.25574 -2.86839, 1.05925 -2.86865 L 0.507332 -2.86865 C 0.366266 -2.86839, 0.281878 -2.85756, 0.254168 -2.83615, 0.226459 -2.81449, 0.19749 -2.73816, 0.167009 -2.60667 L -0.380883 -0.474547, 0.420173 -0.474547 C 0.616658 -0.474295, 0.810373 -0.498478, 1.00132 -0.546844, 1.19226 -0.595209, 1.37338 -0.681108, 1.54493 -0.805045, 1.69153 -0.909586, 1.80237 -1.04108, 1.87694 -1.19978, 1.95175 -1.35823, 2.0112 -1.51945, 2.05554 -1.68369 Z" stroke="none" fill="#000000" transform="matrix(1.12 0 0 1 9.88896 12.8121)" />
			<rect />
		</svg>
	</g>
	<path d="M -90.779 0 L 90.779 0" fill="none" stroke="#000000" stroke-width="1.5" stroke-linecap="round" stroke-linejoin="round" transform="matrix(3.77489e-008 0.5 -0.5 3.77489e-008 332.974 174.983)" />
	<path d="M -90.779 -7.21503 L -90.779 7.21503" fill="none" stroke="#000000" stroke-width="1" stroke-linecap="round" stroke-linejoin="round" transform="matrix(3.77489e-008 0.5 -0.5 3.77489e-008 332.974 174.983)" />
	<path d="M 90.779 -7.21503 L 90.779 7.21503" fill="none" stroke="#000000" stroke-width="1" stroke-linecap="round" stroke-linejoin="round" transform="matrix(3.77489e-008 0.5 -0.5 3.77489e-008 332.974 174.983)" />
	<g transform="matrix(1 0 -0 1 338.237 162.979)">
		<svg width="71.9722977" height="38.9535408">
			<defs />
			<path d="M 11.3493 12.9528 C 11.3642 12.987, 11.3714 13.018, 11.3714 13.0463, 11.3714 13.085, 11.3615 13.1138, 11.3417 13.1327, 11.312 13.1903, 11.2553 13.2191, 11.1712 13.2191 L 0.199869 13.2191 C 0.120699 13.2191, 0.0640202 13.1903, 0.0293834 13.1327, 0.00959092 13.1138, -0.000305355 13.085, -0.000305355 13.0463, -0.000305355 13.018, 0.00734174 12.987, 0.0217363 12.9528 L 5.27799 2.71106 C 5.34231 2.57252, 5.45612 2.50504, 5.61896 2.50954 L 5.75211 2.50954 C 5.9055 2.50999, 6.01931 2.57477, 6.09308 2.70387 L 11.3493 12.9528 Z M 5.24065 4.12173 L 1.17825 12.0315, 9.29586 12.0315 Z" stroke="none" fill="#000000" />
			<path d="M 19.3419 7.77794 C 19.2879 7.99431, 19.1777 8.15624, 19.0122 8.2642, 18.8466 8.37216, 18.6802 8.42614, 18.512 8.42569, 18.3392 8.42614, 18.1957 8.37081, 18.0819 8.26015, 17.9983 8.17919, 17.9537 8.07348, 17.9483 7.94348, 17.9483 7.8913, 17.9582 7.82382, 17.978 7.74195, 18.0324 7.56022, 18.1166 7.42212, 18.2299 7.32856, 18.3437 7.23499, 18.4229 7.18102, 18.4674 7.16617, 18.3739 7.09465, 18.1809 7.05866, 17.8889 7.05821, 17.6321 7.05866, 17.4022 7.19181, 17.1998 7.45811, 16.9974 7.72441, 16.8462 8.04469, 16.7473 8.4185 L 16.0653 11.0527 C 15.9961 11.3172, 15.9443 11.5691, 15.9097 11.8084, 15.8899 11.8903, 15.88 11.9622, 15.88 12.0243, 15.88 12.1737, 15.9048 12.3149, 15.9542 12.449, 16.0037 12.5934, 16.0779 12.7085, 16.1769 12.7949, 16.2759 12.8812, 16.4018 12.9244, 16.5548 12.924, 16.7527 12.9244, 16.943 12.8732, 17.1256 12.7697, 17.3087 12.6667, 17.4769 12.5277, 17.6298 12.3523, 17.7828 12.1773, 17.9186 11.9735, 18.0374 11.7405, 18.1561 11.5079, 18.2497 11.2691, 18.319 11.0239, 18.3487 10.8998, 18.4328 10.8372, 18.5709 10.8368 L 18.7414 10.8368 C 18.87 10.8372, 18.9344 10.8854, 18.9344 10.9807, 18.9344 11.01, 18.9272 11.0365, 18.9123 11.0599, 18.843 11.3482, 18.7306 11.6325, 18.5749 11.9132, 18.4193 12.1939, 18.238 12.4422, 18.0302 12.6581, 17.8224 12.8741, 17.5867 13.0517, 17.3222 13.1903, 17.0577 13.3297, 16.7747 13.399, 16.4733 13.399, 16.167 13.399, 15.9025 13.3333, 15.6803 13.2011, 15.4581 13.0697, 15.2772 12.8979, 15.1387 12.6865, 15.0946 12.6343, 15.06 12.5803, 15.0352 12.525, 15.0105 12.4701, 15.0028 12.4616, 15.0127 12.4993, 14.8944 12.6964, 14.7069 12.8956, 14.4496 13.0972, 14.1927 13.2987, 13.8963 13.399, 13.5598 13.399, 13.3722 13.399, 13.1869 13.3752, 13.0038 13.327, 12.8212 13.2793, 12.6615 13.2051, 12.5256 13.1044, 12.3898 13.0036, 12.2872 12.8812, 12.218 12.7369, 12.1838 12.6509, 12.1667 12.5574, 12.1662 12.4562, 12.1667 12.3846, 12.1766 12.3005, 12.1959 12.2043, 12.2503 11.9888, 12.3614 11.8268, 12.5297 11.7189, 12.6979 11.6109, 12.8657 11.557, 13.0335 11.5565, 13.2067 11.557, 13.3551 11.6123, 13.4784 11.722, 13.5625 11.8039, 13.6043 11.9096, 13.6043 12.0387, 13.6043 12.1062, 13.5944 12.1737, 13.5746 12.2402, 13.5306 12.4085, 13.45 12.5443, 13.334 12.6473, 13.2179 12.7508, 13.1347 12.807, 13.0852 12.816, 13.1792 12.8934, 13.3695 12.9294, 13.6561 12.924, 13.9134 12.9244, 14.1455 12.7904, 14.3528 12.5214, 14.5607 12.2528, 14.7114 11.9312, 14.8054 11.5565 L 15.4945 8.90791 C 15.5638 8.6587, 15.6182 8.414, 15.6578 8.17379, 15.6677 8.09732, 15.6726 8.02534, 15.6726 7.95787, 15.6726 7.80943, 15.6506 7.67043, 15.6056 7.54043, 15.5566 7.39693, 15.4801 7.28088, 15.3762 7.19181, 15.2723 7.10319, 15.1436 7.05866, 14.9907 7.05821, 14.7928 7.05866, 14.6011 7.11039, 14.4158 7.2134, 14.2305 7.31686, 14.0614 7.45451, 13.9084 7.62725, 13.7555 7.79998, 13.6196 8.0006, 13.5009 8.22822, 13.3821 8.45628, 13.2957 8.69739, 13.2409 8.95109, 13.1869 9.08109, 13.0956 9.14812, 12.9669 9.15262 L 12.8036 9.15262 C 12.6853 9.15307, 12.6259 9.09324, 12.6259 8.97268 L 12.6259 8.9223 C 12.7002 8.62542, 12.814 8.33618, 12.9669 8.05548, 13.1199 7.77479, 13.3029 7.52648, 13.5153 7.31057, 13.728 7.09465, 13.9655 6.91831, 14.2273 6.78157, 14.4891 6.64482, 14.7734 6.57645, 15.0793 6.57599, 15.3762 6.57645, 15.638 6.64122, 15.8652 6.77077, 16.0928 6.90032, 16.2781 7.07306, 16.4212 7.28852, 16.4508 7.3416, 16.4783 7.39828, 16.503 7.45811, 16.5278 7.51839, 16.535 7.53368, 16.5251 7.50444, 16.6488 7.29392, 16.839 7.08655, 17.0959 6.88233, 17.3532 6.67856, 17.6469 6.57645, 17.978 6.57599, 18.166 6.57645, 18.3523 6.59939, 18.5376 6.64482, 18.7229 6.6907, 18.884 6.76357, 19.0198 6.86434, 19.1557 6.9651, 19.256 7.0897, 19.3199 7.23814, 19.3545 7.32496, 19.3716 7.42347, 19.3716 7.53323, 19.3716 7.60565, 19.3617 7.68707, 19.3419 7.77794 Z" stroke="none" fill="#000000" />
			<path d="M 21.0657 7.95067 C 21.0261 8.06133, 20.9595 8.11666, 20.8655 8.11621 L 20.8061 8.11621, 20.7616 8.09462 C 20.668 8.07123, 20.6158 8.00645, 20.6059 7.90029 L 20.6059 7.84991, 21.3549 3.20767 C 21.3896 2.98726, 21.4944 2.82082, 21.6698 2.70791, 21.8452 2.59546, 22.022 2.53878, 22.1997 2.53833, 22.3922 2.53878, 22.5479 2.59861, 22.6666 2.71826, 22.7408 2.79068, 22.7777 2.8865, 22.7777 3.00615, 22.7777 3.09297, 22.7557 3.19373, 22.7111 3.30844 Z" stroke="none" fill="#000000" />
			<rect />
		</svg>
	</g>
</svg>
