<?xml version="1.0"?>
<svg xmlns="http://www.w3.org/2000/svg" xmlns:xlink="http://www.w3.org/1999/xlink" width="272.87558" height="173.046112">
	<defs />
	<rect x="-0" y="-0" width="272.87558" height="173.046112" stroke="none" fill="#FFFFFF" />
	<ellipse cx="709.60946083068848" cy="522.85518836975098" rx="9.9750003814697266" ry="9.9750003814697266" stroke="none" fill="#000000" transform="matrix(0.263158 0 0 0.263158 -160.667 -54.5296)" />
	<ellipse cx="860.00600624084473" cy="740.44625282287598" rx="9.9750003814697266" ry="9.9750003814697266" stroke="none" fill="#000000" transform="matrix(0.263158 0 0 0.263158 -160.667 -54.5296)" />
	<ellipse cx="1541.7029056549072" cy="273.0801944732666" rx="9.9750003814697266" ry="9.9750003814697266" stroke="none" fill="#000000" transform="matrix(0.263158 0 0 0.263158 -160.667 -54.5296)" />
	<path d="M 0 0 L 832.093 -249.775" fill="none" stroke="#000000" stroke-width="3.79999995" stroke-linecap="round" stroke-linejoin="round" transform="matrix(0.263158 0 0 0.263158 26.0718 83.0639)" />
	<path d="M 0 0 L 681.697 -467.366" fill="none" stroke="#000000" stroke-width="3.79999995" stroke-linecap="round" stroke-linejoin="round" transform="matrix(0.263158 0 0 0.263158 65.6499 140.325)" />
	<g transform="matrix(1 0 -0 1 8.25001 69.9778)">
		<svg width="41.9907646" height="44.9458008">
			<defs />
			<path d="M 7.76608 6.28091 C 7.73639 6.41586, 7.66262 6.48288, 7.54386 6.48243, 7.53396 6.49233, 7.50922 6.49727, 7.46964 6.49683, 7.4449 6.49727, 7.42511 6.49233, 7.41026 6.48243 L 7.34369 6.48243 C 7.21504 6.48288, 7.15071 6.43475, 7.15071 6.33849 L 7.15071 6.2881 C 7.21009 5.93364, 7.23978 5.60481, 7.23978 5.30208 L 7.23978 5.02858 C 7.21009 4.65972, 7.12732 4.34169, 6.99147 4.07539, 6.85562 3.8091, 6.6568 3.60307, 6.395 3.45643, 6.1332 3.31024, 5.80167 3.23691, 5.40133 3.23646, 5.16921 3.23691, 4.93305 3.28729, 4.69329 3.38806, 4.45399 3.48882, 4.23042 3.62557, 4.0226 3.79785, 3.79544 3.98543, 3.61011 4.19775, 3.46661 4.43526, 3.32357 4.67277, 3.21965 4.91613, 3.15488 5.16533, 3.10585 5.34346, 3.07886 5.5135, 3.07346 5.67634, 3.07346 5.90215, 3.12294 6.11807, 3.2219 6.32409, 3.3654 6.67001, 3.62225 6.89088, 3.99291 6.98624 L 5.69776 7.46126 C 6.00904 7.55302, 6.27489 7.69832, 6.49486 7.89714, 6.71483 8.09642, 6.88036 8.33168, 6.99147 8.60248, 7.10303 8.87372, 7.16825 9.16971, 7.18805 9.49089 L 7.18805 9.62044 C 7.18805 9.89933, 7.14846 10.1845, 7.06929 10.4769, 6.96583 10.8804, 6.80029 11.2691, 6.57268 11.6433, 6.34552 12.0176, 6.06392 12.3536, 5.72745 12.6505, 5.40627 12.9244, 5.05451 13.1439, 4.67125 13.309, 4.288 13.4746, 3.90384 13.5573, 3.51834 13.5573, 2.95021 13.5573, 2.46574 13.4665, 2.06539 13.2838, 1.66505 13.1021, 1.36861 12.8718, 1.17563 12.5929 L 0.44196 13.4638 C 0.378085 13.5263, 0.31106 13.5573, 0.241786 13.5573 L 0.197253 13.5573 C 0.0740002 13.5573, 0.00697565 13.5097, -0.00292063 13.4134, -0.00292063 13.3846, 0.00472647 13.3585, 0.019121 13.3342 L 0.879194 9.96591 C 0.908883 9.83186, 0.9957 9.76258, 1.13875 9.75719 L 1.30158 9.75719 C 1.36096 9.75764, 1.41539 9.78148, 1.46487 9.82916, 1.48466 9.86784, 1.49456 9.90158, 1.49456 9.92992, 1.49456 9.94971, 1.48961 9.97355, 1.47972 10.0019, 1.39065 10.3478, 1.34612 10.6694, 1.34612 10.9663, 1.34612 11.4418, 1.46262 11.8448, 1.69473 12.1755, 2.06539 12.7085, 2.71315 12.9748, 3.6371 12.9744, 3.86921 12.9748, 4.10537 12.9208, 4.34513 12.8129, 4.58489 12.7049, 4.80845 12.5596, 5.01582 12.377, 5.24344 12.1665, 5.43461 11.9326, 5.59025 11.6757, 5.74589 11.4193, 5.86105 11.1539, 5.93482 10.88, 5.9843 10.6595, 6.00904 10.4535, 6.00904 10.261, 6.00904 10.0217, 5.97711 9.79137, 5.91278 9.57006, 5.76479 9.2012, 5.49039 8.96369, 5.09004 8.85753 L 3.40723 8.38251 C 3.10585 8.30154, 2.8463 8.16839, 2.62858 7.98351, 2.41131 7.79908, 2.24218 7.57956, 2.12117 7.32496, 2.00017 7.07081, 1.92955 6.79011, 1.90975 6.48243 L 1.90975 6.32409 C 1.90975 6.08478, 1.93944 5.83288, 1.99882 5.56838, 2.10273 5.18512, 2.26827 4.81806, 2.49543 4.46765, 2.72304 4.11768, 3.00464 3.80775, 3.34021 3.53875, 3.65689 3.2801, 4.00416 3.07273, 4.38201 2.91664, 4.76032 2.76099, 5.13458 2.68272, 5.50524 2.68227, 6.01444 2.68272, 6.43413 2.77764, 6.76521 2.96702, 7.09628 3.15684, 7.33604 3.38086, 7.48448 3.63951 L 8.19611 2.78304 C 8.2357 2.71646, 8.30002 2.68272, 8.38864 2.68227 L 8.45566 2.68227 C 8.57442 2.68272, 8.63335 2.7403, 8.63335 2.85501 L 8.63335 2.91259 Z" stroke="none" fill="#000000" />
			<path d="M 1.86424 2.51203 C 1.35514 2.49591, 0.859898 2.48785, 0.378257 2.48785, -0.103133 2.48785, -0.598376 2.49591, -1.10748 2.51203 L -1.10748 2.16541, -0.82106 2.16541 C -0.72987 2.16566, -0.643971 2.1644, -0.563866 2.16163, -0.483508 2.15911, -0.407433 2.15231, -0.335388 2.14148, -0.263344 2.1309, -0.201123 2.12007, -0.148727 2.10898, -0.104392 2.10117, -0.067866 2.07649, -0.0388969 2.03467, -0.0096761 1.99311, 0.00468242 1.94676, 0.00468242 1.89537 L 0.00468242 -2.64697 C -0.133361 -2.57946, -0.303648 -2.52832, -0.505676 -2.49356, -0.707703 -2.45855, -0.928875 -2.44116, -1.1697 -2.44142 L -1.1697 -2.78401 C -0.837685 -2.78375, -0.531118 -2.8233, -0.250245 -2.90265, 0.0306287 -2.98175, 0.273464 -3.13037, 0.478011 -3.34827 L 0.606734 -3.34827 C 0.697923 -3.34802, 0.743518 -3.30368, 0.743518 -3.21527 L 0.743518 1.89537 C 0.743518 1.94928, 0.757372 1.99638, 0.785082 2.03669, 0.812791 2.07699, 0.853096 2.10117, 0.905492 2.10898, 0.949827 2.12007, 1.00676 2.1309, 1.07578 2.14148, 1.1448 2.15231, 1.22289 2.15911, 1.31005 2.16163, 1.39721 2.1644, 1.48235 2.16566, 1.56548 2.16541 L 1.86424 2.16541, 1.86424 2.51203 Z" stroke="none" fill="#000000" transform="matrix(1.12 0 0 1 10.5715 12.8121)" />
			<rect />
		</svg>
	</g>
	<g transform="matrix(1 0 -0 1 67.9082 147.093)">
		<svg width="44.9446106" height="44.9458008">
			<defs />
			<path d="M 7.76608 6.28091 C 7.73639 6.41586, 7.66262 6.48288, 7.54386 6.48243, 7.53396 6.49233, 7.50922 6.49727, 7.46964 6.49683, 7.4449 6.49727, 7.42511 6.49233, 7.41026 6.48243 L 7.34369 6.48243 C 7.21504 6.48288, 7.15071 6.43475, 7.15071 6.33849 L 7.15071 6.2881 C 7.21009 5.93364, 7.23978 5.60481, 7.23978 5.30208 L 7.23978 5.02858 C 7.21009 4.65972, 7.12732 4.34169, 6.99147 4.07539, 6.85562 3.8091, 6.6568 3.60307, 6.395 3.45643, 6.1332 3.31024, 5.80167 3.23691, 5.40133 3.23646, 5.16921 3.23691, 4.93305 3.28729, 4.69329 3.38806, 4.45399 3.48882, 4.23042 3.62557, 4.0226 3.79785, 3.79544 3.98543, 3.61011 4.19775, 3.46661 4.43526, 3.32357 4.67277, 3.21965 4.91613, 3.15488 5.16533, 3.10585 5.34346, 3.07886 5.5135, 3.07346 5.67634, 3.07346 5.90215, 3.12294 6.11807, 3.2219 6.32409, 3.3654 6.67001, 3.62225 6.89088, 3.99291 6.98624 L 5.69776 7.46126 C 6.00904 7.55302, 6.27489 7.69832, 6.49486 7.89714, 6.71483 8.09642, 6.88036 8.33168, 6.99147 8.60248, 7.10303 8.87372, 7.16825 9.16971, 7.18805 9.49089 L 7.18805 9.62044 C 7.18805 9.89933, 7.14846 10.1845, 7.06929 10.4769, 6.96583 10.8804, 6.80029 11.2691, 6.57268 11.6433, 6.34552 12.0176, 6.06392 12.3536, 5.72745 12.6505, 5.40627 12.9244, 5.05451 13.1439, 4.67125 13.309, 4.288 13.4746, 3.90384 13.5573, 3.51834 13.5573, 2.95021 13.5573, 2.46574 13.4665, 2.06539 13.2838, 1.66505 13.1021, 1.36861 12.8718, 1.17563 12.5929 L 0.44196 13.4638 C 0.378085 13.5263, 0.31106 13.5573, 0.241786 13.5573 L 0.197253 13.5573 C 0.0740002 13.5573, 0.00697565 13.5097, -0.00292063 13.4134, -0.00292063 13.3846, 0.00472647 13.3585, 0.019121 13.3342 L 0.879194 9.96591 C 0.908883 9.83186, 0.9957 9.76258, 1.13875 9.75719 L 1.30158 9.75719 C 1.36096 9.75764, 1.41539 9.78148, 1.46487 9.82916, 1.48466 9.86784, 1.49456 9.90158, 1.49456 9.92992, 1.49456 9.94971, 1.48961 9.97355, 1.47972 10.0019, 1.39065 10.3478, 1.34612 10.6694, 1.34612 10.9663, 1.34612 11.4418, 1.46262 11.8448, 1.69473 12.1755, 2.06539 12.7085, 2.71315 12.9748, 3.6371 12.9744, 3.86921 12.9748, 4.10537 12.9208, 4.34513 12.8129, 4.58489 12.7049, 4.80845 12.5596, 5.01582 12.377, 5.24344 12.1665, 5.43461 11.9326, 5.59025 11.6757, 5.74589 11.4193, 5.86105 11.1539, 5.93482 10.88, 5.9843 10.6595, 6.00904 10.4535, 6.00904 10.261, 6.00904 10.0217, 5.97711 9.79137, 5.91278 9.57006, 5.76479 9.2012, 5.49039 8.96369, 5.09004 8.85753 L 3.40723 8.38251 C 3.10585 8.30154, 2.8463 8.16839, 2.62858 7.98351, 2.41131 7.79908, 2.24218 7.57956, 2.12117 7.32496, 2.00017 7.07081, 1.92955 6.79011, 1.90975 6.48243 L 1.90975 6.32409 C 1.90975 6.08478, 1.93944 5.83288, 1.99882 5.56838, 2.10273 5.18512, 2.26827 4.81806, 2.49543 4.46765, 2.72304 4.11768, 3.00464 3.80775, 3.34021 3.53875, 3.65689 3.2801, 4.00416 3.07273, 4.38201 2.91664, 4.76032 2.76099, 5.13458 2.68272, 5.50524 2.68227, 6.01444 2.68272, 6.43413 2.77764, 6.76521 2.96702, 7.09628 3.15684, 7.33604 3.38086, 7.48448 3.63951 L 8.19611 2.78304 C 8.2357 2.71646, 8.30002 2.68272, 8.38864 2.68227 L 8.45566 2.68227 C 8.57442 2.68272, 8.63335 2.7403, 8.63335 2.85501 L 8.63335 2.91259 Z" stroke="none" fill="#000000" />
			<path d="M 1.87894 2.51203 L -1.4996 2.51203, -1.4996 2.29035 C -1.4996 2.27448, -1.49129 2.2503, -1.47466 2.21781 L -0.1174 0.742655 C 0.0433152 0.565566, 0.205793 0.384195, 0.370539 0.198793, 0.535284 0.0133917, 0.682396 -0.17604, 0.812379 -0.369503, 0.942362 -0.562965, 1.04615 -0.762474, 1.12373 -0.968027, 1.20132 -1.17358, 1.23986 -1.38921, 1.23986 -1.61517, 1.23986 -1.80561, 1.21517 -1.98371, 1.1653 -2.14895, 1.11542 -2.3142, 1.04363 -2.4593, 0.949415 -2.58425, 0.855203 -2.70919, 0.737563 -2.80995, 0.596497 -2.88653, 0.455431 -2.96311, 0.292197 -3.0014, 0.106795 -3.00165, -0.169796 -3.0014, -0.414143 -2.91877, -0.625743 -2.75353, -0.837342 -2.58828, -0.977905 -2.40615, -1.04718 -2.20765, -1.06078 -2.20211, -1.03861 -2.19934, -0.980676 -2.19959 L -0.910143 -2.19959 C -0.827014 -2.18044, -0.755221 -2.15147, -0.694261 -2.11268, -0.6333 -2.07364, -0.582163 -2.01998, -0.540599 -1.95146, -0.499035 -1.88294, -0.478379 -1.80032, -0.478379 -1.70384, -0.478379 -1.54237, -0.530775 -1.41868, -0.636071 -1.33278, -0.741367 -1.24663, -0.859006 -1.20381, -0.988989 -1.20406, -1.11343 -1.20381, -1.22956 -1.24663, -1.33762 -1.33278, -1.44544 -1.41868, -1.4996 -1.54237, -1.4996 -1.70384, -1.4996 -1.92929, -1.45526 -2.14291, -1.36659 -2.34443, -1.27792 -2.54596, -1.15776 -2.72053, -1.00561 -2.86839, -0.853464 -3.01601, -0.673604 -3.13289, -0.466035 -3.21904, -0.258466 -3.30494, -0.0383018 -3.34802, 0.193954 -3.34827, 0.481629 -3.34802, 0.745372 -3.3057, 0.984681 -3.22106, 1.22399 -3.13642, 1.42803 -3.01475, 1.59681 -2.8563, 1.76558 -2.6976, 1.89783 -2.51422, 1.99331 -2.30614, 2.08878 -2.09782, 2.13639 -1.86758, 2.13639 -1.61517, 2.13639 -1.33556, 2.07291 -1.07811, 1.94544 -0.843083, 1.81823 -0.607804, 1.66054 -0.392174, 1.47237 -0.196193, 1.2842 4.07696e-005, 1.08418 0.184687, 0.872584 0.357997, 0.660985 0.531307, 0.469285 0.699831, 0.297738 0.863569 L -0.656979 1.76236, 0.592466 1.76236 C 0.766784 1.76262, 0.929514 1.76136, 1.08015 1.75858, 1.23104 1.75607, 1.35901 1.75052, 1.46406 1.74246, 1.56935 1.7344, 1.62326 1.72911, 1.62578 1.72609, 1.64795 1.70745, 1.66885 1.66991, 1.68825 1.61349, 1.70765 1.55706, 1.72553 1.49056, 1.74216 1.41398, 1.75878 1.3374, 1.77541 1.25956, 1.79203 1.18021, 1.80866 1.10111, 1.82377 1.01421, 1.83763 0.919995 L 2.1447 0.919995 Z" stroke="none" fill="#000000" transform="matrix(1.12 0 0 1 10.9038 12.8121)" />
			<rect />
		</svg>
	</g>
	<g transform="matrix(1 0 -0 1 130.848 28.76)">
		<svg width="32.9815331" height="32.9612846">
			<defs />
			<path d="M 6.27669 7.78514 C 6.22271 7.99656, 6.1125 8.15624, 5.94697 8.2642, 5.78143 8.37216, 5.61454 8.42614, 5.44631 8.42569, 5.27357 8.42614, 5.13008 8.37081, 5.01627 8.26015, 4.92271 8.18368, 4.87547 8.07842, 4.87547 7.94348, 4.87547 7.8769, 4.88537 7.80943, 4.90516 7.74195, 4.9497 7.57462, 5.02752 7.44282, 5.13862 7.34655, 5.25018 7.25074, 5.3253 7.19766, 5.36489 7.18776, 5.25153 7.10185, 5.01672 7.05866, 4.66046 7.05821, 4.2853 7.05866, 3.95063 7.21115, 3.65644 7.51569, 3.36225 7.82067, 3.09685 8.23182, 2.85934 8.74957 L 1.78425 12.8664 C 1.74017 13.0445, 1.64975 13.1772, 1.5139 13.2659, 1.37805 13.3549, 1.24086 13.399, 1.10231 13.399, 0.954314 13.399, 0.840507 13.3513, 0.761337 13.2551, 0.697462 13.193, 0.665074 13.1066, 0.665074 12.996, 0.665074 12.9532, 0.670022 12.9006, 0.679918 12.8376 L 1.82113 8.38251 C 1.9003 8.07123, 1.93989 7.80223, 1.93989 7.57642 L 1.93989 7.40368 C 1.9156 7.17382, 1.79954 7.05866, 1.59172 7.05821, 1.374 7.05866, 1.19227 7.2341, 1.04653 7.58406, 0.900785 7.93448, 0.759088 8.39016, 0.620541 8.95109, 0.566112 9.08109, 0.474796 9.14812, 0.346145 9.15262 L 0.17566 9.15262 C 0.0569052 9.15307, -0.00247222 9.09324, -0.00247222 8.97268 L -0.00247222 8.9223 C 0.0569052 8.69739, 0.12393 8.45133, 0.198152 8.18503, 0.272373 7.91874, 0.371336 7.66683, 0.494589 7.42932, 0.618292 7.19181, 0.773933 6.99029, 0.961511 6.82475, 1.14954 6.65921, 1.3839 6.57645, 1.66549 6.57599, 2.04155 6.57645, 2.34429 6.6835, 2.5737 6.89672, 2.80356 7.11039, 2.93311 7.32001, 2.9628 7.52603, 3.13599 7.29617, 3.37709 7.08025, 3.68568 6.87873, 3.99471 6.67721, 4.34917 6.57645, 4.74952 6.57599, 4.94745 6.57645, 5.14852 6.59714, 5.35364 6.63762, 5.55876 6.67856, 5.73915 6.74558, 5.89479 6.83915, 6.05043 6.93271, 6.16558 7.05641, 6.23981 7.20935, 6.28434 7.30562, 6.30908 7.41358, 6.31358 7.53323, 6.31358 7.60565, 6.30143 7.68977, 6.27669 7.78514 Z" stroke="none" fill="#000000" />
			<path d="M 1.86424 2.51203 C 1.35514 2.49591, 0.859898 2.48785, 0.378257 2.48785, -0.103133 2.48785, -0.598376 2.49591, -1.10748 2.51203 L -1.10748 2.16541, -0.82106 2.16541 C -0.72987 2.16566, -0.643971 2.1644, -0.563866 2.16163, -0.483508 2.15911, -0.407433 2.15231, -0.335388 2.14148, -0.263344 2.1309, -0.201123 2.12007, -0.148727 2.10898, -0.104392 2.10117, -0.067866 2.07649, -0.0388969 2.03467, -0.0096761 1.99311, 0.00468242 1.94676, 0.00468242 1.89537 L 0.00468242 -2.64697 C -0.133361 -2.57946, -0.303648 -2.52832, -0.505676 -2.49356, -0.707703 -2.45855, -0.928875 -2.44116, -1.1697 -2.44142 L -1.1697 -2.78401 C -0.837685 -2.78375, -0.531118 -2.8233, -0.250245 -2.90265, 0.0306287 -2.98175, 0.273464 -3.13037, 0.478011 -3.34827 L 0.606734 -3.34827 C 0.697923 -3.34802, 0.743518 -3.30368, 0.743518 -3.21527 L 0.743518 1.89537 C 0.743518 1.94928, 0.757372 1.99638, 0.785082 2.03669, 0.812791 2.07699, 0.853096 2.10117, 0.905492 2.10898, 0.949827 2.12007, 1.00676 2.1309, 1.07578 2.14148, 1.1448 2.15231, 1.22289 2.15911, 1.31005 2.16163, 1.39721 2.1644, 1.48235 2.16566, 1.56548 2.16541 L 1.86424 2.16541, 1.86424 2.51203 Z" stroke="none" fill="#000000" transform="matrix(1.12 0 0 1 7.51428 12.8121)" />
			<rect />
		</svg>
	</g>
	<g transform="matrix(1 0 -0 1 158.881 80.4267)">
		<svg width="35.935379" height="32.9612846">
			<defs />
			<path d="M 6.27669 7.78514 C 6.22271 7.99656, 6.1125 8.15624, 5.94697 8.2642, 5.78143 8.37216, 5.61454 8.42614, 5.44631 8.42569, 5.27357 8.42614, 5.13008 8.37081, 5.01627 8.26015, 4.92271 8.18368, 4.87547 8.07842, 4.87547 7.94348, 4.87547 7.8769, 4.88537 7.80943, 4.90516 7.74195, 4.9497 7.57462, 5.02752 7.44282, 5.13862 7.34655, 5.25018 7.25074, 5.3253 7.19766, 5.36489 7.18776, 5.25153 7.10185, 5.01672 7.05866, 4.66046 7.05821, 4.2853 7.05866, 3.95063 7.21115, 3.65644 7.51569, 3.36225 7.82067, 3.09685 8.23182, 2.85934 8.74957 L 1.78425 12.8664 C 1.74017 13.0445, 1.64975 13.1772, 1.5139 13.2659, 1.37805 13.3549, 1.24086 13.399, 1.10231 13.399, 0.954314 13.399, 0.840507 13.3513, 0.761337 13.2551, 0.697462 13.193, 0.665074 13.1066, 0.665074 12.996, 0.665074 12.9532, 0.670022 12.9006, 0.679918 12.8376 L 1.82113 8.38251 C 1.9003 8.07123, 1.93989 7.80223, 1.93989 7.57642 L 1.93989 7.40368 C 1.9156 7.17382, 1.79954 7.05866, 1.59172 7.05821, 1.374 7.05866, 1.19227 7.2341, 1.04653 7.58406, 0.900785 7.93448, 0.759088 8.39016, 0.620541 8.95109, 0.566112 9.08109, 0.474796 9.14812, 0.346145 9.15262 L 0.17566 9.15262 C 0.0569052 9.15307, -0.00247222 9.09324, -0.00247222 8.97268 L -0.00247222 8.9223 C 0.0569052 8.69739, 0.12393 8.45133, 0.198152 8.18503, 0.272373 7.91874, 0.371336 7.66683, 0.494589 7.42932, 0.618292 7.19181, 0.773933 6.99029, 0.961511 6.82475, 1.14954 6.65921, 1.3839 6.57645, 1.66549 6.57599, 2.04155 6.57645, 2.34429 6.6835, 2.5737 6.89672, 2.80356 7.11039, 2.93311 7.32001, 2.9628 7.52603, 3.13599 7.29617, 3.37709 7.08025, 3.68568 6.87873, 3.99471 6.67721, 4.34917 6.57645, 4.74952 6.57599, 4.94745 6.57645, 5.14852 6.59714, 5.35364 6.63762, 5.55876 6.67856, 5.73915 6.74558, 5.89479 6.83915, 6.05043 6.93271, 6.16558 7.05641, 6.23981 7.20935, 6.28434 7.30562, 6.30908 7.41358, 6.31358 7.53323, 6.31358 7.60565, 6.30143 7.68977, 6.27669 7.78514 Z" stroke="none" fill="#000000" />
			<path d="M 1.87894 2.51203 L -1.4996 2.51203, -1.4996 2.29035 C -1.4996 2.27448, -1.49129 2.2503, -1.47466 2.21781 L -0.1174 0.742655 C 0.0433152 0.565566, 0.205793 0.384195, 0.370539 0.198793, 0.535284 0.0133917, 0.682396 -0.17604, 0.812379 -0.369503, 0.942362 -0.562965, 1.04615 -0.762474, 1.12373 -0.968027, 1.20132 -1.17358, 1.23986 -1.38921, 1.23986 -1.61517, 1.23986 -1.80561, 1.21517 -1.98371, 1.1653 -2.14895, 1.11542 -2.3142, 1.04363 -2.4593, 0.949415 -2.58425, 0.855203 -2.70919, 0.737563 -2.80995, 0.596497 -2.88653, 0.455431 -2.96311, 0.292197 -3.0014, 0.106795 -3.00165, -0.169796 -3.0014, -0.414143 -2.91877, -0.625743 -2.75353, -0.837342 -2.58828, -0.977905 -2.40615, -1.04718 -2.20765, -1.06078 -2.20211, -1.03861 -2.19934, -0.980676 -2.19959 L -0.910143 -2.19959 C -0.827014 -2.18044, -0.755221 -2.15147, -0.694261 -2.11268, -0.6333 -2.07364, -0.582163 -2.01998, -0.540599 -1.95146, -0.499035 -1.88294, -0.478379 -1.80032, -0.478379 -1.70384, -0.478379 -1.54237, -0.530775 -1.41868, -0.636071 -1.33278, -0.741367 -1.24663, -0.859006 -1.20381, -0.988989 -1.20406, -1.11343 -1.20381, -1.22956 -1.24663, -1.33762 -1.33278, -1.44544 -1.41868, -1.4996 -1.54237, -1.4996 -1.70384, -1.4996 -1.92929, -1.45526 -2.14291, -1.36659 -2.34443, -1.27792 -2.54596, -1.15776 -2.72053, -1.00561 -2.86839, -0.853464 -3.01601, -0.673604 -3.13289, -0.466035 -3.21904, -0.258466 -3.30494, -0.0383018 -3.34802, 0.193954 -3.34827, 0.481629 -3.34802, 0.745372 -3.3057, 0.984681 -3.22106, 1.22399 -3.13642, 1.42803 -3.01475, 1.59681 -2.8563, 1.76558 -2.6976, 1.89783 -2.51422, 1.99331 -2.30614, 2.08878 -2.09782, 2.13639 -1.86758, 2.13639 -1.61517, 2.13639 -1.33556, 2.07291 -1.07811, 1.94544 -0.843083, 1.81823 -0.607804, 1.66054 -0.392174, 1.47237 -0.196193, 1.2842 4.07696e-005, 1.08418 0.184687, 0.872584 0.357997, 0.660985 0.531307, 0.469285 0.699831, 0.297738 0.863569 L -0.656979 1.76236, 0.592466 1.76236 C 0.766784 1.76262, 0.929514 1.76136, 1.08015 1.75858, 1.23104 1.75607, 1.35901 1.75052, 1.46406 1.74246, 1.56935 1.7344, 1.62326 1.72911, 1.62578 1.72609, 1.64795 1.70745, 1.66885 1.66991, 1.68825 1.61349, 1.70765 1.55706, 1.72553 1.49056, 1.74216 1.41398, 1.75878 1.3374, 1.77541 1.25956, 1.79203 1.18021, 1.80866 1.10111, 1.82377 1.01421, 1.83763 0.919995 L 2.1447 0.919995 Z" stroke="none" fill="#000000" transform="matrix(1.12 0 0 1 7.84654 12.8121)" />
			<rect />
		</svg>
	</g>
	<g transform="matrix(1 0 -0 1 254.351 8.25002)">
		<svg width="35.935379" height="35.8877335">
			<defs />
			<path d="M 10.1979 5.84907 C 10.0894 6.23817, 9.90411 6.59714, 9.64231 6.92551, 9.38051 7.25434, 9.06878 7.53863, 8.70802 7.77794, 8.31757 8.04694, 7.90147 8.24981, 7.45884 8.38656, 7.01666 8.5233, 6.57808 8.59168, 6.14309 8.59123 L 3.94118 8.59123, 3.01453 12.1899 C 2.98484 12.296, 2.97 12.3797, 2.97 12.4418, 2.97 12.4998, 2.98259 12.5358, 3.00733 12.5497, 3.07661 12.5934, 3.21246 12.6185, 3.41488 12.6257, 3.61775 12.6329, 3.83502 12.6365, 4.06713 12.6361, 4.20568 12.6365, 4.27495 12.7036, 4.27495 12.8376 L 4.27495 12.888, 4.24526 13.0175 C 4.19083 13.1615, 4.09457 13.2335, 3.95602 13.2335, 3.33841 13.2047, 2.71809 13.1903, 2.09553 13.1903, 1.46802 13.1903, 0.840507 13.2047, 0.212546 13.2335, 0.0793963 13.2335, 0.00787344 13.1714, -0.00247263 13.0463 L -0.00247263 12.9888, 0.0272161 12.8664 C 0.066801 12.7085, 0.163064 12.6316, 0.316006 12.6361, 0.548568 12.6365, 0.768534 12.6329, 0.975906 12.6257, 1.18373 12.6185, 1.33667 12.5934, 1.43563 12.5497, 1.52965 12.4975, 1.60117 12.368, 1.65065 12.1611 L 3.73381 4.04976 C 3.7635 3.94449, 3.77789 3.86308, 3.77789 3.80505, 3.77789 3.74792, 3.76575 3.71418, 3.741 3.70429, 3.67173 3.66155, 3.53723 3.63546, 3.33706 3.62557, 3.13688 3.61612, 2.91827 3.61117, 2.68076 3.61072, 2.54266 3.61117, 2.47339 3.5464, 2.47339 3.4164 L 2.47339 3.35882, 2.51792 3.23646 C 2.54761 3.09297, 2.63937 3.021, 2.79232 3.02055 L 7.54386 3.02055 C 7.97929 3.021, 8.38324 3.08937, 8.75615 3.22612, 9.12951 3.36287, 9.44934 3.56799, 9.71608 3.84103, 9.95809 4.09564, 10.1286 4.39792, 10.2275 4.74789, 10.2572 4.91163, 10.2721 5.07716, 10.2721 5.2445, 10.2721 5.43703, 10.2473 5.63855, 10.1979 5.84907 Z M 8.61895 5.81309 C 8.70307 5.51125, 8.75975 5.21841, 8.78944 4.93502 L 8.78944 4.80547 C 8.78944 4.58505, 8.72781 4.38353, 8.60411 4.2009, 8.44127 3.98543, 8.22355 3.83339, 7.95185 3.74432, 7.68016 3.6557, 7.38597 3.61117, 7.06974 3.61072 L 5.67572 3.61072 C 5.42382 3.61117, 5.27312 3.63051, 5.22364 3.66875, 5.17416 3.70743, 5.12243 3.84373, 5.068 4.07854 L 4.03744 8.05143, 5.89074 8.05143 C 6.21192 8.05188, 6.53354 8.00645, 6.85472 7.91514, 7.1759 7.82427, 7.47729 7.66818, 7.75888 7.44686, 8.01123 7.2314, 8.19791 6.97949, 8.31892 6.6916, 8.43992 6.40371, 8.53978 6.11087, 8.61895 5.81309 Z" stroke="none" fill="#000000" />
			<rect />
		</svg>
	</g>
</svg>
