<?xml version="1.0"?>
<svg xmlns="http://www.w3.org/2000/svg" xmlns:xlink="http://www.w3.org/1999/xlink" width="438.406281" height="279.038361">
	<defs>
		<marker id="CustomMarker-01" markerUnits="strokeWidth" markerWidth="15.000001" markerHeight="9" viewBox="-15 -4.5 15 9" orient="auto-start-reverse">
			<path d="M 0 -0 L -10 -3, -8 -0.5, -8 0.5, -10 3 Z" fill="#000000" stroke="#000000" stroke-linejoin="round" />
		</marker>
		<marker id="CustomMarker-02" markerUnits="strokeWidth" markerWidth="15.000001" markerHeight="9" viewBox="-15 -4.5 15 9" orient="auto-start-reverse">
			<path d="M 0 -0 L -10 -3, -8 -0.5, -8 0.5, -10 3 Z" fill="#000000" stroke="#000000" stroke-linejoin="round" />
		</marker>
		<marker id="CustomMarker-03" markerUnits="strokeWidth" markerWidth="15.000001" markerHeight="9" viewBox="-15 -4.5 15 9" orient="auto-start-reverse">
			<path d="M 0 -0 L -10 -3, -8 -0.5, -8 0.5, -10 3 Z" fill="#000000" stroke="#000000" stroke-linejoin="round" />
		</marker>
		<marker id="CustomMarker-04" markerUnits="strokeWidth" markerWidth="15.000001" markerHeight="9" viewBox="-15 -4.5 15 9" orient="auto-start-reverse">
			<path d="M 0 -0 L -10 -3, -8 -0.5, -8 0.5, -10 3 Z" fill="#000000" stroke="#000000" stroke-linejoin="round" />
		</marker>
		<marker id="CustomMarker-05" markerUnits="strokeWidth" markerWidth="15.000001" markerHeight="9" viewBox="-15 -4.5 15 9" orient="auto-start-reverse">
			<path d="M 0 -0 L -10 -3, -8 -0.5, -8 0.5, -10 3 Z" fill="#000000" stroke="#000000" stroke-linejoin="round" />
		</marker>
		<marker id="CustomMarker-06" markerUnits="strokeWidth" markerWidth="15.000001" markerHeight="9" viewBox="-15 -4.5 15 9" orient="auto-start-reverse">
			<path d="M 0 -0 L -10 -3, -8 -0.5, -8 0.5, -10 3 Z" fill="#000000" stroke="#000000" stroke-linejoin="round" />
		</marker>
		<marker id="CustomMarker-07" markerUnits="strokeWidth" markerWidth="15.000001" markerHeight="9" viewBox="-15 -4.5 15 9" orient="auto-start-reverse">
			<path d="M 0 -0 L -10 -3, -8 -0.5, -8 0.5, -10 3 Z" fill="#000000" stroke="#000000" stroke-linejoin="round" />
		</marker>
		<marker id="CustomMarker-08" markerUnits="strokeWidth" markerWidth="15.000001" markerHeight="9" viewBox="-15 -4.5 15 9" orient="auto-start-reverse">
			<path d="M 0 -0 L -10 -3, -8 -0.5, -8 0.5, -10 3 Z" fill="#000000" stroke="#000000" stroke-linejoin="round" />
		</marker>
		<marker id="CustomMarker-09" markerUnits="strokeWidth" markerWidth="15.000001" markerHeight="9" viewBox="-15 -4.5 15 9" orient="auto-start-reverse">
			<path d="M 0 -0 L -10 -3, -8 -0.5, -8 0.5, -10 3 Z" fill="#000000" stroke="#000000" stroke-linejoin="round" />
		</marker>
		<marker id="CustomMarker-10" markerUnits="strokeWidth" markerWidth="15.000001" markerHeight="9" viewBox="-15 -4.5 15 9" orient="auto-start-reverse">
			<path d="M 0 -0 L -10 -3, -8 -0.5, -8 0.5, -10 3 Z" fill="#000000" stroke="#000000" stroke-linejoin="round" />
		</marker>
		<marker id="CustomMarker-11" markerUnits="strokeWidth" markerWidth="15.000001" markerHeight="9" viewBox="-15 -4.5 15 9" orient="auto-start-reverse">
			<path d="M 0 -0 L -10 -3, -8 -0.5, -8 0.5, -10 3 Z" fill="#000000" stroke="#000000" stroke-linejoin="round" />
		</marker>
	</defs>
	<rect x="-0" y="-0" width="438.406281" height="279.038361" stroke="none" fill="#FFFFFF" />
	<rect x="-350.007324" y="-66.8029785" width="700.014648" height="133.605957" stroke="none" fill="#0851C0" fill-opacity="0.392156839" transform="matrix(0.454545 0 0 0.454545 211.981 216.345)" />
	<path d="M -350.007 -66.803 L 350.007 -66.803, 350.007 66.803, -350.007 66.803 Z" fill="none" stroke="#000000" stroke-width="2.20000005" stroke-linecap="round" stroke-linejoin="round" transform="matrix(0.454545 0 0 0.454545 211.981 216.345)" />
	<ellipse cx="696.94797372817993" cy="306.91596078872681" rx="5.7750000953674316" ry="5.7750000953674316" stroke="none" fill="#000000" transform="matrix(0.454545 0 0 0.454545 -293.979 -104.117)" />
	<g transform="matrix(1 0 -0 1 8.24997 26.5842)">
		<svg width="30.027689" height="38.9535408">
			<defs />
			<path d="M 7.76608 6.28091 C 7.73639 6.41586, 7.66262 6.48288, 7.54386 6.48243, 7.53396 6.49233, 7.50922 6.49727, 7.46964 6.49683, 7.4449 6.49727, 7.42511 6.49233, 7.41026 6.48243 L 7.34369 6.48243 C 7.21504 6.48288, 7.15071 6.43475, 7.15071 6.33849 L 7.15071 6.2881 C 7.21009 5.93364, 7.23978 5.60481, 7.23978 5.30208 L 7.23978 5.02858 C 7.21009 4.65972, 7.12732 4.34169, 6.99147 4.07539, 6.85562 3.8091, 6.6568 3.60307, 6.395 3.45643, 6.1332 3.31024, 5.80167 3.23691, 5.40133 3.23646, 5.16921 3.23691, 4.93305 3.28729, 4.69329 3.38806, 4.45399 3.48882, 4.23042 3.62557, 4.0226 3.79785, 3.79544 3.98543, 3.61011 4.19775, 3.46661 4.43526, 3.32357 4.67277, 3.21965 4.91613, 3.15488 5.16533, 3.10585 5.34346, 3.07886 5.5135, 3.07346 5.67634, 3.07346 5.90215, 3.12294 6.11807, 3.2219 6.32409, 3.3654 6.67001, 3.62225 6.89088, 3.99291 6.98624 L 5.69776 7.46126 C 6.00904 7.55302, 6.27489 7.69832, 6.49486 7.89714, 6.71483 8.09642, 6.88036 8.33168, 6.99147 8.60248, 7.10303 8.87372, 7.16825 9.16971, 7.18805 9.49089 L 7.18805 9.62044 C 7.18805 9.89933, 7.14846 10.1845, 7.06929 10.4769, 6.96583 10.8804, 6.80029 11.2691, 6.57268 11.6433, 6.34552 12.0176, 6.06392 12.3536, 5.72745 12.6505, 5.40627 12.9244, 5.05451 13.1439, 4.67125 13.309, 4.288 13.4746, 3.90384 13.5573, 3.51834 13.5573, 2.95021 13.5573, 2.46574 13.4665, 2.06539 13.2838, 1.66505 13.1021, 1.36861 12.8718, 1.17563 12.5929 L 0.44196 13.4638 C 0.378085 13.5263, 0.31106 13.5573, 0.241786 13.5573 L 0.197253 13.5573 C 0.0740002 13.5573, 0.00697565 13.5097, -0.00292063 13.4134, -0.00292063 13.3846, 0.00472647 13.3585, 0.019121 13.3342 L 0.879194 9.96591 C 0.908883 9.83186, 0.9957 9.76258, 1.13875 9.75719 L 1.30158 9.75719 C 1.36096 9.75764, 1.41539 9.78148, 1.46487 9.82916, 1.48466 9.86784, 1.49456 9.90158, 1.49456 9.92992, 1.49456 9.94971, 1.48961 9.97355, 1.47972 10.0019, 1.39065 10.3478, 1.34612 10.6694, 1.34612 10.9663, 1.34612 11.4418, 1.46262 11.8448, 1.69473 12.1755, 2.06539 12.7085, 2.71315 12.9748, 3.6371 12.9744, 3.86921 12.9748, 4.10537 12.9208, 4.34513 12.8129, 4.58489 12.7049, 4.80845 12.5596, 5.01582 12.377, 5.24344 12.1665, 5.43461 11.9326, 5.59025 11.6757, 5.74589 11.4193, 5.86105 11.1539, 5.93482 10.88, 5.9843 10.6595, 6.00904 10.4535, 6.00904 10.261, 6.00904 10.0217, 5.97711 9.79137, 5.91278 9.57006, 5.76479 9.2012, 5.49039 8.96369, 5.09004 8.85753 L 3.40723 8.38251 C 3.10585 8.30154, 2.8463 8.16839, 2.62858 7.98351, 2.41131 7.79908, 2.24218 7.57956, 2.12117 7.32496, 2.00017 7.07081, 1.92955 6.79011, 1.90975 6.48243 L 1.90975 6.32409 C 1.90975 6.08478, 1.93944 5.83288, 1.99882 5.56838, 2.10273 5.18512, 2.26827 4.81806, 2.49543 4.46765, 2.72304 4.11768, 3.00464 3.80775, 3.34021 3.53875, 3.65689 3.2801, 4.00416 3.07273, 4.38201 2.91664, 4.76032 2.76099, 5.13458 2.68272, 5.50524 2.68227, 6.01444 2.68272, 6.43413 2.77764, 6.76521 2.96702, 7.09628 3.15684, 7.33604 3.38086, 7.48448 3.63951 L 8.19611 2.78304 C 8.2357 2.71646, 8.30002 2.68272, 8.38864 2.68227 L 8.45566 2.68227 C 8.57442 2.68272, 8.63335 2.7403, 8.63335 2.85501 L 8.63335 2.91259 Z" stroke="none" fill="#000000" />
			<rect />
		</svg>
	</g>
	<path d="M -184.511 -164.257 L 184.511 164.257" fill="none" stroke="#000000" stroke-width="2.20000005" stroke-linecap="round" stroke-linejoin="round" marker-end="url(#CustomMarker-01)" transform="matrix(0.454545 0 0 0.454545 106.685 111.317)" />
	<path d="M 0 178.137 L 0 -178.137" fill="none" stroke="#000000" stroke-width="1.10000002" stroke-linecap="round" stroke-linejoin="round" stroke-dasharray="3.8555, 2.7445" transform="matrix(0.454545 0 0 0.454545 190.553 165.738)" />
	<path d="M -23.5712 -66.803 L 23.571 66.803" fill="none" stroke="#000000" stroke-width="2.20000005" stroke-linecap="round" stroke-linejoin="round" marker-end="url(#CustomMarker-02)" transform="matrix(0.454545 0 0 0.454545 201.267 216.344)" />
	<path d="M 0 66.803 L 0 -66.803" fill="none" stroke="#000000" stroke-width="1.10000002" stroke-linecap="round" stroke-linejoin="round" stroke-dasharray="3.8555, 2.7445" transform="matrix(0.454545 0 0 0.454545 211.981 216.344)" />
	<path d="M -23.571 66.803 L 23.571 -66.803" fill="none" stroke="#000000" stroke-width="2.20000005" stroke-linecap="round" stroke-linejoin="round" marker-end="url(#CustomMarker-03)" transform="matrix(0.454545 0 0 0.454545 222.605 216.344)" />
	<path d="M -142.657 126.996 L 142.655 -126.997" fill="none" stroke="#000000" stroke-width="2.20000005" stroke-linecap="round" stroke-linejoin="round" marker-end="url(#CustomMarker-04)" transform="matrix(0.454545 0 0 0.454545 254.66 128.254)" />
	<path d="M -142.656 126.996 L 142.655 -126.996" fill="none" stroke="#000000" stroke-width="2.20000005" stroke-linecap="round" stroke-linejoin="round" marker-end="url(#CustomMarker-05)" transform="matrix(0.454545 0 0 0.454545 298.296 128.254)" />
	<path d="M -108.555 0 L 108.558 0" fill="none" stroke="#000000" stroke-width="2.20000005" stroke-linecap="round" stroke-linejoin="round" marker-start="url(#CustomMarker-06)" marker-end="url(#CustomMarker-07)" transform="matrix(0.454545 0 0 0.454545 342.702 70.5288)" />
	<path d="M -174.85 0 L 174.849 0" fill="none" stroke="#000000" stroke-width="2.20000005" stroke-linecap="round" stroke-linejoin="round" transform="matrix(0.454545 0 0 0.454545 350.429 24.33)" />
	<path d="M -45.2568 50.838 L 45.2582 -50.8382" fill="none" stroke="#000000" stroke-width="2.20000005" stroke-linecap="round" stroke-linejoin="round" marker-end="url(#CustomMarker-08)" transform="matrix(0.454545 0 0 0.454545 340.073 47.4207)" />
	<path d="M 2.76074 50.8186 L -2.75928 -50.8188" fill="none" stroke="#000000" stroke-width="2.20000005" stroke-linecap="round" stroke-linejoin="round" marker-end="url(#CustomMarker-09)" transform="matrix(0.454545 0 0 0.454545 361.884 47.4294)" />
	<g transform="matrix(1 0 -0 1 350.787 8.25)">
		<svg width="35.935379" height="35.8877335">
			<defs />
			<path d="M 10.1979 5.84907 C 10.0894 6.23817, 9.90411 6.59714, 9.64231 6.92551, 9.38051 7.25434, 9.06878 7.53863, 8.70802 7.77794, 8.31757 8.04694, 7.90147 8.24981, 7.45884 8.38656, 7.01666 8.5233, 6.57808 8.59168, 6.14309 8.59123 L 3.94118 8.59123, 3.01453 12.1899 C 2.98484 12.296, 2.97 12.3797, 2.97 12.4418, 2.97 12.4998, 2.98259 12.5358, 3.00733 12.5497, 3.07661 12.5934, 3.21246 12.6185, 3.41488 12.6257, 3.61775 12.6329, 3.83502 12.6365, 4.06713 12.6361, 4.20568 12.6365, 4.27495 12.7036, 4.27495 12.8376 L 4.27495 12.888, 4.24526 13.0175 C 4.19083 13.1615, 4.09457 13.2335, 3.95602 13.2335, 3.33841 13.2047, 2.71809 13.1903, 2.09553 13.1903, 1.46802 13.1903, 0.840507 13.2047, 0.212546 13.2335, 0.0793963 13.2335, 0.00787344 13.1714, -0.00247263 13.0463 L -0.00247263 12.9888, 0.0272161 12.8664 C 0.066801 12.7085, 0.163064 12.6316, 0.316006 12.6361, 0.548568 12.6365, 0.768534 12.6329, 0.975906 12.6257, 1.18373 12.6185, 1.33667 12.5934, 1.43563 12.5497, 1.52965 12.4975, 1.60117 12.368, 1.65065 12.1611 L 3.73381 4.04976 C 3.7635 3.94449, 3.77789 3.86308, 3.77789 3.80505, 3.77789 3.74792, 3.76575 3.71418, 3.741 3.70429, 3.67173 3.66155, 3.53723 3.63546, 3.33706 3.62557, 3.13688 3.61612, 2.91827 3.61117, 2.68076 3.61072, 2.54266 3.61117, 2.47339 3.5464, 2.47339 3.4164 L 2.47339 3.35882, 2.51792 3.23646 C 2.54761 3.09297, 2.63937 3.021, 2.79232 3.02055 L 7.54386 3.02055 C 7.97929 3.021, 8.38324 3.08937, 8.75615 3.22612, 9.12951 3.36287, 9.44934 3.56799, 9.71608 3.84103, 9.95809 4.09564, 10.1286 4.39792, 10.2275 4.74789, 10.2572 4.91163, 10.2721 5.07716, 10.2721 5.2445, 10.2721 5.43703, 10.2473 5.63855, 10.1979 5.84907 Z M 8.61895 5.81309 C 8.70307 5.51125, 8.75975 5.21841, 8.78944 4.93502 L 8.78944 4.80547 C 8.78944 4.58505, 8.72781 4.38353, 8.60411 4.2009, 8.44127 3.98543, 8.22355 3.83339, 7.95185 3.74432, 7.68016 3.6557, 7.38597 3.61117, 7.06974 3.61072 L 5.67572 3.61072 C 5.42382 3.61117, 5.27312 3.63051, 5.22364 3.66875, 5.17416 3.70743, 5.12243 3.84373, 5.068 4.07854 L 4.03744 8.05143, 5.89074 8.05143 C 6.21192 8.05188, 6.53354 8.00645, 6.85472 7.91514, 7.1759 7.82427, 7.47729 7.66818, 7.75888 7.44686, 8.01123 7.2314, 8.19791 6.97949, 8.31892 6.6916, 8.43992 6.40371, 8.53978 6.11087, 8.61895 5.81309 Z" stroke="none" fill="#000000" />
			<rect />
		</svg>
	</g>
	<path d="M 20.9513 23.5356 L -20.9524 -23.5353" fill="none" stroke="#000000" stroke-width="1.10000002" stroke-linecap="round" stroke-linejoin="round" stroke-dasharray="3.8555, 2.7445" transform="matrix(0.454545 0 0 0.454545 223.796 175.281)" />
	<path d="M -35.2906 -31.6827 C -26.2953 -41.7023, -13.4651 -47.4259, -6.34856e-005 -47.4259" fill="none" stroke="#000000" stroke-width="1.6500001" stroke-linecap="round" stroke-linejoin="round" transform="matrix(0.454545 0 -0 0.454545 190.553 185.979)" />
	<g transform="matrix(1 0 -0 1 177.278 147.468)">
		<svg width="14.9630756" height="35.8877335">
			<defs />
			<path d="M 3.81523 4.08574 C 3.77069 4.26837, 3.66813 4.42086, 3.50754 4.54322, 3.34695 4.66557, 3.17287 4.72675, 2.98484 4.7263, 2.78737 4.72675, 2.63667 4.65972, 2.53276 4.52477, 2.46349 4.4483, 2.4266 4.35474, 2.42121 4.24408, 2.42121 4.17751, 2.4311 4.11003, 2.45089 4.04256, 2.49588 3.86083, 2.59979 3.70833, 2.76263 3.58598, 2.92546 3.46363, 3.1009 3.40245, 3.28893 3.402, 3.48685 3.40245, 3.63754 3.46723, 3.741 3.59633, 3.81028 3.68809, 3.84491 3.78615, 3.84491 3.89141, 3.84491 3.95889, 3.83502 4.02366, 3.81523 4.08574 Z M 3.89664 11.0671 C 3.84266 11.3172, 3.75855 11.5799, 3.64474 11.8556, 3.53138 12.1318, 3.39149 12.3824, 3.22595 12.6078, 3.06041 12.8336, 2.86609 13.0216, 2.64387 13.1723, 2.42165 13.3234, 2.16435 13.399, 1.87286 13.399, 1.62591 13.399, 1.41359 13.3464, 1.23546 13.2407, 1.05732 13.1354, 0.920125 12.9964, 0.823862 12.8237, 0.727599 12.6509, 0.679467 12.4589, 0.679467 12.2474, 0.669571 12.2384, 0.664623 12.2191, 0.664623 12.1899, 0.664623 11.9744, 0.711855 11.7535, 0.805419 11.5277 L 2.00646 8.36092 C 2.15491 7.96327, 2.22868 7.63669, 2.22868 7.38209, 2.22868 7.16662, 2.13736 7.05866, 1.95428 7.05821, 1.7865 7.05866, 1.6358 7.10679, 1.5022 7.20261, 1.36905 7.29887, 1.2467 7.43202, 1.13514 7.60206, 1.02404 7.77254, 0.924174 7.97406, 0.835108 8.20662, 0.746042 8.43964, 0.67182 8.68749, 0.612442 8.95109, 0.558463 9.08109, 0.467148 9.14812, 0.338497 9.15262 L 0.175209 9.15262 C 0.0564537 9.15307, -0.0029237 9.09324, -0.0029237 8.97268 L -0.0029237 8.9223 C 0.0564537 8.6587, 0.14552 8.38926, 0.264275 8.11306, 0.38303 7.83732, 0.526075 7.58676, 0.694311 7.36095, 0.862547 7.13558, 1.05777 6.94845, 1.27999 6.79956, 1.5022 6.65112, 1.75681 6.57645, 2.04335 6.57599, 2.29075 6.57645, 2.50082 6.62952, 2.67356 6.73478, 2.84674 6.84049, 2.97899 6.98084, 3.07031 7.15582, 3.16162 7.33126, 3.212 7.52873, 3.2219 7.74915 L 3.2219 7.79953 C 3.2219 8.00645, 3.18007 8.21967, 3.09595 8.44009 L 1.89491 11.6213 C 1.75681 12.0104, 1.68753 12.3415, 1.68753 12.6145, 1.67764 12.6244, 1.67269 12.6244, 1.67269 12.6145, 1.67269 12.8214, 1.7667 12.9244, 1.95428 12.924, 2.12252 12.9244, 2.27456 12.8741, 2.41041 12.7733, 2.54626 12.6725, 2.66996 12.5385, 2.78107 12.3702, 2.89218 12.2025, 2.98979 12.0009, 3.07391 11.7657, 3.15803 11.5309, 3.2345 11.2835, 3.30377 11.0239, 3.33346 10.8998, 3.41983 10.8372, 3.56287 10.8368 L 3.72616 10.8368 C 3.78059 10.8372, 3.83502 10.8539, 3.889 10.8872, 3.90429 10.9258, 3.91644 10.9596, 3.92633 10.9879, 3.92633 11.0172, 3.91644 11.0437, 3.89664 11.0671 Z" stroke="none" fill="#000000" />
			<rect />
		</svg>
	</g>
	<path d="M 15.7213 44.7444 C 10.6698 46.5192, 5.35428 47.4259, 7.30082e-005 47.4259" fill="none" stroke="#000000" stroke-width="1.6500001" stroke-linecap="round" stroke-linejoin="round" transform="matrix(0.454545 0 -0 0.454545 190.553 185.979)" />
	<g transform="matrix(1 0 -0 1 178.809 198.731)">
		<svg width="30.027689" height="36.0270882">
			<defs />
			<path d="M 8.07511 7.03662 C 7.59109 7.95337, 7.14621 8.87237, 6.74091 9.79362, 6.33562 10.7149, 5.9771 11.6505, 5.66582 12.6001, 5.62624 12.9316, 5.57451 13.265, 5.51018 13.6005, 5.44586 13.9365, 5.37163 14.2699, 5.28752 14.6009, 5.28752 14.6108, 5.27267 14.6851, 5.24298 14.8241, 5.20385 15.0067, 5.14717 15.2141, 5.07295 15.4466, 4.99873 15.6796, 4.90966 15.9014, 4.80575 16.1124, 4.70229 16.3238, 4.59073 16.4291, 4.47198 16.4291, 4.33388 16.4291, 4.26236 16.3188, 4.25741 16.098, 4.25741 16.0741, 4.26236 16.0548, 4.2718 16.0404, 4.2718 15.8533, 4.29564 15.6437, 4.34243 15.4106, 4.38966 15.1781, 4.43779 14.9707, 4.48682 14.7881 L 4.5462 14.5794 C 4.70949 13.9172, 4.90741 13.2528, 5.13952 12.5857, 5.17911 12.2025, 5.19845 11.8183, 5.19845 11.4341 L 5.19845 10.9663 C 5.16921 10.4535, 5.08554 9.95106, 4.947 9.45895, 4.80845 8.96729, 4.55519 8.56424, 4.18678 8.24981, 3.81883 7.93583, 3.35775 7.77839, 2.80401 7.77794, 2.55211 7.77839, 2.3029 7.81932, 2.0555 7.90074, 1.80854 7.98261, 1.58138 8.09417, 1.37355 8.23541, 1.16618 8.37711, 0.9885 8.5449, 0.840057 8.73922, 0.691613 8.93355, 0.590402 9.14812, 0.535972 9.38293, 0.476595 9.50348, 0.392477 9.56331, 0.283618 9.56286 L 0.187355 9.56286 C 0.123479 9.56331, 0.0762471 9.54397, 0.0465584 9.50528, 0.0123714 9.48639, -0.00517195 9.4531, -0.00517195 9.40452, -0.00517195 9.38563, 0.00247514 9.36404, 0.0168697 9.33974, 0.105936 8.98978, 0.245833 8.64836, 0.43611 8.31458, 0.626388 7.98126, 0.8585 7.68617, 1.1329 7.42932, 1.40729 7.17292, 1.70868 6.96645, 2.03705 6.81036, 2.36588 6.65472, 2.71045 6.57645, 3.07121 6.57599, 3.46166 6.57645, 3.79184 6.66056, 4.06083 6.82835, 4.33028 6.99659, 4.5525 7.2089, 4.72793 7.46531, 4.90336 7.72216, 5.05046 8.0078, 5.16921 8.32178, 5.28797 8.63621, 5.38918 8.94435, 5.47285 9.24618, 5.56191 9.5777, 5.62759 9.91373, 5.66942 10.2542, 5.71171 10.5952, 5.7351 10.8179, 5.74004 10.9231, 6.20967 9.66632, 6.82728 8.32538, 7.59334 6.89987, 7.63293 6.79461, 7.7094 6.73973, 7.82275 6.73433, 7.89203 6.73478, 7.94151 6.73973, 7.9712 6.74873, 8.06521 6.76852, 8.11199 6.8234, 8.11199 6.91427, 8.11199 6.94351, 8.09985 6.98444, 8.07511 7.03662 Z" stroke="none" fill="#000000" />
			<rect />
		</svg>
	</g>
	<g transform="matrix(1 0 -0 1 231.355 160.281)">
		<svg width="14.9630756" height="35.8877335">
			<defs />
			<path d="M 3.81523 4.08574 C 3.77069 4.26837, 3.66813 4.42086, 3.50754 4.54322, 3.34695 4.66557, 3.17287 4.72675, 2.98484 4.7263, 2.78737 4.72675, 2.63667 4.65972, 2.53276 4.52477, 2.46349 4.4483, 2.4266 4.35474, 2.42121 4.24408, 2.42121 4.17751, 2.4311 4.11003, 2.45089 4.04256, 2.49588 3.86083, 2.59979 3.70833, 2.76263 3.58598, 2.92546 3.46363, 3.1009 3.40245, 3.28893 3.402, 3.48685 3.40245, 3.63754 3.46723, 3.741 3.59633, 3.81028 3.68809, 3.84491 3.78615, 3.84491 3.89141, 3.84491 3.95889, 3.83502 4.02366, 3.81523 4.08574 Z M 3.89664 11.0671 C 3.84266 11.3172, 3.75855 11.5799, 3.64474 11.8556, 3.53138 12.1318, 3.39149 12.3824, 3.22595 12.6078, 3.06041 12.8336, 2.86609 13.0216, 2.64387 13.1723, 2.42165 13.3234, 2.16435 13.399, 1.87286 13.399, 1.62591 13.399, 1.41359 13.3464, 1.23546 13.2407, 1.05732 13.1354, 0.920125 12.9964, 0.823862 12.8237, 0.727599 12.6509, 0.679467 12.4589, 0.679467 12.2474, 0.669571 12.2384, 0.664623 12.2191, 0.664623 12.1899, 0.664623 11.9744, 0.711855 11.7535, 0.805419 11.5277 L 2.00646 8.36092 C 2.15491 7.96327, 2.22868 7.63669, 2.22868 7.38209, 2.22868 7.16662, 2.13736 7.05866, 1.95428 7.05821, 1.7865 7.05866, 1.6358 7.10679, 1.5022 7.20261, 1.36905 7.29887, 1.2467 7.43202, 1.13514 7.60206, 1.02404 7.77254, 0.924174 7.97406, 0.835108 8.20662, 0.746042 8.43964, 0.67182 8.68749, 0.612442 8.95109, 0.558463 9.08109, 0.467148 9.14812, 0.338497 9.15262 L 0.175209 9.15262 C 0.0564537 9.15307, -0.0029237 9.09324, -0.0029237 8.97268 L -0.0029237 8.9223 C 0.0564537 8.6587, 0.14552 8.38926, 0.264275 8.11306, 0.38303 7.83732, 0.526075 7.58676, 0.694311 7.36095, 0.862547 7.13558, 1.05777 6.94845, 1.27999 6.79956, 1.5022 6.65112, 1.75681 6.57645, 2.04335 6.57599, 2.29075 6.57645, 2.50082 6.62952, 2.67356 6.73478, 2.84674 6.84049, 2.97899 6.98084, 3.07031 7.15582, 3.16162 7.33126, 3.212 7.52873, 3.2219 7.74915 L 3.2219 7.79953 C 3.2219 8.00645, 3.18007 8.21967, 3.09595 8.44009 L 1.89491 11.6213 C 1.75681 12.0104, 1.68753 12.3415, 1.68753 12.6145, 1.67764 12.6244, 1.67269 12.6244, 1.67269 12.6145, 1.67269 12.8214, 1.7667 12.9244, 1.95428 12.924, 2.12252 12.9244, 2.27456 12.8741, 2.41041 12.7733, 2.54626 12.6725, 2.66996 12.5385, 2.78107 12.3702, 2.89218 12.2025, 2.98979 12.0009, 3.07391 11.7657, 3.15803 11.5309, 3.2345 11.2835, 3.30377 11.0239, 3.33346 10.8998, 3.41983 10.8372, 3.56287 10.8368 L 3.72616 10.8368 C 3.78059 10.8372, 3.83502 10.8539, 3.889 10.8872, 3.90429 10.9258, 3.91644 10.9596, 3.92633 10.9879, 3.92633 11.0172, 3.91644 11.0437, 3.89664 11.0671 Z" stroke="none" fill="#000000" />
			<rect />
		</svg>
	</g>
	<path d="M -35.4989 -5.40916e-005 C -35.4989 -10.1305, -31.1707 -19.7782, -23.6041 -26.5142" fill="none" stroke="#000000" stroke-width="1.6500001" stroke-linecap="round" stroke-linejoin="round" transform="matrix(0.454545 0 -0 0.454545 233.452 185.979)" />
	<g transform="matrix(1 0 -0 1 177.974 185.482)">
		<svg width="32.9815331" height="38.9535408">
			<defs />
			<path d="M 9.7415 13.0175 C 9.68752 13.1615, 9.5935 13.2335, 9.45991 13.2335, 8.96599 13.2047, 8.47388 13.1903, 7.98447 13.1903 L 7.73976 13.1903 C 7.16173 13.2002, 6.581 13.2146, 5.99802 13.2335, 5.86487 13.2335, 5.7929 13.1714, 5.783 13.0463 L 5.783 12.9888, 5.81269 12.8664 C 5.85228 12.7085, 5.94854 12.6316, 6.10148 12.6361, 6.28456 12.6365, 6.44785 12.6307, 6.5909 12.6185, 6.73439 12.6069, 6.87294 12.5646, 7.00609 12.4921, 7.05557 12.4688, 7.09785 12.435, 7.13204 12.3914, 7.15183 12.3536, 7.16443 12.3149, 7.16893 12.2762 L 7.16893 12.233, 6.99124 9.84355, 3.64047 9.84355, 2.46192 11.8588 C 2.39759 11.9744, 2.3652 12.0801, 2.3652 12.1755, 2.3652 12.2573, 2.38994 12.332, 2.43942 12.3986, 2.54828 12.5574, 2.75116 12.6365, 3.04714 12.6361, 3.18074 12.6365, 3.25226 12.6941, 3.26216 12.8088, 3.26216 12.8381, 3.25721 12.8691, 3.24732 12.9024 L 3.21808 13.0175 C 3.16365 13.1615, 3.06738 13.2335, 2.92884 13.2335, 2.47451 13.2146, 2.02468 13.2002, 1.57935 13.1903 L 1.37963 13.1903 C 0.994123 13.1903, 0.603671 13.2047, 0.208272 13.2335, 0.13405 13.2335, 0.0796205 13.2096, 0.0449836 13.1615, 0.0152949 13.1332, 0.000450552 13.0994, 0.000450552 13.0607, 0.000450552 13.0324, 0.00539869 13.0036, 0.0152949 12.9744 L 0.0449836 12.8664 C 0.0845686 12.7085, 0.181282 12.6316, 0.334224 12.6361, 0.492564 12.6365, 0.648204 12.6199, 0.801146 12.5862, 0.954538 12.5529, 1.09803 12.4926, 1.23118 12.4062, 1.36478 12.3199, 1.48848 12.2155, 1.60184 12.0931, 1.71565 11.9708, 1.81686 11.8327, 1.90593 11.6789 L 7.13924 2.71826 C 7.2283 2.58421, 7.34211 2.51944, 7.48066 2.52393 L 7.62145 2.52393 C 7.77979 2.52438, 7.86841 2.59861, 7.8882 2.74705 L 8.54045 12.1251 C 8.55035 12.2501, 8.5652 12.3451, 8.58499 12.4098, 8.60478 12.4746, 8.63942 12.5214, 8.6889 12.5497, 8.75817 12.5934, 8.87288 12.6185, 9.03347 12.6257, 9.19451 12.6329, 9.37579 12.6365, 9.57821 12.6361, 9.71676 12.6365, 9.78603 12.6941, 9.78603 12.8088, 9.78603 12.8381, 9.78108 12.8691, 9.77119 12.9024 Z M 6.63543 4.74069 L 3.99628 9.26058, 6.94671 9.26058 Z" stroke="none" fill="#000000" />
			<rect />
		</svg>
	</g>
	<g transform="matrix(1 0 -0 1 234.499 185.482)">
		<svg width="35.935379" height="35.8877335">
			<defs />
			<path d="M 10.2404 5.59717 C 10.1567 5.94309, 9.98981 6.26696, 9.74015 6.56925, 9.49049 6.87153, 9.2026 7.12839, 8.87648 7.33891, 8.61963 7.51209, 8.35648 7.64884, 8.08703 7.7496, 7.81758 7.85036, 7.72222 7.89354, 7.80139 7.8787, 7.78699 7.8742, 7.91654 7.93583, 8.19094 8.06268, 8.46533 8.18998, 8.70599 8.36362, 8.91336 8.58403, 9.14593 8.81974, 9.30427 9.10268, 9.38793 9.43331, 9.42752 9.59705, 9.45001 9.75764, 9.45451 9.91553, 9.45451 10.0982, 9.42752 10.288, 9.37309 10.4841, 9.27952 10.8539, 9.10634 11.207, 8.85444 11.5426, 8.60253 11.8786, 8.3007 12.171, 7.94983 12.4202, 7.57917 12.6892, 7.18512 12.892, 6.76768 13.0288, 6.35024 13.1655, 5.9337 13.2335, 5.51805 13.2335 L 0.210521 13.2335 C 0.136299 13.2335, 0.0818699 13.2119, 0.0472331 13.1687, 0.0130461 13.1354, -0.00449724 13.0994, -0.00449724 13.0607, -0.00449724 13.0324, 0.000450877 13.0036, 0.0103471 12.9744 L 0.0400358 12.8664 C 0.0697246 12.7085, 0.165988 12.6316, 0.328826 12.6361, 0.561388 12.6365, 0.779105 12.6329, 0.981528 12.6257, 1.18395 12.6185, 1.33734 12.5934, 1.4408 12.5497, 1.52987 12.502, 1.59914 12.3725, 1.64862 12.1611 L 3.73178 4.04976 C 3.76147 3.94449, 3.77587 3.86308, 3.77587 3.80505, 3.77587 3.74792, 3.76372 3.71418, 3.73898 3.70429, 3.66971 3.66155, 3.53521 3.63546, 3.33503 3.62557, 3.13486 3.61612, 2.91624 3.61117, 2.67873 3.61072, 2.60496 3.61117, 2.55053 3.58733, 2.51589 3.53875, 2.48621 3.51041, 2.47136 3.47442, 2.47136 3.43079, 2.47136 3.40245, 2.47901 3.37591, 2.4934 3.35162 L 2.51589 3.24366 C 2.53074 3.17709, 2.56673 3.12311, 2.6234 3.08217, 2.68008 3.04169, 2.74081 3.021, 2.80514 3.02055 L 7.71997 3.02055 C 8.12526 3.021, 8.50807 3.08127, 8.86883 3.20093, 9.22959 3.32103, 9.52873 3.51041, 9.76579 3.76906, 9.99835 4.00477, 10.1616 4.27827, 10.2552 4.58955, 10.2948 4.74834, 10.3146 4.90893, 10.3146 5.07177, 10.3146 5.24495, 10.2898 5.41993, 10.2404 5.59717 Z M 8.74288 5.56838 C 8.79236 5.37675, 8.8171 5.18512, 8.8171 4.9926 L 8.8171 4.81986 C 8.79731 4.59, 8.72803 4.37633, 8.60928 4.17931, 8.50582 4.00207, 8.36862 3.86308, 8.19814 3.76231, 8.02765 3.66155, 7.82883 3.61117, 7.60121 3.61072 L 5.64401 3.61072 C 5.38221 3.61117, 5.23151 3.62782, 5.19193 3.6611, 5.13255 3.70968, 5.07587 3.84868, 5.02144 4.07854 L 4.10244 7.69157, 6.12622 7.69157 C 6.40782 7.69202, 6.68716 7.63714, 6.9638 7.52648, 7.2409 7.41628, 7.50495 7.26019, 7.75685 7.05821, 8.2809 6.63627, 8.60973 6.13966, 8.74288 5.56838 Z M 7.83108 10.4409 C 7.90035 10.1967, 7.93499 9.95421, 7.93499 9.714 L 7.93499 9.56286 C 7.91519 9.29476, 7.84367 9.04736, 7.71997 8.82154, 7.61111 8.62542, 7.46401 8.46573, 7.27869 8.34337, 7.09336 8.22102, 6.87744 8.15984, 6.63003 8.15939 L 3.96884 8.15939, 2.93828 12.1899 C 2.8987 12.3536, 2.87891 12.471, 2.87891 12.5425, 2.87891 12.5812, 2.88161 12.6028, 2.88655 12.6073, 2.89645 12.6221, 3.0251 12.6316, 3.27206 12.6361 L 5.25131 12.6361 C 5.523 12.6365, 5.7974 12.5781, 6.07404 12.4602, 6.35114 12.3428, 6.60574 12.1881, 6.83785 11.9955, 7.09515 11.7801, 7.30612 11.5381, 7.47166 11.2691, 7.6372 11.0005, 7.7573 10.7243, 7.83108 10.4409 Z" stroke="none" fill="#000000" />
			<rect />
		</svg>
	</g>
	<g transform="matrix(1 0 -0 1 214.102 245.757)">
		<svg width="35.935379" height="38.9535408">
			<defs />
			<path d="M 9.17112 6.84949 C 9.14143 6.98444, 9.05506 7.05371, 8.91157 7.05821 L 8.74873 7.05821 C 8.63537 7.05866, 8.5733 7.00108, 8.5634 6.88548 L 8.5634 6.8279 C 8.61288 6.52606, 8.64032 6.23592, 8.64482 5.95703, 8.64482 5.79914, 8.63987 5.63855, 8.62997 5.47481, 8.58049 5.05287, 8.46939 4.67997, 8.29665 4.35609, 8.12392 4.03221, 7.89135 3.77311, 7.59986 3.57878, 7.30838 3.38446, 6.95211 3.28729, 6.53197 3.28684, 6.01827 3.28729, 5.50186 3.41235, 4.98276 3.66155, 4.46411 3.91121, 3.99449 4.24453, 3.57435 4.66152, 3.08493 5.15633, 2.70213 5.70333, 2.42548 6.30295, 2.14884 6.90302, 1.93112 7.51434, 1.77278 8.1378, 1.60005 8.77161, 1.50108 9.38563, 1.47634 9.9803 L 1.47634 10.1818 C 1.47634 10.7054, 1.58025 11.1827, 1.78762 11.6141, 1.98555 12.0225, 2.27434 12.3514, 2.65489 12.6006, 3.03545 12.8502, 3.48798 12.9748, 4.01158 12.9744, 4.43667 12.9748, 4.85411 12.8839, 5.26435 12.7013, 5.6746 12.5191, 6.05155 12.2731, 6.39522 11.9636, 6.73889 11.6541, 7.03893 11.2956, 7.29578 10.8876, 7.55308 10.4801, 7.73841 10.0478, 7.85177 9.59165, 7.88146 9.4576, 7.96828 9.39058, 8.11132 9.39013 L 8.27416 9.39013 C 8.39786 9.39058, 8.46444 9.44321, 8.47433 9.54847, 8.47433 9.5777, 8.46714 9.60424, 8.45229 9.62764, 8.31914 10.1557, 8.09918 10.6573, 7.79239 11.1323, 7.48606 11.6073, 7.1217 12.0239, 6.69886 12.381, 6.27647 12.7387, 5.81314 13.0238, 5.30889 13.2371, 4.80508 13.4507, 4.28597 13.5573, 3.75203 13.5573, 3.07009 13.5573, 2.46372 13.4147, 1.93247 13.1296, 1.40122 12.8444, 0.969835 12.4494, 0.638761 11.9452, 0.292842 11.4036, 0.0899694 10.8035, 0.0305918 10.1458, 0.0107995 9.96861, 0.000903189 9.78418, 0.000903189 9.59165, 0.000903189 9.10763, 0.0629796 8.61327, 0.186233 8.10901, 0.374261 7.40413, 0.672498 6.72399, 1.08004 6.06904, 1.48759 5.41409, 1.99769 4.81806, 2.61036 4.28007, 3.18884 3.7911, 3.81545 3.40245, 4.4902 3.11456, 5.16494 2.82667, 5.84058 2.68272, 6.51713 2.68227, 7.05602 2.68272, 7.5171 2.80148, 7.8999 3.03899, 8.28316 3.2765, 8.5661 3.56304, 8.74873 3.89861 L 9.7496 2.78304 C 9.78918 2.71646, 9.85576 2.68272, 9.94977 2.68227 L 10.0087 2.68227 C 10.1275 2.68272, 10.1868 2.7403, 10.1868 2.85501 L 10.1868 2.91259 Z" stroke="none" fill="#000000" />
			<rect />
		</svg>
	</g>
	<g transform="matrix(1 0 -0 1 203.982 147.468)">
		<svg width="35.935379" height="35.8877335">
			<defs />
			<path d="M 10.7457 8.23856 C 10.5775 8.88677, 10.3121 9.51293, 9.94865 10.1175, 9.58563 10.7221, 9.12996 11.2713, 8.58117 11.7652, 8.08185 12.2119, 7.53351 12.5682, 6.93524 12.8345, 6.33742 13.1008, 5.7396 13.2335, 5.14132 13.2335 L 0.211646 13.2335 C 0.0784966 13.2335, 0.0069738 13.1714, -0.00337227 13.0463 L -0.00337227 12.9888, 0.0263165 12.8664 C 0.0659014 12.7085, 0.162165 12.6316, 0.315107 12.6361, 0.547668 12.6365, 0.767635 12.6329, 0.975006 12.6257, 1.18283 12.6185, 1.33577 12.5934, 1.43473 12.5497, 1.52875 12.4975, 1.60027 12.368, 1.64975 12.1611 L 3.73291 4.04976 C 3.7626 3.94449, 3.77699 3.86308, 3.77699 3.80505, 3.77699 3.74792, 3.76485 3.71418, 3.74011 3.70429, 3.67083 3.66155, 3.53633 3.63546, 3.33616 3.62557, 3.13598 3.61612, 2.91737 3.61117, 2.67986 3.61072, 2.54176 3.61117, 2.47249 3.5464, 2.47249 3.4164 L 2.47249 3.35882, 2.51702 3.23646 C 2.54671 3.09297, 2.63847 3.021, 2.79142 3.02055 L 7.73594 3.02055 C 8.3486 3.021, 8.88255 3.16269, 9.33733 3.44563, 9.7921 3.72903, 10.1578 4.10058, 10.4345 4.56076, 10.7309 5.07941, 10.8987 5.65519, 10.9383 6.2881, 10.9482 6.42305, 10.9531 6.54766, 10.9531 6.66236, 10.9531 7.17607, 10.8843 7.70147, 10.7457 8.23856 Z M 9.31484 4.89184 C 9.14705 4.49419, 8.8839 4.1811, 8.52539 3.95304, 8.16732 3.72543, 7.74853 3.61117, 7.26901 3.61072 L 5.67482 3.61072 C 5.42292 3.61117, 5.27222 3.63051, 5.22274 3.66875, 5.17326 3.70743, 5.12153 3.84373, 5.0671 4.07854 L 2.9691 12.1899 C 2.92951 12.3536, 2.90972 12.471, 2.90972 12.5425 L 2.90972 12.6001 C 2.92951 12.6199, 3.06086 12.6316, 3.30287 12.6361 L 4.89662 12.6361 C 5.38108 12.6365, 5.8642 12.5277, 6.34596 12.3091, 6.82818 12.0909, 7.25912 11.7873, 7.63967 11.3982, 8.07466 10.9474, 8.40843 10.445, 8.64054 9.89079, 8.87265 9.3366, 9.05798 8.77656, 9.19608 8.20977, 9.34947 7.62005, 9.45563 7.03707, 9.51501 6.46084, 9.52491 6.32679, 9.52985 6.19724, 9.52985 6.07219, 9.52985 5.65025, 9.45833 5.2571, 9.31484 4.89184 Z" stroke="none" fill="#000000" />
			<rect />
		</svg>
	</g>
	<g transform="matrix(1 0 -0 1 371.59 161.113)">
		<svg width="39.0369186" height="32.9612846">
			<defs />
			<path d="M 7.79621 11.0455 C 7.72739 11.31, 7.63607 11.5799, 7.52227 11.8556, 7.40891 12.1318, 7.26541 12.3824, 7.09223 12.6078, 6.9195 12.8336, 6.72157 13.0216, 6.49936 13.1723, 6.27714 13.3234, 6.02254 13.399, 5.73555 13.399, 5.48859 13.399, 5.27492 13.3464, 5.09454 13.2407, 4.91416 13.1354, 4.77966 12.9964, 4.69059 12.8237, 4.60153 12.6509, 4.5498 12.4494, 4.5345 12.2187 L 4.5345 12.1611 C 4.5345 11.9551, 4.57904 11.7441, 4.6681 11.5277, 4.83139 11.1107, 4.98478 10.6933, 5.12783 10.2758, 5.27087 9.8584, 5.39952 9.44096, 5.51288 9.02307, 5.58215 8.74057, 5.63164 8.46708, 5.66132 8.20258, 5.67122 8.12611, 5.67617 8.04469, 5.67617 7.95787, 5.67617 7.79503, 5.65638 7.64659, 5.61679 7.51164, 5.52817 7.2098, 5.3406 7.05866, 5.05361 7.05821, 4.5498 7.05866, 4.11706 7.2305, 3.7563 7.57327, 3.39554 7.91649, 3.07706 8.37576, 2.79996 8.95109 L 1.78425 12.8664 C 1.74016 13.0445, 1.64975 13.1772, 1.5139 13.2659, 1.37805 13.3549, 1.24085 13.399, 1.10231 13.399, 0.954313 13.399, 0.840506 13.3513, 0.761336 13.2551, 0.69746 13.193, 0.665073 13.1066, 0.665073 12.996, 0.665073 12.9532, 0.670021 12.9006, 0.679917 12.8376 L 1.82113 8.38251 C 1.9003 8.07123, 1.93989 7.80223, 1.93989 7.57642 L 1.93989 7.40368 C 1.9156 7.17382, 1.79954 7.05866, 1.59172 7.05821, 1.374 7.05866, 1.19227 7.2341, 1.04653 7.58406, 0.900783 7.93448, 0.759087 8.39016, 0.62054 8.95109, 0.56611 9.08109, 0.474795 9.14812, 0.346144 9.15262 L 0.175659 9.15262 C 0.0569039 9.15307, -0.00247356 9.09324, -0.00247356 8.97268 L -0.00247356 8.9223 C 0.0569039 8.69739, 0.123928 8.45133, 0.19815 8.18503, 0.272372 7.91874, 0.371334 7.66683, 0.494588 7.42932, 0.618291 7.19181, 0.773931 6.99029, 0.96151 6.82475, 1.14954 6.65921, 1.3839 6.57645, 1.66549 6.57599, 2.07124 6.57645, 2.39017 6.69655, 2.62228 6.93631, 2.85439 7.17652, 2.97539 7.41133, 2.98529 7.64119, 3.19311 7.37309, 3.4819 7.12839, 3.85256 6.90752, 4.22322 6.6871, 4.65326 6.57645, 5.14222 6.57599, 5.43416 6.57645, 5.70631 6.63042, 5.95821 6.73838, 6.21012 6.84634, 6.40534 7.02043, 6.54344 7.25974, 6.69188 7.50489, 6.7661 7.78064, 6.7661 8.08742 L 6.7661 8.12341 C 6.75621 8.43109, 6.71168 8.74057, 6.63251 9.05185, 6.51915 9.48909, 6.38825 9.91867, 6.2398 10.3406, 6.09136 10.763, 5.93572 11.1899, 5.77243 11.6213, 5.62444 12.0104, 5.55022 12.3365, 5.55022 12.6001, 5.55022 12.8165, 5.64198 12.9244, 5.82461 12.924, 5.99285 12.9244, 6.14579 12.8741, 6.28434 12.7733, 6.42288 12.6725, 6.54749 12.5371, 6.6586 12.3666, 6.7697 12.1966, 6.86957 11.9951, 6.95863 11.7621, 7.0477 11.5295, 7.12192 11.2812, 7.18085 11.0167, 7.24022 10.8971, 7.32434 10.8372, 7.4332 10.8368 L 7.61853 10.8368 C 7.73729 10.8372, 7.79621 10.8899, 7.79621 10.9951 L 7.79621 11.0455 Z" stroke="none" fill="#000000" />
			<path d="M 1.86424 2.51203 C 1.35514 2.49591, 0.859898 2.48785, 0.378257 2.48785, -0.103133 2.48785, -0.598376 2.49591, -1.10748 2.51203 L -1.10748 2.16541, -0.82106 2.16541 C -0.72987 2.16566, -0.643971 2.1644, -0.563866 2.16163, -0.483508 2.15911, -0.407433 2.15231, -0.335388 2.14148, -0.263344 2.1309, -0.201123 2.12007, -0.148727 2.10898, -0.104392 2.10117, -0.067866 2.07649, -0.0388969 2.03467, -0.0096761 1.99311, 0.00468242 1.94676, 0.00468242 1.89537 L 0.00468242 -2.64697 C -0.133361 -2.57946, -0.303648 -2.52832, -0.505676 -2.49356, -0.707703 -2.45855, -0.928875 -2.44116, -1.1697 -2.44142 L -1.1697 -2.78401 C -0.837685 -2.78375, -0.531118 -2.8233, -0.250245 -2.90265, 0.0306287 -2.98175, 0.273464 -3.13037, 0.478011 -3.34827 L 0.606734 -3.34827 C 0.697923 -3.34802, 0.743518 -3.30368, 0.743518 -3.21527 L 0.743518 1.89537 C 0.743518 1.94928, 0.757372 1.99638, 0.785082 2.03669, 0.812791 2.07699, 0.853096 2.10117, 0.905492 2.10898, 0.949827 2.12007, 1.00676 2.1309, 1.07578 2.14148, 1.1448 2.15231, 1.22289 2.15911, 1.31005 2.16163, 1.39721 2.1644, 1.48235 2.16566, 1.56548 2.16541 L 1.86424 2.16541, 1.86424 2.51203 Z" stroke="none" fill="#000000" transform="matrix(1.12 0 0 1 9.73391 12.8121)" />
			<rect />
		</svg>
	</g>
	<g transform="matrix(1 0 -0 1 373.51 207.539)">
		<svg width="27.073843" height="26.9690266">
			<defs />
			<path d="M 7.79621 11.0455 C 7.72739 11.31, 7.63607 11.5799, 7.52227 11.8556, 7.40891 12.1318, 7.26541 12.3824, 7.09223 12.6078, 6.9195 12.8336, 6.72157 13.0216, 6.49936 13.1723, 6.27714 13.3234, 6.02254 13.399, 5.73555 13.399, 5.48859 13.399, 5.27492 13.3464, 5.09454 13.2407, 4.91416 13.1354, 4.77966 12.9964, 4.69059 12.8237, 4.60153 12.6509, 4.5498 12.4494, 4.5345 12.2187 L 4.5345 12.1611 C 4.5345 11.9551, 4.57904 11.7441, 4.6681 11.5277, 4.83139 11.1107, 4.98478 10.6933, 5.12783 10.2758, 5.27087 9.8584, 5.39952 9.44096, 5.51288 9.02307, 5.58215 8.74057, 5.63164 8.46708, 5.66132 8.20258, 5.67122 8.12611, 5.67617 8.04469, 5.67617 7.95787, 5.67617 7.79503, 5.65638 7.64659, 5.61679 7.51164, 5.52817 7.2098, 5.3406 7.05866, 5.05361 7.05821, 4.5498 7.05866, 4.11706 7.2305, 3.7563 7.57327, 3.39554 7.91649, 3.07706 8.37576, 2.79996 8.95109 L 1.78425 12.8664 C 1.74016 13.0445, 1.64975 13.1772, 1.5139 13.2659, 1.37805 13.3549, 1.24085 13.399, 1.10231 13.399, 0.954313 13.399, 0.840506 13.3513, 0.761336 13.2551, 0.69746 13.193, 0.665073 13.1066, 0.665073 12.996, 0.665073 12.9532, 0.670021 12.9006, 0.679917 12.8376 L 1.82113 8.38251 C 1.9003 8.07123, 1.93989 7.80223, 1.93989 7.57642 L 1.93989 7.40368 C 1.9156 7.17382, 1.79954 7.05866, 1.59172 7.05821, 1.374 7.05866, 1.19227 7.2341, 1.04653 7.58406, 0.900783 7.93448, 0.759087 8.39016, 0.62054 8.95109, 0.56611 9.08109, 0.474795 9.14812, 0.346144 9.15262 L 0.175659 9.15262 C 0.0569039 9.15307, -0.00247356 9.09324, -0.00247356 8.97268 L -0.00247356 8.9223 C 0.0569039 8.69739, 0.123928 8.45133, 0.19815 8.18503, 0.272372 7.91874, 0.371334 7.66683, 0.494588 7.42932, 0.618291 7.19181, 0.773931 6.99029, 0.96151 6.82475, 1.14954 6.65921, 1.3839 6.57645, 1.66549 6.57599, 2.07124 6.57645, 2.39017 6.69655, 2.62228 6.93631, 2.85439 7.17652, 2.97539 7.41133, 2.98529 7.64119, 3.19311 7.37309, 3.4819 7.12839, 3.85256 6.90752, 4.22322 6.6871, 4.65326 6.57645, 5.14222 6.57599, 5.43416 6.57645, 5.70631 6.63042, 5.95821 6.73838, 6.21012 6.84634, 6.40534 7.02043, 6.54344 7.25974, 6.69188 7.50489, 6.7661 7.78064, 6.7661 8.08742 L 6.7661 8.12341 C 6.75621 8.43109, 6.71168 8.74057, 6.63251 9.05185, 6.51915 9.48909, 6.38825 9.91867, 6.2398 10.3406, 6.09136 10.763, 5.93572 11.1899, 5.77243 11.6213, 5.62444 12.0104, 5.55022 12.3365, 5.55022 12.6001, 5.55022 12.8165, 5.64198 12.9244, 5.82461 12.924, 5.99285 12.9244, 6.14579 12.8741, 6.28434 12.7733, 6.42288 12.6725, 6.54749 12.5371, 6.6586 12.3666, 6.7697 12.1966, 6.86957 11.9951, 6.95863 11.7621, 7.0477 11.5295, 7.12192 11.2812, 7.18085 11.0167, 7.24022 10.8971, 7.32434 10.8372, 7.4332 10.8368 L 7.61853 10.8368 C 7.73729 10.8372, 7.79621 10.8899, 7.79621 10.9951 L 7.79621 11.0455 Z" stroke="none" fill="#000000" />
			<rect />
		</svg>
	</g>
	<g transform="matrix(1 0 -0 1 371.248 253.086)">
		<svg width="41.9907646" height="32.9612846">
			<defs />
			<path d="M 7.79621 11.0455 C 7.72739 11.31, 7.63607 11.5799, 7.52227 11.8556, 7.40891 12.1318, 7.26541 12.3824, 7.09223 12.6078, 6.9195 12.8336, 6.72157 13.0216, 6.49936 13.1723, 6.27714 13.3234, 6.02254 13.399, 5.73555 13.399, 5.48859 13.399, 5.27492 13.3464, 5.09454 13.2407, 4.91416 13.1354, 4.77966 12.9964, 4.69059 12.8237, 4.60153 12.6509, 4.5498 12.4494, 4.5345 12.2187 L 4.5345 12.1611 C 4.5345 11.9551, 4.57904 11.7441, 4.6681 11.5277, 4.83139 11.1107, 4.98478 10.6933, 5.12783 10.2758, 5.27087 9.8584, 5.39952 9.44096, 5.51288 9.02307, 5.58215 8.74057, 5.63164 8.46708, 5.66132 8.20258, 5.67122 8.12611, 5.67617 8.04469, 5.67617 7.95787, 5.67617 7.79503, 5.65638 7.64659, 5.61679 7.51164, 5.52817 7.2098, 5.3406 7.05866, 5.05361 7.05821, 4.5498 7.05866, 4.11706 7.2305, 3.7563 7.57327, 3.39554 7.91649, 3.07706 8.37576, 2.79996 8.95109 L 1.78425 12.8664 C 1.74016 13.0445, 1.64975 13.1772, 1.5139 13.2659, 1.37805 13.3549, 1.24085 13.399, 1.10231 13.399, 0.954313 13.399, 0.840506 13.3513, 0.761336 13.2551, 0.69746 13.193, 0.665073 13.1066, 0.665073 12.996, 0.665073 12.9532, 0.670021 12.9006, 0.679917 12.8376 L 1.82113 8.38251 C 1.9003 8.07123, 1.93989 7.80223, 1.93989 7.57642 L 1.93989 7.40368 C 1.9156 7.17382, 1.79954 7.05866, 1.59172 7.05821, 1.374 7.05866, 1.19227 7.2341, 1.04653 7.58406, 0.900783 7.93448, 0.759087 8.39016, 0.62054 8.95109, 0.56611 9.08109, 0.474795 9.14812, 0.346144 9.15262 L 0.175659 9.15262 C 0.0569039 9.15307, -0.00247356 9.09324, -0.00247356 8.97268 L -0.00247356 8.9223 C 0.0569039 8.69739, 0.123928 8.45133, 0.19815 8.18503, 0.272372 7.91874, 0.371334 7.66683, 0.494588 7.42932, 0.618291 7.19181, 0.773931 6.99029, 0.96151 6.82475, 1.14954 6.65921, 1.3839 6.57645, 1.66549 6.57599, 2.07124 6.57645, 2.39017 6.69655, 2.62228 6.93631, 2.85439 7.17652, 2.97539 7.41133, 2.98529 7.64119, 3.19311 7.37309, 3.4819 7.12839, 3.85256 6.90752, 4.22322 6.6871, 4.65326 6.57645, 5.14222 6.57599, 5.43416 6.57645, 5.70631 6.63042, 5.95821 6.73838, 6.21012 6.84634, 6.40534 7.02043, 6.54344 7.25974, 6.69188 7.50489, 6.7661 7.78064, 6.7661 8.08742 L 6.7661 8.12341 C 6.75621 8.43109, 6.71168 8.74057, 6.63251 9.05185, 6.51915 9.48909, 6.38825 9.91867, 6.2398 10.3406, 6.09136 10.763, 5.93572 11.1899, 5.77243 11.6213, 5.62444 12.0104, 5.55022 12.3365, 5.55022 12.6001, 5.55022 12.8165, 5.64198 12.9244, 5.82461 12.924, 5.99285 12.9244, 6.14579 12.8741, 6.28434 12.7733, 6.42288 12.6725, 6.54749 12.5371, 6.6586 12.3666, 6.7697 12.1966, 6.86957 11.9951, 6.95863 11.7621, 7.0477 11.5295, 7.12192 11.2812, 7.18085 11.0167, 7.24022 10.8971, 7.32434 10.8372, 7.4332 10.8368 L 7.61853 10.8368 C 7.73729 10.8372, 7.79621 10.8899, 7.79621 10.9951 L 7.79621 11.0455 Z" stroke="none" fill="#000000" />
			<path d="M 1.87894 2.51203 L -1.4996 2.51203, -1.4996 2.29035 C -1.4996 2.27448, -1.49129 2.2503, -1.47466 2.21781 L -0.1174 0.742655 C 0.0433152 0.565566, 0.205793 0.384195, 0.370539 0.198793, 0.535284 0.0133917, 0.682396 -0.17604, 0.812379 -0.369503, 0.942362 -0.562965, 1.04615 -0.762474, 1.12373 -0.968027, 1.20132 -1.17358, 1.23986 -1.38921, 1.23986 -1.61517, 1.23986 -1.80561, 1.21517 -1.98371, 1.1653 -2.14895, 1.11542 -2.3142, 1.04363 -2.4593, 0.949415 -2.58425, 0.855203 -2.70919, 0.737563 -2.80995, 0.596497 -2.88653, 0.455431 -2.96311, 0.292197 -3.0014, 0.106795 -3.00165, -0.169796 -3.0014, -0.414143 -2.91877, -0.625743 -2.75353, -0.837342 -2.58828, -0.977905 -2.40615, -1.04718 -2.20765, -1.06078 -2.20211, -1.03861 -2.19934, -0.980676 -2.19959 L -0.910143 -2.19959 C -0.827014 -2.18044, -0.755221 -2.15147, -0.694261 -2.11268, -0.6333 -2.07364, -0.582163 -2.01998, -0.540599 -1.95146, -0.499035 -1.88294, -0.478379 -1.80032, -0.478379 -1.70384, -0.478379 -1.54237, -0.530775 -1.41868, -0.636071 -1.33278, -0.741367 -1.24663, -0.859006 -1.20381, -0.988989 -1.20406, -1.11343 -1.20381, -1.22956 -1.24663, -1.33762 -1.33278, -1.44544 -1.41868, -1.4996 -1.54237, -1.4996 -1.70384, -1.4996 -1.92929, -1.45526 -2.14291, -1.36659 -2.34443, -1.27792 -2.54596, -1.15776 -2.72053, -1.00561 -2.86839, -0.853464 -3.01601, -0.673604 -3.13289, -0.466035 -3.21904, -0.258466 -3.30494, -0.0383018 -3.34802, 0.193954 -3.34827, 0.481629 -3.34802, 0.745372 -3.3057, 0.984681 -3.22106, 1.22399 -3.13642, 1.42803 -3.01475, 1.59681 -2.8563, 1.76558 -2.6976, 1.89783 -2.51422, 1.99331 -2.30614, 2.08878 -2.09782, 2.13639 -1.86758, 2.13639 -1.61517, 2.13639 -1.33556, 2.07291 -1.07811, 1.94544 -0.843083, 1.81823 -0.607804, 1.66054 -0.392174, 1.47237 -0.196193, 1.2842 4.07696e-005, 1.08418 0.184687, 0.872584 0.357997, 0.660985 0.531307, 0.469285 0.699831, 0.297738 0.863569 L -0.656979 1.76236, 0.592466 1.76236 C 0.766784 1.76262, 0.929514 1.76136, 1.08015 1.75858, 1.23104 1.75607, 1.35901 1.75052, 1.46406 1.74246, 1.56935 1.7344, 1.62326 1.72911, 1.62578 1.72609, 1.64795 1.70745, 1.66885 1.66991, 1.68825 1.61349, 1.70765 1.55706, 1.72553 1.49056, 1.74216 1.41398, 1.75878 1.3374, 1.77541 1.25956, 1.79203 1.18021, 1.80866 1.10111, 1.82377 1.01421, 1.83763 0.919995 L 2.1447 0.919995 Z" stroke="none" fill="#000000" transform="matrix(1.12 0 0 1 10.0662 12.8121)" />
			<rect />
		</svg>
	</g>
	<path d="M 0 -66.8029 L 0 66.8027" fill="none" stroke="#000000" stroke-width="2.20000005" stroke-linecap="round" stroke-linejoin="round" marker-start="url(#CustomMarker-10)" marker-end="url(#CustomMarker-11)" transform="matrix(0.454545 0 0 0.454545 319.502 216.345)" />
	<g transform="matrix(1 0 -0 1 306.097 207.539)">
		<svg width="27.073843" height="38.9535408">
			<defs />
			<path d="M 4.82532 11.5925 C 4.7367 11.9002, 4.69217 12.1687, 4.69217 12.3986, 4.69217 12.4616, 4.69712 12.5214, 4.70701 12.5785, 4.73175 12.8093, 4.84781 12.9244, 5.05518 12.924, 5.15909 12.9244, 5.2567 12.8812, 5.34802 12.7949, 5.43979 12.7085, 5.5239 12.5803, 5.60037 12.4098, 5.67685 12.2398, 5.74972 12.0356, 5.81899 11.7981, 5.88827 11.5606, 5.95979 11.3028, 6.03356 11.0239, 6.06325 10.8998, 6.14737 10.8372, 6.28591 10.8368 L 6.4564 10.8368 C 6.58505 10.8372, 6.64893 10.8899, 6.64893 10.9951 L 6.64893 11.0455 C 6.59 11.2812, 6.52342 11.5331, 6.4492 11.8017, 6.37498 12.0707, 6.27602 12.3199, 6.15231 12.5502, 6.02906 12.7805, 5.87342 12.9798, 5.68539 13.1475, 5.49781 13.3153, 5.263 13.399, 4.98096 13.399, 4.6058 13.399, 4.30532 13.2951, 4.0804 13.0864, 3.85549 12.8777, 3.72594 12.6653, 3.6913 12.449, 3.52306 12.6415, 3.27251 12.848, 2.93874 13.0684, 2.60541 13.2888, 2.2532 13.399, 1.88254 13.399, 1.49209 13.399, 1.16461 13.3009, 0.900111 13.1044, 0.635611 12.9078, 0.429589 12.6604, 0.281146 12.3626, 0.103463 12.0081, 0.00944906 11.6267, -0.000447214 11.2182 L -0.000447214 11.1103 C -0.000447214 10.7315, 0.051733 10.3528, 0.155194 9.9731, 0.273949 9.55611, 0.439486 9.14362, 0.651805 8.73562, 0.864574 8.32808, 1.14617 7.94887, 1.49703 7.59801, 1.78402 7.31057, 2.1115 7.06856, 2.47946 6.87153, 2.84742 6.67496, 3.22168 6.57645, 3.60223 6.57599, 3.93331 6.57645, 4.20276 6.66416, 4.41013 6.83915, 4.61795 7.01458, 4.74885 7.16167, 4.80328 7.28133 L 5.60397 4.1865 C 5.64356 4.02861, 5.66785 3.90851, 5.67774 3.82664 L 5.67774 3.81944 C 5.67774 3.77176, 5.66065 3.73577, 5.62601 3.71148, 5.58193 3.6737, 5.47802 3.64716, 5.31473 3.63276, 5.15189 3.61837, 4.96387 3.61117, 4.7511 3.61072, 4.613 3.61117, 4.54373 3.5464, 4.54373 3.4164 L 4.54373 3.35882, 4.58826 3.23646 C 4.61795 3.12671, 4.70701 3.05473, 4.85501 3.02055 L 6.26342 2.90539, 6.80457 2.86221, 6.83426 2.86221 C 6.89363 2.86266, 6.94581 2.88425, 6.9899 2.92698, 7.00519 2.97061, 7.01239 3.01155, 7.01239 3.04933 L 7.01239 3.09972 Z M 4.52888 8.3969 C 4.50909 8.31099, 4.492 8.22102, 4.47715 8.12746, 4.46231 8.03389, 4.43982 7.94168, 4.41013 7.84991, 4.33141 7.625, 4.21895 7.43652, 4.0732 7.28538, 3.92746 7.13423, 3.74303 7.05866, 3.52081 7.05821, 3.31344 7.05866, 3.10832 7.13333, 2.90545 7.28178, 2.70303 7.43067, 2.5177 7.6223, 2.34946 7.85711, 2.1124 8.18863, 1.93472 8.5332, 1.81596 8.89037, 1.69721 9.24798, 1.58835 9.62089, 1.48939 10.0091, 1.39087 10.3932, 1.30945 10.7653, 1.24468 11.1247, 1.20554 11.3073, 1.18575 11.48, 1.18575 11.6429, 1.18575 11.8161, 1.20554 11.9838, 1.24468 12.1467, 1.28966 12.3725, 1.36973 12.5587, 1.48579 12.7049, 1.60184 12.8516, 1.76378 12.9244, 1.97115 12.924, 2.19877 12.9244, 2.42728 12.8453, 2.65714 12.6869, 2.88701 12.5286, 3.10067 12.3343, 3.29815 12.1035, 3.37732 12.0081, 3.45289 11.9159, 3.52441 11.8268, 3.59639 11.7382, 3.65936 11.6433, 3.71334 11.5421 L 4.52888 8.3969 Z" stroke="none" fill="#000000" />
			<rect />
		</svg>
	</g>
</svg>
