<?xml version="1.0"?>
<svg xmlns="http://www.w3.org/2000/svg" xmlns:xlink="http://www.w3.org/1999/xlink" width="358.333313" height="136.666656">
	<defs>
		<marker id="CustomMarker-01" markerUnits="strokeWidth" markerWidth="15.000001" markerHeight="9" viewBox="-15 -4.5 15 9" orient="auto-start-reverse">
			<path d="M 0 -0 L -10 -3, -8 -0.5, -8 0.5, -10 3 Z" fill="#000000" stroke="#000000" stroke-linejoin="round" />
		</marker>
		<marker id="CustomMarker-02" markerUnits="strokeWidth" markerWidth="15.000001" markerHeight="9" viewBox="-15 -4.5 15 9" orient="auto-start-reverse">
			<path d="M 0 -0 L -10 -3, -8 -0.5, -8 0.5, -10 3 Z" fill="#0006BF" stroke="#0006BF" stroke-linejoin="round" />
		</marker>
		<marker id="CustomMarker-03" markerUnits="strokeWidth" markerWidth="15.000001" markerHeight="9" viewBox="-15 -4.5 15 9" orient="auto-start-reverse">
			<path d="M 0 -0 L -10 -3, -8 -0.5, -8 0.5, -10 3 Z" fill="#0006BF" stroke="#0006BF" stroke-linejoin="round" />
		</marker>
		<marker id="CustomMarker-04" markerUnits="strokeWidth" markerWidth="15.000001" markerHeight="9" viewBox="-15 -4.5 15 9" orient="auto-start-reverse">
			<path d="M 0 -0 L -10 -3, -8 -0.5, -8 0.5, -10 3 Z" fill="#0006BF" stroke="#0006BF" stroke-linejoin="round" />
		</marker>
		<marker id="CustomMarker-05" markerUnits="strokeWidth" markerWidth="15.000001" markerHeight="6" viewBox="-15 -3 15 6" orient="auto-start-reverse">
			<path d="M 0 -0 L -10 -2, -10 -0.5, -10 0.5, -10 2 Z" fill="#000000" stroke="#000000" stroke-linejoin="round" />
		</marker>
		<marker id="CustomMarker-06" markerUnits="strokeWidth" markerWidth="15.000001" markerHeight="6" viewBox="-15 -3 15 6" orient="auto-start-reverse">
			<path d="M 0 -0 L -10 -2, -10 -0.5, -10 0.5, -10 2 Z" fill="#000000" stroke="#000000" stroke-linejoin="round" />
		</marker>
		<marker id="CustomMarker-07" markerUnits="strokeWidth" markerWidth="15.000001" markerHeight="6" viewBox="-15 -3 15 6" orient="auto-start-reverse">
			<path d="M 0 -0 L -10 -2, -10 -0.5, -10 0.5, -10 2 Z" fill="#000000" stroke="#000000" stroke-linejoin="round" />
		</marker>
		<marker id="CustomMarker-08" markerUnits="strokeWidth" markerWidth="15.000001" markerHeight="6" viewBox="-15 -3 15 6" orient="auto-start-reverse">
			<path d="M 0 -0 L -10 -2, -10 -0.5, -10 0.5, -10 2 Z" fill="#000000" stroke="#000000" stroke-linejoin="round" />
		</marker>
		<marker id="CustomMarker-09" markerUnits="strokeWidth" markerWidth="15.000001" markerHeight="6" viewBox="-15 -3 15 6" orient="auto-start-reverse">
			<path d="M 0 -0 L -10 -2, -10 -0.5, -10 0.5, -10 2 Z" fill="#000000" stroke="#000000" stroke-linejoin="round" />
		</marker>
		<marker id="CustomMarker-10" markerUnits="strokeWidth" markerWidth="15.000001" markerHeight="6" viewBox="-15 -3 15 6" orient="auto-start-reverse">
			<path d="M 0 -0 L -10 -2, -10 -0.5, -10 0.5, -10 2 Z" fill="#000000" stroke="#000000" stroke-linejoin="round" />
		</marker>
	</defs>
	<rect x="-0" y="-0" width="358.333313" height="136.666656" stroke="none" fill="#FFFFFF" />
	<path d="M -382.012 0 L 382.012 0" fill="none" stroke="#000000" stroke-width="2.4000001" stroke-linecap="round" stroke-linejoin="round" marker-end="url(#CustomMarker-01)" transform="matrix(0.416667 0 0 0.416667 180.774 108.316)" />
	<g transform="matrix(1 0 -0 1 336.343 106.51)">
		<svg width="27.073843" height="26.9690266">
			<defs />
			<path d="M 7.17073 7.77794 C 7.11675 7.99431, 7.00654 8.15624, 6.841 8.2642, 6.67547 8.37216, 6.50903 8.42614, 6.34079 8.42569, 6.16806 8.42614, 6.02456 8.37081, 5.91076 8.26015, 5.82709 8.17919, 5.78255 8.07348, 5.77716 7.94348, 5.77716 7.8913, 5.78705 7.82382, 5.80685 7.74195, 5.86127 7.56022, 5.94539 7.42212, 6.05875 7.32856, 6.17256 7.23499, 6.25173 7.18102, 6.29626 7.16617, 6.20269 7.09465, 6.00972 7.05866, 5.71778 7.05821, 5.46093 7.05866, 5.23106 7.19181, 5.02864 7.45811, 4.82622 7.72441, 4.67508 8.04469, 4.57611 8.4185 L 3.89417 11.0527 C 3.8249 11.3172, 3.77317 11.5691, 3.73853 11.8084, 3.71874 11.8903, 3.70884 11.9622, 3.70884 12.0243, 3.70884 12.1737, 3.73358 12.3149, 3.78306 12.449, 3.83255 12.5934, 3.90677 12.7085, 4.00573 12.7949, 4.10469 12.8812, 4.23064 12.9244, 4.38359 12.924, 4.58151 12.9244, 4.77179 12.8732, 4.95442 12.7697, 5.1375 12.6667, 5.30574 12.5277, 5.45868 12.3523, 5.61162 12.1773, 5.74747 11.9735, 5.86622 11.7405, 5.98498 11.5079, 6.07854 11.2691, 6.14782 11.0239, 6.1775 10.8998, 6.26162 10.8372, 6.39972 10.8368 L 6.57021 10.8368 C 6.69886 10.8372, 6.76318 10.8854, 6.76318 10.9807, 6.76318 11.01, 6.75598 11.0365, 6.74114 11.0599, 6.67187 11.3482, 6.55941 11.6325, 6.40377 11.9132, 6.24813 12.1939, 6.06685 12.4422, 5.85903 12.6581, 5.6512 12.8741, 5.41549 13.0517, 5.15099 13.1903, 4.88649 13.3297, 4.60355 13.399, 4.30217 13.399, 3.99583 13.399, 3.73133 13.3333, 3.50912 13.2011, 3.2869 13.0697, 3.10607 12.8979, 2.96752 12.6865, 2.92344 12.6343, 2.8888 12.5803, 2.86406 12.525, 2.83932 12.4701, 2.83168 12.4616, 2.84157 12.4993, 2.72327 12.6964, 2.53569 12.8956, 2.27839 13.0972, 2.02153 13.2987, 1.7251 13.399, 1.38862 13.399, 1.20105 13.399, 1.01572 13.3752, 0.832635 13.327, 0.650005 13.2793, 0.490315 13.2051, 0.354467 13.1044, 0.218619 13.0036, 0.116058 12.8812, 0.046784 12.7369, 0.012597 12.6509, -0.00449651 12.5574, -0.00494634 12.4562, -0.00449651 12.3846, 0.00539973 12.3005, 0.0247424 12.2043, 0.0791717 11.9888, 0.190279 11.8268, 0.358516 11.7189, 0.526752 11.6109, 0.694538 11.557, 0.862324 11.5565, 1.03551 11.557, 1.18395 11.6123, 1.3072 11.722, 1.39132 11.8039, 1.43316 11.9096, 1.43316 12.0387, 1.43316 12.1062, 1.42326 12.1737, 1.40347 12.2402, 1.35939 12.4085, 1.27887 12.5443, 1.16281 12.6473, 1.04675 12.7508, 0.963536 12.807, 0.914054 12.816, 1.00807 12.8934, 1.19835 12.9294, 1.48489 12.924, 1.74219 12.9244, 1.9743 12.7904, 2.18167 12.5214, 2.38949 12.2528, 2.54019 11.9312, 2.6342 11.5565 L 3.32334 8.90791 C 3.39261 8.6587, 3.44704 8.414, 3.48663 8.17379, 3.49652 8.09732, 3.50147 8.02534, 3.50147 7.95787, 3.50147 7.80943, 3.47943 7.67043, 3.43445 7.54043, 3.38542 7.39693, 3.30894 7.28088, 3.20503 7.19181, 3.10112 7.10319, 2.97247 7.05866, 2.81953 7.05821, 2.62161 7.05866, 2.42998 7.11039, 2.24465 7.2134, 2.05932 7.31686, 1.89018 7.45451, 1.73724 7.62725, 1.5843 7.79998, 1.44845 8.0006, 1.3297 8.22822, 1.21094 8.45628, 1.12457 8.69739, 1.0697 8.95109, 1.01572 9.08109, 0.924401 9.14812, 0.795749 9.15262 L 0.632461 9.15262 C 0.514156 9.15307, 0.454779 9.09324, 0.454779 8.97268 L 0.454779 8.9223 C 0.529001 8.62542, 0.642807 8.33618, 0.795749 8.05548, 0.948691 7.77479, 1.13177 7.52648, 1.34409 7.31057, 1.55686 7.09465, 1.79437 6.91831, 2.05617 6.78157, 2.31797 6.64482, 2.60226 6.57645, 2.90815 6.57599, 3.20503 6.57645, 3.46683 6.64122, 3.694 6.77077, 3.92161 6.90032, 4.10694 7.07306, 4.24999 7.28852, 4.27968 7.3416, 4.30712 7.39828, 4.33186 7.45811, 4.3566 7.51839, 4.36379 7.53368, 4.3539 7.50444, 4.4776 7.29392, 4.66788 7.08655, 4.92473 6.88233, 5.18203 6.67856, 5.47577 6.57645, 5.80685 6.57599, 5.99487 6.57645, 6.1811 6.59939, 6.36643 6.64482, 6.55176 6.6907, 6.7128 6.76357, 6.84865 6.86434, 6.9845 6.9651, 7.08481 7.0897, 7.14869 7.23814, 7.18332 7.32496, 7.20042 7.42347, 7.20042 7.53323, 7.20042 7.60565, 7.19052 7.68707, 7.17073 7.77794 Z" stroke="none" fill="#000000" />
			<rect />
		</svg>
	</g>
	<g transform="matrix(1 0 -0 1 11.6239 110.51)">
		<svg width="32.9815331" height="38.9535408">
			<defs />
			<path d="M 9.63557 8.18099 C 9.45743 8.87732, 9.16954 9.54891, 8.77189 10.1967, 8.37424 10.8444, 7.87359 11.4368, 7.27081 11.9739, 6.72742 12.4589, 6.13275 12.8444, 5.48769 13.1296, 4.84264 13.4147, 4.19668 13.5573, 3.54938 13.5573, 2.89713 13.5573, 2.3173 13.4138, 1.81079 13.126, 1.30428 12.8381, 0.900336 12.4494, 0.59895 11.9595, 0.267876 11.418, 0.0775981 10.8179, 0.0281169 10.1602, 0.00832438 10.0023, -0.00157177 9.844, -0.00157177 9.68521, -0.00157177 9.1913, 0.0627537 8.68029, 0.190955 8.1522, 0.378984 7.44731, 0.669123 6.76267, 1.06227 6.09783, 1.45542 5.43343, 1.95788 4.83246, 2.57055 4.29446, 3.11439 3.81045, 3.70862 3.42044, 4.35367 3.12536, 4.99873 2.83027, 5.64963 2.68272, 6.30683 2.68227, 6.95908 2.68272, 7.53621 2.83162, 8.03777 3.12895, 8.53978 3.42674, 8.94103 3.81989, 9.24242 4.30886, 9.57349 4.85135, 9.76871 5.45592, 9.82809 6.12257, 9.83799 6.2863, 9.84294 6.44689, 9.84294 6.60478, 9.84294 7.11849, 9.77411 7.64389, 9.63557 8.18099 Z M 8.13808 4.55356 C 7.97525 4.15097, 7.73054 3.82349, 7.40396 3.57159, 7.07784 3.31968, 6.67749 3.19373, 6.20292 3.19328, 5.73375 3.19373, 5.26683 3.32238, 4.80215 3.57878, 4.33793 3.83564, 3.92274 4.16761, 3.55658 4.57516, 3.09685 5.06997, 2.73384 5.60616, 2.46709 6.18419, 2.20034 6.76267, 1.99252 7.3488, 1.84408 7.94348, 1.67134 8.59168, 1.56518 9.22279, 1.5256 9.83636, 1.5157 9.95196, 1.51075 10.0671, 1.51075 10.1818, 1.51075 10.6622, 1.58992 11.1323, 1.74781 11.5925, 1.90121 12.0009, 2.13602 12.3428, 2.45225 12.6185, 2.76848 12.8947, 3.16388 13.0324, 3.638 13.0319, 4.12741 13.0324, 4.60603 12.892, 5.07295 12.6114, 5.53987 12.3307, 5.95866 11.9838, 6.32932 11.5709, 6.80884 11.0149, 7.18175 10.427, 7.4485 9.80802, 7.7157 9.18905, 7.93296 8.55794, 8.10075 7.91469, 8.25414 7.31551, 8.3504 6.72534, 8.38999 6.14416 L 8.38999 5.89225 C 8.38999 5.41274, 8.30632 4.96651, 8.13808 4.55356 Z" stroke="none" fill="#000000" />
			<rect />
		</svg>
	</g>
	<path d="M -64.218 77.6404 L 64.2183 -77.6396" fill="none" stroke="#0006BF" stroke-width="2.4000001" stroke-linecap="round" stroke-linejoin="round" marker-end="url(#CustomMarker-02)" transform="matrix(0.416667 0 0 0.416667 48.3602 75.9654)" />
	<path d="M -191.006 41.8799 L 191.005 -41.88" fill="none" stroke="#0006BF" stroke-width="2.4000001" stroke-linecap="round" stroke-linejoin="round" marker-end="url(#CustomMarker-03)" transform="matrix(0.416667 0 0 0.416667 101.189 90.8656)" />
	<path d="M -255.224 119.52 L 255.224 -119.52" fill="none" stroke="#0006BF" stroke-width="2.4000001" stroke-linecap="round" stroke-linejoin="round" marker-end="url(#CustomMarker-04)" transform="matrix(0.416667 0 0 0.416667 127.946 58.5155)" />
	<path d="M -191.006 41.8801 L 191.005 -41.8802" fill="none" stroke="#0006BF" stroke-width="1.20000005" stroke-linecap="round" stroke-linejoin="round" stroke-dasharray="4.206, 2.994" transform="matrix(0.416667 0 0 0.416667 154.704 26.1656)" />
	<path d="M -64.2186 77.641 L 64.2174 -77.6402" fill="none" stroke="#0006BF" stroke-width="1.20000005" stroke-linecap="round" stroke-linejoin="round" stroke-dasharray="4.206, 2.994" transform="matrix(0.416667 0 0 0.416667 207.532 41.0652)" />
	<path d="M 0 -77.6396 L 0 77.6404" fill="none" stroke="#000000" stroke-width="1.20000005" stroke-linecap="round" stroke-linejoin="round" stroke-dasharray="4.206, 2.994" transform="matrix(0.416667 0 0 0.416667 75.1178 75.9654)" />
	<path d="M 0 -42.72 L 0 42.72" fill="none" stroke="#000000" stroke-width="1.20000005" stroke-linecap="round" stroke-linejoin="round" stroke-dasharray="4.206, 2.994" transform="matrix(0.416667 0 0 0.416667 180.774 90.5156)" />
	<path d="M 0 -119.52 L 0 119.52" fill="none" stroke="#000000" stroke-width="1.20000005" stroke-linecap="round" stroke-linejoin="round" stroke-dasharray="4.206, 2.994" transform="matrix(0.416667 0 0 0.416667 234.289 58.5157)" />
	<g transform="matrix(1 0 -0 1 147.891 81.6642)">
		<svg width="44.9446106" height="44.9458008">
			<defs />
			<path d="M 9.7415 13.0175 C 9.68752 13.1615, 9.5935 13.2335, 9.45991 13.2335, 8.96599 13.2047, 8.47388 13.1903, 7.98447 13.1903 L 7.73976 13.1903 C 7.16173 13.2002, 6.581 13.2146, 5.99802 13.2335, 5.86487 13.2335, 5.7929 13.1714, 5.783 13.0463 L 5.783 12.9888, 5.81269 12.8664 C 5.85228 12.7085, 5.94854 12.6316, 6.10148 12.6361, 6.28456 12.6365, 6.44785 12.6307, 6.5909 12.6185, 6.73439 12.6069, 6.87294 12.5646, 7.00609 12.4921, 7.05557 12.4688, 7.09785 12.435, 7.13204 12.3914, 7.15183 12.3536, 7.16443 12.3149, 7.16893 12.2762 L 7.16893 12.233, 6.99124 9.84355, 3.64047 9.84355, 2.46192 11.8588 C 2.39759 11.9744, 2.3652 12.0801, 2.3652 12.1755, 2.3652 12.2573, 2.38994 12.332, 2.43942 12.3986, 2.54828 12.5574, 2.75116 12.6365, 3.04714 12.6361, 3.18074 12.6365, 3.25226 12.6941, 3.26216 12.8088, 3.26216 12.8381, 3.25721 12.8691, 3.24732 12.9024 L 3.21808 13.0175 C 3.16365 13.1615, 3.06738 13.2335, 2.92884 13.2335, 2.47451 13.2146, 2.02468 13.2002, 1.57935 13.1903 L 1.37963 13.1903 C 0.994123 13.1903, 0.603671 13.2047, 0.208272 13.2335, 0.13405 13.2335, 0.0796205 13.2096, 0.0449836 13.1615, 0.0152949 13.1332, 0.000450552 13.0994, 0.000450552 13.0607, 0.000450552 13.0324, 0.00539869 13.0036, 0.0152949 12.9744 L 0.0449836 12.8664 C 0.0845686 12.7085, 0.181282 12.6316, 0.334224 12.6361, 0.492564 12.6365, 0.648204 12.6199, 0.801146 12.5862, 0.954538 12.5529, 1.09803 12.4926, 1.23118 12.4062, 1.36478 12.3199, 1.48848 12.2155, 1.60184 12.0931, 1.71565 11.9708, 1.81686 11.8327, 1.90593 11.6789 L 7.13924 2.71826 C 7.2283 2.58421, 7.34211 2.51944, 7.48066 2.52393 L 7.62145 2.52393 C 7.77979 2.52438, 7.86841 2.59861, 7.8882 2.74705 L 8.54045 12.1251 C 8.55035 12.2501, 8.5652 12.3451, 8.58499 12.4098, 8.60478 12.4746, 8.63942 12.5214, 8.6889 12.5497, 8.75817 12.5934, 8.87288 12.6185, 9.03347 12.6257, 9.19451 12.6329, 9.37579 12.6365, 9.57821 12.6361, 9.71676 12.6365, 9.78603 12.6941, 9.78603 12.8088, 9.78603 12.8381, 9.78108 12.8691, 9.77119 12.9024 Z M 6.63543 4.74069 L 3.99628 9.26058, 6.94671 9.26058 Z" stroke="none" fill="#000000" />
			<path d="M 1.86424 2.51203 C 1.35514 2.49591, 0.859898 2.48785, 0.378257 2.48785, -0.103133 2.48785, -0.598376 2.49591, -1.10748 2.51203 L -1.10748 2.16541, -0.82106 2.16541 C -0.72987 2.16566, -0.643971 2.1644, -0.563866 2.16163, -0.483508 2.15911, -0.407433 2.15231, -0.335388 2.14148, -0.263344 2.1309, -0.201123 2.12007, -0.148727 2.10898, -0.104392 2.10117, -0.067866 2.07649, -0.0388969 2.03467, -0.0096761 1.99311, 0.00468242 1.94676, 0.00468242 1.89537 L 0.00468242 -2.64697 C -0.133361 -2.57946, -0.303648 -2.52832, -0.505676 -2.49356, -0.707703 -2.45855, -0.928875 -2.44116, -1.1697 -2.44142 L -1.1697 -2.78401 C -0.837685 -2.78375, -0.531118 -2.8233, -0.250245 -2.90265, 0.0306287 -2.98175, 0.273464 -3.13037, 0.478011 -3.34827 L 0.606734 -3.34827 C 0.697923 -3.34802, 0.743518 -3.30368, 0.743518 -3.21527 L 0.743518 1.89537 C 0.743518 1.94928, 0.757372 1.99638, 0.785082 2.03669, 0.812791 2.07699, 0.853096 2.10117, 0.905492 2.10898, 0.949827 2.12007, 1.00676 2.1309, 1.07578 2.14148, 1.1448 2.15231, 1.22289 2.15911, 1.31005 2.16163, 1.39721 2.1644, 1.48235 2.16566, 1.56548 2.16541 L 1.86424 2.16541, 1.86424 2.51203 Z" stroke="none" fill="#000000" transform="matrix(1.12 0 0 1 11.7208 12.8121)" />
			<rect />
		</svg>
	</g>
	<g transform="matrix(1 0 -0 1 33.7699 55.6946)">
		<svg width="48.0461464" height="44.9458008">
			<defs />
			<path d="M 9.7415 13.0175 C 9.68752 13.1615, 9.5935 13.2335, 9.45991 13.2335, 8.96599 13.2047, 8.47388 13.1903, 7.98447 13.1903 L 7.73976 13.1903 C 7.16173 13.2002, 6.581 13.2146, 5.99802 13.2335, 5.86487 13.2335, 5.7929 13.1714, 5.783 13.0463 L 5.783 12.9888, 5.81269 12.8664 C 5.85228 12.7085, 5.94854 12.6316, 6.10148 12.6361, 6.28456 12.6365, 6.44785 12.6307, 6.5909 12.6185, 6.73439 12.6069, 6.87294 12.5646, 7.00609 12.4921, 7.05557 12.4688, 7.09785 12.435, 7.13204 12.3914, 7.15183 12.3536, 7.16443 12.3149, 7.16893 12.2762 L 7.16893 12.233, 6.99124 9.84355, 3.64047 9.84355, 2.46192 11.8588 C 2.39759 11.9744, 2.3652 12.0801, 2.3652 12.1755, 2.3652 12.2573, 2.38994 12.332, 2.43942 12.3986, 2.54828 12.5574, 2.75116 12.6365, 3.04714 12.6361, 3.18074 12.6365, 3.25226 12.6941, 3.26216 12.8088, 3.26216 12.8381, 3.25721 12.8691, 3.24732 12.9024 L 3.21808 13.0175 C 3.16365 13.1615, 3.06738 13.2335, 2.92884 13.2335, 2.47451 13.2146, 2.02468 13.2002, 1.57935 13.1903 L 1.37963 13.1903 C 0.994123 13.1903, 0.603671 13.2047, 0.208272 13.2335, 0.13405 13.2335, 0.0796205 13.2096, 0.0449836 13.1615, 0.0152949 13.1332, 0.000450552 13.0994, 0.000450552 13.0607, 0.000450552 13.0324, 0.00539869 13.0036, 0.0152949 12.9744 L 0.0449836 12.8664 C 0.0845686 12.7085, 0.181282 12.6316, 0.334224 12.6361, 0.492564 12.6365, 0.648204 12.6199, 0.801146 12.5862, 0.954538 12.5529, 1.09803 12.4926, 1.23118 12.4062, 1.36478 12.3199, 1.48848 12.2155, 1.60184 12.0931, 1.71565 11.9708, 1.81686 11.8327, 1.90593 11.6789 L 7.13924 2.71826 C 7.2283 2.58421, 7.34211 2.51944, 7.48066 2.52393 L 7.62145 2.52393 C 7.77979 2.52438, 7.86841 2.59861, 7.8882 2.74705 L 8.54045 12.1251 C 8.55035 12.2501, 8.5652 12.3451, 8.58499 12.4098, 8.60478 12.4746, 8.63942 12.5214, 8.6889 12.5497, 8.75817 12.5934, 8.87288 12.6185, 9.03347 12.6257, 9.19451 12.6329, 9.37579 12.6365, 9.57821 12.6361, 9.71676 12.6365, 9.78603 12.6941, 9.78603 12.8088, 9.78603 12.8381, 9.78108 12.8691, 9.77119 12.9024 Z M 6.63543 4.74069 L 3.99628 9.26058, 6.94671 9.26058 Z" stroke="none" fill="#000000" />
			<path d="M 1.87894 2.51203 L -1.4996 2.51203, -1.4996 2.29035 C -1.4996 2.27448, -1.49129 2.2503, -1.47466 2.21781 L -0.1174 0.742655 C 0.0433152 0.565566, 0.205793 0.384195, 0.370539 0.198793, 0.535284 0.0133917, 0.682396 -0.17604, 0.812379 -0.369503, 0.942362 -0.562965, 1.04615 -0.762474, 1.12373 -0.968027, 1.20132 -1.17358, 1.23986 -1.38921, 1.23986 -1.61517, 1.23986 -1.80561, 1.21517 -1.98371, 1.1653 -2.14895, 1.11542 -2.3142, 1.04363 -2.4593, 0.949415 -2.58425, 0.855203 -2.70919, 0.737563 -2.80995, 0.596497 -2.88653, 0.455431 -2.96311, 0.292197 -3.0014, 0.106795 -3.00165, -0.169796 -3.0014, -0.414143 -2.91877, -0.625743 -2.75353, -0.837342 -2.58828, -0.977905 -2.40615, -1.04718 -2.20765, -1.06078 -2.20211, -1.03861 -2.19934, -0.980676 -2.19959 L -0.910143 -2.19959 C -0.827014 -2.18044, -0.755221 -2.15147, -0.694261 -2.11268, -0.6333 -2.07364, -0.582163 -2.01998, -0.540599 -1.95146, -0.499035 -1.88294, -0.478379 -1.80032, -0.478379 -1.70384, -0.478379 -1.54237, -0.530775 -1.41868, -0.636071 -1.33278, -0.741367 -1.24663, -0.859006 -1.20381, -0.988989 -1.20406, -1.11343 -1.20381, -1.22956 -1.24663, -1.33762 -1.33278, -1.44544 -1.41868, -1.4996 -1.54237, -1.4996 -1.70384, -1.4996 -1.92929, -1.45526 -2.14291, -1.36659 -2.34443, -1.27792 -2.54596, -1.15776 -2.72053, -1.00561 -2.86839, -0.853464 -3.01601, -0.673604 -3.13289, -0.466035 -3.21904, -0.258466 -3.30494, -0.0383018 -3.34802, 0.193954 -3.34827, 0.481629 -3.34802, 0.745372 -3.3057, 0.984681 -3.22106, 1.22399 -3.13642, 1.42803 -3.01475, 1.59681 -2.8563, 1.76558 -2.6976, 1.89783 -2.51422, 1.99331 -2.30614, 2.08878 -2.09782, 2.13639 -1.86758, 2.13639 -1.61517, 2.13639 -1.33556, 2.07291 -1.07811, 1.94544 -0.843083, 1.81823 -0.607804, 1.66054 -0.392174, 1.47237 -0.196193, 1.2842 4.07696e-005, 1.08418 0.184687, 0.872584 0.357997, 0.660985 0.531307, 0.469285 0.699831, 0.297738 0.863569 L -0.656979 1.76236, 0.592466 1.76236 C 0.766784 1.76262, 0.929514 1.76136, 1.08015 1.75858, 1.23104 1.75607, 1.35901 1.75052, 1.46406 1.74246, 1.56935 1.7344, 1.62326 1.72911, 1.62578 1.72609, 1.64795 1.70745, 1.66885 1.66991, 1.68825 1.61349, 1.70765 1.55706, 1.72553 1.49056, 1.74216 1.41398, 1.75878 1.3374, 1.77541 1.25956, 1.79203 1.18021, 1.80866 1.10111, 1.82377 1.01421, 1.83763 0.919995 L 2.1447 0.919995 Z" stroke="none" fill="#000000" transform="matrix(1.12 0 0 1 12.0531 12.8121)" />
			<rect />
		</svg>
	</g>
	<g transform="matrix(1 0 -0 1 167.532 38.9097)">
		<svg width="32.9815331" height="38.9535408">
			<defs />
			<path d="M 9.7415 13.0175 C 9.68752 13.1615, 9.5935 13.2335, 9.45991 13.2335, 8.96599 13.2047, 8.47388 13.1903, 7.98447 13.1903 L 7.73976 13.1903 C 7.16173 13.2002, 6.581 13.2146, 5.99802 13.2335, 5.86487 13.2335, 5.7929 13.1714, 5.783 13.0463 L 5.783 12.9888, 5.81269 12.8664 C 5.85228 12.7085, 5.94854 12.6316, 6.10148 12.6361, 6.28456 12.6365, 6.44785 12.6307, 6.5909 12.6185, 6.73439 12.6069, 6.87294 12.5646, 7.00609 12.4921, 7.05557 12.4688, 7.09785 12.435, 7.13204 12.3914, 7.15183 12.3536, 7.16443 12.3149, 7.16893 12.2762 L 7.16893 12.233, 6.99124 9.84355, 3.64047 9.84355, 2.46192 11.8588 C 2.39759 11.9744, 2.3652 12.0801, 2.3652 12.1755, 2.3652 12.2573, 2.38994 12.332, 2.43942 12.3986, 2.54828 12.5574, 2.75116 12.6365, 3.04714 12.6361, 3.18074 12.6365, 3.25226 12.6941, 3.26216 12.8088, 3.26216 12.8381, 3.25721 12.8691, 3.24732 12.9024 L 3.21808 13.0175 C 3.16365 13.1615, 3.06738 13.2335, 2.92884 13.2335, 2.47451 13.2146, 2.02468 13.2002, 1.57935 13.1903 L 1.37963 13.1903 C 0.994123 13.1903, 0.603671 13.2047, 0.208272 13.2335, 0.13405 13.2335, 0.0796205 13.2096, 0.0449836 13.1615, 0.0152949 13.1332, 0.000450552 13.0994, 0.000450552 13.0607, 0.000450552 13.0324, 0.00539869 13.0036, 0.0152949 12.9744 L 0.0449836 12.8664 C 0.0845686 12.7085, 0.181282 12.6316, 0.334224 12.6361, 0.492564 12.6365, 0.648204 12.6199, 0.801146 12.5862, 0.954538 12.5529, 1.09803 12.4926, 1.23118 12.4062, 1.36478 12.3199, 1.48848 12.2155, 1.60184 12.0931, 1.71565 11.9708, 1.81686 11.8327, 1.90593 11.6789 L 7.13924 2.71826 C 7.2283 2.58421, 7.34211 2.51944, 7.48066 2.52393 L 7.62145 2.52393 C 7.77979 2.52438, 7.86841 2.59861, 7.8882 2.74705 L 8.54045 12.1251 C 8.55035 12.2501, 8.5652 12.3451, 8.58499 12.4098, 8.60478 12.4746, 8.63942 12.5214, 8.6889 12.5497, 8.75817 12.5934, 8.87288 12.6185, 9.03347 12.6257, 9.19451 12.6329, 9.37579 12.6365, 9.57821 12.6361, 9.71676 12.6365, 9.78603 12.6941, 9.78603 12.8088, 9.78603 12.8381, 9.78108 12.8691, 9.77119 12.9024 Z M 6.63543 4.74069 L 3.99628 9.26058, 6.94671 9.26058 Z" stroke="none" fill="#000000" />
			<rect />
		</svg>
	</g>
	<path d="M 46.4483 -56.1562 L 56.6211 -45.8814 C 64.025 -36.7442, 69.1108 -25.9429, 71.4371 -14.4153 L 72.8764 -6.11326e-005" fill="none" stroke="#000000" stroke-width="1.80000007" stroke-linecap="round" stroke-linejoin="round" marker-start="url(#CustomMarker-05)" marker-end="url(#CustomMarker-06)" transform="matrix(0.416667 0 -0 0.416667 21.6027 108.316)" />
	<g transform="matrix(1 0 -0 1 14.9555 77.3853)">
		<svg width="44.9446106" height="36.0270882">
			<defs />
			<path d="M 8.64167 9.60604 C 8.50852 10.1296, 8.28541 10.6204, 7.97142 11.0783, 7.65744 11.5367, 7.28319 11.9384, 6.8482 12.2839, 6.41322 12.6293, 5.9364 12.9019, 5.4173 13.1008, 4.89819 13.2996, 4.36964 13.399, 3.83075 13.399 L 3.57884 13.399 C 3.49473 13.399, 3.4331 13.3968, 3.39351 13.3918 L 2.91894 15.8749 C 2.88476 16.0719, 2.79434 16.2158, 2.6486 16.3067, 2.50285 16.398, 2.35081 16.4434, 2.19247 16.4434, 2.03953 16.4434, 1.91583 16.3931, 1.82181 16.2923, 1.75794 16.2446, 1.72555 16.1628, 1.72555 16.0476, 1.72555 15.9855, 1.73544 15.9158, 1.75524 15.8389 L 2.60002 13.2551 C 2.18977 13.1687, 1.79842 13.0193, 1.42506 12.8057, 1.05215 12.5925, 0.74717 12.3262, 0.50966 12.0068, 0.2726 11.6879, 0.116959 11.3217, 0.0427376 10.9087, 0.0130489 10.7558, -0.00179553 10.5925, -0.00179553 10.4193, -0.00179553 10.1607, 0.0328413 9.87999, 0.102115 9.57725, 0.225818 9.10268, 0.386407 8.62901, 0.583882 8.15624, 0.781807 7.68392, 1.08049 7.24579, 1.48084 6.84229, 1.52043 6.77572, 1.58745 6.73973, 1.68102 6.73433 L 1.75524 6.73433 C 1.80472 6.73478, 1.8488 6.75413, 1.88839 6.79191, 1.91807 6.83555, 1.93292 6.88098, 1.93292 6.92866 L 1.93292 6.95745 C 1.93292 7.00603, 1.91088 7.05146, 1.86634 7.0942, 1.52043 7.44956, 1.25863 7.84316, 1.08049 8.275, 0.902811 8.70684, 0.752118 9.15082, 0.628415 9.60604, 0.578934 9.80802, 0.554193 9.99515, 0.554193 10.1674, 0.554193 10.3213, 0.573986 10.463, 0.613571 10.5921, 0.687793 10.8998, 0.832188 11.1674, 1.04721 11.395, 1.26222 11.6231, 1.53437 11.8152, 1.86275 11.9708, 2.19112 12.1269, 2.53839 12.2357, 2.9041 12.2978 L 3.31929 11.0167 C 3.48753 10.5277, 3.67781 10.023, 3.89013 9.50213, 4.10244 8.98168, 4.3557 8.50441, 4.64989 8.06988, 4.94408 7.63579, 5.2855 7.27818, 5.67325 6.99749, 6.061 6.71679, 6.50948 6.57645, 7.01824 6.57599, 7.39879 6.57645, 7.71772 6.66281, 7.97457 6.83555, 8.23188 7.00828, 8.42575 7.24129, 8.55665 7.53368, 8.688 7.82652, 8.75817 8.15489, 8.76807 8.51926 L 8.76807 8.62002 C 8.76807 8.95154, 8.72624 9.28037, 8.64167 9.60604 Z M 8.11537 9.57725 C 8.16485 9.39058, 8.18959 9.2057, 8.18959 9.02307, 8.18959 8.95154, 8.18464 8.87462, 8.17475 8.79275, 8.14506 8.55794, 8.07129 8.34967, 7.95253 8.16704, 7.83378 7.98486, 7.67589 7.84091, 7.47796 7.7352, 7.28049 7.62994, 7.05332 7.57686, 6.79602 7.57642, 6.43526 7.57686, 6.09564 7.67178, 5.77671 7.86116, 5.45823 8.05098, 5.16899 8.30739, 4.90944 8.63126, 4.65034 8.95514, 4.43172 9.3285, 4.25359 9.75044, 4.07546 10.1728, 3.93961 10.6069, 3.84559 11.0527 L 3.58604 12.3914 C 3.62068 12.3968, 3.6823 12.399, 3.77137 12.3986 L 4.06061 12.3986 C 4.50549 12.399, 4.94767 12.3284, 5.38761 12.1867, 5.82754 12.0455, 6.23149 11.8498, 6.59945 11.6001, 6.96786 11.3509, 7.28678 11.0522, 7.55578 10.7041, 7.82523 10.3564, 8.01191 9.98075, 8.11537 9.57725 Z" stroke="none" fill="#000000" />
			<path d="M 1.87885 2.51203 L -1.50019 2.51203, -1.50019 2.29035 C -1.50019 2.27448, -1.49188 2.2503, -1.47526 2.21781 L -0.117743 0.742655 C 0.0427202 0.565566, 0.205198 0.384195, 0.369944 0.198793, 0.534689 0.0133917, 0.682305 -0.17604, 0.812288 -0.369503, 0.94227 -0.562965, 1.04606 -0.762474, 1.12364 -0.968027, 1.20123 -1.17358, 1.23977 -1.38921, 1.23977 -1.61517, 1.23977 -1.80561, 1.21483 -1.98371, 1.16495 -2.14895, 1.11508 -2.3142, 1.04328 -2.4593, 0.949072 -2.58425, 0.855112 -2.70919, 0.737472 -2.80995, 0.596406 -2.88653, 0.455339 -2.96311, 0.291853 -3.0014, 0.106452 -3.00165, -0.170139 -3.0014, -0.414486 -2.91877, -0.626338 -2.75353, -0.837937 -2.58828, -0.9785 -2.40615, -1.04777 -2.20765, -1.06138 -2.20211, -1.03921 -2.19934, -0.981271 -2.19959 L -0.910738 -2.19959 C -0.827609 -2.18044, -0.755816 -2.15147, -0.694856 -2.11268, -0.633895 -2.07364, -0.582758 -2.01998, -0.541194 -1.95146, -0.49963 -1.88294, -0.478974 -1.80032, -0.478974 -1.70384, -0.478974 -1.54237, -0.53137 -1.41868, -0.636666 -1.33278, -0.741962 -1.24663, -0.859601 -1.20381, -0.989584 -1.20406, -1.11402 -1.20381, -1.2304 -1.24663, -1.33822 -1.33278, -1.44603 -1.41868, -1.50019 -1.54237, -1.50019 -1.70384, -1.50019 -1.92929, -1.45586 -2.14291, -1.36719 -2.34443, -1.27852 -2.54596, -1.15836 -2.72053, -1.00621 -2.86839, -0.854059 -3.01601, -0.674199 -3.13289, -0.46663 -3.21904, -0.259061 -3.30494, -0.0388968 -3.34802, 0.193611 -3.34827, 0.481537 -3.34802, 0.745281 -3.3057, 0.98459 -3.22106, 1.2239 -3.13642, 1.42794 -3.01475, 1.59672 -2.8563, 1.76549 -2.6976, 1.89774 -2.51422, 1.99322 -2.30614, 2.08869 -2.09782, 2.1363 -1.86758, 2.1363 -1.61517, 2.1363 -1.33556, 2.07282 -1.07811, 1.94535 -0.843083, 1.81814 -0.607804, 1.66045 -0.392174, 1.47228 -0.196193, 1.2841 4.07696e-005, 1.08409 0.184687, 0.872241 0.357997, 0.660641 0.531307, 0.468942 0.699831, 0.297395 0.863569 L -0.657574 1.76236, 0.592124 1.76236 C 0.766441 1.76262, 0.929171 1.76136, 1.07981 1.75858, 1.2307 1.75607, 1.35867 1.75052, 1.46396 1.74246, 1.56926 1.7344, 1.62317 1.72911, 1.62569 1.72609, 1.64785 1.70745, 1.66876 1.66991, 1.68816 1.61349, 1.70756 1.55706, 1.72544 1.49056, 1.74207 1.41398, 1.75869 1.3374, 1.77532 1.25956, 1.79194 1.18021, 1.80857 1.10111, 1.82368 1.01421, 1.83754 0.919995 L 2.14461 0.919995 Z" stroke="none" fill="#000000" transform="matrix(1.12 0 0 1 11.0371 12.8121)" />
			<rect />
		</svg>
	</g>
	<path d="M 134.249 -62.8681 L 140.12 -49.6547 C 144.485 -38.285, 147.334 -26.4291, 148.597 -14.3715 L 149.348 -8.13671e-005" fill="none" stroke="#000000" stroke-width="1.80000007" stroke-linecap="round" stroke-linejoin="round" marker-start="url(#CustomMarker-07)" marker-end="url(#CustomMarker-08)" transform="matrix(0.416667 0 -0 0.416667 21.6027 108.316)" />
	<g transform="matrix(1 0 -0 1 88.4685 74.0218)">
		<svg width="30.027689" height="36.0270882">
			<defs />
			<path d="M 8.64167 9.60604 C 8.50852 10.1296, 8.28541 10.6204, 7.97142 11.0783, 7.65744 11.5367, 7.28319 11.9384, 6.8482 12.2839, 6.41322 12.6293, 5.9364 12.9019, 5.4173 13.1008, 4.89819 13.2996, 4.36964 13.399, 3.83075 13.399 L 3.57884 13.399 C 3.49473 13.399, 3.4331 13.3968, 3.39351 13.3918 L 2.91894 15.8749 C 2.88476 16.0719, 2.79434 16.2158, 2.6486 16.3067, 2.50285 16.398, 2.35081 16.4434, 2.19247 16.4434, 2.03953 16.4434, 1.91583 16.3931, 1.82181 16.2923, 1.75794 16.2446, 1.72555 16.1628, 1.72555 16.0476, 1.72555 15.9855, 1.73544 15.9158, 1.75524 15.8389 L 2.60002 13.2551 C 2.18977 13.1687, 1.79842 13.0193, 1.42506 12.8057, 1.05215 12.5925, 0.74717 12.3262, 0.50966 12.0068, 0.2726 11.6879, 0.116959 11.3217, 0.0427376 10.9087, 0.0130489 10.7558, -0.00179553 10.5925, -0.00179553 10.4193, -0.00179553 10.1607, 0.0328413 9.87999, 0.102115 9.57725, 0.225818 9.10268, 0.386407 8.62901, 0.583882 8.15624, 0.781807 7.68392, 1.08049 7.24579, 1.48084 6.84229, 1.52043 6.77572, 1.58745 6.73973, 1.68102 6.73433 L 1.75524 6.73433 C 1.80472 6.73478, 1.8488 6.75413, 1.88839 6.79191, 1.91807 6.83555, 1.93292 6.88098, 1.93292 6.92866 L 1.93292 6.95745 C 1.93292 7.00603, 1.91088 7.05146, 1.86634 7.0942, 1.52043 7.44956, 1.25863 7.84316, 1.08049 8.275, 0.902811 8.70684, 0.752118 9.15082, 0.628415 9.60604, 0.578934 9.80802, 0.554193 9.99515, 0.554193 10.1674, 0.554193 10.3213, 0.573986 10.463, 0.613571 10.5921, 0.687793 10.8998, 0.832188 11.1674, 1.04721 11.395, 1.26222 11.6231, 1.53437 11.8152, 1.86275 11.9708, 2.19112 12.1269, 2.53839 12.2357, 2.9041 12.2978 L 3.31929 11.0167 C 3.48753 10.5277, 3.67781 10.023, 3.89013 9.50213, 4.10244 8.98168, 4.3557 8.50441, 4.64989 8.06988, 4.94408 7.63579, 5.2855 7.27818, 5.67325 6.99749, 6.061 6.71679, 6.50948 6.57645, 7.01824 6.57599, 7.39879 6.57645, 7.71772 6.66281, 7.97457 6.83555, 8.23188 7.00828, 8.42575 7.24129, 8.55665 7.53368, 8.688 7.82652, 8.75817 8.15489, 8.76807 8.51926 L 8.76807 8.62002 C 8.76807 8.95154, 8.72624 9.28037, 8.64167 9.60604 Z M 8.11537 9.57725 C 8.16485 9.39058, 8.18959 9.2057, 8.18959 9.02307, 8.18959 8.95154, 8.18464 8.87462, 8.17475 8.79275, 8.14506 8.55794, 8.07129 8.34967, 7.95253 8.16704, 7.83378 7.98486, 7.67589 7.84091, 7.47796 7.7352, 7.28049 7.62994, 7.05332 7.57686, 6.79602 7.57642, 6.43526 7.57686, 6.09564 7.67178, 5.77671 7.86116, 5.45823 8.05098, 5.16899 8.30739, 4.90944 8.63126, 4.65034 8.95514, 4.43172 9.3285, 4.25359 9.75044, 4.07546 10.1728, 3.93961 10.6069, 3.84559 11.0527 L 3.58604 12.3914 C 3.62068 12.3968, 3.6823 12.399, 3.77137 12.3986 L 4.06061 12.3986 C 4.50549 12.399, 4.94767 12.3284, 5.38761 12.1867, 5.82754 12.0455, 6.23149 11.8498, 6.59945 11.6001, 6.96786 11.3509, 7.28678 11.0522, 7.55578 10.7041, 7.82523 10.3564, 8.01191 9.98075, 8.11537 9.57725 Z" stroke="none" fill="#000000" />
			<rect />
		</svg>
	</g>
	<path d="M 184.211 -40.3905 L 186.96 -26.2604 C 187.561 -22.3131, 188.026 -18.3478, 188.355 -14.371 L 188.948 -0.000187389" fill="none" stroke="#000000" stroke-width="1.80000007" stroke-linecap="round" stroke-linejoin="round" marker-start="url(#CustomMarker-09)" marker-end="url(#CustomMarker-10)" transform="matrix(0.416667 0 -0 0.416667 21.6027 108.316)" />
	<g transform="matrix(1 0 -0 1 109.503 86.9307)">
		<svg width="41.9907646" height="36.0270882">
			<defs />
			<path d="M 8.64167 9.60604 C 8.50852 10.1296, 8.28541 10.6204, 7.97142 11.0783, 7.65744 11.5367, 7.28319 11.9384, 6.8482 12.2839, 6.41322 12.6293, 5.9364 12.9019, 5.4173 13.1008, 4.89819 13.2996, 4.36964 13.399, 3.83075 13.399 L 3.57884 13.399 C 3.49473 13.399, 3.4331 13.3968, 3.39351 13.3918 L 2.91894 15.8749 C 2.88476 16.0719, 2.79434 16.2158, 2.6486 16.3067, 2.50285 16.398, 2.35081 16.4434, 2.19247 16.4434, 2.03953 16.4434, 1.91583 16.3931, 1.82181 16.2923, 1.75794 16.2446, 1.72555 16.1628, 1.72555 16.0476, 1.72555 15.9855, 1.73544 15.9158, 1.75524 15.8389 L 2.60002 13.2551 C 2.18977 13.1687, 1.79842 13.0193, 1.42506 12.8057, 1.05215 12.5925, 0.74717 12.3262, 0.50966 12.0068, 0.2726 11.6879, 0.116959 11.3217, 0.0427376 10.9087, 0.0130489 10.7558, -0.00179553 10.5925, -0.00179553 10.4193, -0.00179553 10.1607, 0.0328413 9.87999, 0.102115 9.57725, 0.225818 9.10268, 0.386407 8.62901, 0.583882 8.15624, 0.781807 7.68392, 1.08049 7.24579, 1.48084 6.84229, 1.52043 6.77572, 1.58745 6.73973, 1.68102 6.73433 L 1.75524 6.73433 C 1.80472 6.73478, 1.8488 6.75413, 1.88839 6.79191, 1.91807 6.83555, 1.93292 6.88098, 1.93292 6.92866 L 1.93292 6.95745 C 1.93292 7.00603, 1.91088 7.05146, 1.86634 7.0942, 1.52043 7.44956, 1.25863 7.84316, 1.08049 8.275, 0.902811 8.70684, 0.752118 9.15082, 0.628415 9.60604, 0.578934 9.80802, 0.554193 9.99515, 0.554193 10.1674, 0.554193 10.3213, 0.573986 10.463, 0.613571 10.5921, 0.687793 10.8998, 0.832188 11.1674, 1.04721 11.395, 1.26222 11.6231, 1.53437 11.8152, 1.86275 11.9708, 2.19112 12.1269, 2.53839 12.2357, 2.9041 12.2978 L 3.31929 11.0167 C 3.48753 10.5277, 3.67781 10.023, 3.89013 9.50213, 4.10244 8.98168, 4.3557 8.50441, 4.64989 8.06988, 4.94408 7.63579, 5.2855 7.27818, 5.67325 6.99749, 6.061 6.71679, 6.50948 6.57645, 7.01824 6.57599, 7.39879 6.57645, 7.71772 6.66281, 7.97457 6.83555, 8.23188 7.00828, 8.42575 7.24129, 8.55665 7.53368, 8.688 7.82652, 8.75817 8.15489, 8.76807 8.51926 L 8.76807 8.62002 C 8.76807 8.95154, 8.72624 9.28037, 8.64167 9.60604 Z M 8.11537 9.57725 C 8.16485 9.39058, 8.18959 9.2057, 8.18959 9.02307, 8.18959 8.95154, 8.18464 8.87462, 8.17475 8.79275, 8.14506 8.55794, 8.07129 8.34967, 7.95253 8.16704, 7.83378 7.98486, 7.67589 7.84091, 7.47796 7.7352, 7.28049 7.62994, 7.05332 7.57686, 6.79602 7.57642, 6.43526 7.57686, 6.09564 7.67178, 5.77671 7.86116, 5.45823 8.05098, 5.16899 8.30739, 4.90944 8.63126, 4.65034 8.95514, 4.43172 9.3285, 4.25359 9.75044, 4.07546 10.1728, 3.93961 10.6069, 3.84559 11.0527 L 3.58604 12.3914 C 3.62068 12.3968, 3.6823 12.399, 3.77137 12.3986 L 4.06061 12.3986 C 4.50549 12.399, 4.94767 12.3284, 5.38761 12.1867, 5.82754 12.0455, 6.23149 11.8498, 6.59945 11.6001, 6.96786 11.3509, 7.28678 11.0522, 7.55578 10.7041, 7.82523 10.3564, 8.01191 9.98075, 8.11537 9.57725 Z" stroke="none" fill="#000000" />
			<path d="M 1.86424 2.51203 C 1.35514 2.49591, 0.859898 2.48785, 0.378257 2.48785, -0.103133 2.48785, -0.598376 2.49591, -1.10748 2.51203 L -1.10748 2.16541, -0.82106 2.16541 C -0.72987 2.16566, -0.643971 2.1644, -0.563866 2.16163, -0.483508 2.15911, -0.407433 2.15231, -0.335388 2.14148, -0.263344 2.1309, -0.201123 2.12007, -0.148727 2.10898, -0.104392 2.10117, -0.067866 2.07649, -0.0388969 2.03467, -0.0096761 1.99311, 0.00468242 1.94676, 0.00468242 1.89537 L 0.00468242 -2.64697 C -0.133361 -2.57946, -0.303648 -2.52832, -0.505676 -2.49356, -0.707703 -2.45855, -0.928875 -2.44116, -1.1697 -2.44142 L -1.1697 -2.78401 C -0.837685 -2.78375, -0.531118 -2.8233, -0.250245 -2.90265, 0.0306287 -2.98175, 0.273464 -3.13037, 0.478011 -3.34827 L 0.606734 -3.34827 C 0.697923 -3.34802, 0.743518 -3.30368, 0.743518 -3.21527 L 0.743518 1.89537 C 0.743518 1.94928, 0.757372 1.99638, 0.785082 2.03669, 0.812791 2.07699, 0.853096 2.10117, 0.905492 2.10898, 0.949827 2.12007, 1.00676 2.1309, 1.07578 2.14148, 1.1448 2.15231, 1.22289 2.15911, 1.31005 2.16163, 1.39721 2.1644, 1.48235 2.16566, 1.56548 2.16541 L 1.86424 2.16541, 1.86424 2.51203 Z" stroke="none" fill="#000000" transform="matrix(1.12 0 0 1 10.7051 12.8121)" />
			<rect />
		</svg>
	</g>
</svg>
