<?xml version="1.0"?>
<svg xmlns="http://www.w3.org/2000/svg" xmlns:xlink="http://www.w3.org/1999/xlink" width="736.000977" height="398.856964">
	<defs>
		<pattern id="Fill_HP-01" patternTransform="rotate(135)" patternUnits="userSpaceOnUse" width="25" height="25">
			<rect width="25" height="25" fill="#FFFFFF" />
			<path d="M 0 12.5 L 25 12.5" fill="none" stoke-width="5" stroke="#777777" />
		</pattern>
		<pattern id="Fill_HP-02" patternTransform="rotate(135)" patternUnits="userSpaceOnUse" width="25" height="25">
			<rect width="25" height="25" fill="#FFFFFF" />
			<path d="M 0 12.5 L 25 12.5" fill="none" stoke-width="5" stroke="#777777" />
		</pattern>
		<marker id="CustomMarker-01" markerUnits="strokeWidth" markerWidth="21" markerHeight="9" viewBox="-21 -4.5 21 9" orient="auto-start-reverse">
			<path d="M 0 -0 L -14 -3, -14 -0.5, -14 0.5, -14 3 Z" fill="#000000" stroke="#000000" stroke-linejoin="round" />
		</marker>
		<marker id="CustomMarker-02" markerUnits="strokeWidth" markerWidth="21" markerHeight="9" viewBox="-21 -4.5 21 9" orient="auto-start-reverse">
			<path d="M 0 -0 L -14 -3, -14 -0.5, -14 0.5, -14 3 Z" fill="#000000" stroke="#000000" stroke-linejoin="round" />
		</marker>
		<marker id="CustomMarker-03" markerUnits="strokeWidth" markerWidth="21" markerHeight="9" viewBox="-21 -4.5 21 9" orient="auto-start-reverse">
			<path d="M 0 -0 L -14 -3, -14 -0.5, -14 0.5, -14 3 Z" fill="#000000" stroke="#000000" stroke-linejoin="round" />
		</marker>
		<marker id="CustomMarker-04" markerUnits="strokeWidth" markerWidth="21" markerHeight="9" viewBox="-21 -4.5 21 9" orient="auto-start-reverse">
			<path d="M 0 -0 L -14 -3, -14 -0.5, -14 0.5, -14 3 Z" fill="#000000" stroke="#000000" stroke-linejoin="round" />
		</marker>
		<marker id="CustomMarker-05" markerUnits="strokeWidth" markerWidth="21" markerHeight="9" viewBox="-21 -4.5 21 9" orient="auto-start-reverse">
			<path d="M 0 -0 L -14 -3, -14 -0.5, -14 0.5, -14 3 Z" fill="#000000" stroke="#000000" stroke-linejoin="round" />
		</marker>
		<marker id="CustomMarker-06" markerUnits="strokeWidth" markerWidth="21" markerHeight="9" viewBox="-21 -4.5 21 9" orient="auto-start-reverse">
			<path d="M 0 -0 L -14 -3, -14 -0.5, -14 0.5, -14 3 Z" fill="#000000" stroke="#000000" stroke-linejoin="round" />
		</marker>
		<marker id="CustomMarker-07" markerUnits="strokeWidth" markerWidth="15.000001" markerHeight="9" viewBox="-15 -4.5 15 9" orient="auto-start-reverse">
			<path d="M 0 -0 L -10 -3, -8 -0.5, -8 0.5, -10 3 Z" fill="#FF2A00" stroke="#FF2A00" stroke-linejoin="round" />
		</marker>
		<marker id="CustomMarker-08" markerUnits="strokeWidth" markerWidth="15.000001" markerHeight="9" viewBox="-15 -4.5 15 9" orient="auto-start-reverse">
			<path d="M 0 -0 L -10 -3, -8 -0.5, -8 0.5, -10 3 Z" fill="#FF2A00" stroke="#FF2A00" stroke-linejoin="round" />
		</marker>
		<marker id="CustomMarker-09" markerUnits="strokeWidth" markerWidth="21" markerHeight="9" viewBox="-21 -4.5 21 9" orient="auto-start-reverse">
			<path d="M 0 -0 L -14 -3, -14 -0.5, -14 0.5, -14 3 Z" fill="#000000" stroke="#000000" stroke-linejoin="round" />
		</marker>
		<marker id="CustomMarker-10" markerUnits="strokeWidth" markerWidth="21" markerHeight="9" viewBox="-21 -4.5 21 9" orient="auto-start-reverse">
			<path d="M 0 -0 L -14 -3, -14 -0.5, -14 0.5, -14 3 Z" fill="#000000" stroke="#000000" stroke-linejoin="round" />
		</marker>
		<marker id="CustomMarker-11" markerUnits="strokeWidth" markerWidth="21" markerHeight="9" viewBox="-21 -4.5 21 9" orient="auto-start-reverse">
			<path d="M 0 -0 L -14 -3, -14 -0.5, -14 0.5, -14 3 Z" fill="#000000" stroke="#000000" stroke-linejoin="round" />
		</marker>
		<marker id="CustomMarker-12" markerUnits="strokeWidth" markerWidth="21" markerHeight="9" viewBox="-21 -4.5 21 9" orient="auto-start-reverse">
			<path d="M 0 -0 L -14 -3, -14 -0.5, -14 0.5, -14 3 Z" fill="#000000" stroke="#000000" stroke-linejoin="round" />
		</marker>
	</defs>
	<rect x="-0" y="-0" width="736.000977" height="398.856964" stroke="none" fill="#FFFFFF" />
	<path d="M -101.695 0 L 101.695 0, 101.695 12.1457, -101.695 12.1457 Z" stroke="none" fill="url(#Fill_HP-01)" transform="matrix(0.545842 0.304436 -0.304436 0.545842 180.338 168.171)" />
	<path d="M -101.695 0 L 101.695 0" fill="none" stroke="#000000" stroke-width="3.20000005" stroke-linecap="round" stroke-linejoin="round" transform="matrix(0.545842 0.304436 -0.304436 0.545842 180.338 168.171)" />
	<path d="M -108.197 0 L 108.197 0, 108.197 12.1455, -108.197 12.1455 Z" stroke="none" fill="url(#Fill_HP-02)" transform="matrix(0.605438 0.155145 -0.155145 0.605438 303.248 215.917)" />
	<path d="M -108.197 0 L 108.197 0" fill="none" stroke="#000000" stroke-width="3.20000005" stroke-linecap="round" stroke-linejoin="round" transform="matrix(0.605438 0.155145 -0.155145 0.605438 303.248 215.917)" />
	<g transform="matrix(1 0 -0 1 712.214 128.406)">
		<svg width="35.935379" height="35.8877335">
			<defs />
			<path d="M 10.1979 5.84907 C 10.0894 6.23817, 9.90411 6.59714, 9.64231 6.92551, 9.38051 7.25434, 9.06878 7.53863, 8.70802 7.77794, 8.31757 8.04694, 7.90147 8.24981, 7.45884 8.38656, 7.01666 8.5233, 6.57808 8.59168, 6.14309 8.59123 L 3.94118 8.59123, 3.01453 12.1899 C 2.98484 12.296, 2.97 12.3797, 2.97 12.4418, 2.97 12.4998, 2.98259 12.5358, 3.00733 12.5497, 3.07661 12.5934, 3.21246 12.6185, 3.41488 12.6257, 3.61775 12.6329, 3.83502 12.6365, 4.06713 12.6361, 4.20568 12.6365, 4.27495 12.7036, 4.27495 12.8376 L 4.27495 12.888, 4.24526 13.0175 C 4.19083 13.1615, 4.09457 13.2335, 3.95602 13.2335, 3.33841 13.2047, 2.71809 13.1903, 2.09553 13.1903, 1.46802 13.1903, 0.840507 13.2047, 0.212546 13.2335, 0.0793963 13.2335, 0.00787344 13.1714, -0.00247263 13.0463 L -0.00247263 12.9888, 0.0272161 12.8664 C 0.066801 12.7085, 0.163064 12.6316, 0.316006 12.6361, 0.548568 12.6365, 0.768534 12.6329, 0.975906 12.6257, 1.18373 12.6185, 1.33667 12.5934, 1.43563 12.5497, 1.52965 12.4975, 1.60117 12.368, 1.65065 12.1611 L 3.73381 4.04976 C 3.7635 3.94449, 3.77789 3.86308, 3.77789 3.80505, 3.77789 3.74792, 3.76575 3.71418, 3.741 3.70429, 3.67173 3.66155, 3.53723 3.63546, 3.33706 3.62557, 3.13688 3.61612, 2.91827 3.61117, 2.68076 3.61072, 2.54266 3.61117, 2.47339 3.5464, 2.47339 3.4164 L 2.47339 3.35882, 2.51792 3.23646 C 2.54761 3.09297, 2.63937 3.021, 2.79232 3.02055 L 7.54386 3.02055 C 7.97929 3.021, 8.38324 3.08937, 8.75615 3.22612, 9.12951 3.36287, 9.44934 3.56799, 9.71608 3.84103, 9.95809 4.09564, 10.1286 4.39792, 10.2275 4.74789, 10.2572 4.91163, 10.2721 5.07716, 10.2721 5.2445, 10.2721 5.43703, 10.2473 5.63855, 10.1979 5.84907 Z M 8.61895 5.81309 C 8.70307 5.51125, 8.75975 5.21841, 8.78944 4.93502 L 8.78944 4.80547 C 8.78944 4.58505, 8.72781 4.38353, 8.60411 4.2009, 8.44127 3.98543, 8.22355 3.83339, 7.95185 3.74432, 7.68016 3.6557, 7.38597 3.61117, 7.06974 3.61072 L 5.67572 3.61072 C 5.42382 3.61117, 5.27312 3.63051, 5.22364 3.66875, 5.17416 3.70743, 5.12243 3.84373, 5.068 4.07854 L 4.03744 8.05143, 5.89074 8.05143 C 6.21192 8.05188, 6.53354 8.00645, 6.85472 7.91514, 7.1759 7.82427, 7.47729 7.66818, 7.75888 7.44686, 8.01123 7.2314, 8.19791 6.97949, 8.31892 6.6916, 8.43992 6.40371, 8.53978 6.11087, 8.61895 5.81309 Z" stroke="none" fill="#000000" />
			<rect />
		</svg>
	</g>
	<path d="M 0 -152.667 L 0 152.667" fill="none" stroke="#000000" stroke-width="1.60000002" stroke-linecap="round" stroke-linejoin="round" transform="matrix(0.625 0 0 0.625 66.7697 199.131)" />
	<ellipse cx="647.03074932098389" cy="465.85780620574951" rx="4.1999998092651367" ry="4.1999998092651367" stroke="none" fill="#000000" transform="matrix(0.625 0 0 0.625 -337.625 -135.572)" />
	<ellipse cx="647.03077387809753" cy="465.85783076286316" rx="2.7999999523162842" ry="2.7999999523162842" stroke="none" fill="#FFFFFF" transform="matrix(0.625 0 0 0.625 -337.625 -135.572)" />
	<ellipse cx="647.03074932098389" cy="605.19090557098389" rx="4.1999998092651367" ry="4.1999998092651367" stroke="none" fill="#000000" transform="matrix(0.625 0 0 0.625 -337.625 -135.572)" />
	<ellipse cx="647.03077387809753" cy="605.19093012809753" rx="2.7999999523162842" ry="2.7999999523162842" stroke="none" fill="#FFFFFF" transform="matrix(0.625 0 0 0.625 -337.625 -135.572)" />
	<path d="M 0 -305.486 L 0 305.486" fill="none" stroke="#000000" stroke-width="1.60000002" stroke-linecap="round" stroke-linejoin="round" transform="matrix(0.625 0 0 0.625 705.169 199.428)" />
	<ellipse cx="1668.4697751998901" cy="447.74794292449951" rx="4.1999998092651367" ry="4.1999998092651367" stroke="none" fill="#000000" transform="matrix(0.625 0 0 0.625 -337.625 -135.572)" />
	<g transform="matrix(1 0 -0 1 50.2678 137.09)">
		<svg width="41.9907646" height="44.9458008">
			<defs />
			<path d="M 7.76608 6.28091 C 7.73639 6.41586, 7.66262 6.48288, 7.54386 6.48243, 7.53396 6.49233, 7.50922 6.49727, 7.46964 6.49683, 7.4449 6.49727, 7.42511 6.49233, 7.41026 6.48243 L 7.34369 6.48243 C 7.21504 6.48288, 7.15071 6.43475, 7.15071 6.33849 L 7.15071 6.2881 C 7.21009 5.93364, 7.23978 5.60481, 7.23978 5.30208 L 7.23978 5.02858 C 7.21009 4.65972, 7.12732 4.34169, 6.99147 4.07539, 6.85562 3.8091, 6.6568 3.60307, 6.395 3.45643, 6.1332 3.31024, 5.80167 3.23691, 5.40133 3.23646, 5.16921 3.23691, 4.93305 3.28729, 4.69329 3.38806, 4.45399 3.48882, 4.23042 3.62557, 4.0226 3.79785, 3.79544 3.98543, 3.61011 4.19775, 3.46661 4.43526, 3.32357 4.67277, 3.21965 4.91613, 3.15488 5.16533, 3.10585 5.34346, 3.07886 5.5135, 3.07346 5.67634, 3.07346 5.90215, 3.12294 6.11807, 3.2219 6.32409, 3.3654 6.67001, 3.62225 6.89088, 3.99291 6.98624 L 5.69776 7.46126 C 6.00904 7.55302, 6.27489 7.69832, 6.49486 7.89714, 6.71483 8.09642, 6.88036 8.33168, 6.99147 8.60248, 7.10303 8.87372, 7.16825 9.16971, 7.18805 9.49089 L 7.18805 9.62044 C 7.18805 9.89933, 7.14846 10.1845, 7.06929 10.4769, 6.96583 10.8804, 6.80029 11.2691, 6.57268 11.6433, 6.34552 12.0176, 6.06392 12.3536, 5.72745 12.6505, 5.40627 12.9244, 5.05451 13.1439, 4.67125 13.309, 4.288 13.4746, 3.90384 13.5573, 3.51834 13.5573, 2.95021 13.5573, 2.46574 13.4665, 2.06539 13.2838, 1.66505 13.1021, 1.36861 12.8718, 1.17563 12.5929 L 0.44196 13.4638 C 0.378085 13.5263, 0.31106 13.5573, 0.241786 13.5573 L 0.197253 13.5573 C 0.0740002 13.5573, 0.00697565 13.5097, -0.00292063 13.4134, -0.00292063 13.3846, 0.00472647 13.3585, 0.019121 13.3342 L 0.879194 9.96591 C 0.908883 9.83186, 0.9957 9.76258, 1.13875 9.75719 L 1.30158 9.75719 C 1.36096 9.75764, 1.41539 9.78148, 1.46487 9.82916, 1.48466 9.86784, 1.49456 9.90158, 1.49456 9.92992, 1.49456 9.94971, 1.48961 9.97355, 1.47972 10.0019, 1.39065 10.3478, 1.34612 10.6694, 1.34612 10.9663, 1.34612 11.4418, 1.46262 11.8448, 1.69473 12.1755, 2.06539 12.7085, 2.71315 12.9748, 3.6371 12.9744, 3.86921 12.9748, 4.10537 12.9208, 4.34513 12.8129, 4.58489 12.7049, 4.80845 12.5596, 5.01582 12.377, 5.24344 12.1665, 5.43461 11.9326, 5.59025 11.6757, 5.74589 11.4193, 5.86105 11.1539, 5.93482 10.88, 5.9843 10.6595, 6.00904 10.4535, 6.00904 10.261, 6.00904 10.0217, 5.97711 9.79137, 5.91278 9.57006, 5.76479 9.2012, 5.49039 8.96369, 5.09004 8.85753 L 3.40723 8.38251 C 3.10585 8.30154, 2.8463 8.16839, 2.62858 7.98351, 2.41131 7.79908, 2.24218 7.57956, 2.12117 7.32496, 2.00017 7.07081, 1.92955 6.79011, 1.90975 6.48243 L 1.90975 6.32409 C 1.90975 6.08478, 1.93944 5.83288, 1.99882 5.56838, 2.10273 5.18512, 2.26827 4.81806, 2.49543 4.46765, 2.72304 4.11768, 3.00464 3.80775, 3.34021 3.53875, 3.65689 3.2801, 4.00416 3.07273, 4.38201 2.91664, 4.76032 2.76099, 5.13458 2.68272, 5.50524 2.68227, 6.01444 2.68272, 6.43413 2.77764, 6.76521 2.96702, 7.09628 3.15684, 7.33604 3.38086, 7.48448 3.63951 L 8.19611 2.78304 C 8.2357 2.71646, 8.30002 2.68272, 8.38864 2.68227 L 8.45566 2.68227 C 8.57442 2.68272, 8.63335 2.7403, 8.63335 2.85501 L 8.63335 2.91259 Z" stroke="none" fill="#000000" />
			<path d="M 1.86424 2.51203 C 1.35514 2.49591, 0.859898 2.48785, 0.378257 2.48785, -0.103133 2.48785, -0.598376 2.49591, -1.10748 2.51203 L -1.10748 2.16541, -0.82106 2.16541 C -0.72987 2.16566, -0.643971 2.1644, -0.563866 2.16163, -0.483508 2.15911, -0.407433 2.15231, -0.335388 2.14148, -0.263344 2.1309, -0.201123 2.12007, -0.148727 2.10898, -0.104392 2.10117, -0.067866 2.07649, -0.0388969 2.03467, -0.0096761 1.99311, 0.00468242 1.94676, 0.00468242 1.89537 L 0.00468242 -2.64697 C -0.133361 -2.57946, -0.303648 -2.52832, -0.505676 -2.49356, -0.707703 -2.45855, -0.928875 -2.44116, -1.1697 -2.44142 L -1.1697 -2.78401 C -0.837685 -2.78375, -0.531118 -2.8233, -0.250245 -2.90265, 0.0306287 -2.98175, 0.273464 -3.13037, 0.478011 -3.34827 L 0.606734 -3.34827 C 0.697923 -3.34802, 0.743518 -3.30368, 0.743518 -3.21527 L 0.743518 1.89537 C 0.743518 1.94928, 0.757372 1.99638, 0.785082 2.03669, 0.812791 2.07699, 0.853096 2.10117, 0.905492 2.10898, 0.949827 2.12007, 1.00676 2.1309, 1.07578 2.14148, 1.1448 2.15231, 1.22289 2.15911, 1.31005 2.16163, 1.39721 2.1644, 1.48235 2.16566, 1.56548 2.16541 L 1.86424 2.16541, 1.86424 2.51203 Z" stroke="none" fill="#000000" transform="matrix(1.12 0 0 1 10.5715 12.8121)" />
			<rect />
		</svg>
	</g>
	<g transform="matrix(1 0 -0 1 49.926 243.905)">
		<svg width="44.9446106" height="44.9458008">
			<defs />
			<path d="M 7.76608 6.28091 C 7.73639 6.41586, 7.66262 6.48288, 7.54386 6.48243, 7.53396 6.49233, 7.50922 6.49727, 7.46964 6.49683, 7.4449 6.49727, 7.42511 6.49233, 7.41026 6.48243 L 7.34369 6.48243 C 7.21504 6.48288, 7.15071 6.43475, 7.15071 6.33849 L 7.15071 6.2881 C 7.21009 5.93364, 7.23978 5.60481, 7.23978 5.30208 L 7.23978 5.02858 C 7.21009 4.65972, 7.12732 4.34169, 6.99147 4.07539, 6.85562 3.8091, 6.6568 3.60307, 6.395 3.45643, 6.1332 3.31024, 5.80167 3.23691, 5.40133 3.23646, 5.16921 3.23691, 4.93305 3.28729, 4.69329 3.38806, 4.45399 3.48882, 4.23042 3.62557, 4.0226 3.79785, 3.79544 3.98543, 3.61011 4.19775, 3.46661 4.43526, 3.32357 4.67277, 3.21965 4.91613, 3.15488 5.16533, 3.10585 5.34346, 3.07886 5.5135, 3.07346 5.67634, 3.07346 5.90215, 3.12294 6.11807, 3.2219 6.32409, 3.3654 6.67001, 3.62225 6.89088, 3.99291 6.98624 L 5.69776 7.46126 C 6.00904 7.55302, 6.27489 7.69832, 6.49486 7.89714, 6.71483 8.09642, 6.88036 8.33168, 6.99147 8.60248, 7.10303 8.87372, 7.16825 9.16971, 7.18805 9.49089 L 7.18805 9.62044 C 7.18805 9.89933, 7.14846 10.1845, 7.06929 10.4769, 6.96583 10.8804, 6.80029 11.2691, 6.57268 11.6433, 6.34552 12.0176, 6.06392 12.3536, 5.72745 12.6505, 5.40627 12.9244, 5.05451 13.1439, 4.67125 13.309, 4.288 13.4746, 3.90384 13.5573, 3.51834 13.5573, 2.95021 13.5573, 2.46574 13.4665, 2.06539 13.2838, 1.66505 13.1021, 1.36861 12.8718, 1.17563 12.5929 L 0.44196 13.4638 C 0.378085 13.5263, 0.31106 13.5573, 0.241786 13.5573 L 0.197253 13.5573 C 0.0740002 13.5573, 0.00697565 13.5097, -0.00292063 13.4134, -0.00292063 13.3846, 0.00472647 13.3585, 0.019121 13.3342 L 0.879194 9.96591 C 0.908883 9.83186, 0.9957 9.76258, 1.13875 9.75719 L 1.30158 9.75719 C 1.36096 9.75764, 1.41539 9.78148, 1.46487 9.82916, 1.48466 9.86784, 1.49456 9.90158, 1.49456 9.92992, 1.49456 9.94971, 1.48961 9.97355, 1.47972 10.0019, 1.39065 10.3478, 1.34612 10.6694, 1.34612 10.9663, 1.34612 11.4418, 1.46262 11.8448, 1.69473 12.1755, 2.06539 12.7085, 2.71315 12.9748, 3.6371 12.9744, 3.86921 12.9748, 4.10537 12.9208, 4.34513 12.8129, 4.58489 12.7049, 4.80845 12.5596, 5.01582 12.377, 5.24344 12.1665, 5.43461 11.9326, 5.59025 11.6757, 5.74589 11.4193, 5.86105 11.1539, 5.93482 10.88, 5.9843 10.6595, 6.00904 10.4535, 6.00904 10.261, 6.00904 10.0217, 5.97711 9.79137, 5.91278 9.57006, 5.76479 9.2012, 5.49039 8.96369, 5.09004 8.85753 L 3.40723 8.38251 C 3.10585 8.30154, 2.8463 8.16839, 2.62858 7.98351, 2.41131 7.79908, 2.24218 7.57956, 2.12117 7.32496, 2.00017 7.07081, 1.92955 6.79011, 1.90975 6.48243 L 1.90975 6.32409 C 1.90975 6.08478, 1.93944 5.83288, 1.99882 5.56838, 2.10273 5.18512, 2.26827 4.81806, 2.49543 4.46765, 2.72304 4.11768, 3.00464 3.80775, 3.34021 3.53875, 3.65689 3.2801, 4.00416 3.07273, 4.38201 2.91664, 4.76032 2.76099, 5.13458 2.68272, 5.50524 2.68227, 6.01444 2.68272, 6.43413 2.77764, 6.76521 2.96702, 7.09628 3.15684, 7.33604 3.38086, 7.48448 3.63951 L 8.19611 2.78304 C 8.2357 2.71646, 8.30002 2.68272, 8.38864 2.68227 L 8.45566 2.68227 C 8.57442 2.68272, 8.63335 2.7403, 8.63335 2.85501 L 8.63335 2.91259 Z" stroke="none" fill="#000000" />
			<path d="M 1.87894 2.51203 L -1.4996 2.51203, -1.4996 2.29035 C -1.4996 2.27448, -1.49129 2.2503, -1.47466 2.21781 L -0.1174 0.742655 C 0.0433152 0.565566, 0.205793 0.384195, 0.370539 0.198793, 0.535284 0.0133917, 0.682396 -0.17604, 0.812379 -0.369503, 0.942362 -0.562965, 1.04615 -0.762474, 1.12373 -0.968027, 1.20132 -1.17358, 1.23986 -1.38921, 1.23986 -1.61517, 1.23986 -1.80561, 1.21517 -1.98371, 1.1653 -2.14895, 1.11542 -2.3142, 1.04363 -2.4593, 0.949415 -2.58425, 0.855203 -2.70919, 0.737563 -2.80995, 0.596497 -2.88653, 0.455431 -2.96311, 0.292197 -3.0014, 0.106795 -3.00165, -0.169796 -3.0014, -0.414143 -2.91877, -0.625743 -2.75353, -0.837342 -2.58828, -0.977905 -2.40615, -1.04718 -2.20765, -1.06078 -2.20211, -1.03861 -2.19934, -0.980676 -2.19959 L -0.910143 -2.19959 C -0.827014 -2.18044, -0.755221 -2.15147, -0.694261 -2.11268, -0.6333 -2.07364, -0.582163 -2.01998, -0.540599 -1.95146, -0.499035 -1.88294, -0.478379 -1.80032, -0.478379 -1.70384, -0.478379 -1.54237, -0.530775 -1.41868, -0.636071 -1.33278, -0.741367 -1.24663, -0.859006 -1.20381, -0.988989 -1.20406, -1.11343 -1.20381, -1.22956 -1.24663, -1.33762 -1.33278, -1.44544 -1.41868, -1.4996 -1.54237, -1.4996 -1.70384, -1.4996 -1.92929, -1.45526 -2.14291, -1.36659 -2.34443, -1.27792 -2.54596, -1.15776 -2.72053, -1.00561 -2.86839, -0.853464 -3.01601, -0.673604 -3.13289, -0.466035 -3.21904, -0.258466 -3.30494, -0.0383018 -3.34802, 0.193954 -3.34827, 0.481629 -3.34802, 0.745372 -3.3057, 0.984681 -3.22106, 1.22399 -3.13642, 1.42803 -3.01475, 1.59681 -2.8563, 1.76558 -2.6976, 1.89783 -2.51422, 1.99331 -2.30614, 2.08878 -2.09782, 2.13639 -1.86758, 2.13639 -1.61517, 2.13639 -1.33556, 2.07291 -1.07811, 1.94544 -0.843083, 1.81823 -0.607804, 1.66054 -0.392174, 1.47237 -0.196193, 1.2842 4.07696e-005, 1.08418 0.184687, 0.872584 0.357997, 0.660985 0.531307, 0.469285 0.699831, 0.297738 0.863569 L -0.656979 1.76236, 0.592466 1.76236 C 0.766784 1.76262, 0.929514 1.76136, 1.08015 1.75858, 1.23104 1.75607, 1.35901 1.75052, 1.46406 1.74246, 1.56935 1.7344, 1.62326 1.72911, 1.62578 1.72609, 1.64795 1.70745, 1.66885 1.66991, 1.68825 1.61349, 1.70765 1.55706, 1.72553 1.49056, 1.74216 1.41398, 1.75878 1.3374, 1.77541 1.25956, 1.79203 1.18021, 1.80866 1.10111, 1.82377 1.01421, 1.83763 0.919995 L 2.1447 0.919995 Z" stroke="none" fill="#000000" transform="matrix(1.12 0 0 1 10.9038 12.8121)" />
			<rect />
		</svg>
	</g>
	<path d="M -69.6665 9.76578e-005 L 69.6665 9.76578e-005" fill="none" stroke="#000000" stroke-width="1.20000005" stroke-linecap="round" stroke-linejoin="round" marker-start="url(#CustomMarker-01)" marker-end="url(#CustomMarker-02)" transform="matrix(4.71862e-008 0.625 -0.625 4.71862e-008 56.5061 199.131)" />
	<path d="M -69.6665 -15.1828 L -69.6665 15.1828" fill="none" stroke="#000000" stroke-width="0.800000012" stroke-linecap="round" stroke-linejoin="round" transform="matrix(4.71862e-008 0.625 -0.625 4.71862e-008 56.5061 199.131)" />
	<path d="M 69.6665 -15.1828 L 69.6665 15.1828" fill="none" stroke="#000000" stroke-width="0.800000012" stroke-linecap="round" stroke-linejoin="round" transform="matrix(4.71862e-008 0.625 -0.625 4.71862e-008 56.5061 199.131)" />
	<g transform="matrix(1 0 -0 1 43.5103 190.623)">
		<svg width="27.073843" height="38.9535408">
			<defs />
			<path d="M 4.82532 11.5925 C 4.7367 11.9002, 4.69217 12.1687, 4.69217 12.3986, 4.69217 12.4616, 4.69712 12.5214, 4.70701 12.5785, 4.73175 12.8093, 4.84781 12.9244, 5.05518 12.924, 5.15909 12.9244, 5.2567 12.8812, 5.34802 12.7949, 5.43979 12.7085, 5.5239 12.5803, 5.60037 12.4098, 5.67685 12.2398, 5.74972 12.0356, 5.81899 11.7981, 5.88827 11.5606, 5.95979 11.3028, 6.03356 11.0239, 6.06325 10.8998, 6.14737 10.8372, 6.28591 10.8368 L 6.4564 10.8368 C 6.58505 10.8372, 6.64893 10.8899, 6.64893 10.9951 L 6.64893 11.0455 C 6.59 11.2812, 6.52342 11.5331, 6.4492 11.8017, 6.37498 12.0707, 6.27602 12.3199, 6.15231 12.5502, 6.02906 12.7805, 5.87342 12.9798, 5.68539 13.1475, 5.49781 13.3153, 5.263 13.399, 4.98096 13.399, 4.6058 13.399, 4.30532 13.2951, 4.0804 13.0864, 3.85549 12.8777, 3.72594 12.6653, 3.6913 12.449, 3.52306 12.6415, 3.27251 12.848, 2.93874 13.0684, 2.60541 13.2888, 2.2532 13.399, 1.88254 13.399, 1.49209 13.399, 1.16461 13.3009, 0.900111 13.1044, 0.635611 12.9078, 0.429589 12.6604, 0.281146 12.3626, 0.103463 12.0081, 0.00944906 11.6267, -0.000447214 11.2182 L -0.000447214 11.1103 C -0.000447214 10.7315, 0.051733 10.3528, 0.155194 9.9731, 0.273949 9.55611, 0.439486 9.14362, 0.651805 8.73562, 0.864574 8.32808, 1.14617 7.94887, 1.49703 7.59801, 1.78402 7.31057, 2.1115 7.06856, 2.47946 6.87153, 2.84742 6.67496, 3.22168 6.57645, 3.60223 6.57599, 3.93331 6.57645, 4.20276 6.66416, 4.41013 6.83915, 4.61795 7.01458, 4.74885 7.16167, 4.80328 7.28133 L 5.60397 4.1865 C 5.64356 4.02861, 5.66785 3.90851, 5.67774 3.82664 L 5.67774 3.81944 C 5.67774 3.77176, 5.66065 3.73577, 5.62601 3.71148, 5.58193 3.6737, 5.47802 3.64716, 5.31473 3.63276, 5.15189 3.61837, 4.96387 3.61117, 4.7511 3.61072, 4.613 3.61117, 4.54373 3.5464, 4.54373 3.4164 L 4.54373 3.35882, 4.58826 3.23646 C 4.61795 3.12671, 4.70701 3.05473, 4.85501 3.02055 L 6.26342 2.90539, 6.80457 2.86221, 6.83426 2.86221 C 6.89363 2.86266, 6.94581 2.88425, 6.9899 2.92698, 7.00519 2.97061, 7.01239 3.01155, 7.01239 3.04933 L 7.01239 3.09972 Z M 4.52888 8.3969 C 4.50909 8.31099, 4.492 8.22102, 4.47715 8.12746, 4.46231 8.03389, 4.43982 7.94168, 4.41013 7.84991, 4.33141 7.625, 4.21895 7.43652, 4.0732 7.28538, 3.92746 7.13423, 3.74303 7.05866, 3.52081 7.05821, 3.31344 7.05866, 3.10832 7.13333, 2.90545 7.28178, 2.70303 7.43067, 2.5177 7.6223, 2.34946 7.85711, 2.1124 8.18863, 1.93472 8.5332, 1.81596 8.89037, 1.69721 9.24798, 1.58835 9.62089, 1.48939 10.0091, 1.39087 10.3932, 1.30945 10.7653, 1.24468 11.1247, 1.20554 11.3073, 1.18575 11.48, 1.18575 11.6429, 1.18575 11.8161, 1.20554 11.9838, 1.24468 12.1467, 1.28966 12.3725, 1.36973 12.5587, 1.48579 12.7049, 1.60184 12.8516, 1.76378 12.9244, 1.97115 12.924, 2.19877 12.9244, 2.42728 12.8453, 2.65714 12.6869, 2.88701 12.5286, 3.10067 12.3343, 3.29815 12.1035, 3.37732 12.0081, 3.45289 11.9159, 3.52441 11.8268, 3.59639 11.7382, 3.65936 11.6433, 3.71334 11.5421 L 4.52888 8.3969 Z" stroke="none" fill="#000000" />
			<rect />
		</svg>
	</g>
	<path d="M -510.719 0 L 510.719 0" fill="none" stroke="#000000" stroke-width="1.20000005" stroke-linecap="round" stroke-linejoin="round" marker-start="url(#CustomMarker-03)" marker-end="url(#CustomMarker-04)" transform="matrix(0.625 0 -0 0.625 385.97 310.213)" />
	<path d="M -510.719 -15.1826 L -510.719 15.1826" fill="none" stroke="#000000" stroke-width="0.800000012" stroke-linecap="round" stroke-linejoin="round" transform="matrix(0.625 0 -0 0.625 385.97 310.213)" />
	<path d="M 510.719 -15.1826 L 510.719 15.1826" fill="none" stroke="#000000" stroke-width="0.800000012" stroke-linecap="round" stroke-linejoin="round" transform="matrix(0.625 0 -0 0.625 385.97 310.213)" />
	<g transform="matrix(1 0 -0 1 344.34 291.918)">
		<svg width="162.06459" height="42.0193443">
			<defs />
			<path d="M 10.7457 8.23856 C 10.5775 8.88677, 10.3121 9.51293, 9.94865 10.1175, 9.58563 10.7221, 9.12996 11.2713, 8.58117 11.7652, 8.08185 12.2119, 7.53351 12.5682, 6.93524 12.8345, 6.33742 13.1008, 5.7396 13.2335, 5.14132 13.2335 L 0.211646 13.2335 C 0.0784966 13.2335, 0.0069738 13.1714, -0.00337227 13.0463 L -0.00337227 12.9888, 0.0263165 12.8664 C 0.0659014 12.7085, 0.162165 12.6316, 0.315107 12.6361, 0.547668 12.6365, 0.767635 12.6329, 0.975006 12.6257, 1.18283 12.6185, 1.33577 12.5934, 1.43473 12.5497, 1.52875 12.4975, 1.60027 12.368, 1.64975 12.1611 L 3.73291 4.04976 C 3.7626 3.94449, 3.77699 3.86308, 3.77699 3.80505, 3.77699 3.74792, 3.76485 3.71418, 3.74011 3.70429, 3.67083 3.66155, 3.53633 3.63546, 3.33616 3.62557, 3.13598 3.61612, 2.91737 3.61117, 2.67986 3.61072, 2.54176 3.61117, 2.47249 3.5464, 2.47249 3.4164 L 2.47249 3.35882, 2.51702 3.23646 C 2.54671 3.09297, 2.63847 3.021, 2.79142 3.02055 L 7.73594 3.02055 C 8.3486 3.021, 8.88255 3.16269, 9.33733 3.44563, 9.7921 3.72903, 10.1578 4.10058, 10.4345 4.56076, 10.7309 5.07941, 10.8987 5.65519, 10.9383 6.2881, 10.9482 6.42305, 10.9531 6.54766, 10.9531 6.66236, 10.9531 7.17607, 10.8843 7.70147, 10.7457 8.23856 Z M 9.31484 4.89184 C 9.14705 4.49419, 8.8839 4.1811, 8.52539 3.95304, 8.16732 3.72543, 7.74853 3.61117, 7.26901 3.61072 L 5.67482 3.61072 C 5.42292 3.61117, 5.27222 3.63051, 5.22274 3.66875, 5.17326 3.70743, 5.12153 3.84373, 5.0671 4.07854 L 2.9691 12.1899 C 2.92951 12.3536, 2.90972 12.471, 2.90972 12.5425 L 2.90972 12.6001 C 2.92951 12.6199, 3.06086 12.6316, 3.30287 12.6361 L 4.89662 12.6361 C 5.38108 12.6365, 5.8642 12.5277, 6.34596 12.3091, 6.82818 12.0909, 7.25912 11.7873, 7.63967 11.3982, 8.07466 10.9474, 8.40843 10.445, 8.64054 9.89079, 8.87265 9.3366, 9.05798 8.77656, 9.19608 8.20977, 9.34947 7.62005, 9.45563 7.03707, 9.51501 6.46084, 9.52491 6.32679, 9.52985 6.19724, 9.52985 6.07219, 9.52985 5.65025, 9.45833 5.2571, 9.31484 4.89184 Z" stroke="none" fill="#000000" />
			<polyline points="-4.1272 4.74628 0 -4.74628" fill="none" stroke="#000000" stroke-width="0.589599967" stroke-linecap="round" stroke-linejoin="round" transform="matrix(7.54979e-008 1 -1 7.54979e-008 20.3901 8.80585)" />
			<polyline points="0 -4.74628 4.1272 4.74628" fill="none" stroke="#000000" stroke-width="0.589599967" stroke-linecap="round" stroke-linejoin="round" transform="matrix(7.54979e-008 1 -1 7.54979e-008 20.3901 8.80585)" />
			<ellipse cx="-4.1271999478340149" cy="4.7462803721427917" rx="0.29479998350143433" ry="0.29479998350143433" stroke="none" fill="#000000" transform="matrix(7.54979e-008 1 -1 7.54979e-008 20.3901 8.80585)" />
			<ellipse cx="-0" cy="-4.7462800145149231" rx="0.29479998350143433" ry="0.29479998350143433" stroke="none" fill="#000000" transform="matrix(7.54979e-008 1 -1 7.54979e-008 20.3901 8.80585)" />
			<ellipse cx="4.1272000670433044" cy="4.7462803721427917" rx="0.29479998350143433" ry="0.29479998350143433" stroke="none" fill="#000000" transform="matrix(7.54979e-008 1 -1 7.54979e-008 20.3901 8.80585)" />
			<polyline points="-4.1272 4.74628 0 -4.74628" fill="none" stroke="#000000" stroke-width="0.589599967" stroke-linecap="round" stroke-linejoin="round" transform="matrix(7.54979e-008 1 -1 7.54979e-008 35.7197 8.80585)" />
			<polyline points="0 -4.74628 4.1272 4.74628" fill="none" stroke="#000000" stroke-width="0.589599967" stroke-linecap="round" stroke-linejoin="round" transform="matrix(7.54979e-008 1 -1 7.54979e-008 35.7197 8.80585)" />
			<ellipse cx="-4.1271999478340149" cy="4.7462803721427917" rx="0.29479998350143433" ry="0.29479998350143433" stroke="none" fill="#000000" transform="matrix(7.54979e-008 1 -1 7.54979e-008 35.7197 8.80585)" />
			<ellipse cx="-0" cy="-4.7462800145149231" rx="0.29479998350143433" ry="0.29479998350143433" stroke="none" fill="#000000" transform="matrix(7.54979e-008 1 -1 7.54979e-008 35.7197 8.80585)" />
			<ellipse cx="4.1272000670433044" cy="4.7462803721427917" rx="0.29479998350143433" ry="0.29479998350143433" stroke="none" fill="#000000" transform="matrix(7.54979e-008 1 -1 7.54979e-008 35.7197 8.80585)" />
			<path d="M 49.9802 11.5925 C 49.8911 11.9002, 49.8466 12.1687, 49.8466 12.3986, 49.8466 12.4616, 49.8515 12.5214, 49.8614 12.5785, 49.8862 12.8093, 50.0022 12.9244, 50.2096 12.924, 50.3135 12.9244, 50.4111 12.8812, 50.5024 12.7949, 50.5942 12.7085, 50.6783 12.5803, 50.7548 12.4098, 50.8312 12.2398, 50.9041 12.0356, 50.9734 11.7981, 51.0427 11.5606, 51.1142 11.3028, 51.188 11.0239, 51.2177 10.8998, 51.3018 10.8372, 51.4403 10.8368 L 51.6108 10.8368 C 51.7395 10.8372, 51.8033 10.8899, 51.8033 10.9951 L 51.8033 11.0455 C 51.744 11.2812, 51.6774 11.5331, 51.6032 11.8017, 51.5294 12.0707, 51.4304 12.3199, 51.3067 12.5502, 51.1835 12.7805, 51.0278 12.9798, 50.8398 13.1475, 50.6522 13.3153, 50.4174 13.399, 50.1358 13.399, 49.7602 13.399, 49.4602 13.2951, 49.2353 13.0864, 49.0103 12.8777, 48.8808 12.6653, 48.8462 12.449, 48.6784 12.6415, 48.4278 12.848, 48.094 13.0684, 47.7603 13.2888, 47.4081 13.399, 47.0374 13.399, 46.6474 13.399, 46.3204 13.3009, 46.0559 13.1044, 45.7914 12.9078, 45.5853 12.6604, 45.4369 12.3626, 45.2588 12.0081, 45.1648 11.6267, 45.1549 11.2182 L 45.1549 11.1103 C 45.1549 10.7315, 45.207 10.3528, 45.3105 9.9731, 45.4293 9.55611, 45.5952 9.14362, 45.8076 8.73562, 46.0199 8.32808, 46.3015 7.94887, 46.6523 7.59801, 46.9389 7.31057, 47.2664 7.06856, 47.6343 6.87153, 48.0023 6.67496, 48.3765 6.57645, 48.7571 6.57599, 49.0882 6.57645, 49.3576 6.66416, 49.565 6.83915, 49.7728 7.01458, 49.9037 7.16167, 49.9577 7.28133 L 50.7584 4.1865 C 50.798 4.02861, 50.8227 3.90851, 50.8321 3.82664 L 50.8321 3.81944 C 50.8321 3.77176, 50.8151 3.73577, 50.7804 3.71148, 50.7363 3.6737, 50.6324 3.64716, 50.4691 3.63276, 50.3063 3.61837, 50.1183 3.61117, 49.906 3.61072, 49.7679 3.61117, 49.6986 3.5464, 49.6986 3.4164 L 49.6986 3.35882, 49.7427 3.23646 C 49.7724 3.12671, 49.8614 3.05473, 50.0099 3.02055 L 51.4178 2.90539, 51.959 2.86221, 51.9887 2.86221 C 52.048 2.86266, 52.1002 2.88425, 52.1443 2.92698, 52.1591 2.97061, 52.1663 3.01155, 52.1663 3.04933 L 52.1663 3.09972 Z M 49.6837 8.3969 C 49.6639 8.31099, 49.6469 8.22102, 49.632 8.12746, 49.6172 8.03389, 49.5947 7.94168, 49.565 7.84991, 49.4858 7.625, 49.3734 7.43652, 49.2276 7.28538, 49.0819 7.13423, 48.8979 7.05866, 48.6757 7.05821, 48.4683 7.05866, 48.2632 7.13333, 48.0608 7.28178, 47.8583 7.43067, 47.6726 7.6223, 47.5043 7.85711, 47.2677 8.18863, 47.09 8.5332, 46.9713 8.89037, 46.8525 9.24798, 46.7437 9.62089, 46.6447 10.0091, 46.5462 10.3932, 46.4648 10.7653, 46.4 11.1247, 46.3608 11.3073, 46.3411 11.48, 46.3411 11.6429, 46.3411 11.8161, 46.3608 11.9838, 46.4 12.1467, 46.445 12.3725, 46.525 12.5587, 46.6411 12.7049, 46.7571 12.8516, 46.9191 12.9244, 47.1265 12.924, 47.3541 12.9244, 47.5826 12.8453, 47.812 12.6869, 48.0419 12.5286, 48.2555 12.3343, 48.453 12.1035, 48.5322 12.0081, 48.6077 11.9159, 48.6793 11.8268, 48.7512 11.7382, 48.8142 11.6433, 48.8682 11.5421 L 49.6837 8.3969 Z" stroke="none" fill="#000000" />
			<rect />
		</svg>
	</g>
	<path d="M -44.1252 9.76619e-005 L 44.1252 9.76619e-005" fill="none" stroke="#000000" stroke-width="1.20000005" stroke-linecap="round" stroke-linejoin="round" marker-start="url(#CustomMarker-05)" marker-end="url(#CustomMarker-06)" transform="matrix(4.71862e-008 0.625 -0.625 4.71862e-008 714.659 171.701)" />
	<path d="M -44.1252 -15.1834 L -44.1252 15.1834" fill="none" stroke="#000000" stroke-width="0.800000012" stroke-linecap="round" stroke-linejoin="round" transform="matrix(4.71862e-008 0.625 -0.625 4.71862e-008 714.659 171.701)" />
	<path d="M 44.1252 -15.1834 L 44.1252 15.1834" fill="none" stroke="#000000" stroke-width="0.800000012" stroke-linecap="round" stroke-linejoin="round" transform="matrix(4.71862e-008 0.625 -0.625 4.71862e-008 714.659 171.701)" />
	<g transform="matrix(1 0 -0 1 720.546 162.895)">
		<svg width="27.073843" height="26.9690266">
			<defs />
			<path d="M 7.17073 7.77794 C 7.11675 7.99431, 7.00654 8.15624, 6.841 8.2642, 6.67547 8.37216, 6.50903 8.42614, 6.34079 8.42569, 6.16806 8.42614, 6.02456 8.37081, 5.91076 8.26015, 5.82709 8.17919, 5.78255 8.07348, 5.77716 7.94348, 5.77716 7.8913, 5.78705 7.82382, 5.80685 7.74195, 5.86127 7.56022, 5.94539 7.42212, 6.05875 7.32856, 6.17256 7.23499, 6.25173 7.18102, 6.29626 7.16617, 6.20269 7.09465, 6.00972 7.05866, 5.71778 7.05821, 5.46093 7.05866, 5.23106 7.19181, 5.02864 7.45811, 4.82622 7.72441, 4.67508 8.04469, 4.57611 8.4185 L 3.89417 11.0527 C 3.8249 11.3172, 3.77317 11.5691, 3.73853 11.8084, 3.71874 11.8903, 3.70884 11.9622, 3.70884 12.0243, 3.70884 12.1737, 3.73358 12.3149, 3.78306 12.449, 3.83255 12.5934, 3.90677 12.7085, 4.00573 12.7949, 4.10469 12.8812, 4.23064 12.9244, 4.38359 12.924, 4.58151 12.9244, 4.77179 12.8732, 4.95442 12.7697, 5.1375 12.6667, 5.30574 12.5277, 5.45868 12.3523, 5.61162 12.1773, 5.74747 11.9735, 5.86622 11.7405, 5.98498 11.5079, 6.07854 11.2691, 6.14782 11.0239, 6.1775 10.8998, 6.26162 10.8372, 6.39972 10.8368 L 6.57021 10.8368 C 6.69886 10.8372, 6.76318 10.8854, 6.76318 10.9807, 6.76318 11.01, 6.75598 11.0365, 6.74114 11.0599, 6.67187 11.3482, 6.55941 11.6325, 6.40377 11.9132, 6.24813 12.1939, 6.06685 12.4422, 5.85903 12.6581, 5.6512 12.8741, 5.41549 13.0517, 5.15099 13.1903, 4.88649 13.3297, 4.60355 13.399, 4.30217 13.399, 3.99583 13.399, 3.73133 13.3333, 3.50912 13.2011, 3.2869 13.0697, 3.10607 12.8979, 2.96752 12.6865, 2.92344 12.6343, 2.8888 12.5803, 2.86406 12.525, 2.83932 12.4701, 2.83168 12.4616, 2.84157 12.4993, 2.72327 12.6964, 2.53569 12.8956, 2.27839 13.0972, 2.02153 13.2987, 1.7251 13.399, 1.38862 13.399, 1.20105 13.399, 1.01572 13.3752, 0.832635 13.327, 0.650005 13.2793, 0.490315 13.2051, 0.354467 13.1044, 0.218619 13.0036, 0.116058 12.8812, 0.046784 12.7369, 0.012597 12.6509, -0.00449651 12.5574, -0.00494634 12.4562, -0.00449651 12.3846, 0.00539973 12.3005, 0.0247424 12.2043, 0.0791717 11.9888, 0.190279 11.8268, 0.358516 11.7189, 0.526752 11.6109, 0.694538 11.557, 0.862324 11.5565, 1.03551 11.557, 1.18395 11.6123, 1.3072 11.722, 1.39132 11.8039, 1.43316 11.9096, 1.43316 12.0387, 1.43316 12.1062, 1.42326 12.1737, 1.40347 12.2402, 1.35939 12.4085, 1.27887 12.5443, 1.16281 12.6473, 1.04675 12.7508, 0.963536 12.807, 0.914054 12.816, 1.00807 12.8934, 1.19835 12.9294, 1.48489 12.924, 1.74219 12.9244, 1.9743 12.7904, 2.18167 12.5214, 2.38949 12.2528, 2.54019 11.9312, 2.6342 11.5565 L 3.32334 8.90791 C 3.39261 8.6587, 3.44704 8.414, 3.48663 8.17379, 3.49652 8.09732, 3.50147 8.02534, 3.50147 7.95787, 3.50147 7.80943, 3.47943 7.67043, 3.43445 7.54043, 3.38542 7.39693, 3.30894 7.28088, 3.20503 7.19181, 3.10112 7.10319, 2.97247 7.05866, 2.81953 7.05821, 2.62161 7.05866, 2.42998 7.11039, 2.24465 7.2134, 2.05932 7.31686, 1.89018 7.45451, 1.73724 7.62725, 1.5843 7.79998, 1.44845 8.0006, 1.3297 8.22822, 1.21094 8.45628, 1.12457 8.69739, 1.0697 8.95109, 1.01572 9.08109, 0.924401 9.14812, 0.795749 9.15262 L 0.632461 9.15262 C 0.514156 9.15307, 0.454779 9.09324, 0.454779 8.97268 L 0.454779 8.9223 C 0.529001 8.62542, 0.642807 8.33618, 0.795749 8.05548, 0.948691 7.77479, 1.13177 7.52648, 1.34409 7.31057, 1.55686 7.09465, 1.79437 6.91831, 2.05617 6.78157, 2.31797 6.64482, 2.60226 6.57645, 2.90815 6.57599, 3.20503 6.57645, 3.46683 6.64122, 3.694 6.77077, 3.92161 6.90032, 4.10694 7.07306, 4.24999 7.28852, 4.27968 7.3416, 4.30712 7.39828, 4.33186 7.45811, 4.3566 7.51839, 4.36379 7.53368, 4.3539 7.50444, 4.4776 7.29392, 4.66788 7.08655, 4.92473 6.88233, 5.18203 6.67856, 5.47577 6.57645, 5.80685 6.57599, 5.99487 6.57645, 6.1811 6.59939, 6.36643 6.64482, 6.55176 6.6907, 6.7128 6.76357, 6.84865 6.86434, 6.9845 6.9651, 7.08481 7.0897, 7.14869 7.23814, 7.18332 7.32496, 7.20042 7.42347, 7.20042 7.53323, 7.20042 7.60565, 7.19052 7.68707, 7.17073 7.77794 Z" stroke="none" fill="#000000" />
			<rect />
		</svg>
	</g>
	<path d="M -510.721 0 L 510.718 0" fill="none" stroke="#000000" stroke-width="0.800000012" stroke-linecap="round" stroke-linejoin="round" stroke-dasharray="2.804, 1.996" transform="matrix(0.625 0 0 0.625 385.97 199.131)" />
	<path d="M -241.588 -61.8236 L 241.589 61.8236" fill="none" stroke="#000000" stroke-width="0.800000012" stroke-linecap="round" stroke-linejoin="round" stroke-dasharray="2.804, 1.996" transform="matrix(0.625 0 0 0.625 217.762 194.229)" />
	<path d="M -136.118 34.8333 L 136.118 -34.8333" fill="none" stroke="#000000" stroke-width="0.800000012" stroke-linecap="round" stroke-linejoin="round" stroke-dasharray="2.804, 1.996" transform="matrix(0.625 0 0 0.625 151.843 220.902)" />
	<path d="M -16.7324 65.3843 L 16.7319 -65.3849" fill="none" stroke="#000000" stroke-width="0.800000012" stroke-linecap="round" stroke-linejoin="round" stroke-dasharray="2.804, 1.996" transform="matrix(0.625 0 0 0.625 77.2275 201.808)" />
	<path d="M -16.732 65.3847 L 16.7324 -65.3846" fill="none" stroke="#000000" stroke-width="0.800000012" stroke-linecap="round" stroke-linejoin="round" stroke-dasharray="2.804, 1.996" transform="matrix(0.625 0 0 0.625 98.2538 119.642)" />
	<ellipse cx="714.13768291473389" cy="342.95628643035889" rx="4.1999998092651367" ry="4.1999998092651367" stroke="none" fill="#000000" transform="matrix(0.625 0 0 0.625 -337.625 -135.572)" />
	<path d="M -33.5537 61.4507 L 33.5532 -61.4508" fill="none" stroke="#000000" stroke-width="0.800000012" stroke-linecap="round" stroke-linejoin="round" stroke-dasharray="2.804, 1.996" transform="matrix(0.625 0 0 0.625 87.7408 117.183)" />
	<path d="M -120.045 -65.5479 L 120.045 65.5475" fill="none" stroke="#000000" stroke-width="0.800000012" stroke-linecap="round" stroke-linejoin="round" stroke-dasharray="2.804, 1.996" transform="matrix(0.625 0 0 0.625 162.713 158.252)" />
	<path d="M -440.158 7.80438 L 440.156 -7.80365" fill="none" stroke="#FF2A00" stroke-width="1.60000002" stroke-linecap="round" stroke-linejoin="round" marker-end="url(#CustomMarker-07)" transform="matrix(0.625 0 0 0.625 430.071 149.148)" />
	<path d="M -37.0088 -60.1995 L 37.0089 60.1994" fill="none" stroke="#FF2A00" stroke-width="1.60000002" stroke-linecap="round" stroke-linejoin="round" transform="matrix(0.625 0 0 0.625 131.842 116.401)" />
	<path d="M -70.5625 1.25085 L 70.5621 -1.25067" fill="none" stroke="#FF2A00" stroke-width="0.800000012" stroke-linecap="round" stroke-linejoin="round" stroke-dasharray="2.804, 1.996" transform="matrix(0.625 0 0 0.625 110.871 154.808)" />
	<path d="M -340.82 52.5333 L 340.821 -52.5327" fill="none" stroke="#FF2A00" stroke-width="1.60000002" stroke-linecap="round" stroke-linejoin="round" marker-end="url(#CustomMarker-08)" transform="matrix(0.625 0 0 0.625 492.156 177.104)" />
	<path d="M -136.346 -104.929 L 136.346 104.929" fill="none" stroke="#FF2A00" stroke-width="1.60000002" stroke-linecap="round" stroke-linejoin="round" transform="matrix(0.625 0 0 0.625 193.928 144.357)" />
	<path d="M -169.892 26.1866 L 169.891 -26.1865" fill="none" stroke="#FF2A00" stroke-width="0.800000012" stroke-linecap="round" stroke-linejoin="round" stroke-dasharray="2.804, 1.996" transform="matrix(0.625 0 0 0.625 172.961 226.304)" />
	<path d="M -10.4155 -67.5737 L 10.4155 67.5738" fill="none" stroke="#FF2A00" stroke-width="0.800000012" stroke-linecap="round" stroke-linejoin="round" stroke-dasharray="2.804, 1.996" transform="matrix(0.625 0 0 0.625 73.2794 197.823)" />
	<path d="M 7.39585 48.018 C 4.9486 48.3949, 2.47612 48.5842, 9.34395e-006 48.5842" fill="none" stroke="#000000" stroke-width="1.20000005" stroke-linecap="round" stroke-linejoin="round" transform="matrix(0.625 0 -0 0.625 66.7792 155.59)" />
	<g transform="matrix(1 0 -0 1 74.0029 171.749)">
		<svg width="23.9723053" height="38.9535408">
			<defs />
			<path d="M 6.26725 4.32325 C 6.386 4.77938, 6.44493 5.24495, 6.44493 5.71952, 6.44493 5.86886, 6.43998 6.01281, 6.43008 6.15136, 6.38105 6.78517, 6.27489 7.42077, 6.1116 8.05863, 5.93392 8.70189, 5.70901 9.3393, 5.43731 9.96996, 5.16561 10.6011, 4.8044 11.2065, 4.35457 11.7868, 4.20163 11.9838, 4.03204 12.1786, 3.84671 12.3702, 3.66139 12.5623, 3.46256 12.7337, 3.25024 12.8848, 3.03792 13.036, 2.81661 13.1597, 2.58674 13.2551, 2.35688 13.3513, 2.11577 13.399, 1.86387 13.399, 1.60702 13.399, 1.3857 13.35, 1.20037 13.2515, 1.01504 13.1534, 0.855802 13.0265, 0.722203 12.8705, 0.589053 12.7148, 0.478845 12.5407, 0.392478 12.3487, 0.306111 12.157, 0.235488 11.96, 0.181058 11.758, 0.0578051 11.3122, -0.00427139 10.8516, -0.00427139 10.3762, -0.00427139 10.2232, 0.00562489 10.0721, 0.0254173 9.92272, 0.0650023 9.29926, 0.171162 8.6686, 0.343896 8.02984, 0.507184 7.38749, 0.727151 6.75188, 1.0038 6.12302, 1.28089 5.49461, 1.64885 4.88734, 2.10858 4.30166, 2.26197 4.10553, 2.4302 3.90986, 2.61283 3.71553, 2.79546 3.52121, 2.99069 3.34847, 3.19806 3.19733, 3.40588 3.04619, 3.6245 2.92293, 3.85436 2.82667, 4.08422 2.73086, 4.32758 2.68272, 4.58443 2.68227, 4.84174 2.68272, 5.0617 2.73221, 5.24433 2.83027, 5.42696 2.92878, 5.5889 3.05473, 5.7297 3.20812, 5.87095 3.36197, 5.98205 3.53695, 6.06347 3.73353, 6.14534 3.93055, 6.21327 4.12713, 6.26725 4.32325 Z M 5.26638 4.48879 C 5.24658 4.30211, 5.22184 4.12713, 5.19215 3.96384, 5.16247 3.801, 5.11928 3.6593, 5.0626 3.5392, 5.00592 3.41954, 4.93305 3.32688, 4.84399 3.2621, 4.75492 3.19733, 4.64156 3.16494, 4.50302 3.16449, 4.21647 3.16494, 3.95198 3.29809, 3.70997 3.56439, 3.46796 3.83069, 3.23315 4.14872, 3.00553 4.51758, 2.67941 5.04568, 2.4275 5.58817, 2.24937 6.14461, 2.07124 6.7015, 1.9183 7.23859, 1.78965 7.75635 L 4.80665 7.75635 C 4.94025 7.21475, 5.06395 6.66281, 5.17731 6.10098, 5.25648 5.72222, 5.29606 5.34796, 5.29606 4.9782, 5.29606 4.81536, 5.28617 4.65253, 5.26638 4.48879 Z M 1.63401 8.33932 C 1.50086 8.88182, 1.38435 9.42881, 1.28539 9.9803, 1.20667 10.3788, 1.16708 10.7774, 1.16708 11.175, 1.16708 11.3244, 1.17203 11.4683, 1.18193 11.6069, 1.19182 11.7945, 1.21432 11.9699, 1.2485 12.1327, 1.28314 12.296, 1.32902 12.4364, 1.3857 12.5538, 1.44238 12.6716, 1.51795 12.7625, 1.61196 12.8273, 1.70598 12.892, 1.81979 12.9244, 1.95293 12.924, 2.23453 12.9244, 2.49768 12.7926, 2.74238 12.5286, 2.98709 12.265, 3.21785 11.9479, 3.43557 11.5781, 3.7617 11.041, 4.0136 10.4967, 4.19173 9.94477, 4.36987 9.39327, 4.52281 8.85798, 4.65101 8.33932 Z" stroke="none" fill="#000000" />
			<rect />
		</svg>
	</g>
	<path d="M 48.5835 -0.220597 C 48.6024 3.94294, 48.086 8.09164, 47.0471 12.1235" fill="none" stroke="#000000" stroke-width="1.20000005" stroke-linecap="round" stroke-linejoin="round" transform="matrix(0.625 0 -0 0.625 237.741 199.428)" />
	<g transform="matrix(1 0 -0 1 277.501 183.696)">
		<svg width="30.027689" height="26.9690266">
			<defs />
			<path d="M 8.66169 7.52603 C 8.484 8.19808, 8.2321 8.84628, 7.90552 9.46975, 7.5794 10.0937, 7.19389 10.6595, 6.74901 11.1679, 6.74901 11.4036, 6.75396 11.6316, 6.76386 11.852, 6.77375 12.0729, 6.79625 12.2659, 6.83088 12.4314, 6.86552 12.597, 6.91005 12.7207, 6.96403 12.8021, 7.01846 12.8839, 7.08998 12.9244, 7.17905 12.924, 7.34234 12.9244, 7.49798 12.8597, 7.64642 12.7301, 7.79487 12.6006, 7.89113 12.4445, 7.93521 12.2618, 7.9649 12.1278, 8.05172 12.0608, 8.19476 12.0603 L 8.28383 12.0603 C 8.39764 12.0608, 8.45926 12.1183, 8.46916 12.233 L 8.46916 12.2834 C 8.43452 12.4373, 8.3729 12.5817, 8.28383 12.7157, 8.19476 12.8502, 8.08726 12.969, 7.9613 13.072, 7.83535 13.175, 7.69815 13.2551, 7.54971 13.3126, 7.40172 13.3702, 7.24608 13.399, 7.08279 13.399, 6.65275 13.399, 6.32662 13.2699, 6.10441 13.0108, 5.88219 12.7517, 5.7387 12.4805, 5.67437 12.1971, 5.24434 12.5479, 4.75267 12.8358, 4.19893 13.0612, 3.64564 13.2865, 3.06986 13.399, 2.47159 13.399, 2.03705 13.399, 1.64165 13.3104, 1.28584 13.1332, 0.930025 12.9559, 0.648432 12.7013, 0.440611 12.3698, 0.218396 12.0486, 0.0798484 11.6771, 0.0254191 11.2542, 0.00562662 11.1346, -0.00426966 11.005, -0.00426966 10.8656, -0.00426966 10.5781, 0.0380143 10.2808, 0.121683 9.9731, 0.240437 9.52732, 0.429815 9.09909, 0.688917 8.68884, 0.948468 8.2786, 1.271 7.90794, 1.65605 7.57642, 2.03211 7.26963, 2.43875 7.02627, 2.87599 6.84634, 3.31322 6.66641, 3.74955 6.57645, 4.18409 6.57599, 4.59928 6.57645, 4.96634 6.65472, 5.28482 6.81036, 5.60375 6.96645, 5.8732 7.17652, 6.09316 7.44012, 6.31313 7.70417, 6.47732 8.0123, 6.58618 8.36497, 6.69503 8.71763, 6.74901 9.08829, 6.74901 9.47649 L 6.74901 10.4265 C 7.01126 10.0865, 7.27306 9.65238, 7.53487 9.12428, 7.79667 8.59663, 7.99684 8.05683, 8.13539 7.50444, 8.16508 7.37039, 8.25189 7.30112, 8.39494 7.29572 L 8.46916 7.29572 C 8.59781 7.29617, 8.66169 7.35375, 8.66169 7.46846 L 8.66169 7.52603 Z M 5.57766 11.6861 C 5.57316 11.6528, 5.56821 11.6028, 5.56326 11.5354, 5.55832 11.4683, 5.55562 11.4009, 5.55562 11.3334 L 5.55562 9.714 C 5.55562 9.36404, 5.53223 9.02981, 5.48544 8.71043, 5.43866 8.39151, 5.36174 8.10721, 5.25558 7.85756, 5.14942 7.60835, 5.00323 7.41268, 4.8179 7.27098, 4.63257 7.12973, 4.39191 7.05866, 4.09502 7.05821, 3.81838 7.05866, 3.53903 7.13198, 3.25744 7.27818, 2.97585 7.42482, 2.72394 7.625, 2.50128 7.8787, 2.22463 8.18638, 2.01321 8.52106, 1.86747 8.88317, 1.72172 9.24573, 1.59937 9.62089, 1.50041 10.0091, 1.4019 10.3932, 1.33037 10.763, 1.28539 11.1175, 1.27549 11.2092, 1.27055 11.3001, 1.27055 11.391, 1.27055 11.6456, 1.31283 11.8903, 1.39695 12.1251, 1.49096 12.3653, 1.63671 12.5587, 1.83418 12.7049, 2.03211 12.8516, 2.26917 12.9244, 2.54581 12.924, 3.1045 12.9244, 3.64204 12.8142, 4.15845 12.5934, 4.67485 12.3729, 5.14807 12.0702, 5.57766 11.6861 Z" stroke="none" fill="#000000" />
			<rect />
		</svg>
	</g>
	<path d="M -510.71 43.8869 L 510.71 -43.8867" fill="none" stroke="#000000" stroke-width="0.800000012" stroke-linecap="round" stroke-linejoin="round" stroke-dasharray="2.804, 1.996" transform="matrix(0.625 0 0 0.625 385.964 171.702)" />
	<path d="M 94.4656 -8.49637 C 94.7197 -5.67138, 94.8469 -2.83642, 94.8469 -2.99012e-005" fill="none" stroke="#000000" stroke-width="1.20000005" stroke-linecap="round" stroke-linejoin="round" transform="matrix(0.625 0 -0 0.625 66.7792 199.131)" />
	<g transform="matrix(1 0 -0 1 117.906 178.596)">
		<svg width="23.9723053" height="38.9535408">
			<defs />
			<path d="M 6.26725 4.32325 C 6.386 4.77938, 6.44493 5.24495, 6.44493 5.71952, 6.44493 5.86886, 6.43998 6.01281, 6.43008 6.15136, 6.38105 6.78517, 6.27489 7.42077, 6.1116 8.05863, 5.93392 8.70189, 5.70901 9.3393, 5.43731 9.96996, 5.16561 10.6011, 4.8044 11.2065, 4.35457 11.7868, 4.20163 11.9838, 4.03204 12.1786, 3.84671 12.3702, 3.66139 12.5623, 3.46256 12.7337, 3.25024 12.8848, 3.03792 13.036, 2.81661 13.1597, 2.58674 13.2551, 2.35688 13.3513, 2.11577 13.399, 1.86387 13.399, 1.60702 13.399, 1.3857 13.35, 1.20037 13.2515, 1.01504 13.1534, 0.855802 13.0265, 0.722203 12.8705, 0.589053 12.7148, 0.478845 12.5407, 0.392478 12.3487, 0.306111 12.157, 0.235488 11.96, 0.181058 11.758, 0.0578051 11.3122, -0.00427139 10.8516, -0.00427139 10.3762, -0.00427139 10.2232, 0.00562489 10.0721, 0.0254173 9.92272, 0.0650023 9.29926, 0.171162 8.6686, 0.343896 8.02984, 0.507184 7.38749, 0.727151 6.75188, 1.0038 6.12302, 1.28089 5.49461, 1.64885 4.88734, 2.10858 4.30166, 2.26197 4.10553, 2.4302 3.90986, 2.61283 3.71553, 2.79546 3.52121, 2.99069 3.34847, 3.19806 3.19733, 3.40588 3.04619, 3.6245 2.92293, 3.85436 2.82667, 4.08422 2.73086, 4.32758 2.68272, 4.58443 2.68227, 4.84174 2.68272, 5.0617 2.73221, 5.24433 2.83027, 5.42696 2.92878, 5.5889 3.05473, 5.7297 3.20812, 5.87095 3.36197, 5.98205 3.53695, 6.06347 3.73353, 6.14534 3.93055, 6.21327 4.12713, 6.26725 4.32325 Z M 5.26638 4.48879 C 5.24658 4.30211, 5.22184 4.12713, 5.19215 3.96384, 5.16247 3.801, 5.11928 3.6593, 5.0626 3.5392, 5.00592 3.41954, 4.93305 3.32688, 4.84399 3.2621, 4.75492 3.19733, 4.64156 3.16494, 4.50302 3.16449, 4.21647 3.16494, 3.95198 3.29809, 3.70997 3.56439, 3.46796 3.83069, 3.23315 4.14872, 3.00553 4.51758, 2.67941 5.04568, 2.4275 5.58817, 2.24937 6.14461, 2.07124 6.7015, 1.9183 7.23859, 1.78965 7.75635 L 4.80665 7.75635 C 4.94025 7.21475, 5.06395 6.66281, 5.17731 6.10098, 5.25648 5.72222, 5.29606 5.34796, 5.29606 4.9782, 5.29606 4.81536, 5.28617 4.65253, 5.26638 4.48879 Z M 1.63401 8.33932 C 1.50086 8.88182, 1.38435 9.42881, 1.28539 9.9803, 1.20667 10.3788, 1.16708 10.7774, 1.16708 11.175, 1.16708 11.3244, 1.17203 11.4683, 1.18193 11.6069, 1.19182 11.7945, 1.21432 11.9699, 1.2485 12.1327, 1.28314 12.296, 1.32902 12.4364, 1.3857 12.5538, 1.44238 12.6716, 1.51795 12.7625, 1.61196 12.8273, 1.70598 12.892, 1.81979 12.9244, 1.95293 12.924, 2.23453 12.9244, 2.49768 12.7926, 2.74238 12.5286, 2.98709 12.265, 3.21785 11.9479, 3.43557 11.5781, 3.7617 11.041, 4.0136 10.4967, 4.19173 9.94477, 4.36987 9.39327, 4.52281 8.85798, 4.65101 8.33932 Z" stroke="none" fill="#000000" />
			<rect />
		</svg>
	</g>
	<g transform="matrix(1 0 -0 1 116.813 64.3281)">
		<svg width="30.027689" height="38.9535408">
			<defs />
			<path d="M 7.76608 6.28091 C 7.73639 6.41586, 7.66262 6.48288, 7.54386 6.48243, 7.53396 6.49233, 7.50922 6.49727, 7.46964 6.49683, 7.4449 6.49727, 7.42511 6.49233, 7.41026 6.48243 L 7.34369 6.48243 C 7.21504 6.48288, 7.15071 6.43475, 7.15071 6.33849 L 7.15071 6.2881 C 7.21009 5.93364, 7.23978 5.60481, 7.23978 5.30208 L 7.23978 5.02858 C 7.21009 4.65972, 7.12732 4.34169, 6.99147 4.07539, 6.85562 3.8091, 6.6568 3.60307, 6.395 3.45643, 6.1332 3.31024, 5.80167 3.23691, 5.40133 3.23646, 5.16921 3.23691, 4.93305 3.28729, 4.69329 3.38806, 4.45399 3.48882, 4.23042 3.62557, 4.0226 3.79785, 3.79544 3.98543, 3.61011 4.19775, 3.46661 4.43526, 3.32357 4.67277, 3.21965 4.91613, 3.15488 5.16533, 3.10585 5.34346, 3.07886 5.5135, 3.07346 5.67634, 3.07346 5.90215, 3.12294 6.11807, 3.2219 6.32409, 3.3654 6.67001, 3.62225 6.89088, 3.99291 6.98624 L 5.69776 7.46126 C 6.00904 7.55302, 6.27489 7.69832, 6.49486 7.89714, 6.71483 8.09642, 6.88036 8.33168, 6.99147 8.60248, 7.10303 8.87372, 7.16825 9.16971, 7.18805 9.49089 L 7.18805 9.62044 C 7.18805 9.89933, 7.14846 10.1845, 7.06929 10.4769, 6.96583 10.8804, 6.80029 11.2691, 6.57268 11.6433, 6.34552 12.0176, 6.06392 12.3536, 5.72745 12.6505, 5.40627 12.9244, 5.05451 13.1439, 4.67125 13.309, 4.288 13.4746, 3.90384 13.5573, 3.51834 13.5573, 2.95021 13.5573, 2.46574 13.4665, 2.06539 13.2838, 1.66505 13.1021, 1.36861 12.8718, 1.17563 12.5929 L 0.44196 13.4638 C 0.378085 13.5263, 0.31106 13.5573, 0.241786 13.5573 L 0.197253 13.5573 C 0.0740002 13.5573, 0.00697565 13.5097, -0.00292063 13.4134, -0.00292063 13.3846, 0.00472647 13.3585, 0.019121 13.3342 L 0.879194 9.96591 C 0.908883 9.83186, 0.9957 9.76258, 1.13875 9.75719 L 1.30158 9.75719 C 1.36096 9.75764, 1.41539 9.78148, 1.46487 9.82916, 1.48466 9.86784, 1.49456 9.90158, 1.49456 9.92992, 1.49456 9.94971, 1.48961 9.97355, 1.47972 10.0019, 1.39065 10.3478, 1.34612 10.6694, 1.34612 10.9663, 1.34612 11.4418, 1.46262 11.8448, 1.69473 12.1755, 2.06539 12.7085, 2.71315 12.9748, 3.6371 12.9744, 3.86921 12.9748, 4.10537 12.9208, 4.34513 12.8129, 4.58489 12.7049, 4.80845 12.5596, 5.01582 12.377, 5.24344 12.1665, 5.43461 11.9326, 5.59025 11.6757, 5.74589 11.4193, 5.86105 11.1539, 5.93482 10.88, 5.9843 10.6595, 6.00904 10.4535, 6.00904 10.261, 6.00904 10.0217, 5.97711 9.79137, 5.91278 9.57006, 5.76479 9.2012, 5.49039 8.96369, 5.09004 8.85753 L 3.40723 8.38251 C 3.10585 8.30154, 2.8463 8.16839, 2.62858 7.98351, 2.41131 7.79908, 2.24218 7.57956, 2.12117 7.32496, 2.00017 7.07081, 1.92955 6.79011, 1.90975 6.48243 L 1.90975 6.32409 C 1.90975 6.08478, 1.93944 5.83288, 1.99882 5.56838, 2.10273 5.18512, 2.26827 4.81806, 2.49543 4.46765, 2.72304 4.11768, 3.00464 3.80775, 3.34021 3.53875, 3.65689 3.2801, 4.00416 3.07273, 4.38201 2.91664, 4.76032 2.76099, 5.13458 2.68272, 5.50524 2.68227, 6.01444 2.68272, 6.43413 2.77764, 6.76521 2.96702, 7.09628 3.15684, 7.33604 3.38086, 7.48448 3.63951 L 8.19611 2.78304 C 8.2357 2.71646, 8.30002 2.68272, 8.38864 2.68227 L 8.45566 2.68227 C 8.57442 2.68272, 8.63335 2.7403, 8.63335 2.85501 L 8.63335 2.91259 Z" stroke="none" fill="#000000" />
			<rect />
		</svg>
	</g>
	<path d="M 0 -54.4289 L 0 54.4292" fill="none" stroke="#000000" stroke-width="0.800000012" stroke-linecap="round" stroke-linejoin="round" stroke-dasharray="2.804, 1.996" transform="matrix(0.625 0 0 0.625 236.917 233.149)" />
	<path d="M -136.118 0 L 136.118 0" fill="none" stroke="#000000" stroke-width="1.20000005" stroke-linecap="round" stroke-linejoin="round" marker-start="url(#CustomMarker-09)" marker-end="url(#CustomMarker-10)" transform="matrix(0.625 0 -0 0.625 151.843 272.04)" />
	<path d="M -136.118 -15.1826 L -136.118 15.1826" fill="none" stroke="#000000" stroke-width="0.800000012" stroke-linecap="round" stroke-linejoin="round" transform="matrix(0.625 0 -0 0.625 151.843 272.04)" />
	<path d="M 136.118 -15.1826 L 136.118 15.1826" fill="none" stroke="#000000" stroke-width="0.800000012" stroke-linecap="round" stroke-linejoin="round" transform="matrix(0.625 0 -0 0.625 151.843 272.04)" />
	<path d="M -374.592 0 L 374.592 0" fill="none" stroke="#000000" stroke-width="1.20000005" stroke-linecap="round" stroke-linejoin="round" marker-start="url(#CustomMarker-11)" marker-end="url(#CustomMarker-12)" transform="matrix(0.625 0 -0 0.625 471.037 272.04)" />
	<path d="M -374.592 -15.1826 L -374.592 15.1826" fill="none" stroke="#000000" stroke-width="0.800000012" stroke-linecap="round" stroke-linejoin="round" transform="matrix(0.625 0 -0 0.625 471.037 272.04)" />
	<path d="M 374.592 -15.1826 L 374.592 15.1826" fill="none" stroke="#000000" stroke-width="0.800000012" stroke-linecap="round" stroke-linejoin="round" transform="matrix(0.625 0 -0 0.625 471.037 272.04)" />
	<g transform="matrix(1 0 -0 1 148.685 253.745)">
		<svg width="23.9723053" height="26.9690266">
			<defs />
			<path d="M 6.27669 7.78514 C 6.22271 7.99656, 6.1125 8.15624, 5.94697 8.2642, 5.78143 8.37216, 5.61454 8.42614, 5.44631 8.42569, 5.27357 8.42614, 5.13008 8.37081, 5.01627 8.26015, 4.92271 8.18368, 4.87547 8.07842, 4.87547 7.94348, 4.87547 7.8769, 4.88537 7.80943, 4.90516 7.74195, 4.9497 7.57462, 5.02752 7.44282, 5.13862 7.34655, 5.25018 7.25074, 5.3253 7.19766, 5.36489 7.18776, 5.25153 7.10185, 5.01672 7.05866, 4.66046 7.05821, 4.2853 7.05866, 3.95063 7.21115, 3.65644 7.51569, 3.36225 7.82067, 3.09685 8.23182, 2.85934 8.74957 L 1.78425 12.8664 C 1.74017 13.0445, 1.64975 13.1772, 1.5139 13.2659, 1.37805 13.3549, 1.24086 13.399, 1.10231 13.399, 0.954314 13.399, 0.840507 13.3513, 0.761337 13.2551, 0.697462 13.193, 0.665074 13.1066, 0.665074 12.996, 0.665074 12.9532, 0.670022 12.9006, 0.679918 12.8376 L 1.82113 8.38251 C 1.9003 8.07123, 1.93989 7.80223, 1.93989 7.57642 L 1.93989 7.40368 C 1.9156 7.17382, 1.79954 7.05866, 1.59172 7.05821, 1.374 7.05866, 1.19227 7.2341, 1.04653 7.58406, 0.900785 7.93448, 0.759088 8.39016, 0.620541 8.95109, 0.566112 9.08109, 0.474796 9.14812, 0.346145 9.15262 L 0.17566 9.15262 C 0.0569052 9.15307, -0.00247222 9.09324, -0.00247222 8.97268 L -0.00247222 8.9223 C 0.0569052 8.69739, 0.12393 8.45133, 0.198152 8.18503, 0.272373 7.91874, 0.371336 7.66683, 0.494589 7.42932, 0.618292 7.19181, 0.773933 6.99029, 0.961511 6.82475, 1.14954 6.65921, 1.3839 6.57645, 1.66549 6.57599, 2.04155 6.57645, 2.34429 6.6835, 2.5737 6.89672, 2.80356 7.11039, 2.93311 7.32001, 2.9628 7.52603, 3.13599 7.29617, 3.37709 7.08025, 3.68568 6.87873, 3.99471 6.67721, 4.34917 6.57645, 4.74952 6.57599, 4.94745 6.57645, 5.14852 6.59714, 5.35364 6.63762, 5.55876 6.67856, 5.73915 6.74558, 5.89479 6.83915, 6.05043 6.93271, 6.16558 7.05641, 6.23981 7.20935, 6.28434 7.30562, 6.30908 7.41358, 6.31358 7.53323, 6.31358 7.60565, 6.30143 7.68977, 6.27669 7.78514 Z" stroke="none" fill="#000000" />
			<rect />
		</svg>
	</g>
	<g transform="matrix(1 0 -0 1 469.347 253.745)">
		<svg width="14.9630756" height="38.9535408">
			<defs />
			<path d="M 1.17833 11.5853 C 1.12885 11.7823, 1.09421 11.9672, 1.07442 12.1395, 1.06452 12.2263, 1.05957 12.3055, 1.05957 12.377, 1.05957 12.44, 1.06452 12.507, 1.07442 12.5785, 1.08971 12.6941, 1.12435 12.7805, 1.17833 12.8381, 1.23276 12.8956, 1.31418 12.9244, 1.42304 12.924, 1.52695 12.9244, 1.61961 12.8812, 1.70103 12.7949, 1.7829 12.7085, 1.86297 12.5803, 1.94214 12.4098, 2.02131 12.2398, 2.09418 12.0356, 2.16075 11.7981, 2.22733 11.5606, 2.29795 11.3073, 2.37172 11.0383, 2.40141 10.9043, 2.48553 10.8372, 2.62408 10.8368 L 2.79456 10.8368 C 2.91332 10.8372, 2.97225 10.8899, 2.97225 10.9951 L 2.97225 11.0455 C 2.92277 11.2668, 2.85889 11.5129, 2.77972 11.7837, 2.70055 12.0549, 2.60204 12.3082, 2.48328 12.543, 2.36453 12.7782, 2.21159 12.9798, 2.02356 13.1475, 1.83553 13.3153, 1.60567 13.399, 1.33397 13.399, 1.07712 13.399, 0.854901 13.35, 0.666873 13.2515, 0.479294 13.1534, 0.328601 13.0171, 0.214794 12.8417, 0.101437 12.6667, 0.0344128 12.4661, 0.0146203 12.2402, 0.00472409 12.1831, -0.000224054 12.1206, -0.000224054 12.0531, -0.000224054 11.8903, 0.0195684 11.7247, 0.0591534 11.5565 L 1.95653 4.1865 C 1.99612 4.02861, 2.02356 3.90851, 2.0384 3.82664 L 2.0384 3.80505 C 2.0384 3.76231, 2.02626 3.73128, 2.00107 3.71148, 1.94169 3.6737, 1.83058 3.64716, 1.66774 3.63276, 1.5049 3.61837, 1.31688 3.61117, 1.10411 3.61072, 1.03033 3.61117, 0.975905 3.58733, 0.941268 3.53875, 0.911579 3.51041, 0.896735 3.47442, 0.896735 3.43079, 0.896735 3.40245, 0.904382 3.37591, 0.918777 3.35162 L 0.941268 3.24366 C 0.956113 3.17709, 0.990749 3.12671, 1.04518 3.09297, 1.09961 3.05968, 1.15899 3.03539, 1.22286 3.02055 L 3.15758 2.86221, 3.20211 2.86221 C 3.32086 2.86266, 3.38024 2.91529, 3.38024 3.02055, 3.38024 3.04978, 3.37529 3.08082, 3.3654 3.11411 Z" stroke="none" fill="#000000" />
			<rect />
		</svg>
	</g>
</svg>
