<?xml version="1.0"?>
<svg xmlns="http://www.w3.org/2000/svg" xmlns:xlink="http://www.w3.org/1999/xlink" width="292.738464" height="239.465103">
	<defs>
		<marker id="CustomMarker-01" markerUnits="strokeWidth" markerWidth="15.000001" markerHeight="9" viewBox="-15 -4.5 15 9" orient="auto-start-reverse">
			<path d="M 0 -0 L -10 -3, -8 -0.5, -8 0.5, -10 3 Z" fill="#000000" stroke="#000000" stroke-linejoin="round" />
		</marker>
		<marker id="CustomMarker-02" markerUnits="strokeWidth" markerWidth="15.000001" markerHeight="9" viewBox="-15 -4.5 15 9" orient="auto-start-reverse">
			<path d="M 0 -0 L -10 -3, -8 -0.5, -8 0.5, -10 3 Z" fill="#FF2A00" stroke="#FF2A00" stroke-linejoin="round" />
		</marker>
		<marker id="CustomMarker-03" markerUnits="strokeWidth" markerWidth="15.000001" markerHeight="9" viewBox="-15 -4.5 15 9" orient="auto-start-reverse">
			<path d="M 0 -0 L -10 -3, -8 -0.5, -8 0.5, -10 3 Z" fill="#FF2A00" stroke="#FF2A00" stroke-linejoin="round" />
		</marker>
		<marker id="CustomMarker-04" markerUnits="strokeWidth" markerWidth="15.000001" markerHeight="9" viewBox="-15 -4.5 15 9" orient="auto-start-reverse">
			<path d="M 0 -0 L -10 -3, -8 -0.5, -8 0.5, -10 3 Z" fill="#FF2A00" stroke="#FF2A00" stroke-linejoin="round" />
		</marker>
		<marker id="CustomMarker-05" markerUnits="strokeWidth" markerWidth="15.000001" markerHeight="9" viewBox="-15 -4.5 15 9" orient="auto-start-reverse">
			<path d="M 0 -0 L -10 -3, -8 -0.5, -8 0.5, -10 3 Z" fill="#44E500" stroke="#44E500" stroke-linejoin="round" />
		</marker>
		<marker id="CustomMarker-06" markerUnits="strokeWidth" markerWidth="15.000001" markerHeight="9" viewBox="-15 -4.5 15 9" orient="auto-start-reverse">
			<path d="M 0 -0 L -10 -3, -8 -0.5, -8 0.5, -10 3 Z" fill="#44E500" stroke="#44E500" stroke-linejoin="round" />
		</marker>
		<marker id="CustomMarker-07" markerUnits="strokeWidth" markerWidth="15.000001" markerHeight="9" viewBox="-15 -4.5 15 9" orient="auto-start-reverse">
			<path d="M 0 -0 L -10 -3, -8 -0.5, -8 0.5, -10 3 Z" fill="#44E500" stroke="#44E500" stroke-linejoin="round" />
		</marker>
		<marker id="CustomMarker-08" markerUnits="strokeWidth" markerWidth="15.000001" markerHeight="9" viewBox="-15 -4.5 15 9" orient="auto-start-reverse">
			<path d="M 0 -0 L -10 -3, -8 -0.5, -8 0.5, -10 3 Z" fill="#000000" stroke="#000000" stroke-linejoin="round" />
		</marker>
		<marker id="CustomMarker-09" markerUnits="strokeWidth" markerWidth="15.000001" markerHeight="9" viewBox="-15 -4.5 15 9" orient="auto-start-reverse">
			<path d="M 0 -0 L -10 -3, -8 -0.5, -8 0.5, -10 3 Z" fill="#000000" stroke="#000000" stroke-linejoin="round" />
		</marker>
	</defs>
	<rect x="-0" y="-0" width="292.738464" height="239.465103" stroke="none" fill="#FFFFFF" />
	<path d="M -83.8424 62.7 L 62.6999 -83.8425, 83.8424 -62.7, -62.6999 83.8425 Z" stroke="none" fill="#00CCC2" fill-opacity="0.392156839" transform="matrix(0.384615 0 0 0.384615 121.793 143.92)" />
	<path d="M -83.8424 62.7 L 62.6999 -83.8425, 83.8424 -62.7, -62.6999 83.8425 Z" fill="none" stroke="#000000" stroke-width="2.5999999" stroke-linecap="round" stroke-linejoin="round" transform="matrix(0.384615 0 0 0.384615 121.793 143.92)" />
	<path d="M -83.8427 62.7001 L 62.7005 -83.8424, 83.8427 -62.7001, -62.7005 83.8424 Z" stroke="none" fill="#00CCC2" fill-opacity="0.392156839" transform="matrix(0.384615 0 0 0.384615 209.52 143.92)" />
	<path d="M -83.8427 62.7001 L 62.7005 -83.8424, 83.8427 -62.7001, -62.7005 83.8424 Z" fill="none" stroke="#000000" stroke-width="2.5999999" stroke-linecap="round" stroke-linejoin="round" transform="matrix(0.384615 0 0 0.384615 209.52 143.92)" />
	<ellipse cx="809.48070049285889" cy="598.88634014129639" rx="6.8249998092651367" ry="6.8249998092651367" stroke="none" fill="#000000" transform="matrix(0.384615 0 0 0.384615 -287.862 -86.4213)" />
	<g transform="matrix(1 0 -0 1 8.24999 131.048)">
		<svg width="30.027689" height="38.9535408">
			<defs />
			<path d="M 7.76608 6.28091 C 7.73639 6.41586, 7.66262 6.48288, 7.54386 6.48243, 7.53396 6.49233, 7.50922 6.49727, 7.46964 6.49683, 7.4449 6.49727, 7.42511 6.49233, 7.41026 6.48243 L 7.34369 6.48243 C 7.21504 6.48288, 7.15071 6.43475, 7.15071 6.33849 L 7.15071 6.2881 C 7.21009 5.93364, 7.23978 5.60481, 7.23978 5.30208 L 7.23978 5.02858 C 7.21009 4.65972, 7.12732 4.34169, 6.99147 4.07539, 6.85562 3.8091, 6.6568 3.60307, 6.395 3.45643, 6.1332 3.31024, 5.80167 3.23691, 5.40133 3.23646, 5.16921 3.23691, 4.93305 3.28729, 4.69329 3.38806, 4.45399 3.48882, 4.23042 3.62557, 4.0226 3.79785, 3.79544 3.98543, 3.61011 4.19775, 3.46661 4.43526, 3.32357 4.67277, 3.21965 4.91613, 3.15488 5.16533, 3.10585 5.34346, 3.07886 5.5135, 3.07346 5.67634, 3.07346 5.90215, 3.12294 6.11807, 3.2219 6.32409, 3.3654 6.67001, 3.62225 6.89088, 3.99291 6.98624 L 5.69776 7.46126 C 6.00904 7.55302, 6.27489 7.69832, 6.49486 7.89714, 6.71483 8.09642, 6.88036 8.33168, 6.99147 8.60248, 7.10303 8.87372, 7.16825 9.16971, 7.18805 9.49089 L 7.18805 9.62044 C 7.18805 9.89933, 7.14846 10.1845, 7.06929 10.4769, 6.96583 10.8804, 6.80029 11.2691, 6.57268 11.6433, 6.34552 12.0176, 6.06392 12.3536, 5.72745 12.6505, 5.40627 12.9244, 5.05451 13.1439, 4.67125 13.309, 4.288 13.4746, 3.90384 13.5573, 3.51834 13.5573, 2.95021 13.5573, 2.46574 13.4665, 2.06539 13.2838, 1.66505 13.1021, 1.36861 12.8718, 1.17563 12.5929 L 0.44196 13.4638 C 0.378085 13.5263, 0.31106 13.5573, 0.241786 13.5573 L 0.197253 13.5573 C 0.0740002 13.5573, 0.00697565 13.5097, -0.00292063 13.4134, -0.00292063 13.3846, 0.00472647 13.3585, 0.019121 13.3342 L 0.879194 9.96591 C 0.908883 9.83186, 0.9957 9.76258, 1.13875 9.75719 L 1.30158 9.75719 C 1.36096 9.75764, 1.41539 9.78148, 1.46487 9.82916, 1.48466 9.86784, 1.49456 9.90158, 1.49456 9.92992, 1.49456 9.94971, 1.48961 9.97355, 1.47972 10.0019, 1.39065 10.3478, 1.34612 10.6694, 1.34612 10.9663, 1.34612 11.4418, 1.46262 11.8448, 1.69473 12.1755, 2.06539 12.7085, 2.71315 12.9748, 3.6371 12.9744, 3.86921 12.9748, 4.10537 12.9208, 4.34513 12.8129, 4.58489 12.7049, 4.80845 12.5596, 5.01582 12.377, 5.24344 12.1665, 5.43461 11.9326, 5.59025 11.6757, 5.74589 11.4193, 5.86105 11.1539, 5.93482 10.88, 5.9843 10.6595, 6.00904 10.4535, 6.00904 10.261, 6.00904 10.0217, 5.97711 9.79137, 5.91278 9.57006, 5.76479 9.2012, 5.49039 8.96369, 5.09004 8.85753 L 3.40723 8.38251 C 3.10585 8.30154, 2.8463 8.16839, 2.62858 7.98351, 2.41131 7.79908, 2.24218 7.57956, 2.12117 7.32496, 2.00017 7.07081, 1.92955 6.79011, 1.90975 6.48243 L 1.90975 6.32409 C 1.90975 6.08478, 1.93944 5.83288, 1.99882 5.56838, 2.10273 5.18512, 2.26827 4.81806, 2.49543 4.46765, 2.72304 4.11768, 3.00464 3.80775, 3.34021 3.53875, 3.65689 3.2801, 4.00416 3.07273, 4.38201 2.91664, 4.76032 2.76099, 5.13458 2.68272, 5.50524 2.68227, 6.01444 2.68272, 6.43413 2.77764, 6.76521 2.96702, 7.09628 3.15684, 7.33604 3.38086, 7.48448 3.63951 L 8.19611 2.78304 C 8.2357 2.71646, 8.30002 2.68272, 8.38864 2.68227 L 8.45566 2.68227 C 8.57442 2.68272, 8.63335 2.7403, 8.63335 2.85501 L 8.63335 2.91259 Z" stroke="none" fill="#000000" />
			<rect />
		</svg>
	</g>
	<path d="M -138.382 0 L 138.381 0" fill="none" stroke="#000000" stroke-width="2.5999999" stroke-linecap="round" stroke-linejoin="round" marker-end="url(#CustomMarker-01)" transform="matrix(0.384615 0 0 0.384615 76.7009 143.92)" />
	<path d="M -169.777 0 L 169.778 0" fill="none" stroke="#FF2A00" stroke-width="2.5999999" stroke-linecap="round" stroke-linejoin="round" marker-start="url(#CustomMarker-02)" marker-end="url(#CustomMarker-03)" transform="matrix(0.384615 0 0 0.384615 195.223 143.92)" />
	<path d="M 0 -83.0228 L 0 83.0226" fill="none" stroke="#0006BF" stroke-width="5.19999981" stroke-linecap="round" stroke-linejoin="round" transform="matrix(0.384615 0 0 0.384615 260.523 143.92)" />
	<g transform="matrix(1 0 -0 1 267.011 106.887)">
		<svg width="57.055378" height="41.8799934">
			<defs />
			<path d="M 14.3244 3.38761 C 14.2951 3.53695, 14.2038 3.61117, 14.0504 3.61072, 13.8183 3.61117, 13.5983 3.61612, 13.3905 3.62557, 13.1831 3.63546, 13.0325 3.66065, 12.9384 3.70114, 12.8449 3.74207, 12.7707 3.86802, 12.7158 4.07854 L 10.6326 12.1899 C 10.6029 12.296, 10.5881 12.3797, 10.5881 12.4418, 10.5881 12.4998, 10.6029 12.5358, 10.6326 12.5497, 10.7019 12.5934, 10.8368 12.6185, 11.037 12.6257, 11.2372 12.6329, 11.4536 12.6365, 11.6857 12.6361, 11.8242 12.6365, 11.893 12.6941, 11.893 12.8088, 11.893 12.8381, 11.8881 12.8691, 11.8782 12.9024 L 11.8485 13.0104 C 11.8341 13.0733, 11.8008 13.126, 11.7486 13.1687, 11.6969 13.2119, 11.6362 13.2335, 11.5669 13.2335, 10.979 13.2047, 10.3812 13.1903, 9.77299 13.1903, 9.16527 13.1903, 8.55261 13.2047, 7.93454 13.2335, 7.80589 13.2335, 7.74157 13.1714, 7.74157 13.0463 L 7.74157 12.9888, 7.77125 12.8664 C 7.81084 12.7085, 7.90755 12.6316, 8.06049 12.6361, 8.29261 12.6365, 8.51032 12.6329, 8.71275 12.6257, 8.91562 12.6185, 9.06631 12.5934, 9.16483 12.5497, 9.25389 12.502, 9.32586 12.3725, 9.37984 12.1611 L 11.463 4.12173, 5.95484 13.0319 C 5.88107 13.1664, 5.76727 13.2335, 5.61387 13.2335 L 5.5401 13.2335 C 5.38716 13.2335, 5.2954 13.157, 5.26571 13.0032 L 4.36875 4.2009, 2.41919 11.794 C 2.3895 11.8808, 2.37466 11.9721, 2.37466 12.0675, 2.37466 12.0918, 2.3796 12.1183, 2.3895 12.1467, 2.3994 12.2623, 2.43898 12.3536, 2.5078 12.4202, 2.59687 12.507, 2.71563 12.5646, 2.86407 12.5934, 3.01251 12.6221, 3.1803 12.6365, 3.36788 12.6361, 3.50643 12.6365, 3.57525 12.6941, 3.57525 12.8088, 3.57525 12.8381, 3.5703 12.8691, 3.5604 12.9024 L 3.53117 13.0104 C 3.51632 13.0733, 3.48303 13.126, 3.43085 13.1687, 3.37912 13.2119, 3.31615 13.2335, 3.24193 13.2335, 2.74801 13.2047, 2.2487 13.1903, 1.74444 13.1903, 1.24064 13.1903, 0.729181 13.2047, 0.210078 13.2335, 0.135856 13.2335, 0.0814267 13.2119, 0.0467899 13.1687, 0.0126029 13.1354, -0.00494046 13.0994, -0.00494046 13.0607, -0.00494046 13.0324, 7.66106e-006 13.0036, 0.0099039 12.9744 L 0.0391428 12.8664 C 0.0787277 12.7085, 0.175441 12.6316, 0.328383 12.6361, 0.516411 12.6365, 0.693194 12.6221, 0.858731 12.5934, 1.02427 12.5646, 1.17901 12.5047, 1.32206 12.413, 1.43586 12.3415, 1.52853 12.247, 1.60005 12.1291, 1.67157 12.0117, 1.72465 11.8858, 1.75929 11.7508 L 3.74573 4.04976 C 3.77542 3.94449, 3.79027 3.86308, 3.79027 3.80505, 3.79027 3.74792, 3.77812 3.71418, 3.75338 3.70429, 3.68411 3.66155, 3.54961 3.63546, 3.34943 3.62557, 3.14926 3.61612, 2.93289 3.61117, 2.70078 3.61072, 2.56763 3.61117, 2.49566 3.5464, 2.48576 3.4164 L 2.48576 3.36601, 2.51545 3.23646 C 2.56988 3.09297, 2.66614 3.021, 2.80424 3.02055 L 5.20633 3.02055 C 5.36467 3.021, 5.45329 3.09792, 5.47308 3.25086 L 6.31831 11.4773, 11.4185 3.22207 C 11.4927 3.08802, 11.6065 3.021, 11.7594 3.02055 L 14.1615 3.02055 C 14.2308 3.021, 14.2902 3.04484, 14.3392 3.09252, 14.359 3.1312, 14.3689 3.16719, 14.3689 3.20048, 14.3689 3.22972, 14.3617 3.25626, 14.3469 3.27965 Z" stroke="none" fill="#000000" />
			<path d="M 1.86424 2.51203 C 1.35514 2.49591, 0.859898 2.48785, 0.378257 2.48785, -0.103133 2.48785, -0.598376 2.49591, -1.10748 2.51203 L -1.10748 2.16541, -0.82106 2.16541 C -0.72987 2.16566, -0.643971 2.1644, -0.563866 2.16163, -0.483508 2.15911, -0.407433 2.15231, -0.335388 2.14148, -0.263344 2.1309, -0.201123 2.12007, -0.148727 2.10898, -0.104392 2.10117, -0.067866 2.07649, -0.0388969 2.03467, -0.0096761 1.99311, 0.00468242 1.94676, 0.00468242 1.89537 L 0.00468242 -2.64697 C -0.133361 -2.57946, -0.303648 -2.52832, -0.505676 -2.49356, -0.707703 -2.45855, -0.928875 -2.44116, -1.1697 -2.44142 L -1.1697 -2.78401 C -0.837685 -2.78375, -0.531118 -2.8233, -0.250245 -2.90265, 0.0306287 -2.98175, 0.273464 -3.13037, 0.478011 -3.34827 L 0.606734 -3.34827 C 0.697923 -3.34802, 0.743518 -3.30368, 0.743518 -3.21527 L 0.743518 1.89537 C 0.743518 1.94928, 0.757372 1.99638, 0.785082 2.03669, 0.812791 2.07699, 0.853096 2.10117, 0.905492 2.10898, 0.949827 2.12007, 1.00676 2.1309, 1.07578 2.14148, 1.1448 2.15231, 1.22289 2.15911, 1.31005 2.16163, 1.39721 2.1644, 1.48235 2.16566, 1.56548 2.16541 L 1.86424 2.16541, 1.86424 2.51203 Z" stroke="none" fill="#000000" transform="matrix(1.12 0 0 1 15.5721 12.8121)" />
			<rect />
		</svg>
	</g>
	<path d="M 83.0225 -6.10352e-005 L -83.0226 3.05176e-005" fill="none" stroke="#0006BF" stroke-width="5.19999981" stroke-linecap="round" stroke-linejoin="round" transform="matrix(0.384615 0 0 0.384615 129.924 17.1014)" />
	<g transform="matrix(1 0 -0 1 70.1206 8.24999)">
		<svg width="60.0092239" height="41.8799934">
			<defs />
			<path d="M 14.3244 3.38761 C 14.2951 3.53695, 14.2038 3.61117, 14.0504 3.61072, 13.8183 3.61117, 13.5983 3.61612, 13.3905 3.62557, 13.1831 3.63546, 13.0325 3.66065, 12.9384 3.70114, 12.8449 3.74207, 12.7707 3.86802, 12.7158 4.07854 L 10.6326 12.1899 C 10.6029 12.296, 10.5881 12.3797, 10.5881 12.4418, 10.5881 12.4998, 10.6029 12.5358, 10.6326 12.5497, 10.7019 12.5934, 10.8368 12.6185, 11.037 12.6257, 11.2372 12.6329, 11.4536 12.6365, 11.6857 12.6361, 11.8242 12.6365, 11.893 12.6941, 11.893 12.8088, 11.893 12.8381, 11.8881 12.8691, 11.8782 12.9024 L 11.8485 13.0104 C 11.8341 13.0733, 11.8008 13.126, 11.7486 13.1687, 11.6969 13.2119, 11.6362 13.2335, 11.5669 13.2335, 10.979 13.2047, 10.3812 13.1903, 9.77299 13.1903, 9.16527 13.1903, 8.55261 13.2047, 7.93454 13.2335, 7.80589 13.2335, 7.74157 13.1714, 7.74157 13.0463 L 7.74157 12.9888, 7.77125 12.8664 C 7.81084 12.7085, 7.90755 12.6316, 8.06049 12.6361, 8.29261 12.6365, 8.51032 12.6329, 8.71275 12.6257, 8.91562 12.6185, 9.06631 12.5934, 9.16483 12.5497, 9.25389 12.502, 9.32586 12.3725, 9.37984 12.1611 L 11.463 4.12173, 5.95484 13.0319 C 5.88107 13.1664, 5.76727 13.2335, 5.61387 13.2335 L 5.5401 13.2335 C 5.38716 13.2335, 5.2954 13.157, 5.26571 13.0032 L 4.36875 4.2009, 2.41919 11.794 C 2.3895 11.8808, 2.37466 11.9721, 2.37466 12.0675, 2.37466 12.0918, 2.3796 12.1183, 2.3895 12.1467, 2.3994 12.2623, 2.43898 12.3536, 2.5078 12.4202, 2.59687 12.507, 2.71563 12.5646, 2.86407 12.5934, 3.01251 12.6221, 3.1803 12.6365, 3.36788 12.6361, 3.50643 12.6365, 3.57525 12.6941, 3.57525 12.8088, 3.57525 12.8381, 3.5703 12.8691, 3.5604 12.9024 L 3.53117 13.0104 C 3.51632 13.0733, 3.48303 13.126, 3.43085 13.1687, 3.37912 13.2119, 3.31615 13.2335, 3.24193 13.2335, 2.74801 13.2047, 2.2487 13.1903, 1.74444 13.1903, 1.24064 13.1903, 0.729181 13.2047, 0.210078 13.2335, 0.135856 13.2335, 0.0814267 13.2119, 0.0467899 13.1687, 0.0126029 13.1354, -0.00494046 13.0994, -0.00494046 13.0607, -0.00494046 13.0324, 7.66106e-006 13.0036, 0.0099039 12.9744 L 0.0391428 12.8664 C 0.0787277 12.7085, 0.175441 12.6316, 0.328383 12.6361, 0.516411 12.6365, 0.693194 12.6221, 0.858731 12.5934, 1.02427 12.5646, 1.17901 12.5047, 1.32206 12.413, 1.43586 12.3415, 1.52853 12.247, 1.60005 12.1291, 1.67157 12.0117, 1.72465 11.8858, 1.75929 11.7508 L 3.74573 4.04976 C 3.77542 3.94449, 3.79027 3.86308, 3.79027 3.80505, 3.79027 3.74792, 3.77812 3.71418, 3.75338 3.70429, 3.68411 3.66155, 3.54961 3.63546, 3.34943 3.62557, 3.14926 3.61612, 2.93289 3.61117, 2.70078 3.61072, 2.56763 3.61117, 2.49566 3.5464, 2.48576 3.4164 L 2.48576 3.36601, 2.51545 3.23646 C 2.56988 3.09297, 2.66614 3.021, 2.80424 3.02055 L 5.20633 3.02055 C 5.36467 3.021, 5.45329 3.09792, 5.47308 3.25086 L 6.31831 11.4773, 11.4185 3.22207 C 11.4927 3.08802, 11.6065 3.021, 11.7594 3.02055 L 14.1615 3.02055 C 14.2308 3.021, 14.2902 3.04484, 14.3392 3.09252, 14.359 3.1312, 14.3689 3.16719, 14.3689 3.20048, 14.3689 3.22972, 14.3617 3.25626, 14.3469 3.27965 Z" stroke="none" fill="#000000" />
			<path d="M 1.87894 2.51203 L -1.4996 2.51203, -1.4996 2.29035 C -1.4996 2.27448, -1.49129 2.2503, -1.47466 2.21781 L -0.1174 0.742655 C 0.0433152 0.565566, 0.205793 0.384195, 0.370539 0.198793, 0.535284 0.0133917, 0.682396 -0.17604, 0.812379 -0.369503, 0.942362 -0.562965, 1.04615 -0.762474, 1.12373 -0.968027, 1.20132 -1.17358, 1.23986 -1.38921, 1.23986 -1.61517, 1.23986 -1.80561, 1.21517 -1.98371, 1.1653 -2.14895, 1.11542 -2.3142, 1.04363 -2.4593, 0.949415 -2.58425, 0.855203 -2.70919, 0.737563 -2.80995, 0.596497 -2.88653, 0.455431 -2.96311, 0.292197 -3.0014, 0.106795 -3.00165, -0.169796 -3.0014, -0.414143 -2.91877, -0.625743 -2.75353, -0.837342 -2.58828, -0.977905 -2.40615, -1.04718 -2.20765, -1.06078 -2.20211, -1.03861 -2.19934, -0.980676 -2.19959 L -0.910143 -2.19959 C -0.827014 -2.18044, -0.755221 -2.15147, -0.694261 -2.11268, -0.6333 -2.07364, -0.582163 -2.01998, -0.540599 -1.95146, -0.499035 -1.88294, -0.478379 -1.80032, -0.478379 -1.70384, -0.478379 -1.54237, -0.530775 -1.41868, -0.636071 -1.33278, -0.741367 -1.24663, -0.859006 -1.20381, -0.988989 -1.20406, -1.11343 -1.20381, -1.22956 -1.24663, -1.33762 -1.33278, -1.44544 -1.41868, -1.4996 -1.54237, -1.4996 -1.70384, -1.4996 -1.92929, -1.45526 -2.14291, -1.36659 -2.34443, -1.27792 -2.54596, -1.15776 -2.72053, -1.00561 -2.86839, -0.853464 -3.01601, -0.673604 -3.13289, -0.466035 -3.21904, -0.258466 -3.30494, -0.0383018 -3.34802, 0.193954 -3.34827, 0.481629 -3.34802, 0.745372 -3.3057, 0.984681 -3.22106, 1.22399 -3.13642, 1.42803 -3.01475, 1.59681 -2.8563, 1.76558 -2.6976, 1.89783 -2.51422, 1.99331 -2.30614, 2.08878 -2.09782, 2.13639 -1.86758, 2.13639 -1.61517, 2.13639 -1.33556, 2.07291 -1.07811, 1.94544 -0.843083, 1.81823 -0.607804, 1.66054 -0.392174, 1.47237 -0.196193, 1.2842 4.07696e-005, 1.08418 0.184687, 0.872584 0.357997, 0.660985 0.531307, 0.469285 0.699831, 0.297738 0.863569 L -0.656979 1.76236, 0.592466 1.76236 C 0.766784 1.76262, 0.929514 1.76136, 1.08015 1.75858, 1.23104 1.75607, 1.35901 1.75052, 1.46406 1.74246, 1.56935 1.7344, 1.62326 1.72911, 1.62578 1.72609, 1.64795 1.70745, 1.66885 1.66991, 1.68825 1.61349, 1.70765 1.55706, 1.72553 1.49056, 1.74216 1.41398, 1.75878 1.3374, 1.77541 1.25956, 1.79203 1.18021, 1.80866 1.10111, 1.82377 1.01421, 1.83763 0.919995 L 2.1447 0.919995 Z" stroke="none" fill="#000000" transform="matrix(1.12 0 0 1 15.9043 12.8121)" />
			<rect />
		</svg>
	</g>
	<path d="M 83.0225 0 L -83.0226 0" fill="none" stroke="#0006BF" stroke-width="5.19999981" stroke-linecap="round" stroke-linejoin="round" stroke-dasharray="18.226, 12.974" transform="matrix(0.384615 0 0 0.384615 129.924 39.3741)" />
	<g transform="matrix(1 0 -0 1 68.1236 30.5227)">
		<svg width="71.9722977" height="44.9458008">
			<defs />
			<path d="M 14.3244 3.38761 C 14.2951 3.53695, 14.2038 3.61117, 14.0504 3.61072, 13.8183 3.61117, 13.5983 3.61612, 13.3905 3.62557, 13.1831 3.63546, 13.0325 3.66065, 12.9384 3.70114, 12.8449 3.74207, 12.7707 3.86802, 12.7158 4.07854 L 10.6326 12.1899 C 10.6029 12.296, 10.5881 12.3797, 10.5881 12.4418, 10.5881 12.4998, 10.6029 12.5358, 10.6326 12.5497, 10.7019 12.5934, 10.8368 12.6185, 11.037 12.6257, 11.2372 12.6329, 11.4536 12.6365, 11.6857 12.6361, 11.8242 12.6365, 11.893 12.6941, 11.893 12.8088, 11.893 12.8381, 11.8881 12.8691, 11.8782 12.9024 L 11.8485 13.0104 C 11.8341 13.0733, 11.8008 13.126, 11.7486 13.1687, 11.6969 13.2119, 11.6362 13.2335, 11.5669 13.2335, 10.979 13.2047, 10.3812 13.1903, 9.77299 13.1903, 9.16527 13.1903, 8.55261 13.2047, 7.93454 13.2335, 7.80589 13.2335, 7.74157 13.1714, 7.74157 13.0463 L 7.74157 12.9888, 7.77125 12.8664 C 7.81084 12.7085, 7.90755 12.6316, 8.06049 12.6361, 8.29261 12.6365, 8.51032 12.6329, 8.71275 12.6257, 8.91562 12.6185, 9.06631 12.5934, 9.16483 12.5497, 9.25389 12.502, 9.32586 12.3725, 9.37984 12.1611 L 11.463 4.12173, 5.95484 13.0319 C 5.88107 13.1664, 5.76727 13.2335, 5.61387 13.2335 L 5.5401 13.2335 C 5.38716 13.2335, 5.2954 13.157, 5.26571 13.0032 L 4.36875 4.2009, 2.41919 11.794 C 2.3895 11.8808, 2.37466 11.9721, 2.37466 12.0675, 2.37466 12.0918, 2.3796 12.1183, 2.3895 12.1467, 2.3994 12.2623, 2.43898 12.3536, 2.5078 12.4202, 2.59687 12.507, 2.71563 12.5646, 2.86407 12.5934, 3.01251 12.6221, 3.1803 12.6365, 3.36788 12.6361, 3.50643 12.6365, 3.57525 12.6941, 3.57525 12.8088, 3.57525 12.8381, 3.5703 12.8691, 3.5604 12.9024 L 3.53117 13.0104 C 3.51632 13.0733, 3.48303 13.126, 3.43085 13.1687, 3.37912 13.2119, 3.31615 13.2335, 3.24193 13.2335, 2.74801 13.2047, 2.2487 13.1903, 1.74444 13.1903, 1.24064 13.1903, 0.729181 13.2047, 0.210078 13.2335, 0.135856 13.2335, 0.0814267 13.2119, 0.0467899 13.1687, 0.0126029 13.1354, -0.00494046 13.0994, -0.00494046 13.0607, -0.00494046 13.0324, 7.66106e-006 13.0036, 0.0099039 12.9744 L 0.0391428 12.8664 C 0.0787277 12.7085, 0.175441 12.6316, 0.328383 12.6361, 0.516411 12.6365, 0.693194 12.6221, 0.858731 12.5934, 1.02427 12.5646, 1.17901 12.5047, 1.32206 12.413, 1.43586 12.3415, 1.52853 12.247, 1.60005 12.1291, 1.67157 12.0117, 1.72465 11.8858, 1.75929 11.7508 L 3.74573 4.04976 C 3.77542 3.94449, 3.79027 3.86308, 3.79027 3.80505, 3.79027 3.74792, 3.77812 3.71418, 3.75338 3.70429, 3.68411 3.66155, 3.54961 3.63546, 3.34943 3.62557, 3.14926 3.61612, 2.93289 3.61117, 2.70078 3.61072, 2.56763 3.61117, 2.49566 3.5464, 2.48576 3.4164 L 2.48576 3.36601, 2.51545 3.23646 C 2.56988 3.09297, 2.66614 3.021, 2.80424 3.02055 L 5.20633 3.02055 C 5.36467 3.021, 5.45329 3.09792, 5.47308 3.25086 L 6.31831 11.4773, 11.4185 3.22207 C 11.4927 3.08802, 11.6065 3.021, 11.7594 3.02055 L 14.1615 3.02055 C 14.2308 3.021, 14.2902 3.04484, 14.3392 3.09252, 14.359 3.1312, 14.3689 3.16719, 14.3689 3.20048, 14.3689 3.22972, 14.3617 3.25626, 14.3469 3.27965 Z" stroke="none" fill="#000000" />
			<path d="M 1.86424 2.51203 C 1.35514 2.49591, 0.859898 2.48785, 0.378257 2.48785, -0.103133 2.48785, -0.598376 2.49591, -1.10748 2.51203 L -1.10748 2.16541, -0.82106 2.16541 C -0.72987 2.16566, -0.643971 2.1644, -0.563866 2.16163, -0.483508 2.15911, -0.407433 2.15231, -0.335388 2.14148, -0.263344 2.1309, -0.201123 2.12007, -0.148727 2.10898, -0.104392 2.10117, -0.067866 2.07649, -0.0388969 2.03467, -0.0096761 1.99311, 0.00468242 1.94676, 0.00468242 1.89537 L 0.00468242 -2.64697 C -0.133361 -2.57946, -0.303648 -2.52832, -0.505676 -2.49356, -0.707703 -2.45855, -0.928875 -2.44116, -1.1697 -2.44142 L -1.1697 -2.78401 C -0.837685 -2.78375, -0.531118 -2.8233, -0.250245 -2.90265, 0.0306287 -2.98175, 0.273464 -3.13037, 0.478011 -3.34827 L 0.606734 -3.34827 C 0.697923 -3.34802, 0.743518 -3.30368, 0.743518 -3.21527 L 0.743518 1.89537 C 0.743518 1.94928, 0.757372 1.99638, 0.785082 2.03669, 0.812791 2.07699, 0.853096 2.10117, 0.905492 2.10898, 0.949827 2.12007, 1.00676 2.1309, 1.07578 2.14148, 1.1448 2.15231, 1.22289 2.15911, 1.31005 2.16163, 1.39721 2.1644, 1.48235 2.16566, 1.56548 2.16541 L 1.86424 2.16541, 1.86424 2.51203 Z" stroke="none" fill="#000000" transform="matrix(1.12 0 0 1 15.5721 12.8121)" />
			<path d="M 20.4453 7.95067 C 20.4057 8.06133, 20.3391 8.11666, 20.2451 8.11621 L 20.1857 8.11621, 20.1412 8.09462 C 20.0476 8.07123, 19.9954 8.00645, 19.9855 7.90029 L 19.9855 7.84991, 20.7345 3.20767 C 20.7691 2.98726, 20.874 2.82082, 21.0494 2.70791, 21.2248 2.59546, 21.4016 2.53878, 21.5793 2.53833, 21.7718 2.53878, 21.9275 2.59861, 22.0462 2.71826, 22.1204 2.79068, 22.1573 2.8865, 22.1573 3.00615, 22.1573 3.09297, 22.1353 3.19373, 22.0907 3.30844 Z" stroke="none" fill="#000000" />
			<rect />
		</svg>
	</g>
	<path d="M -0.00012207 -113.159 L 0 113.159" fill="none" stroke="#FF2A00" stroke-width="2.5999999" stroke-linecap="round" stroke-linejoin="round" marker-end="url(#CustomMarker-04)" transform="matrix(0.384615 0 0 0.384615 131.011 187.442)" />
	<path d="M 0 -113.159 L 0 113.159" fill="none" stroke="#44E500" stroke-width="2.5999999" stroke-linecap="round" stroke-linejoin="round" marker-end="url(#CustomMarker-05)" transform="matrix(0.384615 0 0 0.384615 128.788 187.442)" />
	<path d="M 0 164.864 L 0 -164.864" fill="none" stroke="#44E500" stroke-width="2.5999999" stroke-linecap="round" stroke-linejoin="round" marker-start="url(#CustomMarker-06)" marker-end="url(#CustomMarker-07)" transform="matrix(0.384615 0 0 0.384615 129.924 80.5105)" />
	<path d="M 0 -28.9546 L 0 28.9545" fill="none" stroke="#000000" stroke-width="2.5999999" stroke-linecap="round" stroke-linejoin="round" marker-start="url(#CustomMarker-08)" marker-end="url(#CustomMarker-09)" transform="matrix(0.384615 0 0 0.384615 157.161 28.2378)" />
	<g transform="matrix(1 0 -0 1 163.869 19.4319)">
		<svg width="27.073843" height="38.9535408">
			<defs />
			<path d="M 4.82532 11.5925 C 4.7367 11.9002, 4.69217 12.1687, 4.69217 12.3986, 4.69217 12.4616, 4.69712 12.5214, 4.70701 12.5785, 4.73175 12.8093, 4.84781 12.9244, 5.05518 12.924, 5.15909 12.9244, 5.2567 12.8812, 5.34802 12.7949, 5.43979 12.7085, 5.5239 12.5803, 5.60037 12.4098, 5.67685 12.2398, 5.74972 12.0356, 5.81899 11.7981, 5.88827 11.5606, 5.95979 11.3028, 6.03356 11.0239, 6.06325 10.8998, 6.14737 10.8372, 6.28591 10.8368 L 6.4564 10.8368 C 6.58505 10.8372, 6.64893 10.8899, 6.64893 10.9951 L 6.64893 11.0455 C 6.59 11.2812, 6.52342 11.5331, 6.4492 11.8017, 6.37498 12.0707, 6.27602 12.3199, 6.15231 12.5502, 6.02906 12.7805, 5.87342 12.9798, 5.68539 13.1475, 5.49781 13.3153, 5.263 13.399, 4.98096 13.399, 4.6058 13.399, 4.30532 13.2951, 4.0804 13.0864, 3.85549 12.8777, 3.72594 12.6653, 3.6913 12.449, 3.52306 12.6415, 3.27251 12.848, 2.93874 13.0684, 2.60541 13.2888, 2.2532 13.399, 1.88254 13.399, 1.49209 13.399, 1.16461 13.3009, 0.900111 13.1044, 0.635611 12.9078, 0.429589 12.6604, 0.281146 12.3626, 0.103463 12.0081, 0.00944906 11.6267, -0.000447214 11.2182 L -0.000447214 11.1103 C -0.000447214 10.7315, 0.051733 10.3528, 0.155194 9.9731, 0.273949 9.55611, 0.439486 9.14362, 0.651805 8.73562, 0.864574 8.32808, 1.14617 7.94887, 1.49703 7.59801, 1.78402 7.31057, 2.1115 7.06856, 2.47946 6.87153, 2.84742 6.67496, 3.22168 6.57645, 3.60223 6.57599, 3.93331 6.57645, 4.20276 6.66416, 4.41013 6.83915, 4.61795 7.01458, 4.74885 7.16167, 4.80328 7.28133 L 5.60397 4.1865 C 5.64356 4.02861, 5.66785 3.90851, 5.67774 3.82664 L 5.67774 3.81944 C 5.67774 3.77176, 5.66065 3.73577, 5.62601 3.71148, 5.58193 3.6737, 5.47802 3.64716, 5.31473 3.63276, 5.15189 3.61837, 4.96387 3.61117, 4.7511 3.61072, 4.613 3.61117, 4.54373 3.5464, 4.54373 3.4164 L 4.54373 3.35882, 4.58826 3.23646 C 4.61795 3.12671, 4.70701 3.05473, 4.85501 3.02055 L 6.26342 2.90539, 6.80457 2.86221, 6.83426 2.86221 C 6.89363 2.86266, 6.94581 2.88425, 6.9899 2.92698, 7.00519 2.97061, 7.01239 3.01155, 7.01239 3.04933 L 7.01239 3.09972 Z M 4.52888 8.3969 C 4.50909 8.31099, 4.492 8.22102, 4.47715 8.12746, 4.46231 8.03389, 4.43982 7.94168, 4.41013 7.84991, 4.33141 7.625, 4.21895 7.43652, 4.0732 7.28538, 3.92746 7.13423, 3.74303 7.05866, 3.52081 7.05821, 3.31344 7.05866, 3.10832 7.13333, 2.90545 7.28178, 2.70303 7.43067, 2.5177 7.6223, 2.34946 7.85711, 2.1124 8.18863, 1.93472 8.5332, 1.81596 8.89037, 1.69721 9.24798, 1.58835 9.62089, 1.48939 10.0091, 1.39087 10.3932, 1.30945 10.7653, 1.24468 11.1247, 1.20554 11.3073, 1.18575 11.48, 1.18575 11.6429, 1.18575 11.8161, 1.20554 11.9838, 1.24468 12.1467, 1.28966 12.3725, 1.36973 12.5587, 1.48579 12.7049, 1.60184 12.8516, 1.76378 12.9244, 1.97115 12.924, 2.19877 12.9244, 2.42728 12.8453, 2.65714 12.6869, 2.88701 12.5286, 3.10067 12.3343, 3.29815 12.1035, 3.37732 12.0081, 3.45289 11.9159, 3.52441 11.8268, 3.59639 11.7382, 3.65936 11.6433, 3.71334 11.5421 L 4.52888 8.3969 Z" stroke="none" fill="#000000" />
			<rect />
		</svg>
	</g>
</svg>
