<?xml version="1.0"?>
<svg xmlns="http://www.w3.org/2000/svg" xmlns:xlink="http://www.w3.org/1999/xlink" width="394.903534" height="218.890869">
	<defs>
		<radialGradient id="Fill_PG-01" fx="50%" fy="50%" r="100%">
			<stop offset="0%" stop-color="#02DCF9" stop-opacity="0" />
			<stop offset="100%" stop-color="#02DCF9" stop-opacity="0.392156839" />
		</radialGradient>
		<radialGradient id="Fill_PG-02" fx="50%" fy="50%" r="100%">
			<stop offset="0%" stop-color="#02DCF9" stop-opacity="0" />
			<stop offset="100%" stop-color="#02DCF9" stop-opacity="0.392156839" />
		</radialGradient>
		<radialGradient id="Fill_PG-03" fx="50%" fy="50%" r="100%">
			<stop offset="0%" stop-color="#02DCF9" stop-opacity="0" />
			<stop offset="100%" stop-color="#02DCF9" stop-opacity="0.392156839" />
		</radialGradient>
		<radialGradient id="Fill_PG-04" fx="50%" fy="50%" r="100%">
			<stop offset="0%" stop-color="#02DCF9" stop-opacity="0" />
			<stop offset="100%" stop-color="#02DCF9" stop-opacity="0.392156839" />
		</radialGradient>
		<radialGradient id="Fill_PG-05" fx="50%" fy="50%" r="100%">
			<stop offset="0%" stop-color="#02DCF9" stop-opacity="0" />
			<stop offset="100%" stop-color="#02DCF9" stop-opacity="0.392156839" />
		</radialGradient>
		<radialGradient id="Fill_PG-06" fx="50%" fy="50%" r="100%">
			<stop offset="0%" stop-color="#02DCF9" stop-opacity="0" />
			<stop offset="100%" stop-color="#02DCF9" stop-opacity="0.392156839" />
		</radialGradient>
		<radialGradient id="Fill_PG-07" fx="50%" fy="50%" r="100%">
			<stop offset="0%" stop-color="#02DCF9" stop-opacity="0" />
			<stop offset="100%" stop-color="#02DCF9" stop-opacity="0.392156839" />
		</radialGradient>
		<marker id="CustomMarker-01" markerUnits="strokeWidth" markerWidth="15.000001" markerHeight="9" viewBox="-15 -4.5 15 9" orient="auto-start-reverse">
			<path d="M 0 -0 L -10 -3, -8 -0.5, -8 0.5, -10 3 Z" fill="#000000" stroke="#000000" stroke-linejoin="round" />
		</marker>
		<marker id="CustomMarker-02" markerUnits="strokeWidth" markerWidth="21" markerHeight="9" viewBox="-21 -4.5 21 9" orient="auto-start-reverse">
			<path d="M 0 -0 L -14 -3, -14 -0.5, -14 0.5, -14 3 Z" fill="#000000" stroke="#000000" stroke-linejoin="round" />
		</marker>
		<marker id="CustomMarker-03" markerUnits="strokeWidth" markerWidth="21" markerHeight="9" viewBox="-21 -4.5 21 9" orient="auto-start-reverse">
			<path d="M 0 -0 L -14 -3, -14 -0.5, -14 0.5, -14 3 Z" fill="#000000" stroke="#000000" stroke-linejoin="round" />
		</marker>
	</defs>
	<rect x="-0" y="-0" width="394.903534" height="218.890869" stroke="none" fill="#FFFFFF" />
	<path d="M -526.579 0 L 526.579 0" fill="none" stroke="#000000" stroke-width="1.5" stroke-linecap="round" stroke-linejoin="round" stroke-dasharray="5.2575, 3.7425" transform="matrix(0.333333 0 0 0.333333 210.877 104.947)" />
	<path d="M -362.368 -144.671 L 362.369 144.671" fill="none" stroke="#000000" stroke-width="3" stroke-linecap="round" stroke-linejoin="round" transform="matrix(0.333333 0 0 0.333333 170.088 56.7237)" />
	<path d="M -362.368 145.263 L 362.369 -145.263" fill="none" stroke="#000000" stroke-width="3" stroke-linecap="round" stroke-linejoin="round" transform="matrix(0.333333 0 0 0.333333 170.088 153.368)" />
	<path d="M 230.526 -0 C 230.526 127.316, 127.316 230.526, -0 230.526, -127.316 230.526, -230.526 127.316, -230.526 -0, -230.526 -127.316, -127.316 -230.526, -0 -230.526, 127.316 -230.526, 230.526 -127.316, 230.526 -0 Z" stroke="none" fill="url(#Fill_PG-01)" transform="matrix(0.333333 0 0 0.333333 83.5088 104.947)" />
	<path d="M 230.526 -0 C 230.526 127.316, 127.316 230.526, -0 230.526, -127.316 230.526, -230.526 127.316, -230.526 -0, -230.526 -127.316, -127.316 -230.526, -0 -230.526, 127.316 -230.526, 230.526 -127.316, 230.526 -0 Z" fill="none" stroke="#000000" stroke-width="3" stroke-linecap="round" stroke-linejoin="round" transform="matrix(0.333333 0 0 0.333333 83.5088 104.947)" />
	<path d="M 194.605 -0 C 194.605 107.477, 107.477 194.605, -0 194.605, -107.478 194.605, -194.605 107.477, -194.605 -0, -194.605 -107.478, -107.478 -194.605, -0 -194.605, 107.477 -194.605, 194.605 -107.478, 194.605 -0 Z" stroke="none" fill="url(#Fill_PG-02)" transform="matrix(0.333333 0 0 0.333333 115.614 104.947)" />
	<path d="M 194.605 -0 C 194.605 107.477, 107.477 194.605, -0 194.605, -107.478 194.605, -194.605 107.477, -194.605 -0, -194.605 -107.478, -107.478 -194.605, -0 -194.605, 107.477 -194.605, 194.605 -107.478, 194.605 -0 Z" fill="none" stroke="#000000" stroke-width="3" stroke-linecap="round" stroke-linejoin="round" transform="matrix(0.333333 0 0 0.333333 115.614 104.947)" />
	<path d="M 168.553 -0 C 168.553 93.0891, 93.0891 168.553, -0 168.553, -93.0891 168.553, -168.553 93.0891, -168.553 -0, -168.553 -93.0891, -93.0891 -168.553, -0 -168.553, 93.0891 -168.553, 168.553 -93.0891, 168.553 -0 Z" stroke="none" fill="url(#Fill_PG-03)" transform="matrix(0.333333 0 0 0.333333 139.016 104.947)" />
	<path d="M 168.553 -0 C 168.553 93.0891, 93.0891 168.553, -0 168.553, -93.0891 168.553, -168.553 93.0891, -168.553 -0, -168.553 -93.0891, -93.0891 -168.553, -0 -168.553, 93.0891 -168.553, 168.553 -93.0891, 168.553 -0 Z" fill="none" stroke="#000000" stroke-width="3" stroke-linecap="round" stroke-linejoin="round" transform="matrix(0.333333 0 0 0.333333 139.016 104.947)" />
	<path d="M 140.132 -0 C 140.132 77.3925, 77.3925 140.132, -0 140.132, -77.3926 140.132, -140.132 77.3925, -140.132 -0, -140.132 -77.3926, -77.3926 -140.132, -0 -140.132, 77.3925 -140.132, 140.132 -77.3926, 140.132 -0 Z" stroke="none" fill="url(#Fill_PG-04)" transform="matrix(0.333333 0 0 0.333333 164.543 104.947)" />
	<path d="M 140.132 -0 C 140.132 77.3925, 77.3925 140.132, -0 140.132, -77.3926 140.132, -140.132 77.3925, -140.132 -0, -140.132 -77.3926, -77.3926 -140.132, -0 -140.132, 77.3925 -140.132, 140.132 -77.3926, 140.132 -0 Z" fill="none" stroke="#000000" stroke-width="3" stroke-linecap="round" stroke-linejoin="round" transform="matrix(0.333333 0 0 0.333333 164.543 104.947)" />
	<path d="M 110.526 -0 C 110.526 61.042, 61.042 110.526, -0 110.526, -61.042 110.526, -110.526 61.042, -110.526 -0, -110.526 -61.042, -61.042 -110.526, -0 -110.526, 61.042 -110.526, 110.526 -61.042, 110.526 -0 Z" stroke="none" fill="url(#Fill_PG-05)" transform="matrix(0.333333 0 0 0.333333 191.385 104.947)" />
	<path d="M 110.526 -0 C 110.526 61.042, 61.042 110.526, -0 110.526, -61.042 110.526, -110.526 61.042, -110.526 -0, -110.526 -61.042, -61.042 -110.526, -0 -110.526, 61.042 -110.526, 110.526 -61.042, 110.526 -0 Z" fill="none" stroke="#000000" stroke-width="3" stroke-linecap="round" stroke-linejoin="round" transform="matrix(0.333333 0 0 0.333333 191.385 104.947)" />
	<path d="M 78.1579 -0 C 78.1579 43.1654, 43.1654 78.1579, -0 78.1579, -43.1654 78.1579, -78.1579 43.1654, -78.1579 -0, -78.1579 -43.1654, -43.1654 -78.1579, -0 -78.1579, 43.1654 -78.1579, 78.1579 -43.1654, 78.1579 -0 Z" stroke="none" fill="url(#Fill_PG-06)" transform="matrix(0.333333 0 0 0.333333 220.332 104.947)" />
	<path d="M 78.1579 -0 C 78.1579 43.1654, 43.1654 78.1579, -0 78.1579, -43.1654 78.1579, -78.1579 43.1654, -78.1579 -0, -78.1579 -43.1654, -43.1654 -78.1579, -0 -78.1579, 43.1654 -78.1579, 78.1579 -43.1654, 78.1579 -0 Z" fill="none" stroke="#000000" stroke-width="3" stroke-linecap="round" stroke-linejoin="round" transform="matrix(0.333333 0 0 0.333333 220.332 104.947)" />
	<path d="M 53.2894 -0 C 53.2894 29.4309, 29.4309 53.2894, -0 53.2894, -29.4309 53.2894, -53.2894 29.4309, -53.2894 -0, -53.2894 -29.4309, -29.4309 -53.2894, -0 -53.2894, 29.4309 -53.2894, 53.2894 -29.4309, 53.2894 -0 Z" stroke="none" fill="url(#Fill_PG-07)" transform="matrix(0.333333 0 0 0.333333 242.7 104.947)" />
	<path d="M 53.2894 -0 C 53.2894 29.4309, 29.4309 53.2894, -0 53.2894, -29.4309 53.2894, -53.2894 29.4309, -53.2894 -0, -53.2894 -29.4309, -29.4309 -53.2894, -0 -53.2894, 29.4309 -53.2894, 53.2894 -29.4309, 53.2894 -0 Z" fill="none" stroke="#000000" stroke-width="3" stroke-linecap="round" stroke-linejoin="round" transform="matrix(0.333333 0 0 0.333333 242.7 104.947)" />
	<g transform="matrix(1 0 -0 1 294.059 85.676)">
		<svg width="30.027689" height="38.9535408">
			<defs />
			<path d="M 7.76608 6.28091 C 7.73639 6.41586, 7.66262 6.48288, 7.54386 6.48243, 7.53396 6.49233, 7.50922 6.49727, 7.46964 6.49683, 7.4449 6.49727, 7.42511 6.49233, 7.41026 6.48243 L 7.34369 6.48243 C 7.21504 6.48288, 7.15071 6.43475, 7.15071 6.33849 L 7.15071 6.2881 C 7.21009 5.93364, 7.23978 5.60481, 7.23978 5.30208 L 7.23978 5.02858 C 7.21009 4.65972, 7.12732 4.34169, 6.99147 4.07539, 6.85562 3.8091, 6.6568 3.60307, 6.395 3.45643, 6.1332 3.31024, 5.80167 3.23691, 5.40133 3.23646, 5.16921 3.23691, 4.93305 3.28729, 4.69329 3.38806, 4.45399 3.48882, 4.23042 3.62557, 4.0226 3.79785, 3.79544 3.98543, 3.61011 4.19775, 3.46661 4.43526, 3.32357 4.67277, 3.21965 4.91613, 3.15488 5.16533, 3.10585 5.34346, 3.07886 5.5135, 3.07346 5.67634, 3.07346 5.90215, 3.12294 6.11807, 3.2219 6.32409, 3.3654 6.67001, 3.62225 6.89088, 3.99291 6.98624 L 5.69776 7.46126 C 6.00904 7.55302, 6.27489 7.69832, 6.49486 7.89714, 6.71483 8.09642, 6.88036 8.33168, 6.99147 8.60248, 7.10303 8.87372, 7.16825 9.16971, 7.18805 9.49089 L 7.18805 9.62044 C 7.18805 9.89933, 7.14846 10.1845, 7.06929 10.4769, 6.96583 10.8804, 6.80029 11.2691, 6.57268 11.6433, 6.34552 12.0176, 6.06392 12.3536, 5.72745 12.6505, 5.40627 12.9244, 5.05451 13.1439, 4.67125 13.309, 4.288 13.4746, 3.90384 13.5573, 3.51834 13.5573, 2.95021 13.5573, 2.46574 13.4665, 2.06539 13.2838, 1.66505 13.1021, 1.36861 12.8718, 1.17563 12.5929 L 0.44196 13.4638 C 0.378085 13.5263, 0.31106 13.5573, 0.241786 13.5573 L 0.197253 13.5573 C 0.0740002 13.5573, 0.00697565 13.5097, -0.00292063 13.4134, -0.00292063 13.3846, 0.00472647 13.3585, 0.019121 13.3342 L 0.879194 9.96591 C 0.908883 9.83186, 0.9957 9.76258, 1.13875 9.75719 L 1.30158 9.75719 C 1.36096 9.75764, 1.41539 9.78148, 1.46487 9.82916, 1.48466 9.86784, 1.49456 9.90158, 1.49456 9.92992, 1.49456 9.94971, 1.48961 9.97355, 1.47972 10.0019, 1.39065 10.3478, 1.34612 10.6694, 1.34612 10.9663, 1.34612 11.4418, 1.46262 11.8448, 1.69473 12.1755, 2.06539 12.7085, 2.71315 12.9748, 3.6371 12.9744, 3.86921 12.9748, 4.10537 12.9208, 4.34513 12.8129, 4.58489 12.7049, 4.80845 12.5596, 5.01582 12.377, 5.24344 12.1665, 5.43461 11.9326, 5.59025 11.6757, 5.74589 11.4193, 5.86105 11.1539, 5.93482 10.88, 5.9843 10.6595, 6.00904 10.4535, 6.00904 10.261, 6.00904 10.0217, 5.97711 9.79137, 5.91278 9.57006, 5.76479 9.2012, 5.49039 8.96369, 5.09004 8.85753 L 3.40723 8.38251 C 3.10585 8.30154, 2.8463 8.16839, 2.62858 7.98351, 2.41131 7.79908, 2.24218 7.57956, 2.12117 7.32496, 2.00017 7.07081, 1.92955 6.79011, 1.90975 6.48243 L 1.90975 6.32409 C 1.90975 6.08478, 1.93944 5.83288, 1.99882 5.56838, 2.10273 5.18512, 2.26827 4.81806, 2.49543 4.46765, 2.72304 4.11768, 3.00464 3.80775, 3.34021 3.53875, 3.65689 3.2801, 4.00416 3.07273, 4.38201 2.91664, 4.76032 2.76099, 5.13458 2.68272, 5.50524 2.68227, 6.01444 2.68272, 6.43413 2.77764, 6.76521 2.96702, 7.09628 3.15684, 7.33604 3.38086, 7.48448 3.63951 L 8.19611 2.78304 C 8.2357 2.71646, 8.30002 2.68272, 8.38864 2.68227 L 8.45566 2.68227 C 8.57442 2.68272, 8.63335 2.7403, 8.63335 2.85501 L 8.63335 2.91259 Z" stroke="none" fill="#000000" />
			<rect />
		</svg>
	</g>
	<path d="M -41.8256 104.764 L 41.8258 -104.763" fill="none" stroke="#000000" stroke-width="3" stroke-linecap="round" stroke-linejoin="round" marker-end="url(#CustomMarker-01)" transform="matrix(0.333333 0 0 0.333333 97.4507 70.0262)" />
	<g transform="matrix(1 0 -0 1 77.2221 61.6803)">
		<svg width="41.9907646" height="35.8877335">
			<defs />
			<path d="M 7.39916 11.0671 C 7.34518 11.2884, 7.28085 11.5331, 7.20663 11.8017, 7.13286 12.0707, 7.0339 12.3199, 6.91019 12.5502, 6.78694 12.7805, 6.6313 12.9798, 6.44327 13.1475, 6.25524 13.3153, 6.02043 13.399, 5.73884 13.399, 5.39292 13.399, 5.11358 13.3104, 4.90126 13.1332, 4.68894 12.9559, 4.55759 12.7733, 4.50811 12.5857, 4.34032 12.7926, 4.11541 12.9798, 3.83381 13.1475, 3.55222 13.3153, 3.22564 13.399, 2.85498 13.399, 2.51941 13.399, 2.21893 13.3369, 1.95443 13.2119, 1.68993 13.0877, 1.48121 12.8956, 1.32781 12.6361, 1.17982 12.3581, 1.1083 12.0513, 1.1128 11.7148 L 1.1128 11.6573 C 1.12269 11.3073, 1.16723 10.9596, 1.2464 10.6137, 1.32557 10.283, 1.44072 9.91867, 1.59141 9.52013, 1.74211 9.12203, 1.8865 8.73562, 2.0246 8.36092, 2.17304 7.96327, 2.24726 7.63669, 2.24726 7.38209, 2.24726 7.16662, 2.15595 7.05866, 1.97287 7.05821, 1.80508 7.05866, 1.65304 7.10679, 1.51719 7.20261, 1.38134 7.29887, 1.25764 7.43202, 1.14653 7.60206, 1.03543 7.77254, 0.935113 7.97406, 0.846047 8.20662, 0.756981 8.43964, 0.683209 8.68749, 0.623832 8.95109, 0.569402 9.08109, 0.478087 9.14812, 0.349436 9.15262 L 0.178951 9.15262 C 0.0601959 9.15307, 0.000818461 9.09324, 0.000818461 8.97268 L 0.000818461 8.9223 C 0.0700921 8.6587, 0.161857 8.38926, 0.275214 8.11306, 0.389021 7.83732, 0.532516 7.58676, 0.705251 7.36095, 0.878435 7.13558, 1.07636 6.94845, 1.29858 6.79956, 1.52079 6.65112, 1.77539 6.57645, 2.06194 6.57599, 2.30934 6.57645, 2.52031 6.62952, 2.69574 6.73478, 2.87118 6.84049, 3.00478 6.98084, 3.09609 7.15582, 3.18786 7.33126, 3.23824 7.52873, 3.24813 7.74915 L 3.24813 7.79953 C 3.24813 8.00645, 3.2063 8.21967, 3.12173 8.44009, 2.97869 8.81479, 2.83699 9.1976, 2.69574 9.5885, 2.55495 9.97985, 2.44519 10.3312, 2.36602 10.6429, 2.28685 10.9551, 2.23242 11.2641, 2.20273 11.5709, 2.18294 11.6528, 2.17079 11.7418, 2.16585 11.8372, 2.16585 12.0248, 2.19823 12.2097, 2.26211 12.3914, 2.30664 12.5551, 2.38806 12.6847, 2.50682 12.7805, 2.62557 12.8768, 2.76637 12.9244, 2.92921 12.924, 3.25578 12.9244, 3.54007 12.8264, 3.78208 12.6293, 4.02409 12.4328, 4.23641 12.171, 4.41904 11.8444, 4.42894 11.8066, 4.43658 11.7621, 4.44153 11.7117, 4.44648 11.6613, 4.45368 11.6096, 4.46357 11.5565 L 5.57555 7.26693 C 5.62053 7.0897, 5.7105 6.95925, 5.84635 6.87513, 5.9822 6.79146, 6.11939 6.74918, 6.25749 6.74873, 6.40099 6.74918, 6.51974 6.79236, 6.61376 6.87828, 6.67808 6.94126, 6.71002 7.02492, 6.71002 7.13018, 6.71002 7.18326, 6.70507 7.23859, 6.69517 7.29572 L 5.5832 11.5853 C 5.50403 11.8831, 5.46444 12.1471, 5.46444 12.377, 5.46444 12.44, 5.46939 12.507, 5.47929 12.5785, 5.50403 12.8093, 5.62008 12.9244, 5.8279 12.924, 6.03573 12.9244, 6.21476 12.7472, 6.36545 12.3918, 6.51614 12.0369, 6.66324 11.5808, 6.80628 11.0239, 6.83597 10.8998, 6.92009 10.8372, 7.05819 10.8368 L 7.22867 10.8368 C 7.28355 10.8372, 7.33798 10.8539, 7.39196 10.8872, 7.41175 10.9308, 7.42165 10.9668, 7.42165 10.9951, 7.42165 11.0149, 7.41445 11.0387, 7.39916 11.0671 Z" stroke="none" fill="#000000" />
			<path d="M 12.5357 7.12299 C 12.4817 7.26738, 12.385 7.33935, 12.2464 7.33891 L 10.8681 7.33891, 9.77101 11.5925 C 9.68239 11.9002, 9.63786 12.1687, 9.63786 12.3986, 9.63786 12.4616, 9.64281 12.5214, 9.6527 12.5785, 9.67744 12.8093, 9.7935 12.9244, 10.0009 12.924, 10.1889 12.9244, 10.3666 12.8732, 10.5348 12.7697, 10.7031 12.6667, 10.8609 12.5286, 11.0089 12.3558, 11.1574 12.1831, 11.2905 11.9793, 11.4093 11.7441, 11.528 11.5093, 11.6364 11.2619, 11.7354 11.0023, 11.7503 10.9452, 11.7822 10.9034, 11.8317 10.8768, 11.8812 10.8507, 11.9284 10.8372, 11.9725 10.8368 L 12.1578 10.8368 C 12.2221 10.8372, 12.2739 10.8638, 12.3134 10.9159, 12.3283 10.9501, 12.3355 10.9812, 12.3355 11.0095 L 12.3355 11.0527 C 12.232 11.3361, 12.102 11.6159, 11.9464 11.8916, 11.7907 12.1678, 11.6117 12.4161, 11.4093 12.6365, 11.2069 12.8574, 10.9833 13.0396, 10.7386 13.1831, 10.4939 13.327, 10.2235 13.399, 9.92665 13.399, 9.6698 13.399, 9.44758 13.35, 9.25955 13.2515, 9.07197 13.1534, 8.92128 13.0171, 8.80747 12.8417, 8.69412 12.6667, 8.62709 12.4661, 8.6073 12.2402, 8.5974 12.1831, 8.59246 12.1206, 8.59246 12.0531, 8.59246 11.8903, 8.61225 11.7247, 8.65183 11.5565 L 9.74132 7.33891, 8.3482 7.33891 C 8.22495 7.33935, 8.15792 7.27458, 8.14802 7.14458 L 8.14802 7.087, 8.19256 6.96465 C 8.24204 6.82115, 8.33335 6.74918, 8.4665 6.74873 L 9.88212 6.74873, 10.4898 4.38803 C 10.5348 4.21079, 10.6248 4.07899, 10.7606 3.99263, 10.8965 3.90626, 11.0337 3.86308, 11.1718 3.86263, 11.3153 3.86308, 11.434 3.90851, 11.5276 3.99937, 11.5919 4.06235, 11.6239 4.14872, 11.6239 4.25848, 11.6239 4.31155, 11.6189 4.36464, 11.609 4.41681 L 11.0089 6.74873, 12.3728 6.74873 C 12.5015 6.74918, 12.5653 6.81395, 12.5653 6.94306 L 12.5653 6.99344 Z" stroke="none" fill="#000000" />
			<rect />
		</svg>
	</g>
	<path d="M -311.053 120.395 L 311.053 120.395" fill="none" stroke="#000000" stroke-width="2.25" stroke-linecap="round" stroke-linejoin="round" marker-start="url(#CustomMarker-02)" marker-end="url(#CustomMarker-03)" transform="matrix(0.333333 0 -0 0.333333 187.193 153.368)" />
	<path d="M -311.053 -145.263 L -311.053 145.263" fill="none" stroke="#000000" stroke-width="1.5" stroke-linecap="round" stroke-linejoin="round" transform="matrix(0.333333 0 -0 0.333333 187.193 153.368)" />
	<path d="M 311.053 -145.263 L 311.053 145.263" fill="none" stroke="#000000" stroke-width="1.5" stroke-linecap="round" stroke-linejoin="round" transform="matrix(0.333333 0 -0 0.333333 187.193 153.368)" />
	<ellipse cx="1409.2763671875" cy="522.505859375" rx="7.875" ry="7.875" stroke="none" fill="#000000" transform="matrix(0.333333 0 0 0.333333 -178.882 -69.2212)" />
	<g transform="matrix(1 0 -0 1 176.556 192.938)">
		<svg width="62.9630699" height="41.8799934">
			<defs />
			<path d="M 6.08934 6.72714 C 6.22294 6.85714, 6.30705 7.03932, 6.34124 7.27413, 6.35114 7.38974, 6.35609 7.49994, 6.35609 7.6052, 6.35609 7.74015, 6.34619 7.8742, 6.3264 8.00825, 6.29671 8.27725, 6.25128 8.54984, 6.1892 8.82559, 6.12757 9.10179, 6.0673 9.34739, 6.00792 9.56286, 5.90896 9.9713, 5.77671 10.3982, 5.61117 10.8444, 5.44563 11.2907, 5.24186 11.7009, 4.99985 12.0752, 4.75784 12.4494, 4.4749 12.7638, 4.15102 13.018, 3.82715 13.2722, 3.45289 13.399, 3.0278 13.399, 2.69178 13.399, 2.3742 13.3392, 2.07506 13.2191, 1.77638 13.0994, 1.54291 12.9051, 1.37468 12.6361, 1.19205 12.363, 1.10298 12.0513, 1.10748 11.7004, 1.10748 11.6816, 1.11243 11.6627, 1.12232 11.6429, 1.12232 11.3028, 1.16191 10.9596, 1.24108 10.6137, 1.32025 10.283, 1.43541 9.91867, 1.5861 9.52013, 1.73679 9.12203, 1.88119 8.73562, 2.01928 8.36092, 2.16773 7.96327, 2.24195 7.63669, 2.24195 7.38209, 2.24195 7.16662, 2.15063 7.05866, 1.96755 7.05821, 1.79977 7.05866, 1.64772 7.10679, 1.51188 7.20261, 1.37603 7.29887, 1.25232 7.43202, 1.14122 7.60206, 1.03011 7.77254, 0.929797 7.97406, 0.840731 8.20662, 0.751665 8.43964, 0.677893 8.68749, 0.618516 8.95109, 0.564086 9.08109, 0.472771 9.14812, 0.34412 9.15262 L 0.173635 9.15262 C 0.0548798 9.15307, -0.00449765 9.09324, -0.00449765 8.97268 L -0.00449765 8.9223 C 0.064776 8.6587, 0.156541 8.38926, 0.269898 8.11306, 0.383705 7.83732, 0.5272 7.58676, 0.699935 7.36095, 0.873119 7.13558, 1.07104 6.94845, 1.29326 6.79956, 1.51547 6.65112, 1.77008 6.57645, 2.05662 6.57599, 2.30403 6.57645, 2.515 6.62952, 2.69043 6.73478, 2.86586 6.84049, 2.99946 6.98084, 3.09078 7.15582, 3.18254 7.33126, 3.23292 7.52873, 3.24282 7.74915 L 3.24282 7.79953 C 3.24282 8.00645, 3.20098 8.21967, 3.11642 8.44009, 2.97337 8.81479, 2.83167 9.1976, 2.69043 9.5885, 2.54963 9.97985, 2.43942 10.3312, 2.36025 10.6425, 2.28153 10.969, 2.2271 11.2812, 2.19742 11.5781, 2.18752 11.6456, 2.18257 11.7103, 2.18257 11.7724, 2.18257 11.9888, 2.21991 12.1926, 2.29368 12.3842, 2.358 12.5524, 2.46326 12.6847, 2.60901 12.7805, 2.75475 12.8768, 2.92659 12.9244, 3.12406 12.924, 3.41555 12.9244, 3.6787 12.83, 3.91351 12.6401, 4.14832 12.4508, 4.35749 12.1953, 4.54013 11.8736, 4.72276 11.5525, 4.88469 11.1863, 5.02549 10.776, 5.16674 10.3658, 5.29134 9.95196, 5.39975 9.53407, 5.44923 9.32355, 5.47397 9.12203, 5.47397 8.9295, 5.47397 8.78601, 5.46407 8.64926, 5.44428 8.51926, 5.38041 8.20797, 5.23691 7.94393, 5.01425 7.72756, 4.91078 7.62725, 4.85636 7.51209, 4.85141 7.38209, 4.85141 7.33441, 4.85905 7.28897, 4.87345 7.24534, 4.91843 7.078, 5.00615 6.93271, 5.13705 6.81036, 5.26795 6.688, 5.42224 6.61018, 5.59992 6.57599, 5.62961 6.567, 5.66425 6.56205, 5.70383 6.5616, 5.84733 6.56205, 5.97598 6.61738, 6.08934 6.72714 Z" stroke="none" fill="#000000" />
			<path d="M 2.47645 -1.37334 C 2.45982 -1.29777, 2.41851 -1.26024, 2.35201 -1.26049, 2.34647 -1.25495, 2.33261 -1.25218, 2.31044 -1.25243, 2.29684 -1.25218, 2.28576 -1.25495, 2.27719 -1.26049 L 2.23991 -1.26049 C 2.16812 -1.26024, 2.1321 -1.28719, 2.1321 -1.3411 L 2.1321 -1.36931 C 2.16535 -1.56781, 2.18172 -1.75195, 2.18172 -1.92149 L 2.18172 -2.07464 C 2.1651 -2.2812, 2.11874 -2.4593, 2.04267 -2.60843, 1.96659 -2.75756, 1.85525 -2.87293, 1.70864 -2.95505, 1.56204 -3.03692, 1.37663 -3.07798, 1.15244 -3.07823, 1.02246 -3.07798, 0.890459 -3.04976, 0.756194 -2.99334, 0.621929 -2.93691, 0.496733 -2.86033, 0.380353 -2.76385, 0.253393 -2.65881, 0.149609 -2.53991, 0.0692513 -2.40691, -0.0108545 -2.2739, -0.0690444 -2.13762, -0.105067 -1.99806, -0.132776 -1.89831, -0.14789 -1.80309, -0.150913 -1.7119, -0.150913 -1.58544, -0.123204 -1.46453, -0.0677848 -1.34916, 0.0125728 -1.15544, 0.15641 -1.03176, 0.363979 -0.978356 L 1.31844 -0.712345 C 1.49276 -0.660956, 1.64164 -0.579591, 1.76482 -0.468249, 1.888 -0.356656, 1.9807 -0.22491, 2.04292 -0.0732634, 2.10514 0.078635, 2.14167 0.244388, 2.15275 0.424248 L 2.15275 0.496796 C 2.15275 0.652977, 2.13058 0.812684, 2.08625 0.976422, 2.02831 1.20238, 1.93561 1.42003, 1.80815 1.62961, 1.68093 1.83919, 1.52324 2.02737, 1.33507 2.19362, 1.15521 2.34703, 0.958221 2.46996, 0.743599 2.56241, 0.529228 2.65511, 0.314102 2.70146, 0.0982201 2.70146, -0.219935 2.70146, -0.490984 2.65058, -0.715179 2.5483, -0.939374 2.44654, -1.10538 2.31756, -1.21345 2.16138 L -1.6243 2.64907 C -1.66007 2.68408, -1.69761 2.70146, -1.7364 2.70146 L -1.76109 2.70146 C -1.83011 2.70146, -1.86764 2.67476, -1.87318 2.62085, -1.87318 2.60473, -1.8689 2.59012, -1.86084 2.57652 L -1.37945 0.690259 C -1.36282 0.615191, -1.31421 0.576398, -1.2341 0.573375 L -1.14266 0.573375 C -1.10941 0.573627, -1.07918 0.586978, -1.05147 0.61368, -1.04039 0.635344, -1.03485 0.654236, -1.03485 0.670106, -1.03485 0.68119, -1.03762 0.694541, -1.04316 0.710411, -1.09304 0.904125, -1.11797 1.08424, -1.11797 1.25049, -1.11797 1.51676, -1.05273 1.74246, -0.922748 1.92761, -0.715179 2.22612, -0.352688 2.37525, 0.164723 2.37499, 0.294706 2.37525, 0.426955 2.34502, 0.560968 2.28456, 0.695233 2.2241, 0.82043 2.14274, 0.936558 2.04047, 1.06402 1.92257, 1.17108 1.79158, 1.25824 1.64775, 1.3454 1.50416, 1.40989 1.35554, 1.4512 1.20213, 1.47891 1.0787, 1.49276 0.963323, 1.49276 0.855508, 1.49276 0.721495, 1.47488 0.59252, 1.43885 0.468583, 1.35598 0.262021, 1.20232 0.129016, 0.978122 0.0695662 L 0.0359998 -0.196445 C -0.132776 -0.241787, -0.277873 -0.316351, -0.399795 -0.419884, -0.521464 -0.523165, -0.61618 -0.646094, -0.683943 -0.788671, -0.751705 -0.930998, -0.791254 -1.08819, -0.802338 -1.26049 L -0.802338 -1.34916 C -0.802338 -1.48317, -0.785712 -1.62424, -0.752712 -1.77236, -0.694523 -1.98698, -0.601822 -2.19253, -0.47461 -2.38877, -0.347147 -2.58475, -0.189455 -2.75831, -0.00128198 -2.90895, 0.175807 -3.0538, 0.370277 -3.16992, 0.581877 -3.25733, 0.793476 -3.34449, 1.00306 -3.38832, 1.21063 -3.38858, 1.49579 -3.38832, 1.73081 -3.33517, 1.91621 -3.22912, 2.10162 -3.12282, 2.23588 -2.99737, 2.31876 -2.85252 L 2.71727 -3.33215 C 2.73944 -3.36943, 2.77546 -3.38832, 2.82508 -3.38858 L 2.86237 -3.38858 C 2.92887 -3.38832, 2.96212 -3.35608, 2.96212 -3.29184 L 2.96212 -3.2596 Z" stroke="none" fill="#000000" transform="matrix(1.12 0 0 1 9.0015 12.8121)" />
			<path d="M 19.1109 7.12299 C 19.0569 7.26738, 18.9602 7.33935, 18.8216 7.33891 L 17.4433 7.33891, 16.3462 11.5925 C 16.2576 11.9002, 16.2131 12.1687, 16.2131 12.3986, 16.2131 12.4616, 16.218 12.5214, 16.2279 12.5785, 16.2526 12.8093, 16.3687 12.9244, 16.5761 12.924, 16.7641 12.9244, 16.9418 12.8732, 17.11 12.7697, 17.2782 12.6667, 17.4361 12.5286, 17.5841 12.3558, 17.7326 12.1831, 17.8657 11.9793, 17.9845 11.7441, 18.1032 11.5093, 18.2116 11.2619, 18.3106 11.0023, 18.3255 10.9452, 18.3574 10.9034, 18.4069 10.8768, 18.4564 10.8507, 18.5036 10.8372, 18.5477 10.8368 L 18.733 10.8368 C 18.7973 10.8372, 18.8491 10.8638, 18.8886 10.9159, 18.9035 10.9501, 18.9107 10.9812, 18.9107 11.0095 L 18.9107 11.0527 C 18.8072 11.3361, 18.6772 11.6159, 18.5216 11.8916, 18.3659 12.1678, 18.1869 12.4161, 17.9845 12.6365, 17.7821 12.8574, 17.5585 13.0396, 17.3138 13.1831, 17.0691 13.327, 16.7987 13.399, 16.5018 13.399, 16.245 13.399, 16.0228 13.35, 15.8347 13.2515, 15.6472 13.1534, 15.4965 13.0171, 15.3827 12.8417, 15.2693 12.6667, 15.2023 12.4661, 15.1825 12.2402, 15.1726 12.1831, 15.1677 12.1206, 15.1677 12.0531, 15.1677 11.8903, 15.1874 11.7247, 15.227 11.5565 L 16.3165 7.33891, 14.9234 7.33891 C 14.8001 7.33935, 14.7331 7.27458, 14.7232 7.14458 L 14.7232 7.087, 14.7678 6.96465 C 14.8172 6.82115, 14.9086 6.74918, 15.0417 6.74873 L 16.4573 6.74873, 17.065 4.38803 C 17.11 4.21079, 17.2 4.07899, 17.3358 3.99263, 17.4717 3.90626, 17.6089 3.86308, 17.747 3.86263, 17.8905 3.86308, 18.0092 3.90851, 18.1028 3.99937, 18.1671 4.06235, 18.1991 4.14872, 18.1991 4.25848, 18.1991 4.31155, 18.1941 4.36464, 18.1842 4.41681 L 17.5841 6.74873, 18.948 6.74873 C 19.0767 6.74918, 19.1405 6.81395, 19.1405 6.94306 L 19.1405 6.99344 Z" stroke="none" fill="#000000" />
			<rect />
		</svg>
	</g>
	<g transform="matrix(1 0 -0 1 256.413 88.9047)">
		<svg width="30.027689" height="26.9690266">
			<defs />
			<path d="M 8.66169 7.52603 C 8.484 8.19808, 8.2321 8.84628, 7.90552 9.46975, 7.5794 10.0937, 7.19389 10.6595, 6.74901 11.1679, 6.74901 11.4036, 6.75396 11.6316, 6.76386 11.852, 6.77375 12.0729, 6.79625 12.2659, 6.83088 12.4314, 6.86552 12.597, 6.91005 12.7207, 6.96403 12.8021, 7.01846 12.8839, 7.08998 12.9244, 7.17905 12.924, 7.34234 12.9244, 7.49798 12.8597, 7.64642 12.7301, 7.79487 12.6006, 7.89113 12.4445, 7.93521 12.2618, 7.9649 12.1278, 8.05172 12.0608, 8.19476 12.0603 L 8.28383 12.0603 C 8.39764 12.0608, 8.45926 12.1183, 8.46916 12.233 L 8.46916 12.2834 C 8.43452 12.4373, 8.3729 12.5817, 8.28383 12.7157, 8.19476 12.8502, 8.08726 12.969, 7.9613 13.072, 7.83535 13.175, 7.69815 13.2551, 7.54971 13.3126, 7.40172 13.3702, 7.24608 13.399, 7.08279 13.399, 6.65275 13.399, 6.32662 13.2699, 6.10441 13.0108, 5.88219 12.7517, 5.7387 12.4805, 5.67437 12.1971, 5.24434 12.5479, 4.75267 12.8358, 4.19893 13.0612, 3.64564 13.2865, 3.06986 13.399, 2.47159 13.399, 2.03705 13.399, 1.64165 13.3104, 1.28584 13.1332, 0.930025 12.9559, 0.648432 12.7013, 0.440611 12.3698, 0.218396 12.0486, 0.0798484 11.6771, 0.0254191 11.2542, 0.00562662 11.1346, -0.00426966 11.005, -0.00426966 10.8656, -0.00426966 10.5781, 0.0380143 10.2808, 0.121683 9.9731, 0.240437 9.52732, 0.429815 9.09909, 0.688917 8.68884, 0.948468 8.2786, 1.271 7.90794, 1.65605 7.57642, 2.03211 7.26963, 2.43875 7.02627, 2.87599 6.84634, 3.31322 6.66641, 3.74955 6.57645, 4.18409 6.57599, 4.59928 6.57645, 4.96634 6.65472, 5.28482 6.81036, 5.60375 6.96645, 5.8732 7.17652, 6.09316 7.44012, 6.31313 7.70417, 6.47732 8.0123, 6.58618 8.36497, 6.69503 8.71763, 6.74901 9.08829, 6.74901 9.47649 L 6.74901 10.4265 C 7.01126 10.0865, 7.27306 9.65238, 7.53487 9.12428, 7.79667 8.59663, 7.99684 8.05683, 8.13539 7.50444, 8.16508 7.37039, 8.25189 7.30112, 8.39494 7.29572 L 8.46916 7.29572 C 8.59781 7.29617, 8.66169 7.35375, 8.66169 7.46846 L 8.66169 7.52603 Z M 5.57766 11.6861 C 5.57316 11.6528, 5.56821 11.6028, 5.56326 11.5354, 5.55832 11.4683, 5.55562 11.4009, 5.55562 11.3334 L 5.55562 9.714 C 5.55562 9.36404, 5.53223 9.02981, 5.48544 8.71043, 5.43866 8.39151, 5.36174 8.10721, 5.25558 7.85756, 5.14942 7.60835, 5.00323 7.41268, 4.8179 7.27098, 4.63257 7.12973, 4.39191 7.05866, 4.09502 7.05821, 3.81838 7.05866, 3.53903 7.13198, 3.25744 7.27818, 2.97585 7.42482, 2.72394 7.625, 2.50128 7.8787, 2.22463 8.18638, 2.01321 8.52106, 1.86747 8.88317, 1.72172 9.24573, 1.59937 9.62089, 1.50041 10.0091, 1.4019 10.3932, 1.33037 10.763, 1.28539 11.1175, 1.27549 11.2092, 1.27055 11.3001, 1.27055 11.391, 1.27055 11.6456, 1.31283 11.8903, 1.39695 12.1251, 1.49096 12.3653, 1.63671 12.5587, 1.83418 12.7049, 2.03211 12.8516, 2.26917 12.9244, 2.54581 12.924, 3.1045 12.9244, 3.64204 12.8142, 4.15845 12.5934, 4.67485 12.3729, 5.14807 12.0702, 5.57766 11.6861 Z" stroke="none" fill="#000000" />
			<rect />
		</svg>
	</g>
</svg>
